<svg width="43" height="37" viewBox="0 0 43 37" fill="none" xmlns="http://www.w3.org/2000/svg">
<path d="M23.0677 6.11073C23.9187 5.53268 24.4861 4.48394 24.4861 3.30308C24.4861 1.47811 23.1498 -3.05176e-05 21.5 -3.05176e-05C19.8502 -3.05176e-05 18.5139 1.47811 18.5139 3.30308C18.5139 4.4922 19.0812 5.53268 19.9323 6.11073L15.6547 15.5741C14.9753 17.0771 13.2135 17.5065 12.0266 16.4577L5.375 10.5699C5.74826 10.0167 5.97222 9.33126 5.97222 8.58806C5.97222 6.76309 4.63594 5.28495 2.98611 5.28495C1.33628 5.28495 0 6.76309 0 8.58806C0 10.413 1.33628 11.8912 2.98611 11.8912C3.00104 11.8912 3.02344 11.8912 3.03837 11.8912L6.45 32.6512C6.86059 35.1616 8.83889 36.9948 11.1531 36.9948H31.8469C34.1536 36.9948 36.1319 35.1699 36.55 32.6512L39.9616 11.8912C39.9766 11.8912 39.999 11.8912 40.0139 11.8912C41.6637 11.8912 43 10.413 43 8.58806C43 6.76309 41.6637 5.28495 40.0139 5.28495C38.3641 5.28495 37.0278 6.76309 37.0278 8.58806C37.0278 9.33126 37.2517 10.0167 37.625 10.5699L30.9734 16.4577C29.7865 17.5065 28.0247 17.0771 27.3453 15.5741L23.0677 6.11073Z" fill="#FED550"/>
</svg>
