<svg width="380" height="479" viewBox="0 0 380 479" fill="none" xmlns="http://www.w3.org/2000/svg">
<rect x="3" y="8" width="371" height="468" rx="57" fill="#FDFAF5" stroke="#1F8D61" stroke-width="6"/>
<mask id="mask0_1644_9087" style="mask-type:alpha" maskUnits="userSpaceOnUse" x="6" y="0" width="365" height="474">
<rect x="9" y="3" width="359" height="468" rx="57" fill="#FDFAF5" stroke="#1F8D61" stroke-width="6"/>
</mask>
<g mask="url(#mask0_1644_9087)">
<path fill-rule="evenodd" clip-rule="evenodd" d="M-94.872 272.585C-94.9148 272.53 -94.9574 272.476 -95 272.421C-91.6161 268.634 -87.9043 265.075 -83.8678 261.784C-39.6313 225.714 26.8628 235.443 64.6509 283.515C64.8815 283.808 65.1105 284.102 65.3378 284.397C107.928 261.819 157.971 264.877 193.131 292.089C243.347 276.346 291.836 281.658 322.282 309.261C368.87 279.681 418.722 272.65 448.725 291.174C451.538 288.08 454.651 285.122 458.047 282.352C480.832 263.774 531.375 260.967 554.599 272.8L374.566 419.598V519.835H251.635L205.417 557.52C179.735 578.461 142.315 574.318 121.836 548.266L99.4868 519.835H0.476105V393.88L-94.872 272.585Z" fill="#CADFBC"/>
</g>
<path d="M116.805 355.969C117.959 350.839 121.242 347.086 125.911 345.054C131.57 342.591 137.512 340.579 143.518 339.077C152.888 336.733 158.874 331.218 161.992 322.468C162.094 322.182 162.262 321.918 162.602 321.371C164.674 320.418 166.543 319.739 168.645 318.975C169.165 321.11 169.649 323.097 170.307 325.798C172.049 324.354 173.49 323.159 175.119 322.016C175.34 324.386 175.633 326.736 175.358 329.022C174.36 337.337 171.61 345.061 166.598 351.936C158.928 362.456 148.502 367.134 135.292 366.071C127.802 365.468 121.851 362.479 117.906 356.067C117.794 355.886 117.183 355.996 116.805 355.969ZM146.99 343.624C144.655 344.402 142.343 345.257 139.979 345.94C136.699 346.887 133.343 347.594 130.089 348.613C127.709 349.36 126.592 351.229 126.527 353.645C126.458 356.139 127.621 357.954 129.828 359.192C132.899 360.914 136.164 360.842 139.558 360.502C146.746 359.781 156.109 352.697 158.075 345.918C158.538 344.324 158.423 341.878 157.448 340.745C156.08 339.156 153.753 339.991 151.908 340.948C151.768 341.021 151.646 341.129 151.507 341.205C150.11 341.961 148.711 342.715 146.99 343.624Z" fill="#61286B"/>
<path d="M116.654 356.092C117.181 355.995 117.792 355.886 117.904 356.067C121.849 362.479 127.8 365.468 135.291 366.071C148.5 367.134 158.926 362.456 166.596 351.936C171.608 345.061 174.358 337.337 175.357 329.021C175.631 326.736 175.339 324.386 175.143 321.834C175.022 320.498 175.221 319.913 176.684 320.392C180.375 321.601 180.9 322.186 180.834 325.991C180.822 326.685 180.837 327.38 180.84 328.075C180.583 330.164 180.327 332.253 179.88 334.571C179.512 335.877 179.335 336.954 179.157 338.031C179.157 338.031 179.12 338.246 178.959 338.463C178.586 339.87 178.374 341.059 178.163 342.248C178.163 342.248 178.127 342.452 177.985 342.641C177.78 343.1 177.719 343.37 177.657 343.64C177.657 343.64 177.621 343.85 177.481 344.042C177.279 344.502 177.218 344.77 177.157 345.038C177.157 345.038 177.122 345.25 176.983 345.442C176.782 345.901 176.72 346.167 176.659 346.434C176.659 346.434 176.62 346.649 176.482 346.845C176.284 347.307 176.225 347.573 176.165 347.84C176.165 347.84 176.13 348.05 175.993 348.235C175.792 348.674 175.727 348.928 175.662 349.181C175.662 349.181 175.642 349.169 175.523 349.261C175.329 349.625 175.253 349.897 175.177 350.169C175.177 350.169 175.141 350.381 175.004 350.566C174.803 351.004 174.739 351.256 174.675 351.508C174.675 351.508 174.659 351.51 174.539 351.592C174.341 351.929 174.262 352.186 174.184 352.442C174.184 352.442 174.165 352.438 174.047 352.521C173.85 352.86 173.771 353.117 173.691 353.374C173.691 353.374 173.672 353.369 173.555 353.453C173.358 353.793 173.279 354.051 173.199 354.308C173.199 354.308 173.177 354.295 173.062 354.381C172.868 354.725 172.787 354.984 172.707 355.242C172.707 355.242 172.692 355.228 172.582 355.291C172.382 355.486 172.292 355.617 172.202 355.748C171.001 357.533 169.8 359.317 168.342 361.264C167.997 361.685 167.909 361.944 167.822 362.202C167.822 362.202 167.815 362.224 167.701 362.271C167.457 362.406 167.372 362.524 167.33 362.671C167.33 362.671 167.319 362.681 167.21 362.731C166.972 362.869 166.886 362.987 166.843 363.136C166.843 363.136 166.83 363.142 166.723 363.193C166.486 363.333 166.399 363.451 166.356 363.6C166.356 363.6 166.341 363.602 166.236 363.654C166 363.796 165.913 363.915 165.869 364.065C165.869 364.065 165.852 364.061 165.749 364.116C165.514 364.259 165.427 364.379 165.382 364.528C165.382 364.528 165.364 364.522 165.262 364.578C165.028 364.722 164.94 364.842 164.896 364.992C164.896 364.992 164.877 364.985 164.775 365.04C164.542 365.185 164.454 365.305 164.41 365.455C164.41 365.455 164.391 365.447 164.289 365.503C164.056 365.648 163.968 365.768 163.923 365.918C163.923 365.918 163.904 365.91 163.803 365.966C163.57 366.111 163.482 366.231 163.438 366.381C163.438 366.381 163.419 366.374 163.317 366.429C163.084 366.574 162.996 366.693 162.952 366.843C162.952 366.843 162.934 366.838 162.832 366.893C162.598 367.036 162.51 367.156 162.466 367.306C162.466 367.306 162.45 367.303 162.347 367.356C162.113 367.497 162.026 367.616 161.983 367.765C161.983 367.765 161.972 367.775 161.863 367.824C161.624 367.961 161.538 368.079 161.497 368.228C161.497 368.228 161.486 368.238 161.377 368.288C161.138 368.425 161.052 368.544 161.01 368.692C161.01 368.692 161.002 368.709 160.81 368.699C159.944 369.154 159.27 369.62 158.595 370.086C158.595 370.086 158.589 370.072 158.479 370.124C158.235 370.266 158.146 370.386 158.102 370.537C158.102 370.537 158.083 370.533 157.984 370.579C157.752 370.699 157.657 370.803 157.599 370.94C157.599 370.94 157.395 370.994 157.174 371.044C156.851 371.215 156.749 371.336 156.648 371.457C156.648 371.457 156.635 371.463 156.491 371.47C156.124 371.626 155.901 371.775 155.678 371.924C155.678 371.924 155.656 371.912 155.519 371.923C155.158 372.084 154.934 372.233 154.711 372.383C154.711 372.383 154.686 372.368 154.551 372.379C154.192 372.541 153.967 372.691 153.743 372.841C153.743 372.841 153.723 372.816 153.629 372.867C153.402 372.99 153.306 373.094 153.246 373.231C153.246 373.231 153.042 373.286 152.823 373.329C152.457 373.439 152.348 373.545 152.28 373.689C152.28 373.689 152.073 373.744 151.817 373.754C151.322 373.913 151.083 374.062 150.844 374.21C150.844 374.21 150.823 374.202 150.689 374.209C150.326 374.346 150.097 374.477 149.868 374.607C149.868 374.607 149.659 374.657 149.373 374.654C148.384 374.931 147.682 375.212 146.979 375.493C146.979 375.493 146.762 375.548 146.442 375.549C140.929 375.812 135.735 376.074 130.542 376.336C130.542 376.336 130.315 376.295 130.093 376.154C129.456 375.957 129.039 375.902 128.623 375.847C128.623 375.847 128.4 375.81 128.198 375.674C127.723 375.484 127.449 375.429 127.175 375.374C127.175 375.374 126.96 375.336 126.773 375.201C126.326 375.002 126.066 374.938 125.807 374.874C125.807 374.874 125.791 374.867 125.712 374.744C125.373 374.546 125.113 374.47 124.853 374.395C124.853 374.395 124.833 374.39 124.755 374.265C124.416 374.065 124.156 373.991 123.895 373.916C123.895 373.916 123.871 373.909 123.824 373.796C123.686 373.557 123.565 373.475 123.413 373.435C123.413 373.435 123.41 373.419 123.328 373.304C122.986 373.114 122.726 373.038 122.465 372.962C122.465 372.962 122.439 372.956 122.392 372.843C122.256 372.604 122.135 372.521 121.984 372.482C121.984 372.482 121.969 372.473 121.919 372.365C121.78 372.131 121.658 372.047 121.506 372.007C121.506 372.007 121.498 371.996 121.446 371.89C121.304 371.657 121.183 371.574 121.03 371.532C121.03 371.532 121.025 371.52 120.963 371.412C120.762 371.231 120.623 371.158 120.483 371.086C116.755 367.919 115.814 363.821 116.296 359.239C116.402 358.235 116.438 357.223 116.654 356.092Z" fill="#572362"/>
<path d="M180.949 327.929C180.839 327.38 180.824 326.685 180.836 325.991C180.901 322.186 180.376 321.601 176.685 320.392C175.223 319.913 175.023 320.498 174.956 321.784C173.489 323.159 172.049 324.354 170.307 325.798C169.649 323.097 169.165 321.11 168.645 318.975C166.543 319.739 164.674 320.418 162.678 321.21C162.219 320.896 161.886 320.469 161.5 319.975C164.198 317.014 165.874 312.994 171.105 312.52C170.301 311.382 169.59 310.662 169.248 309.803C168.956 309.068 168.712 307.829 169.108 307.419C169.996 306.5 171.897 306.17 172.175 307.555C172.942 311.371 175.874 312.977 178.624 315.095C181.571 317.364 182.376 320.64 181.273 324.296C180.944 325.385 181.114 326.618 180.949 327.929Z" fill="#3EA343"/>
<path d="M130.669 376.486C135.737 376.074 140.93 375.813 146.333 375.566C142.428 377.043 138.208 377.585 133.851 376.985C132.836 376.845 131.814 376.752 130.669 376.486Z" fill="#61286B"/>
<path d="M178.307 342.133C178.375 341.059 178.586 339.87 178.929 338.568C178.857 339.643 178.653 340.831 178.307 342.133Z" fill="#61286B"/>
<path d="M179.305 337.923C179.337 336.955 179.514 335.878 179.865 334.753C179.843 335.741 179.648 336.778 179.305 337.923Z" fill="#61286B"/>
<path d="M158.757 370.076C159.27 369.62 159.944 369.154 160.802 368.703C160.297 369.167 159.608 369.616 158.757 370.076Z" fill="#61286B"/>
<path d="M147.152 375.52C147.683 375.212 148.386 374.931 149.268 374.666C148.739 374.97 148.031 375.259 147.152 375.52Z" fill="#61286B"/>
<path d="M128.716 375.98C129.039 375.902 129.456 375.957 129.982 376.123C129.665 376.194 129.237 376.153 128.716 375.98Z" fill="#61286B"/>
<path d="M122.521 373.093C122.727 373.038 122.988 373.114 123.322 373.306C123.122 373.356 122.849 373.289 122.521 373.093Z" fill="#61286B"/>
<path d="M150.995 374.204C151.085 374.062 151.324 373.913 151.713 373.769C151.623 373.914 151.384 374.055 150.995 374.204Z" fill="#61286B"/>
<path d="M123.947 374.049C124.156 373.991 124.416 374.066 124.75 374.257C124.548 374.309 124.273 374.245 123.947 374.049Z" fill="#61286B"/>
<path d="M150.015 374.626C150.099 374.477 150.327 374.346 150.695 374.219C150.61 374.363 150.385 374.505 150.015 374.626Z" fill="#61286B"/>
<path d="M125.867 375.005C126.068 374.938 126.328 375.002 126.67 375.171C126.477 375.23 126.201 375.183 125.867 375.005Z" fill="#61286B"/>
<path d="M124.91 374.525C125.115 374.47 125.375 374.546 125.709 374.737C125.51 374.787 125.238 374.721 124.91 374.525Z" fill="#61286B"/>
<path d="M127.256 375.496C127.45 375.429 127.723 375.484 128.089 375.645C127.899 375.707 127.617 375.663 127.256 375.496Z" fill="#61286B"/>
<path d="M172.839 355.18C172.789 354.984 172.869 354.725 173.07 354.392C173.116 354.584 173.042 354.851 172.839 355.18Z" fill="#61286B"/>
<path d="M176.785 346.357C176.721 346.167 176.782 345.901 176.954 345.545C177.013 345.731 176.962 346.005 176.785 346.357Z" fill="#61286B"/>
<path d="M176.29 347.762C176.225 347.574 176.284 347.307 176.451 346.95C176.511 347.135 176.463 347.409 176.29 347.762Z" fill="#61286B"/>
<path d="M175.794 349.121C175.727 348.928 175.792 348.674 175.964 348.338C176.023 348.523 175.974 348.792 175.794 349.121Z" fill="#61286B"/>
<path d="M175.304 350.092C175.254 349.897 175.33 349.625 175.529 349.272C175.578 349.465 175.504 349.74 175.304 350.092Z" fill="#61286B"/>
<path d="M174.805 351.447C174.74 351.256 174.804 351.004 174.975 350.67C175.033 350.854 174.984 351.12 174.805 351.447Z" fill="#61286B"/>
<path d="M174.318 352.386C174.264 352.186 174.342 351.929 174.54 351.599C174.59 351.794 174.52 352.062 174.318 352.386Z" fill="#61286B"/>
<path d="M173.822 353.314C173.771 353.117 173.85 352.861 174.05 352.531C174.097 352.723 174.025 352.989 173.822 353.314Z" fill="#61286B"/>
<path d="M173.332 354.249C173.281 354.051 173.36 353.794 173.56 353.462C173.607 353.655 173.535 353.922 173.332 354.249Z" fill="#61286B"/>
<path d="M167.955 362.144C167.91 361.944 167.998 361.685 168.212 361.358C168.254 361.555 168.17 361.821 167.955 362.144Z" fill="#61286B"/>
<path d="M153.889 372.834C153.968 372.691 154.193 372.541 154.56 372.391C154.481 372.536 154.258 372.681 153.889 372.834Z" fill="#61286B"/>
<path d="M177.783 343.561C177.719 343.37 177.78 343.1 177.954 342.74C178.013 342.928 177.961 343.205 177.783 343.561Z" fill="#61286B"/>
<path d="M177.283 344.96C177.219 344.77 177.28 344.502 177.451 344.145C177.511 344.331 177.46 344.607 177.283 344.96Z" fill="#61286B"/>
<path d="M155.825 371.918C155.903 371.775 156.126 371.626 156.491 371.477C156.413 371.622 156.191 371.767 155.825 371.918Z" fill="#61286B"/>
<path d="M154.858 372.377C154.936 372.234 155.16 372.084 155.527 371.934C155.448 372.08 155.226 372.225 154.858 372.377Z" fill="#61286B"/>
<path d="M165.012 364.958C164.942 364.842 165.03 364.722 165.266 364.587C165.354 364.707 165.272 364.835 165.012 364.958Z" fill="#61286B"/>
<path d="M165.499 364.495C165.429 364.379 165.516 364.26 165.752 364.124C165.84 364.245 165.759 364.373 165.499 364.495Z" fill="#61286B"/>
<path d="M165.985 364.032C165.915 363.916 166.002 363.797 166.237 363.662C166.326 363.783 166.245 363.911 165.985 364.032Z" fill="#61286B"/>
<path d="M166.472 363.568C166.401 363.451 166.488 363.333 166.721 363.199C166.812 363.321 166.732 363.448 166.472 363.568Z" fill="#61286B"/>
<path d="M166.959 363.104C166.887 362.987 166.973 362.869 167.207 362.736C167.298 362.858 167.219 362.985 166.959 363.104Z" fill="#61286B"/>
<path d="M167.445 362.641C167.373 362.524 167.459 362.406 167.691 362.274C167.784 362.396 167.705 362.523 167.445 362.641Z" fill="#61286B"/>
<path d="M172.318 355.7C172.293 355.617 172.383 355.486 172.583 355.302C172.607 355.383 172.52 355.517 172.318 355.7Z" fill="#61286B"/>
<path d="M164.526 365.421C164.456 365.305 164.544 365.185 164.78 365.05C164.868 365.17 164.786 365.298 164.526 365.421Z" fill="#61286B"/>
<path d="M156.767 371.425C156.75 371.337 156.852 371.215 157.07 371.058C157.087 371.145 156.986 371.268 156.767 371.425Z" fill="#61286B"/>
<path d="M157.719 370.932C157.659 370.803 157.755 370.699 157.989 370.588C158.076 370.72 157.992 370.844 157.719 370.932Z" fill="#61286B"/>
<path d="M158.218 370.505C158.147 370.386 158.235 370.266 158.474 370.13C158.498 370.213 158.416 370.343 158.218 370.505Z" fill="#61286B"/>
<path d="M161.125 368.662C161.053 368.543 161.139 368.425 161.372 368.293C161.465 368.416 161.387 368.543 161.125 368.662Z" fill="#61286B"/>
<path d="M161.614 368.199C161.541 368.079 161.626 367.961 161.86 367.83C161.955 367.954 161.877 368.082 161.614 368.199Z" fill="#61286B"/>
<path d="M162.099 367.734C162.028 367.616 162.115 367.498 162.35 367.365C162.44 367.487 162.36 367.615 162.099 367.734Z" fill="#61286B"/>
<path d="M162.583 367.274C162.512 367.156 162.6 367.037 162.836 366.902C162.925 367.024 162.844 367.152 162.583 367.274Z" fill="#61286B"/>
<path d="M163.067 366.81C162.997 366.694 163.085 366.574 163.321 366.439C163.409 366.56 163.327 366.688 163.067 366.81Z" fill="#61286B"/>
<path d="M163.553 366.347C163.483 366.231 163.571 366.111 163.808 365.975C163.895 366.096 163.813 366.224 163.553 366.347Z" fill="#61286B"/>
<path d="M164.039 365.884C163.97 365.768 164.058 365.648 164.294 365.512C164.381 365.633 164.299 365.761 164.039 365.884Z" fill="#61286B"/>
<path d="M123.443 373.548C123.567 373.475 123.688 373.558 123.823 373.784C123.694 373.882 123.561 373.807 123.443 373.548Z" fill="#61286B"/>
<path d="M152.403 373.68C152.349 373.544 152.458 373.439 152.719 373.343C152.73 373.432 152.627 373.551 152.403 373.68Z" fill="#61286B"/>
<path d="M153.365 373.222C153.306 373.095 153.402 372.99 153.638 372.879C153.723 373.009 153.637 373.133 153.365 373.222Z" fill="#61286B"/>
<path d="M122.013 372.595C122.137 372.522 122.258 372.604 122.392 372.83C122.262 372.928 122.131 372.853 122.013 372.595Z" fill="#61286B"/>
<path d="M121.537 372.12C121.66 372.047 121.781 372.131 121.917 372.358C121.788 372.453 121.656 372.378 121.537 372.12Z" fill="#61286B"/>
<path d="M121.06 371.645C121.183 371.574 121.304 371.658 121.441 371.886C121.312 371.98 121.18 371.903 121.06 371.645Z" fill="#61286B"/>
<path d="M120.543 371.189C120.624 371.159 120.763 371.231 120.958 371.409C120.876 371.44 120.739 371.366 120.543 371.189Z" fill="#61286B"/>
<path d="M147.151 343.546C148.711 342.715 150.11 341.961 151.507 341.205C151.646 341.129 151.767 341.021 151.908 340.948C153.752 339.991 156.08 339.156 157.447 340.745C158.423 341.878 158.538 344.324 158.075 345.918C156.108 352.697 146.745 359.781 139.558 360.502C136.164 360.842 132.899 360.914 129.828 359.192C127.621 357.954 126.458 356.139 126.526 353.645C126.592 351.229 127.708 349.359 130.089 348.613C133.343 347.594 136.699 346.887 139.979 345.94C142.343 345.257 144.655 344.402 147.151 343.546Z" fill="#8E3893"/>
<path d="M344.168 424.524C343.203 426.112 344.128 426.689 342.984 428.232C342.022 428.02 339.233 428.658 338.165 428.27C335.755 427.451 333.572 426.749 331.461 425.956C331.633 425.742 331.731 425.62 331.949 425.477C334.316 425.896 336.565 426.335 339.154 426.841C338.308 425.465 337.799 424.302 336.986 423.419C336.301 422.675 335.268 422.249 334.378 421.699C334.187 421.581 333.956 421.491 333.734 421.466C331.926 421.258 330.116 421.068 328.306 420.873C328.306 420.873 328.32 420.872 328.375 420.807C328.215 420.618 327.999 420.494 327.783 420.37C327.215 420.039 326.3 419.825 326.142 419.356C325.615 417.789 324.835 416.023 325.141 414.537C325.474 412.918 326.91 411.525 328.084 409.989C328.425 409.938 328.53 409.894 328.62 409.812C328.62 409.812 328.61 409.83 328.709 409.914C329.443 410.195 330.077 410.392 330.712 410.588C330.712 410.588 330.701 410.606 330.782 410.621C330.977 410.6 331.091 410.565 331.206 410.529C331.206 410.529 331.192 410.547 331.308 410.637C331.994 411.184 332.565 411.64 333.135 412.097C333.135 412.097 333.115 412.088 333.102 412.141C333.095 412.236 333.091 412.307 333.109 412.314C333.184 412.34 333.266 412.347 333.345 412.361C333.714 412.418 334.083 412.476 334.638 412.58C334.252 414.124 333.72 415.616 335.366 416.827C334.985 419.392 337.574 420.102 338.498 421.974C339.746 423.362 341 424.625 342.254 425.887C342.385 425.769 342.516 425.65 342.646 425.532C342.21 424.727 341.775 423.921 341.357 423.004C340.607 420.198 339.35 417.617 339.394 414.719C339.815 415.118 339.986 415.595 340.2 416.051C341.208 418.201 342.229 420.345 343.245 422.491C343.533 423.134 343.822 423.777 344.168 424.524Z" fill="#6FB242"/>
<path d="M343.275 422.37C342.23 420.345 341.209 418.201 340.2 416.051C339.986 415.595 339.816 415.118 339.395 414.719C339.35 417.616 340.607 420.197 341.237 422.935C340.234 422.602 339.369 422.225 338.504 421.848C337.574 420.102 334.986 419.392 335.367 416.827C333.721 415.616 334.252 414.124 334.741 412.525C334.656 412.423 334.653 412.421 334.67 412.336C334.688 412.131 334.65 412.024 334.574 411.932C334.672 411.453 334.605 410.774 334.898 410.529C336.034 409.582 337.241 408.698 338.52 407.961C338.875 407.757 339.657 408.002 340.093 408.277C342.405 409.737 343.439 411.808 343.868 414.596C344.281 417.288 343.481 419.706 343.275 422.37Z" fill="#8DC865"/>
<path d="M331.389 426.048C333.572 426.749 335.756 427.451 338.046 428.235C335.198 430.027 332.15 430.283 328.77 429.605C327.09 429.267 326.14 428.216 324.903 427.442C324.497 427.188 324.097 426.192 324.281 425.853C325.264 424.039 325.235 421.336 328.225 420.975C330.116 421.068 331.927 421.258 333.735 421.466C333.956 421.491 334.187 421.581 334.378 421.699C335.268 422.249 336.302 422.675 336.987 423.419C337.8 424.302 338.308 425.465 339.155 426.841C336.565 426.335 334.317 425.896 331.845 425.414C330.888 425.339 330.153 425.307 329.419 425.275C329.412 425.437 329.406 425.599 329.399 425.761C330.062 425.857 330.725 425.953 331.389 426.048Z" fill="#8DC865"/>
<path d="M333.154 411.974C332.565 411.641 331.994 411.184 331.303 410.628C332.359 410.197 332.692 411.135 333.154 411.974Z" fill="#3D8335"/>
<path d="M338.497 421.973C339.368 422.225 340.234 422.602 341.219 423.048C341.775 423.921 342.21 424.726 342.646 425.531C342.515 425.65 342.385 425.768 342.254 425.887C341 424.624 339.746 423.361 338.497 421.973Z" fill="#8DC865"/>
<path d="M331.462 425.956C330.726 425.952 330.062 425.857 329.399 425.761C329.406 425.599 329.413 425.437 329.419 425.274C330.153 425.306 330.888 425.338 331.726 425.434C331.731 425.62 331.633 425.742 331.462 425.956Z" fill="#01883E"/>
<path d="M256.407 338.327C254.672 337.661 254.27 338.674 252.547 337.825C252.584 336.84 251.457 334.21 251.648 333.09C252.024 330.572 252.324 328.299 252.728 326.08C252.969 326.211 253.107 326.286 253.286 326.474C253.297 328.879 253.267 331.169 253.232 333.808C254.435 332.729 255.488 332.021 256.212 331.063C256.821 330.256 257.055 329.163 257.437 328.189C257.519 327.981 257.566 327.737 257.552 327.515C257.433 325.698 257.296 323.883 257.165 322.068C257.165 322.068 257.169 322.082 257.243 322.124C257.4 321.932 257.483 321.698 257.566 321.464C257.791 320.845 257.838 319.907 258.272 319.668C259.719 318.869 261.317 317.786 262.834 317.821C264.487 317.86 266.113 319.024 267.834 319.905C267.946 320.231 268.008 320.327 268.104 320.401C268.104 320.401 268.085 320.394 268.02 320.506C267.875 321.278 267.795 321.938 267.714 322.597C267.714 322.597 267.695 322.589 267.695 322.672C267.75 322.86 267.805 322.967 267.861 323.073C267.861 323.073 267.841 323.063 267.773 323.192C267.357 323.965 267.01 324.608 266.663 325.251C266.663 325.251 266.668 325.23 266.614 325.227C266.519 325.237 266.448 325.245 266.445 325.265C266.432 325.343 266.44 325.424 266.44 325.505C266.45 325.878 266.46 326.251 266.456 326.817C264.868 326.712 263.305 326.455 262.408 328.292C259.816 328.375 259.58 331.049 257.903 332.292C256.761 333.769 255.742 335.228 254.724 336.688C254.864 336.795 255.004 336.902 255.144 337.01C255.858 336.437 256.572 335.865 257.4 335.289C260.028 334.05 262.343 332.352 265.201 331.878C264.884 332.363 264.445 332.616 264.034 332.909C262.1 334.285 260.172 335.672 258.243 337.056C257.661 337.454 257.08 337.853 256.407 338.327Z" fill="#6FB242"/>
<path d="M258.366 337.062C260.172 335.672 262.099 334.285 264.034 332.908C264.445 332.616 264.883 332.363 265.201 331.878C262.342 332.352 260.027 334.049 257.446 335.158C257.594 334.112 257.811 333.193 258.027 332.275C259.58 331.048 259.816 328.375 262.408 328.291C263.305 326.455 264.868 326.711 266.528 326.906C266.613 326.804 266.614 326.801 266.702 326.803C266.907 326.784 267.004 326.728 267.082 326.636C267.571 326.647 268.226 326.46 268.52 326.705C269.654 327.653 270.74 328.683 271.693 329.809C271.958 330.122 271.857 330.935 271.664 331.414C270.641 333.95 268.787 335.337 266.121 336.257C263.546 337.144 261.024 336.789 258.366 337.062Z" fill="#8DC865"/>
<path d="M252.624 326.025C252.324 328.298 252.024 330.572 251.662 332.966C249.39 330.484 248.593 327.531 248.657 324.084C248.689 322.37 249.554 321.247 250.094 319.892C250.272 319.448 251.18 318.876 251.546 318.996C253.507 319.64 256.161 319.128 257.05 322.005C257.297 323.883 257.434 325.698 257.552 327.514C257.567 327.737 257.519 327.98 257.437 328.189C257.056 329.163 256.821 330.256 256.212 331.063C255.488 332.02 254.435 332.729 253.232 333.807C253.267 331.169 253.297 328.879 253.33 326.361C253.233 325.405 253.133 324.677 253.033 323.949C252.872 323.971 252.712 323.994 252.551 324.016C252.575 324.686 252.6 325.355 252.624 326.025Z" fill="#8DC865"/>
<path d="M266.788 325.247C267.01 324.608 267.357 323.965 267.782 323.185C268.393 324.147 267.531 324.643 266.788 325.247Z" fill="#3D8335"/>
<path d="M257.904 332.292C257.812 333.194 257.595 334.113 257.333 335.162C256.573 335.865 255.858 336.437 255.144 337.01C255.004 336.902 254.864 336.795 254.724 336.688C255.742 335.228 256.761 333.769 257.904 332.292Z" fill="#8DC865"/>
<path d="M252.729 326.08C252.601 325.355 252.576 324.686 252.552 324.017C252.712 323.994 252.873 323.971 253.034 323.949C253.134 324.677 253.233 325.405 253.289 326.247C253.107 326.286 252.97 326.211 252.729 326.08Z" fill="#01883E"/>
<path d="M46.0744 143.086C44.2165 143.151 44.2418 144.241 42.3245 144.131C41.9741 143.21 39.9102 141.228 39.649 140.123C39.0124 137.658 38.4011 135.448 37.9068 133.248C38.1798 133.274 38.3357 133.289 38.5744 133.393C39.5234 135.602 40.3894 137.723 41.3869 140.165C42.0733 138.703 42.7666 137.64 43.0591 136.476C43.3054 135.495 43.0945 134.397 43.0659 133.351C43.0598 133.127 43.0084 132.885 42.9082 132.685C42.0902 131.059 41.2556 129.442 40.4261 127.822C40.4261 127.822 40.435 127.833 40.5196 127.843C40.5895 127.605 40.5746 127.357 40.5597 127.109C40.525 126.452 40.2025 125.569 40.5082 125.18C41.529 123.88 42.5775 122.259 43.9877 121.699C45.5245 121.09 47.4767 121.527 49.4049 121.666C49.6346 121.923 49.7297 121.987 49.8473 122.017C49.8473 122.017 49.827 122.018 49.8109 122.147C49.9783 122.915 50.1618 123.553 50.3453 124.192C50.3453 124.192 50.3244 124.192 50.3564 124.268C50.4808 124.42 50.5733 124.496 50.6657 124.572C50.6657 124.572 50.6438 124.571 50.6312 124.717C50.5502 125.59 50.4819 126.318 50.4136 127.045C50.4136 127.045 50.4094 127.024 50.3583 127.042C50.2755 127.088 50.2132 127.124 50.2178 127.143C50.2363 127.22 50.2756 127.292 50.3072 127.366C50.4618 127.706 50.6163 128.046 50.834 128.567C49.3309 129.091 47.7918 129.465 47.6823 131.506C45.3285 132.594 46.1547 135.148 45.0964 136.947C44.6206 138.752 44.2525 140.494 43.8846 142.235C44.0554 142.279 44.2262 142.323 44.3969 142.367C44.831 141.561 45.2652 140.755 45.803 139.902C47.7381 137.736 49.2068 135.269 51.6537 133.718C51.5509 134.288 51.2458 134.692 50.9817 135.122C49.7376 137.144 48.5048 139.173 47.2679 141.2C46.8884 141.794 46.5089 142.388 46.0744 143.086Z" fill="#6FB242"/>
<path d="M47.3848 141.158C48.5051 139.173 49.7379 137.144 50.982 135.121C51.2461 134.692 51.5512 134.288 51.654 133.717C49.2071 135.269 47.7384 137.736 45.7947 139.764C45.5232 138.743 45.3638 137.813 45.2045 136.882C46.155 135.147 45.3288 132.593 47.6826 131.505C47.7921 129.464 49.3312 129.091 50.936 128.622C50.9745 128.495 50.9741 128.491 51.0553 128.459C51.2365 128.361 51.3045 128.271 51.3402 128.157C51.7948 127.976 52.3247 127.548 52.6907 127.659C54.1054 128.089 55.5067 128.613 56.8244 129.278C57.1904 129.463 57.4144 130.251 57.4234 130.767C57.4712 133.501 56.3064 135.502 54.2101 137.39C52.1864 139.212 49.7253 139.869 47.3848 141.158Z" fill="#8DC865"/>
<path d="M37.7902 133.237C38.4015 135.447 39.0128 137.658 39.6133 140.003C36.5524 138.605 34.6668 136.197 33.3802 132.998C32.7406 131.408 33.0987 130.037 33.0674 128.578C33.0572 128.1 33.6702 127.219 34.0541 127.187C36.1105 127.014 38.3547 125.507 40.2964 127.809C41.256 129.441 42.0906 131.059 42.9086 132.685C43.0088 132.884 43.0602 133.127 43.0663 133.351C43.0949 134.396 43.3058 135.494 43.0594 136.475C42.767 137.639 42.0736 138.703 41.3873 140.165C40.3898 137.722 39.5238 135.602 38.5711 133.271C38.1085 132.429 37.7324 131.797 37.3564 131.166C37.2172 131.249 37.0779 131.333 36.9387 131.416C37.2225 132.023 37.5064 132.63 37.7902 133.237Z" fill="#8DC865"/>
<path d="M50.5268 126.993C50.4823 126.318 50.5506 125.59 50.637 124.707C51.576 125.354 50.9751 126.147 50.5268 126.993Z" fill="#3D8335"/>
<path d="M45.0965 136.947C45.3636 137.813 45.523 138.743 45.6908 139.812C45.2653 140.755 44.8311 141.561 44.397 142.367C44.2262 142.323 44.0554 142.279 43.8846 142.235C44.2526 140.494 44.6206 138.752 45.0965 136.947Z" fill="#8DC865"/>
<path d="M37.9057 133.247C37.5048 132.63 37.221 132.023 36.9372 131.416C37.0764 131.333 37.2157 131.249 37.3549 131.166C37.7309 131.797 38.107 132.429 38.4867 133.182C38.3345 133.289 38.1786 133.273 37.9057 133.247Z" fill="#01883E"/>
<path d="M221.701 437.793C217.206 443.088 208.065 443.3 204.18 438.189C203.857 437.765 203.527 437.295 203.388 436.795C202.692 434.272 201.484 432.331 198.556 431.812C197.899 431.696 197.384 430.852 196.629 430.119C196.305 429.828 196.155 429.76 196.005 429.692C196.005 429.692 196.036 429.687 195.998 429.562C195.756 429.248 195.551 429.058 195.347 428.868C195.347 428.868 195.377 428.862 195.332 428.683C194.633 426.045 193.978 423.588 193.324 421.131C193.324 421.131 193.333 421.154 193.448 421.051C193.672 420.332 193.78 419.716 193.888 419.1C193.888 419.1 193.902 419.123 193.99 419.021C194.108 418.638 194.137 418.357 194.166 418.077C194.166 418.077 194.182 418.104 194.269 418.035C194.422 417.817 194.488 417.669 194.555 417.52C194.555 417.52 194.562 417.552 194.648 417.482C194.8 417.262 194.866 417.114 194.932 416.965C194.932 416.965 194.939 416.997 195.021 416.94C195.223 416.78 195.305 416.654 195.35 416.505C195.35 416.505 195.546 416.423 195.828 416.344C198.561 415.28 201.023 414.326 203.448 413.287C203.933 413.079 204.616 412.554 204.625 412.167C204.676 410.099 204.543 408.029 204.473 405.96C204.473 405.96 204.467 405.735 204.544 405.544C204.705 405.23 204.752 405.095 204.763 404.948C204.763 404.948 204.77 404.973 204.912 404.907C205.174 404.351 205.293 403.861 205.413 403.371C205.413 403.371 205.431 403.397 205.515 403.327C205.667 403.109 205.735 402.962 205.803 402.815C205.803 402.815 205.811 402.846 205.895 402.774C206.046 402.554 206.114 402.407 206.181 402.26C206.181 402.26 206.19 402.291 206.273 402.219C206.424 402 206.492 401.853 206.56 401.706C206.56 401.706 206.565 401.737 206.717 401.699C207.172 401.275 207.477 400.889 207.781 400.502C207.781 400.502 207.797 400.529 207.924 400.49C208.248 400.251 208.444 400.05 208.64 399.849C208.64 399.849 208.645 399.88 208.792 399.848C209.28 399.58 209.621 399.345 209.962 399.11C209.962 399.11 209.97 399.137 210.131 399.101C210.913 398.824 211.534 398.582 212.154 398.341C212.678 398.212 213.201 398.084 213.985 398.084C217.581 400.236 221.196 401.972 222.325 406.083C222.855 405.944 223.12 405.941 223.296 405.818C228.255 402.346 231.453 402.775 235.109 407.292C235.478 407.748 236.438 408.039 237.067 407.957C242.861 407.209 245.404 409.545 245.294 415.398C245.273 416.494 245.745 417.766 246.403 418.665C248.694 421.792 248.702 424.656 246.299 427.603C245.867 428.133 245.807 428.952 245.423 429.596C244.458 429.3 243.645 429.047 242.68 428.764C241.459 427.733 240.39 426.731 238.894 425.328C238.859 426.657 238.838 427.439 238.668 428.222C238.265 427.968 238.012 427.712 237.809 427.422C237.858 427.388 237.839 427.251 237.839 427.251C237.839 427.251 237.778 427.468 237.602 427.518C234.966 428.687 232.506 429.807 229.879 430.967C227.778 430.385 225.844 429.762 223.479 429.002C223.766 429.893 223.974 430.539 224.039 431.257C223.165 433.485 222.433 435.639 221.701 437.793Z" fill="#01883E"/>
<path d="M245.575 429.638C245.807 428.952 245.866 428.133 246.299 427.603C248.702 424.656 248.693 421.792 246.403 418.665C245.744 417.766 245.273 416.494 245.294 415.398C245.404 409.544 242.861 407.209 237.067 407.957C236.437 408.039 235.478 407.748 235.109 407.292C231.453 402.775 228.255 402.346 223.296 405.818C223.12 405.941 222.855 405.944 222.325 406.083C221.195 401.972 217.581 400.236 214.187 398.07C216.094 397.971 218.071 397.906 220.021 398.091C221.644 398.245 222.62 397.725 223.474 396.35C226.638 391.256 234.893 388.195 240.903 390.388C244.963 391.868 247.887 394.431 249.861 398.397C253.423 395.945 257.141 395.24 260.955 397.092C265.366 399.234 267.648 405.252 264.912 409.267C263.589 411.209 264.005 412.16 265.866 413.049C269.767 414.911 270.856 419.296 270.066 423.16C269.531 425.777 266.204 430.004 262.042 430.755C259.012 431.303 256.306 431.1 253.94 429.277C252.463 428.139 251.492 429.099 250.022 429.61C248.488 429.586 247.271 429.597 245.934 429.618C245.814 429.627 245.575 429.638 245.575 429.638Z" fill="#027B38"/>
<path d="M245.422 429.596C245.574 429.638 245.814 429.627 245.889 429.769C245.583 430.51 245.185 431.1 244.826 431.711C242.211 436.161 240.451 440.734 241.969 445.976C242.641 448.292 243.055 450.696 243.397 453.087C243.543 454.107 243.455 455.303 243.04 456.238C241.608 459.46 240.286 460.036 235.86 459.766C232.878 459.584 233.107 459.284 232.571 456.436C231.868 452.7 230.393 449.11 229.25 445.457C229.215 445.386 229.179 445.315 229.065 444.979C228.752 444.385 228.517 444.058 228.283 443.731C228.283 443.731 228.302 443.716 228.268 443.568C227.99 443.1 227.746 442.78 227.503 442.461C225.687 440.9 223.87 439.339 221.877 437.785C222.432 435.639 223.163 433.484 224.143 431.381C226.598 433.002 228.806 434.571 231.113 436.21C230.739 434.362 230.392 432.644 230.045 430.927C232.505 429.807 234.965 428.687 237.596 427.514C237.768 427.461 237.758 427.456 237.758 427.456C238.011 427.712 238.264 427.968 238.739 428.425C239.316 430.38 239.67 432.133 240.025 433.887C240.291 433.906 240.557 433.925 240.823 433.945C241.492 432.228 242.162 430.511 242.831 428.794C243.644 429.047 244.457 429.3 245.422 429.596Z" fill="#36AF49"/>
<path d="M229.253 445.66C230.395 449.109 231.87 452.7 232.573 456.436C233.109 459.284 232.88 459.583 235.862 459.766C240.288 460.036 241.609 459.46 243.041 456.237C243.457 455.302 243.545 454.107 243.399 453.087C243.057 450.695 242.642 448.292 241.971 445.975C240.452 440.734 242.213 436.161 244.828 431.711C245.187 431.099 245.585 430.51 246.01 429.759C247.272 429.597 248.489 429.585 249.86 429.655C248.927 431.797 247.732 433.812 246.776 435.927C244.265 441.487 246.681 446.741 247.866 452.049C248.111 453.144 248.899 454.117 249.158 455.211C249.273 455.694 248.854 456.557 248.404 456.878C244.07 459.962 239.287 461.337 233.948 460.365C232.638 460.126 232.288 459.552 232.061 458.097C231.417 453.973 230.229 449.935 229.253 445.66Z" fill="#33A244"/>
<path d="M204.345 406.081C204.542 408.029 204.676 410.099 204.625 412.167C204.615 412.554 203.932 413.079 203.448 413.287C201.023 414.326 198.56 415.28 195.928 416.307C197.118 414.122 199.364 413.202 201.782 412.779C203.719 412.439 204.275 411.688 203.865 409.785C203.624 408.668 204.077 407.401 204.345 406.081Z" fill="#3D8335"/>
<path d="M193.19 421.262C193.979 423.588 194.633 426.045 195.331 428.698C193.246 426.805 192.745 424.222 193.19 421.262Z" fill="#3D8335"/>
<path d="M193.752 419.199C193.78 419.716 193.672 420.332 193.436 421.053C193.41 420.538 193.513 419.918 193.752 419.199Z" fill="#3D8335"/>
<path d="M211.976 398.344C211.533 398.583 210.913 398.824 210.116 399.098C210.56 398.869 211.179 398.608 211.976 398.344Z" fill="#3D8335"/>
<path d="M207.63 400.551C207.476 400.889 207.171 401.275 206.7 401.696C206.848 401.354 207.164 400.976 207.63 400.551Z" fill="#3D8335"/>
<path d="M205.285 403.463C205.292 403.861 205.172 404.351 204.898 404.904C204.881 404.497 205.019 404.026 205.285 403.463Z" fill="#3D8335"/>
<path d="M227.555 442.613C227.746 442.78 227.99 443.1 228.262 443.578C228.062 443.413 227.834 443.089 227.555 442.613Z" fill="#33A244"/>
<path d="M228.326 443.888C228.518 444.058 228.752 444.386 229.016 444.87C228.82 444.7 228.594 444.372 228.326 443.888Z" fill="#33A244"/>
<path d="M209.801 399.158C209.62 399.345 209.279 399.58 208.775 399.846C208.955 399.653 209.299 399.43 209.801 399.158Z" fill="#3D8335"/>
<path d="M194.05 418.171C194.136 418.357 194.107 418.637 193.975 419.023C193.893 418.841 193.914 418.554 194.05 418.171Z" fill="#3D8335"/>
<path d="M208.499 399.898C208.444 400.05 208.248 400.25 207.908 400.49C207.962 400.335 208.16 400.141 208.499 399.898Z" fill="#3D8335"/>
<path d="M195.395 429.007C195.55 429.058 195.754 429.248 195.996 429.578C195.836 429.527 195.64 429.336 195.395 429.007Z" fill="#3D8335"/>
<path d="M194.444 417.587C194.487 417.668 194.421 417.817 194.252 418.039C194.211 417.96 194.273 417.807 194.444 417.587Z" fill="#3D8335"/>
<path d="M194.823 417.032C194.866 417.114 194.799 417.262 194.631 417.484C194.59 417.405 194.652 417.252 194.823 417.032Z" fill="#3D8335"/>
<path d="M195.227 416.536C195.304 416.654 195.222 416.78 195.003 416.941C194.971 416.856 195.038 416.711 195.227 416.536Z" fill="#3D8335"/>
<path d="M196.075 429.797C196.155 429.76 196.305 429.827 196.529 429.993C196.451 430.028 196.297 429.965 196.075 429.797Z" fill="#3D8335"/>
<path d="M204.66 405.011C204.752 405.095 204.705 405.229 204.544 405.431C204.498 405.365 204.529 405.22 204.66 405.011Z" fill="#3D8335"/>
<path d="M205.694 402.883C205.734 402.961 205.666 403.108 205.498 403.33C205.461 403.254 205.524 403.102 205.694 402.883Z" fill="#3D8335"/>
<path d="M206.073 402.329C206.112 402.407 206.045 402.554 205.877 402.776C205.84 402.699 205.903 402.548 206.073 402.329Z" fill="#3D8335"/>
<path d="M206.451 401.774C206.491 401.853 206.424 402 206.256 402.222C206.219 402.145 206.281 401.994 206.451 401.774Z" fill="#3D8335"/>
<path d="M229.878 430.967C230.392 432.644 230.739 434.362 231.113 436.21C228.806 434.57 226.598 433.001 224.285 431.308C223.973 430.538 223.765 429.893 223.479 429.001C225.843 429.762 227.777 430.385 229.878 430.967Z" fill="black"/>
<path d="M242.678 428.764C242.161 430.51 241.492 432.227 240.823 433.945C240.557 433.925 240.291 433.906 240.025 433.887C239.67 432.133 239.315 430.38 238.888 428.423C238.837 427.438 238.858 426.656 238.893 425.328C240.389 426.731 241.457 427.733 242.678 428.764Z" fill="black"/>
<path d="M237.774 427.464C237.779 427.468 237.839 427.251 237.839 427.251C237.839 427.251 237.859 427.388 237.809 427.422C237.759 427.456 237.77 427.46 237.774 427.464Z" fill="#36AF49"/>
<path d="M362.018 190.119C362.656 194.513 360.042 196.784 356.442 198.578C353.362 200.112 350.334 201.78 347.413 203.596C344.478 205.421 341.748 205.795 338.982 203.572C338.759 203.392 338.384 203.393 337.888 203.113C337.654 202.844 337.612 202.773 337.476 202.516C336.814 201.501 336.259 200.665 335.679 199.846C331.843 194.419 327.866 189.085 324.203 183.545C321.121 178.883 318.729 173.834 317.423 168.234C318.953 164.957 320.846 162.297 324.743 161.485C328.455 160.631 331.706 159.336 334.209 156.289C338.815 153.834 342.707 154.117 345.898 157.323C347.358 158.791 348.613 160.523 349.665 162.309C353.966 169.605 357.468 177.279 360.12 185.342C360.654 186.967 361.38 188.528 362.018 190.119ZM323.449 169.859C323.183 172.75 324.288 174.721 326.565 175.416C328.571 176.028 330.853 175.17 331.966 173.386C333.384 171.109 332.69 168.159 330.426 166.844C327.982 165.425 325.208 166.501 323.449 169.859Z" fill="#E9C21D"/>
<path d="M362.212 190.014C361.38 188.528 360.655 186.967 360.12 185.341C357.468 177.279 353.967 169.605 349.666 162.309C348.613 160.523 347.358 158.79 345.898 157.323C342.707 154.116 338.815 153.834 334.058 156.175C332.506 155.075 331.247 154.031 330.048 152.924C327.181 150.275 327.192 150.263 329.72 147.511C332.544 144.705 335.938 144.148 339.593 145.053C341.315 145.48 342.801 145.773 344.503 144.652C349.91 141.093 354.949 144.003 357.617 147.897C363.589 156.612 367.242 166.285 368.81 176.75C369.245 179.654 370.414 182.842 368.315 185.42C366.803 187.277 364.407 188.439 362.212 190.014Z" fill="#BC931B"/>
<path d="M317.324 168.368C318.727 173.834 321.119 178.883 324.202 183.545C327.864 189.085 331.841 194.419 335.678 199.846C336.257 200.665 336.813 201.501 337.296 202.61C336.937 203.047 336.639 203.175 336.389 203.366C332.686 206.199 330.287 206.39 326.67 203.571C323.809 201.341 321.265 198.72 318.539 196.319C317.838 195.702 316.978 195.259 316.192 194.735C316.072 194.57 315.952 194.404 315.793 193.96C314.212 191.58 312.495 189.582 311.169 187.353C309.078 183.834 307.012 180.264 305.405 176.511C304.53 174.465 304.623 171.998 304.279 169.72C304.279 169.72 304.302 169.718 304.481 169.622C308.757 167.409 312.967 166.865 317.324 168.368Z" fill="#D4B31A"/>
<path d="M329.547 147.595C327.193 150.263 327.181 150.275 330.048 152.924C331.247 154.031 332.506 155.075 333.889 156.261C331.706 159.335 328.456 160.631 324.642 161.349C324.181 159.457 324.078 157.607 323.789 155.79C323.486 153.883 322.638 152.432 320.262 152.834C320.695 152.347 321.128 151.859 321.384 151.031C319.727 147.375 318.247 144.06 316.768 140.744C316.768 140.744 316.78 140.76 316.947 140.68C318.685 139.713 320.256 138.826 321.828 137.938C321.828 137.938 321.812 137.954 321.927 138.039C322.326 138.042 322.61 137.959 322.894 137.875C322.894 137.875 322.881 137.89 322.954 137.992C323.199 138.081 323.372 138.068 323.545 138.054C323.545 138.054 323.528 138.065 323.589 138.228C324.577 139.357 325.505 140.322 326.432 141.288C326.432 141.288 326.42 141.274 326.321 141.352C326.226 141.598 326.231 141.766 326.236 141.934C326.236 141.934 326.225 141.916 326.13 141.995C326.037 142.242 326.041 142.41 326.044 142.578C326.044 142.578 326.034 142.56 325.9 142.659C325.816 143.299 325.867 143.841 325.917 144.383C325.917 144.383 326.008 144.55 325.984 144.734C325.93 145.049 325.917 145.181 325.921 145.315C326.31 146.366 326.699 147.418 327.192 148.749C328.031 148.338 328.702 148.009 329.547 147.595Z" fill="#04843D"/>
<path d="M320.072 152.918C322.637 152.432 323.485 153.883 323.788 155.79C324.077 157.607 324.18 159.457 324.467 161.428C320.846 162.297 318.953 164.957 317.422 168.234C312.968 166.865 308.757 167.409 304.472 169.615C304.792 167.448 306.155 165.872 308.24 164.842C309.984 163.982 310.943 162.854 311.533 160.739C312.649 156.746 315.701 154.113 320.072 152.918Z" fill="#BC931B"/>
<path d="M304.172 169.844C304.624 171.997 304.531 174.464 305.407 176.511C307.013 180.264 309.079 183.834 311.171 187.352C312.496 189.582 314.213 191.58 315.691 193.846C314.353 192.558 312.957 191.192 311.827 189.636C308.486 185.037 305.017 180.459 303.855 174.724C303.55 173.22 303.975 171.557 304.172 169.844Z" fill="#BC931B"/>
<path d="M316.244 194.922C316.98 195.258 317.84 195.702 318.541 196.319C321.267 198.72 323.811 201.34 326.672 203.57C330.289 206.389 332.688 206.199 336.391 203.366C336.64 203.175 336.939 203.047 337.393 202.796C337.612 202.773 337.654 202.844 337.75 203.027C335.817 204.808 333.759 206.828 331.035 206.29C328.871 205.863 326.627 204.819 324.941 203.434C321.855 200.899 319.155 197.909 316.244 194.922Z" fill="#BC931B"/>
<path d="M316.67 140.9C318.247 144.06 319.727 147.375 321.312 150.874C318.882 148.172 317.079 144.93 316.67 140.9Z" fill="#69904B"/>
<path d="M326.548 141.154C325.504 140.322 324.576 139.357 323.586 138.219C325.268 138.321 327.011 138.599 326.548 141.154Z" fill="#69904B"/>
<path d="M321.671 137.842C320.257 138.826 318.685 139.713 316.937 140.684C317.434 138.337 319.523 138.117 321.671 137.842Z" fill="#69904B"/>
<path d="M326.005 144.241C325.866 143.841 325.816 143.299 325.909 142.654C326.066 143.066 326.079 143.582 326.005 144.241Z" fill="#69904B"/>
<path d="M322.776 137.783C322.609 137.959 322.325 138.042 321.92 138.031C322.086 137.855 322.373 137.773 322.776 137.783Z" fill="#69904B"/>
<path d="M326.137 142.488C326.04 142.41 326.037 142.242 326.138 141.991C326.239 142.071 326.234 142.234 326.137 142.488Z" fill="#69904B"/>
<path d="M325.985 145.229C325.915 145.181 325.928 145.048 326.004 144.827C326.139 144.87 326.14 145.005 325.985 145.229Z" fill="#69904B"/>
<path d="M323.456 137.964C323.372 138.068 323.199 138.081 322.949 137.983C323.038 137.873 323.203 137.873 323.456 137.964Z" fill="#69904B"/>
<path d="M326.329 141.845C326.231 141.766 326.226 141.598 326.329 141.348C326.431 141.429 326.427 141.592 326.329 141.845Z" fill="#69904B"/>
<path d="M323.503 169.684C325.208 166.501 327.981 165.424 330.426 166.844C332.69 168.158 333.384 171.109 331.965 173.385C330.853 175.169 328.571 176.027 326.565 175.415C324.288 174.721 323.182 172.75 323.503 169.684Z" fill="#FDE3C4"/>
<path d="M34.8689 425.286C34.9305 424.998 34.9921 424.711 35.1009 424.198C35.2035 423.855 35.2137 423.735 35.1786 423.612C35.2809 423.242 35.3833 422.873 35.6649 422.321C35.9195 422.011 35.9455 421.875 35.9222 421.73C35.945 421.566 35.9678 421.402 36.1615 421.069C36.4121 420.769 36.4409 420.629 36.4188 420.479C36.4188 420.479 36.4213 420.458 36.5016 420.367C36.6616 420.145 36.6903 420.005 36.6681 419.855C36.6681 419.855 36.6706 419.835 36.751 419.744C36.911 419.522 36.9398 419.382 36.9177 419.232C36.9177 419.232 36.9199 419.211 37.0006 419.122C37.1619 418.903 37.192 418.763 37.1715 418.614C37.1948 418.45 37.2183 418.285 37.4939 417.971C37.9498 417.396 38.1536 416.969 38.3573 416.542C38.3573 416.542 38.3609 416.523 38.4399 416.433C38.5987 416.211 38.6279 416.071 38.6065 415.921C38.6319 415.756 38.6573 415.592 38.8529 415.279C39.1033 415.025 39.1442 414.906 39.1458 414.776C39.296 414.525 39.4462 414.274 39.8589 413.859C40.3281 413.27 40.5348 412.846 40.7416 412.421C40.7416 412.421 40.7375 412.395 40.901 412.323C41.2688 411.827 41.473 411.402 41.6773 410.978C41.6773 410.978 41.675 410.953 41.8454 410.878C42.6147 409.693 43.2135 408.584 43.8124 407.475C43.8124 407.475 43.8054 407.449 43.9696 407.377C44.336 406.879 44.5382 406.453 44.7404 406.026C44.7404 406.026 44.7411 406.006 44.9076 405.933C45.358 405.226 45.642 404.593 45.9259 403.96C46.0272 403.596 46.1285 403.233 46.4117 402.711C46.6756 402.451 46.7171 402.335 46.7183 402.205C46.7852 402.145 46.8521 402.086 47.2003 401.874C48.2002 400.891 48.9189 400.061 49.637 399.231C49.6365 399.232 49.6357 399.234 49.799 399.157C51.0009 397.944 52.0396 396.808 53.2711 395.462C54.2443 396.422 55.2269 397.278 56.0717 398.251C57.5994 400.009 58.8811 401.854 61.3628 402.706C64.6271 403.827 67.6213 405.657 70.8553 406.879C78.8782 409.91 83.5197 415.571 84.6923 423.909C85.1313 427.03 84.575 430.127 82.8027 433.455C81.6608 429.979 80.6938 427.035 79.7268 424.091C80.1431 427.148 80.89 430.073 81.4756 433.031C82.0441 435.903 80.7595 438.189 77.8484 439.749C77.2993 438.511 76.7462 437.264 76.193 436.017C75.9747 436.012 75.7564 436.008 75.5381 436.004C76.9899 439.22 77.9575 442.293 73.3395 443.87C67.9491 436.434 64.4831 427.963 60.7793 419.62C60.5573 419.733 60.3352 419.846 60.1132 419.959C64.1418 428.239 68.1703 436.52 72.4038 445.222C71.1594 445.405 69.6852 445.621 68.162 445.743C68.0137 445.562 67.9143 445.475 67.815 445.388C67.9448 445.542 68.0747 445.696 68.2833 445.987C68.4981 447.506 67.2259 448.283 65.5087 447.882C64.318 447.604 63.1212 447.349 61.836 447.016C61.6066 446.873 61.4582 446.841 61.2325 446.731C60.9363 446.47 60.7072 446.329 60.3863 446.122C60.1564 445.981 60.0081 445.949 59.7821 445.838C59.4859 445.577 59.2572 445.437 58.9814 445.255C58.8916 445.209 58.8491 445.205 58.8065 445.202C58.8788 445.238 58.9511 445.274 59.0908 445.431C59.3871 445.691 59.616 445.831 59.9357 446.039C60.164 446.184 60.312 446.217 60.5383 446.328C60.835 446.589 61.0643 446.728 61.3848 446.935C61.6136 447.078 61.7615 447.111 62.0039 447.239C62.8596 447.843 63.6312 448.31 65.0997 449.199C61.3077 450.145 58.1706 450.928 55.0335 451.71C54.9472 451.728 54.8608 451.746 54.5625 451.73C54.227 451.642 54.0999 451.635 53.9691 451.673C53.684 451.618 53.3988 451.563 52.8831 451.465C52.5281 451.37 52.3999 451.363 52.2683 451.4C52.1044 451.382 51.9405 451.363 51.6073 451.179C51.3022 450.938 51.1561 450.912 50.9998 450.938C50.9148 450.956 50.8298 450.973 50.5346 450.955C50.2011 450.867 50.074 450.859 49.9433 450.897C49.5739 450.803 49.2045 450.708 48.6599 450.438C48.3577 450.189 48.2207 450.164 48.0735 450.188C47.6984 450.095 47.3233 450.002 46.788 449.735C46.525 449.484 46.4087 449.449 46.279 449.452C46.2197 449.388 46.1604 449.324 45.9404 449.085C45.6518 448.833 45.5125 448.804 45.362 448.825C45.1904 448.805 45.0189 448.784 44.6991 448.597C44.4468 448.355 44.3298 448.319 44.1995 448.322C44.1395 448.256 44.0794 448.19 43.8758 447.95C43.6285 447.698 43.511 447.66 43.3797 447.661C43.3203 447.592 43.2609 447.523 43.0561 447.279C42.8075 447.031 42.6915 446.996 42.5626 447C42.5032 446.931 42.4438 446.862 42.2541 446.572C41.9364 446.205 41.7489 446.06 41.5615 445.914C41.5021 445.846 41.4427 445.779 41.2476 445.491C40.9201 445.123 40.7284 444.974 40.5367 444.825C40.4784 444.759 40.4201 444.692 40.2093 444.334C39.1 442.577 38.1432 441.113 37.1865 439.648C37.0732 439.46 36.9599 439.272 36.7195 438.839C36.5924 438.595 36.4939 438.394 36.4939 438.394C36.4217 438.185 36.3496 437.975 36.2833 437.434C35.7191 434.915 35.149 432.728 34.5789 430.541C34.5642 430.455 34.5495 430.369 34.65 430.059C34.7808 428.668 34.7964 427.5 34.8119 426.332C34.7953 426.244 34.7787 426.156 34.8004 425.857C34.8939 425.529 34.904 425.409 34.8689 425.286ZM54.7535 448.448C54.8915 448.522 55.0397 448.554 55.3644 448.815C55.9394 448.958 56.5145 449.101 57.1834 449.327C57.2257 449.33 57.268 449.333 57.3103 449.337C57.238 449.302 57.1657 449.267 56.9288 448.961C56.3539 448.817 55.7791 448.673 55.0217 448.393C54.8836 448.319 54.7354 448.287 54.3937 448.159C54.2544 448.084 54.1048 448.052 53.8519 447.98C53.8097 447.976 53.7675 447.972 53.7252 447.969C53.7969 448.005 53.8685 448.041 54.1232 448.214C54.262 448.29 54.4113 448.322 54.7535 448.448ZM47.5521 404.31C47.5819 404.279 47.6116 404.249 47.7301 404.128C47.7 404.158 47.6699 404.188 47.5521 404.31ZM56.471 443.126C56.3724 443.039 56.2737 442.951 56.1751 442.864C56.14 442.921 56.1048 442.978 56.0696 443.035C56.2349 443.131 56.4002 443.227 56.6635 443.511C56.7625 443.598 56.8616 443.686 56.9606 443.773C56.9961 443.716 57.0317 443.659 57.0672 443.602C56.902 443.505 56.7367 443.409 56.471 443.126ZM52.1973 435.475C54.4057 433.822 55.2075 431.861 54.3894 429.318C53.7016 427.18 52.1179 425.713 49.7931 425.499C49.0134 425.427 48.1324 426.241 47.0862 426.754C46.3004 425.801 46.3003 425.801 45.0463 426.86C42.8252 428.736 42.2324 431.707 43.6061 434.077C44.9895 436.465 47.5804 437.313 50.7968 436.258C49.7702 433.943 48.7524 431.648 47.7345 429.354C48.7475 430.333 49.1972 431.565 49.8258 432.699C50.3902 433.717 51.1511 434.628 52.1973 435.475ZM61.465 438.988C61.6296 439.085 61.7941 439.183 61.9586 439.28C61.9734 439.203 62.0268 439.104 61.9972 439.052C61.2757 437.773 60.5191 436.513 59.8219 435.221C58.2898 432.382 56.7869 429.528 55.2721 426.68C55.0942 426.777 54.9163 426.875 54.7384 426.972C56.9184 430.882 59.0984 434.791 61.465 438.988ZM46.0777 441.852C47.6442 443.501 49.2108 445.15 50.7773 446.799C50.9913 446.582 51.2053 446.365 51.4194 446.148C49.6755 444.617 47.9317 443.087 46.0777 441.852ZM74.8977 433.641C75.1542 433.932 75.4107 434.222 75.6672 434.513C75.7675 434.442 75.8678 434.371 75.9681 434.3C75.3098 432.816 74.6516 431.332 73.9934 429.848C73.7726 429.937 73.5518 430.026 73.331 430.116C73.7987 431.17 74.2663 432.224 74.8977 433.641ZM54.7369 397.926C54.4745 397.911 54.2123 397.896 53.9499 397.88C54.4177 399.473 54.8855 401.065 55.3533 402.657C55.4895 402.612 55.6258 402.567 55.762 402.522C55.4449 401.103 55.1278 399.685 54.7369 397.926ZM52.3142 438.502C52.8556 439.307 53.3969 440.111 53.9383 440.916C54.0845 440.816 54.2308 440.716 54.377 440.617C53.5578 439.418 52.7386 438.22 51.9194 437.021C51.7743 437.127 51.6291 437.233 51.484 437.339C51.7018 437.627 51.9197 437.916 52.3142 438.502ZM45.3258 439.441C45.0789 439.382 44.8319 439.324 44.585 439.266C44.7515 439.636 44.9181 440.005 45.0847 440.375C45.2047 440.152 45.3248 439.928 45.3258 439.441ZM52.5688 399.793C52.6318 399.829 52.6934 399.893 52.7583 399.895C52.8109 399.896 52.9151 399.823 52.9147 399.786C52.9109 399.415 52.8899 399.044 52.8738 398.673C52.7428 398.676 52.6118 398.679 52.4807 398.682C52.4667 398.977 52.4527 399.273 52.5688 399.793ZM65.2609 443.685C65.5133 443.723 65.7656 443.76 66.018 443.797C65.9111 443.551 65.8043 443.304 65.6974 443.058C65.5014 443.195 65.3054 443.332 65.2609 443.685ZM59.7374 450.045C59.8094 449.881 59.8814 449.716 59.9534 449.551C59.6986 449.571 59.4438 449.591 59.189 449.61C59.2877 449.766 59.3865 449.922 59.7374 450.045ZM62.9744 440.946C63.0632 440.882 63.1519 440.819 63.2407 440.755C63.1506 440.647 63.0604 440.539 62.9703 440.431C62.9334 440.548 62.8964 440.666 62.9744 440.946ZM55.0996 441.756C55.1424 441.77 55.1852 441.785 55.0996 441.756V441.756ZM64.0687 442.122C64.1012 442.047 64.1337 441.973 64.1661 441.898C64.1148 441.931 64.0635 441.964 64.0687 442.122Z" fill="#F8AC5A"/>
<path d="M68.2094 445.837C69.6836 445.621 71.1578 445.405 72.4022 445.222C68.1687 436.52 64.1402 428.24 60.1116 419.959C60.3336 419.846 60.5557 419.733 60.7777 419.62C64.4815 427.964 67.9475 436.435 73.3379 443.87C77.9559 442.294 76.9883 439.22 75.5365 436.004C75.7548 436.009 75.9731 436.013 76.1914 436.017C76.7446 437.264 77.2977 438.511 77.8468 439.749C80.7579 438.189 82.0425 435.904 81.474 433.032C80.8884 430.073 80.1415 427.148 79.7252 424.091C80.6922 427.035 81.6592 429.979 82.8011 433.455C84.5734 430.127 85.1297 427.03 84.6907 423.909C83.5181 415.572 78.8766 409.91 70.8537 406.879C67.6197 405.657 64.6255 403.827 61.3612 402.706C58.8795 401.854 57.5978 400.009 56.0702 398.251C55.2253 397.279 54.2427 396.423 53.2695 395.462C52.038 396.809 50.9993 397.945 49.7414 399.058C49.3432 398.983 49.1643 398.93 48.9854 398.878C48.9853 399.015 48.9852 399.151 48.985 399.288C49.202 399.269 49.4189 399.25 49.6359 399.231C48.9173 400.061 48.1986 400.892 47.3065 401.793C48.0153 398.041 48.8187 394.2 49.8336 390.41C50.0985 389.42 51.0214 388.589 51.8305 387.411C59.2633 394.75 68.8234 395.122 77.8277 396.97C82.9895 398.029 88.1048 399.302 92.1568 402.804C101.12 410.549 103.899 423.205 95.7392 433.721C92.037 438.493 87.4851 442.061 82.4024 445.235C74.2393 450.332 65.3438 452.18 55.9354 452.165C55.7109 452.164 55.4893 452.021 55.1492 451.827C58.169 450.928 61.3061 450.145 65.0981 449.199C63.6296 448.311 62.858 447.844 62.0048 447.235C61.9232 447.094 61.9256 447.084 61.9256 447.084C63.1196 447.349 64.3164 447.604 65.5071 447.882C67.2243 448.284 68.4965 447.506 68.2834 445.984C68.2065 445.844 68.2094 445.837 68.2094 445.837Z" fill="#F09E46"/>
<path d="M34.457 430.678C35.1487 432.728 35.7188 434.915 36.2477 437.271C35.5829 435.232 34.9591 433.023 34.457 430.678Z" fill="#F09E46"/>
<path d="M43.661 407.55C43.214 408.584 42.6152 409.693 41.8555 410.87C42.2996 409.833 42.9044 408.728 43.661 407.55Z" fill="#F09E46"/>
<path d="M37.2266 439.849C38.1419 441.113 39.0987 442.577 40.1286 444.228C39.2239 442.96 38.2459 441.505 37.2266 439.849Z" fill="#F09E46"/>
<path d="M34.6893 426.444C34.7951 427.5 34.7796 428.668 34.6341 429.929C34.5254 428.867 34.5466 427.711 34.6893 426.444Z" fill="#F09E46"/>
<path d="M45.784 404.032C45.6419 404.593 45.3579 405.226 44.9142 405.925C45.0504 405.362 45.3462 404.733 45.784 404.032Z" fill="#F09E46"/>
<path d="M44.6026 406.097C44.5381 406.453 44.3359 406.879 43.9806 407.37C44.04 407.012 44.2525 406.59 44.6026 406.097Z" fill="#F09E46"/>
<path d="M41.539 411.046C41.4731 411.402 41.2689 411.827 40.912 412.315C40.9731 411.957 41.1868 411.536 41.539 411.046Z" fill="#F09E46"/>
<path d="M40.6016 412.49C40.5338 412.845 40.327 413.27 39.967 413.757C40.03 413.399 40.2463 412.979 40.6016 412.49Z" fill="#F09E46"/>
<path d="M38.219 416.613C38.1524 416.968 37.9487 417.395 37.5913 417.886C37.6524 417.528 37.8672 417.106 38.219 416.613Z" fill="#F09E46"/>
<path d="M40.5547 444.966C40.7277 444.974 40.9194 445.123 41.1616 445.387C40.9993 445.37 40.7863 445.238 40.5547 444.966Z" fill="#F09E46"/>
<path d="M41.5762 446.053C41.7486 446.06 41.936 446.205 42.1715 446.464C42.0101 446.448 41.8006 446.321 41.5762 446.053Z" fill="#F09E46"/>
<path d="M36.8209 419.302C36.9388 419.382 36.91 419.522 36.7563 419.735C36.6093 419.662 36.6236 419.514 36.8209 419.302Z" fill="#F09E46"/>
<path d="M37.0739 418.682C37.1917 418.763 37.1617 418.902 37.0069 419.113C36.8597 419.039 36.8743 418.891 37.0739 418.682Z" fill="#F09E46"/>
<path d="M38.5111 415.991C38.6279 416.07 38.5987 416.211 38.4447 416.425C38.2994 416.352 38.3144 416.203 38.5111 415.991Z" fill="#F09E46"/>
<path d="M39.0327 414.801C39.1443 414.906 39.1035 415.025 38.9513 415.194C38.7955 415.107 38.8089 414.964 39.0327 414.801Z" fill="#F09E46"/>
<path d="M36.5711 419.926C36.6892 420.005 36.6604 420.146 36.5068 420.359C36.3592 420.286 36.3733 420.138 36.5711 419.926Z" fill="#F09E46"/>
<path d="M46.6073 402.229C46.7175 402.335 46.6759 402.451 46.5218 402.615C46.3736 402.527 46.3891 402.386 46.6073 402.229Z" fill="#F09E46"/>
<path d="M44.2226 448.431C44.3297 448.319 44.4467 448.355 44.6122 448.498C44.5232 448.653 44.3805 448.645 44.2226 448.431Z" fill="#F09E46"/>
<path d="M43.3998 447.771C43.5098 447.66 43.6273 447.698 43.7923 447.844C43.7004 447.998 43.5563 447.987 43.3998 447.771Z" fill="#F09E46"/>
<path d="M42.5822 447.109C42.6898 446.996 42.8058 447.031 42.9702 447.172C42.882 447.332 42.7394 447.326 42.5822 447.109Z" fill="#F09E46"/>
<path d="M36.393 438.462C36.4934 438.394 36.5919 438.595 36.6332 438.698C36.5472 438.711 36.4199 438.62 36.393 438.462Z" fill="#F09E46"/>
<path d="M34.7733 425.347C34.9038 425.409 34.8937 425.529 34.7846 425.722C34.5759 425.689 34.5583 425.559 34.7733 425.347Z" fill="#F09E46"/>
<path d="M35.082 423.673C35.2128 423.735 35.2027 423.855 35.0936 424.048C34.8845 424.015 34.8666 423.885 35.082 423.673Z" fill="#F09E46"/>
<path d="M35.8261 421.798C35.9444 421.875 35.9184 422.011 35.7723 422.22C35.6171 422.151 35.627 422.006 35.8261 421.798Z" fill="#F09E46"/>
<path d="M36.3216 420.549C36.4399 420.629 36.4112 420.769 36.2578 420.983C36.1093 420.911 36.1231 420.762 36.3216 420.549Z" fill="#F09E46"/>
<path d="M52.336 451.492C52.4001 451.363 52.5283 451.37 52.7346 451.474C52.8163 451.525 52.6232 451.657 52.6232 451.657C52.6232 451.657 52.4036 451.585 52.336 451.492Z" fill="#F09E46"/>
<path d="M51.0732 451.03C51.1562 450.912 51.3022 450.938 51.5228 451.087C51.4539 451.147 51.3002 451.135 51.0732 451.03Z" fill="#F09E46"/>
<path d="M50.0078 450.989C50.0722 450.859 50.1993 450.867 50.4035 450.971C50.4844 451.023 50.2922 451.153 50.2922 451.153C50.2922 451.153 50.0743 451.081 50.0078 450.989Z" fill="#F09E46"/>
<path d="M48.1394 450.278C48.2206 450.164 48.3576 450.189 48.5629 450.332C48.4879 450.473 48.3426 450.462 48.1394 450.278Z" fill="#F09E46"/>
<path d="M46.3007 449.56C46.4077 449.448 46.524 449.484 46.6873 449.628C46.5979 449.782 46.4564 449.772 46.3007 449.56Z" fill="#F09E46"/>
<path d="M45.4262 448.921C45.513 448.804 45.6523 448.832 45.8598 448.981C45.7809 449.126 45.6311 449.114 45.4262 448.921Z" fill="#F09E46"/>
<path d="M54.0353 451.765C54.0996 451.635 54.2268 451.642 54.4312 451.747C54.5121 451.798 54.3202 451.929 54.3202 451.929C54.3202 451.929 54.1018 451.857 54.0353 451.765Z" fill="#F09E46"/>
<path d="M52.01 435.531C51.1498 434.628 50.3889 433.718 49.8244 432.699C49.1959 431.565 48.7462 430.333 47.7332 429.354C48.7511 431.649 49.7689 433.943 50.7955 436.258C47.5791 437.313 44.9881 436.465 43.6048 434.077C42.231 431.707 42.8238 428.736 45.045 426.86C46.299 425.801 46.299 425.801 47.0848 426.754C48.1311 426.241 49.0121 425.427 49.7918 425.499C52.1166 425.713 53.7002 427.18 54.3881 429.318C55.2062 431.861 54.4043 433.822 52.01 435.531Z" fill="#D9C4AB"/>
<path d="M61.3707 438.844C59.0974 434.791 56.9174 430.881 54.7374 426.972C54.9153 426.874 55.0932 426.777 55.2711 426.679C56.7859 429.527 58.2888 432.382 59.8209 435.221C60.5181 436.512 61.2747 437.773 61.9962 439.052C62.0258 439.104 61.9724 439.203 61.9576 439.28C61.7931 439.182 61.6286 439.085 61.3707 438.844Z" fill="#F09E46"/>
<path d="M46.1328 441.704C47.9317 443.087 49.6756 444.617 51.4194 446.148C51.2054 446.365 50.9914 446.582 50.7774 446.799C49.2108 445.15 47.6443 443.501 46.1328 441.704Z" fill="#F09E46"/>
<path d="M74.8149 433.46C74.2653 432.224 73.7977 431.17 73.3301 430.116C73.5509 430.027 73.7716 429.937 73.9924 429.848C74.6506 431.332 75.3089 432.816 75.9671 434.3C75.8668 434.371 75.7665 434.442 75.6662 434.513C75.4097 434.222 75.1533 433.932 74.8149 433.46Z" fill="#F09E46"/>
<path d="M54.7733 398.096C55.1273 399.685 55.4444 401.104 55.7615 402.522C55.6253 402.568 55.489 402.613 55.3528 402.658C54.885 401.065 54.4172 399.473 53.9495 397.881C54.2117 397.896 54.474 397.911 54.7733 398.096Z" fill="#F09E46"/>
<path d="M52.2256 438.353C51.9194 437.916 51.7015 437.627 51.4837 437.338C51.6288 437.233 51.774 437.127 51.9191 437.021C52.7383 438.219 53.5575 439.418 54.3767 440.616C54.2304 440.716 54.0842 440.816 53.938 440.916C53.3966 440.111 52.8553 439.307 52.2256 438.353Z" fill="#F09E46"/>
<path d="M45.3844 439.572C45.3238 439.928 45.2037 440.151 45.0837 440.375C44.9171 440.005 44.7506 439.635 44.584 439.265C44.831 439.323 45.0779 439.382 45.3844 439.572Z" fill="#F09E46"/>
<path d="M55.2038 448.529C55.7786 448.673 56.3535 448.817 57.0093 449.099C57.0902 449.238 57.0891 449.243 57.0891 449.243C56.514 449.101 55.939 448.958 55.2829 448.676C55.2018 448.537 55.2038 448.529 55.2038 448.529Z" fill="#F09E46"/>
<path d="M52.5026 399.68C52.4516 399.272 52.4656 398.977 52.4797 398.682C52.6107 398.679 52.7417 398.676 52.8728 398.673C52.8889 399.044 52.9098 399.414 52.9136 399.785C52.914 399.823 52.8098 399.896 52.7572 399.894C52.6923 399.892 52.6307 399.829 52.5026 399.68Z" fill="#F09E46"/>
<path d="M65.1845 443.577C65.3048 443.332 65.5008 443.195 65.6968 443.058C65.8036 443.304 65.9105 443.551 66.0174 443.797C65.765 443.76 65.5127 443.723 65.1845 443.577Z" fill="#F09E46"/>
<path d="M59.6118 450.062C59.3869 449.922 59.2882 449.766 59.1895 449.61C59.4443 449.591 59.6991 449.571 59.9539 449.551C59.8819 449.716 59.8099 449.881 59.6118 450.062Z" fill="#F09E46"/>
<path d="M62.9176 440.864C62.8971 440.666 62.9341 440.548 62.971 440.43C63.0611 440.538 63.1513 440.647 63.2414 440.755C63.1526 440.818 63.0639 440.882 62.9176 440.864Z" fill="#F09E46"/>
<path d="M55.1628 441.778C55.1401 441.77 55.1856 441.786 55.1628 441.778V441.778Z" fill="#F09E46"/>
<path d="M61.2939 446.868C61.0646 446.728 60.8353 446.589 60.541 446.324C60.476 446.199 60.4785 446.189 60.4785 446.189C60.7076 446.329 60.9367 446.47 61.2308 446.735C61.2959 446.86 61.2939 446.868 61.2939 446.868Z" fill="#F09E46"/>
<path d="M68.2058 445.847C68.0742 445.696 67.9443 445.542 67.8145 445.388C67.9138 445.475 68.0132 445.562 68.1615 445.743C68.2105 445.837 68.2076 445.844 68.2058 445.847Z" fill="#F09E46"/>
<path d="M59.8445 445.971C59.6156 445.831 59.3867 445.691 59.0922 445.427C59.0266 445.303 59.0281 445.297 59.0281 445.297C59.2569 445.437 59.4856 445.577 59.7802 445.841C59.8461 445.965 59.8445 445.971 59.8445 445.971Z" fill="#F09E46"/>
<path d="M56.5706 443.312C56.7359 443.408 56.9011 443.505 57.0663 443.602C57.0308 443.659 56.9953 443.716 56.9597 443.773C56.8607 443.685 56.7617 443.598 56.6153 443.414C56.5679 443.318 56.5706 443.312 56.5706 443.312Z" fill="#F09E46"/>
<path d="M56.5669 443.32C56.4 443.227 56.2347 443.131 56.0694 443.035C56.1046 442.978 56.1398 442.921 56.1749 442.864C56.2735 442.951 56.3722 443.039 56.521 443.219C56.5713 443.312 56.5686 443.318 56.5669 443.32Z" fill="#F09E46"/>
<path d="M64.0391 442.06C64.0622 441.965 64.1135 441.932 64.1648 441.899C64.1323 441.973 64.0998 442.048 64.0391 442.06Z" fill="#F09E46"/>
<path d="M47.6415 404.218C47.6116 404.249 47.5817 404.279 47.5963 404.264C47.6409 404.218 47.6415 404.218 47.6415 404.218Z" fill="#F09E46"/>
<path d="M47.6391 404.218C47.6689 404.188 47.6992 404.158 47.6849 404.173C47.6403 404.219 47.6391 404.218 47.6391 404.218Z" fill="#F09E46"/>
<path d="M52.8642 401.151C52.8497 401.169 52.8788 401.132 52.8642 401.151V401.151Z" fill="#F09E46"/>
<path d="M53.9434 448.064C54.1033 448.052 54.2529 448.084 54.4818 448.232C54.5714 448.304 54.5695 448.312 54.5695 448.312C54.4098 448.322 54.2605 448.29 54.0318 448.143C53.9419 448.071 53.9434 448.064 53.9434 448.064Z" fill="#F09E46"/>
<path d="M57.0912 449.235C57.1649 449.267 57.2372 449.302 57.3095 449.337C57.2671 449.333 57.2249 449.33 57.1356 449.285C57.0887 449.243 57.0898 449.238 57.0912 449.235Z" fill="#F09E46"/>
<path d="M66.8946 444.619C66.874 444.603 66.9152 444.634 66.8946 444.619V444.619Z" fill="#F09E46"/>
<path d="M61.9214 447.098C61.7606 447.111 61.6127 447.078 61.3839 446.935C61.2926 446.867 61.2946 446.86 61.2966 446.856C61.4573 446.841 61.6057 446.873 61.8351 447.015C61.9263 447.084 61.9239 447.093 61.9214 447.098Z" fill="#F09E46"/>
<path d="M60.474 446.203C60.3128 446.217 60.1647 446.184 59.9365 446.039C59.8456 445.97 59.8472 445.965 59.8488 445.962C60.0088 445.949 60.1572 445.98 60.3871 446.122C60.4788 446.189 60.4764 446.198 60.474 446.203Z" fill="#F09E46"/>
<path d="M54.5739 448.301C54.7344 448.287 54.8826 448.319 55.112 448.461C55.2032 448.529 55.2013 448.538 55.1992 448.541C55.0387 448.554 54.8905 448.522 54.6613 448.38C54.57 448.312 54.5719 448.304 54.5739 448.301Z" fill="#F09E46"/>
<path d="M53.9411 448.074C53.8678 448.041 53.7962 448.005 53.7246 447.969C53.7668 447.972 53.809 447.976 53.8978 448.022C53.9443 448.064 53.9428 448.071 53.9411 448.074Z" fill="#F09E46"/>
<path d="M59.0253 445.307C58.9512 445.274 58.8789 445.238 58.8066 445.202C58.8492 445.206 58.8918 445.209 58.9815 445.255C59.0286 445.297 59.0271 445.303 59.0253 445.307Z" fill="#F09E46"/>
<path d="M57.9117 444.537C57.8962 444.558 57.9272 444.517 57.9117 444.537V444.537Z" fill="#F09E46"/>
<path d="M49.6363 399.231C49.4198 399.249 49.2028 399.269 48.9859 399.288C48.986 399.151 48.9861 399.014 48.9863 398.878C49.1652 398.93 49.3441 398.983 49.579 399.135C49.635 399.234 49.6358 399.232 49.6363 399.231Z" fill="#F8AC5A"/>
<path d="M300.336 333.714C298.957 329.73 298.992 325.606 299.715 321.601C300.714 316.073 303.395 311.332 308.148 307.904C313.038 304.377 318.411 302.257 324.861 302.699C325.918 303.279 326.692 303.814 327.551 304.092C341.809 308.707 348.332 322.782 342.325 336.221C342.218 336.185 342 336.131 341.942 335.983C341.526 335.226 341.177 334.612 340.807 334.01C338.82 330.783 337.079 330.481 334.065 332.91C332.9 333.85 331.833 334.905 330.724 335.911C327.637 338.709 324.495 338.656 321.519 335.713C320.734 334.937 320.078 334.04 319.309 333.247C317.135 331.002 314.941 330.959 312.666 333.113C312.097 333.652 311.607 334.271 311.087 334.859C309.77 336.349 308.101 336.6 306.299 335.983C304.287 335.295 302.321 334.476 300.336 333.714ZM311.478 323.707C311.957 323.744 312.435 323.793 312.914 323.814C315.763 323.939 317.932 322.228 318.491 319.422C318.937 317.184 317.152 314.268 314.951 313.64C311.591 312.68 309.185 313.626 307.948 316.394C306.657 319.28 307.874 322.104 311.478 323.707Z" fill="#9B2162"/>
<path d="M300.309 333.886C302.321 334.476 304.286 335.295 306.298 335.983C308.101 336.6 309.769 336.349 311.087 334.859C311.607 334.271 312.097 333.652 312.666 333.113C314.941 330.959 317.135 331.002 319.309 333.247C320.077 334.04 320.734 334.937 321.518 335.713C324.494 338.656 327.637 338.709 330.724 335.911C331.833 334.906 332.899 333.85 334.065 332.91C337.079 330.481 338.82 330.783 340.807 334.01C341.177 334.612 341.525 335.226 341.919 336.18C340.216 339.966 338.873 343.675 336.65 346.786C333.142 351.696 328.086 354.13 321.764 353.035C319.436 352.632 317.184 351.807 314.898 351.174C314.898 351.174 314.877 351.177 314.841 351.061C314.719 350.811 314.598 350.721 314.443 350.675C314.443 350.675 314.432 350.676 314.393 350.563C314.266 350.314 314.143 350.223 313.984 350.176C313.905 350.151 313.826 350.125 313.588 349.964C313.343 349.717 313.23 349.653 313.088 349.637C313.088 349.637 313.059 349.638 313.023 349.52C312.903 349.269 312.784 349.182 312.63 349.139C312.63 349.139 312.61 349.14 312.573 349.024C312.45 348.773 312.329 348.683 312.172 348.638C312.092 348.612 312.011 348.586 311.769 348.424C311.52 348.178 311.406 348.114 311.264 348.098C311.264 348.098 311.239 348.101 311.203 347.984C311.081 347.733 310.961 347.645 310.806 347.601C310.806 347.601 310.794 347.601 310.755 347.488C310.629 347.238 310.507 347.148 310.35 347.102C310.35 347.102 310.35 347.098 310.306 346.988C310.173 346.741 310.048 346.649 309.888 346.603C305.416 343.344 302.081 339.259 300.309 333.886Z" fill="#DCA1BD"/>
<path d="M342.432 336.256C348.333 322.782 341.81 308.707 327.552 304.092C326.692 303.814 325.919 303.279 325.073 302.687C325.041 302.511 325.061 302.54 325.204 302.569C325.729 302.479 326.11 302.359 326.491 302.24C326.491 302.24 326.485 302.155 326.664 302.206C329.307 302.256 331.771 302.254 334.235 302.252C336.745 302.881 339.286 303.415 341.762 304.156C351.21 306.983 356.677 313.327 358.208 322.715C359.194 328.766 358.341 334.626 354.21 339.713C353.776 339.057 353.605 338.461 353.538 337.855C353.218 334.937 351.992 334.28 349.247 335.599C348.184 336.11 347.158 336.697 346.082 337.18C344.637 337.829 343.315 337.831 342.432 336.256Z" fill="#611A4D"/>
<path d="M342.325 336.221C343.314 337.831 344.636 337.829 346.081 337.18C347.157 336.697 348.183 336.11 349.246 335.599C351.991 334.28 353.217 334.937 353.537 337.855C353.604 338.461 353.775 339.057 354.044 339.758C352.106 344.126 348.386 346.984 344.714 349.738C341.061 352.478 337.069 354.815 333.097 357.119C327.986 360.084 325.077 359.834 320.419 356.231C318.515 354.758 316.784 353.073 314.936 351.329C317.184 351.806 319.436 352.632 321.764 353.035C328.086 354.13 333.142 351.696 336.65 346.786C338.873 343.675 340.217 339.966 341.977 336.328C342 336.131 342.218 336.185 342.325 336.221Z" fill="#C693AA"/>
<path d="M334.305 302.111C331.77 302.254 329.306 302.256 326.683 302.168C326.171 300.952 325.818 299.826 325.42 298.362C324.46 295.099 323.545 292.174 322.789 289.26C323.163 289.286 323.376 289.301 323.706 289.432C325.083 292.345 326.344 295.143 327.796 298.365C328.68 296.396 329.588 294.959 329.945 293.4C330.245 292.086 329.917 290.63 329.84 289.239C329.823 288.94 329.744 288.619 329.6 288.357C328.423 286.216 327.224 284.088 326.031 281.956C326.031 281.956 326.044 281.97 326.16 281.982C326.247 281.663 326.217 281.332 326.188 281.002C326.116 280.129 325.643 278.963 326.047 278.435C327.394 276.672 328.766 274.481 330.672 273.692C332.749 272.833 335.431 273.355 338.07 273.481C338.393 273.815 338.525 273.898 338.687 273.935C338.687 273.935 338.659 273.937 338.642 274.109C338.899 275.126 339.173 275.97 339.447 276.815C339.447 276.815 339.419 276.816 339.465 276.916C339.64 277.115 339.77 277.214 339.899 277.312C339.899 277.312 339.869 277.311 339.857 277.506C339.778 278.672 339.711 279.643 339.645 280.614C339.645 280.614 339.638 280.585 339.569 280.611C339.458 280.675 339.374 280.724 339.381 280.749C339.409 280.851 339.465 280.946 339.511 281.043C339.735 281.491 339.958 281.939 340.275 282.627C338.241 283.371 336.152 283.916 336.077 286.638C332.902 288.16 334.124 291.535 332.745 293.964C332.161 296.383 331.722 298.714 331.283 301.044C331.518 301.097 331.753 301.151 331.988 301.204C332.551 300.118 333.115 299.031 333.818 297.879C336.382 294.934 338.298 291.603 341.583 289.461C341.463 290.224 341.061 290.772 340.716 291.352C339.091 294.083 337.481 296.824 335.866 299.562C335.37 300.364 334.873 301.167 334.305 302.111Z" fill="#04843D"/>
<path d="M336.024 299.502C337.481 296.824 339.091 294.083 340.716 291.351C341.061 290.772 341.463 290.224 341.583 289.461C338.297 291.603 336.382 294.933 333.801 297.695C333.393 296.343 333.141 295.109 332.889 293.875C334.124 291.535 332.902 288.16 336.077 286.638C336.152 283.916 338.241 283.371 340.415 282.697C340.463 282.527 340.463 282.522 340.572 282.477C340.816 282.341 340.906 282.219 340.951 282.066C341.565 281.811 342.273 281.224 342.777 281.361C344.725 281.889 346.658 282.545 348.482 283.39C348.989 283.624 349.324 284.667 349.355 285.354C349.52 288.994 348.003 291.694 345.208 294.273C342.511 296.762 339.174 297.713 336.024 299.502Z" fill="#33A244"/>
<path d="M322.628 289.249C323.543 292.174 324.459 295.099 325.365 298.204C321.133 296.436 318.47 293.287 316.595 289.068C315.664 286.97 316.102 285.132 316.006 283.191C315.975 282.554 316.78 281.362 317.303 281.307C320.105 281.014 323.116 278.937 325.852 281.943C327.223 284.088 328.422 286.216 329.599 288.356C329.743 288.618 329.822 288.94 329.838 289.238C329.916 290.63 330.244 292.086 329.943 293.399C329.586 294.959 328.678 296.396 327.794 298.365C326.343 295.143 325.082 292.345 323.695 289.27C323.033 288.163 322.496 287.334 321.959 286.504C321.772 286.62 321.585 286.735 321.398 286.851C321.808 287.65 322.218 288.45 322.628 289.249Z" fill="#33A244"/>
<path d="M339.797 280.541C339.711 279.643 339.778 278.672 339.864 277.493C341.17 278.325 340.378 279.4 339.797 280.541Z" fill="#3D8335"/>
<path d="M311.278 323.684C307.874 322.104 306.658 319.28 307.948 316.394C309.186 313.626 311.591 312.68 314.951 313.64C317.152 314.268 318.937 317.184 318.491 319.422C317.932 322.228 315.764 323.939 312.915 323.814C312.435 323.793 311.957 323.744 311.278 323.684Z" fill="#AB4E7A"/>
<path d="M332.745 293.964C333.142 295.109 333.393 296.343 333.662 297.761C333.115 299.031 332.551 300.118 331.988 301.204C331.753 301.151 331.518 301.097 331.283 301.044C331.722 298.714 332.161 296.383 332.745 293.964Z" fill="#4E0D53"/>
<path d="M322.788 289.26C322.218 288.45 321.808 287.65 321.399 286.851C321.586 286.736 321.773 286.62 321.96 286.505C322.497 287.334 323.033 288.164 323.58 289.155C323.376 289.301 323.162 289.286 322.788 289.26Z" fill="#01883E"/>
<path d="M49.9215 309.363C47.457 311.88 42.9734 311.697 39.3077 309.358C37.2174 308.024 34.8165 306.94 32.4124 306.367C28.0619 305.33 25.3667 302.512 25.3357 297.753C27.094 291.418 28.6573 285.41 30.4355 279.469C32.6643 272.021 35.3659 264.776 40.9695 258.902C44.3475 257.4 47.1599 258.967 50.1722 260.268C53.0911 263.051 56.3906 264.618 60.416 265.17C66.7171 267.172 67.9492 272.235 67.1959 275.954C66.7403 278.203 65.9957 280.441 65.0269 282.52C62.4368 288.077 59.7947 293.62 56.8961 299.021C55.2514 302.086 53.0621 304.862 50.9898 307.878C50.5481 308.446 50.2348 308.905 49.9215 309.363ZM39.8545 268.865C39.9932 271.939 41.7518 273.764 44.8417 274.039C46.7677 274.211 49.1273 272.508 49.5439 270.646C50.1991 267.718 49.0867 265.888 45.9539 264.741C43.077 263.688 41.5145 264.662 39.8545 268.865Z" fill="#E1322B"/>
<path d="M51.1173 307.768C53.0613 304.862 55.2506 302.086 56.8953 299.021C59.7939 293.62 62.436 288.077 65.0261 282.52C65.9949 280.441 66.7395 278.203 67.1951 275.954C67.9484 272.235 66.7163 267.172 60.4892 264.999C60.7528 261.729 61.1421 258.717 61.7145 255.777C65.376 256.234 68.5068 257.363 70.9716 259.985C71.2884 260.322 71.7838 260.497 72.1965 260.747C72.1965 260.747 72.2072 260.757 72.2025 260.881C72.2329 261.169 72.3225 261.296 72.4664 261.386C72.4664 261.386 72.467 261.396 72.422 261.546C72.5859 262.016 72.7947 262.337 73.0036 262.658C73.0036 262.658 72.9965 262.667 72.9999 262.787C73.0397 263.072 73.1298 263.2 73.2737 263.293C73.2737 263.293 73.2619 263.304 73.2676 263.423C73.3077 263.706 73.3967 263.835 73.5404 263.929C73.5404 263.929 73.5317 263.944 73.4825 264.121C73.8033 264.839 74.0521 265.586 74.5649 265.882C76.4945 266.995 78.5102 267.961 80.4936 268.982C80.4936 268.982 80.4994 268.991 80.5218 269.138C80.7662 269.459 80.9881 269.633 81.2101 269.807C81.2101 269.807 81.2299 269.818 81.2202 269.944C81.2441 270.235 81.3342 270.359 81.4808 270.445C81.4808 270.445 81.4927 270.456 81.4858 270.58C81.5108 270.869 81.6 270.994 81.7466 271.081C81.7466 271.081 81.7586 271.092 81.7512 271.216C81.7738 271.505 81.8625 271.63 82.01 271.715C82.01 271.715 82.0264 271.727 82.0171 271.852C82.0382 272.142 82.1277 272.266 82.2764 272.349C82.2764 272.349 82.2964 272.362 82.2298 272.502C82.2292 272.905 82.2951 273.169 82.361 273.432C82.361 273.432 82.3691 273.444 82.3079 273.581C82.3095 273.982 82.3724 274.247 82.4352 274.511C82.4352 274.511 82.4452 274.523 82.3525 274.707C80.7401 279.31 79.2528 283.741 77.6829 288.141C77.1402 289.663 76.3923 291.11 75.7381 292.591C74.2317 294.768 72.7242 296.944 71.2196 299.122C70.8231 299.696 70.4359 300.276 69.8832 301.013C69.5868 301.219 69.4769 301.299 69.3922 301.412C69.3922 301.412 69.3877 301.39 69.2276 301.447C68.7756 301.996 68.4838 302.487 68.1919 302.978C68.1919 302.978 68.1823 302.969 68.0246 303.014C67.6359 303.412 67.4049 303.764 67.1738 304.117C67.1738 304.117 67.1632 304.102 67.0068 304.148C66.6175 304.545 66.3848 304.897 66.152 305.249C66.152 305.249 66.1426 305.237 65.9863 305.282C65.5984 305.679 65.3667 306.032 65.135 306.384C65.135 306.384 65.125 306.372 64.9674 306.416C64.5789 306.811 64.348 307.162 64.117 307.513C64.117 307.513 64.1074 307.512 63.9611 307.537C63.638 307.776 63.4611 307.99 63.2843 308.204C63.2843 308.204 63.2752 308.203 63.1041 308.21C62.4973 308.678 62.0616 309.138 61.6259 309.598C61.6259 309.598 61.6154 309.583 61.471 309.61C61.1501 309.853 60.9734 310.069 60.7968 310.285C60.7968 310.285 60.7856 310.284 60.6612 310.282C60.3704 310.311 60.2412 310.397 60.1492 310.536C60.1492 310.536 60.1389 310.528 60.0173 310.53C59.7288 310.561 59.5991 310.646 59.5066 310.785C59.5066 310.785 59.4962 310.777 59.3749 310.779C59.0856 310.809 58.9561 310.894 58.865 311.035C58.865 311.035 58.8538 311.032 58.7155 310.976C58.306 310.98 58.0348 311.039 57.7636 311.099C57.7636 311.099 57.7537 311.082 57.5684 310.998C55.2946 309.865 53.2059 308.817 51.1173 307.768Z" fill="#C22220"/>
<path d="M40.8014 258.917C35.3658 264.775 32.6642 272.02 30.4354 279.468C28.6572 285.41 27.0939 291.418 25.3891 297.584C24.2541 297.465 23.1754 297.112 22.0742 296.862C19.7079 296.325 17.2777 293.664 16.9586 290.993C16.2163 284.782 16.9872 278.687 18.3713 272.676C19.0085 269.909 19.9412 267.213 20.8999 264.071C22.7927 260.01 24.5256 256.362 26.2584 252.714C26.2584 252.714 26.2676 252.716 26.4298 252.679C26.8213 252.288 27.0505 251.934 27.2797 251.58C27.2797 251.58 27.288 251.583 27.4587 251.578C28.0656 251.115 28.5016 250.656 28.9377 250.198C28.9377 250.198 28.9471 250.192 29.1159 250.239C29.6579 249.94 30.0312 249.595 30.4045 249.25C30.4045 249.25 30.4169 249.239 30.5834 249.326C31.0891 249.539 31.4282 249.665 31.9658 249.887C33.7804 251.173 35.5986 252.176 36.9587 253.6C38.4588 255.171 39.5386 257.128 40.8014 258.917Z" fill="#E02828"/>
<path d="M61.5323 255.705C61.143 258.717 60.7537 261.729 60.2905 264.913C56.3907 264.617 53.0912 263.051 50.2832 260.151C52.9157 258.297 55.0701 256.232 56.1621 253.001C57.787 249.687 59.2873 246.551 60.8463 243.444C61.7257 241.691 63.0741 240.993 65.0024 242.056C66.0569 242.637 67.09 243.256 68.1327 243.858C68.1327 243.858 68.1218 243.867 68.082 243.993C68.1612 244.247 68.2802 244.374 68.3992 244.502C68.3992 244.502 68.3866 244.504 68.3508 244.629C68.4316 244.882 68.5482 245.01 68.6649 245.138C68.6649 245.138 68.6524 245.14 68.6157 245.265C68.6963 245.518 68.8134 245.644 68.9306 245.771C68.9306 245.771 68.9182 245.776 68.815 245.933C68.4894 247.082 68.2671 248.075 68.0448 249.068C68.0448 249.068 68.0524 249.061 67.9058 249.008C67.2728 249.106 66.7865 249.256 66.3002 249.407C66.3002 249.407 66.3138 249.371 66.247 249.39C66.1311 249.436 66.0402 249.462 66.0403 249.489C66.0411 249.595 66.0707 249.702 66.0895 249.808C65.6789 250.243 65.2682 250.677 64.5374 251.173C63.9545 251.608 63.6918 251.982 63.4292 252.355C63.4292 252.355 63.4437 252.336 63.2563 252.371C62.5567 253.506 62.0445 254.606 61.5323 255.705Z" fill="#027B38"/>
<path d="M68.1172 243.668C67.0888 243.256 66.0557 242.637 65.0013 242.056C63.073 240.993 61.7246 241.691 60.8452 243.444C59.2862 246.551 57.7859 249.687 56.0026 252.94C55.1692 252.678 54.5942 252.288 53.9421 251.763C53.4999 251.442 53.135 251.257 52.587 250.962C51.7393 250.588 51.0746 250.323 50.3527 249.955C50.2216 249.709 50.1886 249.557 50.197 249.398C52.0569 250.19 53.9168 250.981 56.1307 251.923C56.7614 250.441 57.4455 248.678 58.2549 246.974C59.1026 245.19 59.9594 243.39 61.0467 241.75C61.423 241.182 62.6826 240.619 63.2278 240.836C64.9326 241.516 66.489 242.569 68.1172 243.668Z" fill="#558935"/>
<path d="M75.8485 292.418C76.3924 291.11 77.1404 289.663 77.6831 288.141C79.2529 283.741 80.7403 279.31 82.3516 274.715C82.359 275.99 82.6119 277.568 82.1275 278.869C80.683 282.75 78.9727 286.532 77.307 290.327C76.9993 291.028 76.4153 291.608 75.8485 292.418Z" fill="#98323C"/>
<path d="M61.7155 255.777C62.0445 254.606 62.5567 253.507 63.266 252.364C62.6636 253.958 62.0321 255.134 64.9286 255.694C67.7897 256.246 70.492 257.746 72.2004 260.571C71.7848 260.498 71.2893 260.322 70.9726 259.985C68.5078 257.364 65.3769 256.235 61.7155 255.777Z" fill="#98323C"/>
<path d="M31.769 249.791C31.4298 249.665 31.0907 249.539 30.5934 249.326C32.8011 247.8 35.2254 248.52 37.6399 249.199C38.7213 249.502 39.7868 249.864 41.074 250.213C41.2885 250.227 41.3142 250.271 41.217 250.44C40.1059 250.541 39.0037 250.706 38.0961 250.358C35.9982 249.556 33.9819 248.66 31.769 249.791Z" fill="#AD3946"/>
<path d="M80.4751 268.802C78.5114 267.961 76.4958 266.995 74.5662 265.882C74.0534 265.586 73.8046 264.839 73.4922 264.119C75.8516 265.5 78.1535 267.061 80.4751 268.802Z" fill="#98323C"/>
<path d="M26.0608 252.736C24.5251 256.362 22.7922 260.011 20.9633 263.867C22.0391 261.007 23.1725 257.923 24.4096 254.882C24.7255 254.105 25.3702 253.462 26.0608 252.736Z" fill="#AD3946"/>
<path d="M50.989 307.878C53.2059 308.817 55.2946 309.866 57.5687 311.008C56.0321 310.664 54.3132 310.213 52.5865 309.795C51.8276 309.612 51.0526 309.497 50.1028 309.357C50.234 308.905 50.5474 308.447 50.989 307.878Z" fill="#AD3946"/>
<path d="M68.2159 249.086C68.2656 248.076 68.4879 247.083 68.8203 245.932C69.5379 247.021 70.0541 248.253 68.2159 249.086Z" fill="#558935"/>
<path d="M50.042 249.3C50.1895 249.558 50.2224 249.709 50.1776 249.991C49.0889 249.787 48.1191 249.445 47.1446 249.083C47.14 249.064 47.129 249.025 47.129 249.025C48.048 249.084 48.9671 249.143 50.042 249.3Z" fill="#AD3946"/>
<path d="M61.7974 309.603C62.0621 309.137 62.4978 308.677 63.1024 308.214C62.837 308.676 62.4027 309.142 61.7974 309.603Z" fill="#AD3946"/>
<path d="M28.7656 250.187C28.5011 250.656 28.0651 251.115 27.4602 251.574C27.7256 251.109 28.1598 250.642 28.7656 250.187Z" fill="#AD3946"/>
<path d="M44.9333 249.133C45.5559 249.06 46.1784 248.987 46.9646 248.969C47.1283 249.025 47.1393 249.064 47.0073 249.172C46.2347 249.257 45.5941 249.234 44.9491 249.192C44.9447 249.172 44.9333 249.133 44.9333 249.133Z" fill="#AD3946"/>
<path d="M30.2448 249.234C30.0306 249.595 29.6573 249.941 29.1204 250.237C29.3332 249.865 29.7095 249.542 30.2448 249.234Z" fill="#AD3946"/>
<path d="M73.0591 262.505C72.7949 262.337 72.586 262.016 72.4258 261.548C72.6878 261.718 72.9011 262.036 73.0591 262.505Z" fill="#98323C"/>
<path d="M68.3703 302.959C68.4836 302.486 68.7755 301.995 69.2355 301.455C69.1187 301.918 68.8337 302.429 68.3703 302.959Z" fill="#AD3946"/>
<path d="M66.4467 249.473C66.7866 249.256 67.2729 249.106 67.9109 249.01C67.5728 249.222 67.083 249.38 66.4467 249.473Z" fill="#558935"/>
<path d="M64.2837 307.505C64.3474 307.162 64.5784 306.811 64.9684 306.423C64.9019 306.756 64.6764 307.126 64.2837 307.505Z" fill="#AD3946"/>
<path d="M66.3203 305.239C66.3854 304.897 66.6181 304.545 67.01 304.155C66.9421 304.488 66.715 304.858 66.3203 305.239Z" fill="#AD3946"/>
<path d="M65.3033 306.374C65.3675 306.032 65.5992 305.68 65.9897 305.289C65.9226 305.621 65.6967 305.992 65.3033 306.374Z" fill="#AD3946"/>
<path d="M67.3408 304.104C67.4048 303.764 67.6358 303.412 68.0253 303.02C67.9585 303.351 67.7332 303.722 67.3408 304.104Z" fill="#AD3946"/>
<path d="M27.1101 251.581C27.0501 251.935 26.8209 252.288 26.4316 252.675C26.4946 252.333 26.7177 251.957 27.1101 251.581Z" fill="#AD3946"/>
<path d="M63.5983 252.333C63.69 251.982 63.9526 251.609 64.3958 251.234C64.3074 251.592 64.0384 251.952 63.5983 252.333Z" fill="#C22220"/>
<path d="M43.8354 249.19C44.1055 249.142 44.3757 249.094 44.7898 249.089C44.9338 249.133 44.9452 249.172 44.8244 249.255C44.4241 249.32 44.1447 249.302 43.8587 249.261C43.8521 249.237 43.8354 249.19 43.8354 249.19Z" fill="#AD3946"/>
<path d="M81.2133 269.66C80.9889 269.632 80.7669 269.458 80.5251 269.143C80.7421 269.171 80.979 269.342 81.2133 269.66Z" fill="#98323C"/>
<path d="M82.417 273.297C82.2952 273.169 82.2293 272.905 82.2266 272.513C82.3509 272.644 82.4119 272.903 82.417 273.297Z" fill="#98323C"/>
<path d="M82.4911 274.376C82.373 274.247 82.3102 273.982 82.3086 273.588C82.4287 273.719 82.4876 273.98 82.4911 274.376Z" fill="#98323C"/>
<path d="M60.9492 310.288C60.9756 310.069 61.1522 309.853 61.4742 309.619C61.4462 309.831 61.2728 310.061 60.9492 310.288Z" fill="#AD3946"/>
<path d="M63.434 308.206C63.4612 307.99 63.638 307.776 63.9585 307.541C63.9292 307.749 63.7564 307.979 63.434 308.206Z" fill="#AD3946"/>
<path d="M57.9071 311.15C58.0362 311.039 58.3073 310.979 58.7141 310.981C58.5828 311.095 58.316 311.148 57.9071 311.15Z" fill="#AD3946"/>
<path d="M82.2982 272.231C82.1297 272.266 82.0402 272.142 82.0174 271.862C82.1927 271.815 82.2904 271.937 82.2982 272.231Z" fill="#98323C"/>
<path d="M82.0314 271.597C81.8642 271.63 81.7754 271.505 81.7526 271.224C81.9263 271.179 82.0235 271.302 82.0314 271.597Z" fill="#98323C"/>
<path d="M81.7669 270.961C81.6015 270.994 81.5123 270.868 81.487 270.588C81.6603 270.543 81.7577 270.667 81.7669 270.961Z" fill="#98323C"/>
<path d="M81.5004 270.326C81.3348 270.359 81.2447 270.235 81.2187 269.955C81.3941 269.908 81.4919 270.031 81.5004 270.326Z" fill="#98323C"/>
<path d="M73.5578 263.807C73.3976 263.836 73.3085 263.706 73.2766 263.423C73.3776 263.431 73.476 263.559 73.5578 263.807Z" fill="#98323C"/>
<path d="M41.2761 250.204C41.3966 250.091 41.5284 250.001 41.7921 249.941C41.9239 249.97 41.9395 250.009 41.8479 250.079C41.6194 250.225 41.4718 250.266 41.3132 250.271C41.3132 250.271 41.2874 250.227 41.2761 250.204Z" fill="#AD3946"/>
<path d="M73.2895 263.172C73.1296 263.201 73.0395 263.073 73.005 262.79C73.1064 262.798 73.206 262.924 73.2895 263.172Z" fill="#98323C"/>
<path d="M41.9167 249.95C42.0414 249.842 42.1736 249.753 42.4368 249.694C42.5679 249.724 42.5829 249.761 42.4892 249.831C42.2541 249.977 42.1022 250.013 41.9398 250.009C41.9398 250.009 41.9242 249.97 41.9167 249.95Z" fill="#AD3946"/>
<path d="M42.5604 249.705C42.6848 249.596 42.8163 249.506 43.0792 249.446C43.2105 249.476 43.2254 249.513 43.1319 249.583C42.8973 249.731 42.7454 249.767 42.5826 249.762C42.5826 249.762 42.5675 249.724 42.5604 249.705Z" fill="#AD3946"/>
<path d="M43.2027 249.457C43.3264 249.348 43.4571 249.257 43.7116 249.178C43.8354 249.19 43.8521 249.237 43.7632 249.324C43.5341 249.484 43.3842 249.518 43.2247 249.513C43.2247 249.513 43.2098 249.476 43.2027 249.457Z" fill="#AD3946"/>
<path d="M72.4855 261.266C72.324 261.296 72.2345 261.168 72.2041 260.888C72.3069 260.895 72.405 261.021 72.4855 261.266Z" fill="#98323C"/>
<path d="M69.5081 301.421C69.4775 301.299 69.5874 301.219 69.825 301.154C69.9041 301.312 69.8028 301.41 69.5081 301.421Z" fill="#AD3946"/>
<path d="M66.1888 249.724C66.0692 249.701 66.0397 249.595 66.0389 249.489C66.0387 249.462 66.1297 249.435 66.2637 249.397C66.329 249.47 66.3092 249.555 66.1888 249.724Z" fill="#558935"/>
<path d="M68.9541 245.646C68.8142 245.645 68.697 245.518 68.6217 245.262C68.7681 245.262 68.8724 245.392 68.9541 245.646Z" fill="#558935"/>
<path d="M68.6878 245.012C68.5486 245.01 68.432 244.882 68.3564 244.626C68.5018 244.627 68.6061 244.756 68.6878 245.012Z" fill="#558935"/>
<path d="M68.4224 244.377C68.2799 244.374 68.161 244.247 68.0886 243.991C68.2387 243.993 68.3423 244.122 68.4224 244.377Z" fill="#558935"/>
<path d="M60.2731 310.555C60.2415 310.397 60.3707 310.311 60.6575 310.286C60.6507 310.386 60.5237 310.48 60.2731 310.555Z" fill="#AD3946"/>
<path d="M59.6302 310.804C59.5988 310.646 59.7286 310.561 60.0159 310.535C60.0089 310.634 59.8815 310.729 59.6302 310.804Z" fill="#AD3946"/>
<path d="M58.9887 311.053C58.956 310.894 59.0855 310.809 59.3738 310.785C59.3671 310.884 59.2398 310.978 58.9887 311.053Z" fill="#AD3946"/>
<path d="M43.1304 249.583C43.3835 249.518 43.5333 249.484 43.769 249.348C44.144 249.302 44.4234 249.319 44.828 249.274C45.5938 249.234 46.2344 249.257 47.0116 249.191C48.1181 249.445 49.088 249.787 50.2337 250.094C51.0744 250.323 51.7391 250.587 52.6598 251.095C53.2835 251.524 53.6514 251.711 54.0192 251.897C54.5941 252.287 55.1691 252.677 55.9024 253.129C55.0689 256.231 52.9145 258.297 50.1305 260.044C47.1588 258.967 44.3464 257.4 40.9684 258.902C39.5376 257.128 38.4578 255.171 36.9577 253.6C35.5976 252.176 33.7794 251.173 31.9647 249.887C33.9793 248.66 35.9956 249.556 38.0935 250.358C39.0011 250.705 40.1033 250.541 41.2144 250.44C41.4702 250.266 41.6179 250.224 41.8464 250.078C42.1004 250.013 42.2523 249.977 42.4874 249.831C42.7439 249.766 42.8958 249.73 43.1304 249.583Z" fill="#C22220"/>
<path d="M39.9054 268.671C41.5136 264.661 43.076 263.687 45.953 264.74C49.0858 265.888 50.1981 267.717 49.543 270.645C49.1263 272.507 46.7668 274.21 44.8408 274.038C41.7509 273.763 39.9923 271.939 39.9054 268.671Z" fill="#E55A40"/>
<path d="M53.9427 251.762C53.6521 251.711 53.2843 251.524 52.8436 251.204C53.1356 251.256 53.5005 251.442 53.9427 251.762Z" fill="#AD3946"/>
</svg>
