<svg width="261" height="132" viewBox="0 0 261 132" fill="none" xmlns="http://www.w3.org/2000/svg">
<mask id="path-1-inside-1_1644_9086" fill="white">
<path fill-rule="evenodd" clip-rule="evenodd" d="M227 96.5C227 85.9648 222.411 76.5015 215.123 70C222.411 63.4985 227 54.0352 227 43.5C227 23.8939 211.106 8 191.5 8C181.232 8 171.982 12.3595 165.5 19.3285C159.018 12.3595 149.768 8 139.5 8C129.232 8 119.982 12.3595 113.5 19.3285C107.018 12.3595 97.7682 8 87.5 8C77.2318 8 67.9819 12.3595 61.5 19.3285C55.0181 12.3595 45.7682 8 35.5 8C15.8939 8 0 23.8939 0 43.5C0 54.0352 4.58914 63.4985 11.8774 70C4.58914 76.5015 0 85.9648 0 96.5C0 116.106 15.8939 132 35.5 132C45.7682 132 55.0181 127.641 61.5 120.671C67.9819 127.641 77.2318 132 87.5 132C97.7682 132 107.018 127.641 113.5 120.671C119.982 127.641 129.232 132 139.5 132C149.768 132 159.018 127.641 165.5 120.671C171.982 127.641 181.232 132 191.5 132C211.106 132 227 116.106 227 96.5Z"/>
</mask>
<path fill-rule="evenodd" clip-rule="evenodd" d="M227 96.5C227 85.9648 222.411 76.5015 215.123 70C222.411 63.4985 227 54.0352 227 43.5C227 23.8939 211.106 8 191.5 8C181.232 8 171.982 12.3595 165.5 19.3285C159.018 12.3595 149.768 8 139.5 8C129.232 8 119.982 12.3595 113.5 19.3285C107.018 12.3595 97.7682 8 87.5 8C77.2318 8 67.9819 12.3595 61.5 19.3285C55.0181 12.3595 45.7682 8 35.5 8C15.8939 8 0 23.8939 0 43.5C0 54.0352 4.58914 63.4985 11.8774 70C4.58914 76.5015 0 85.9648 0 96.5C0 116.106 15.8939 132 35.5 132C45.7682 132 55.0181 127.641 61.5 120.671C67.9819 127.641 77.2318 132 87.5 132C97.7682 132 107.018 127.641 113.5 120.671C119.982 127.641 129.232 132 139.5 132C149.768 132 159.018 127.641 165.5 120.671C171.982 127.641 181.232 132 191.5 132C211.106 132 227 116.106 227 96.5Z" fill="#FFF7EA"/>
<path d="M215.123 70L212.46 67.015L209.114 70L212.46 72.985L215.123 70ZM165.5 19.3285L162.571 22.0527L165.5 25.2018L168.429 22.0527L165.5 19.3285ZM113.5 19.3285L110.571 22.0527L113.5 25.2018L116.429 22.0527L113.5 19.3285ZM61.5 19.3285L58.571 22.0527L61.5 25.2018L64.429 22.0527L61.5 19.3285ZM11.8774 70L14.5402 72.985L17.8863 70L14.5402 67.015L11.8774 70ZM61.5 120.671L64.429 117.947L61.5 114.798L58.571 117.947L61.5 120.671ZM113.5 120.671L116.429 117.947L113.5 114.798L110.571 117.947L113.5 120.671ZM165.5 120.671L168.429 117.947L165.5 114.798L162.571 117.947L165.5 120.671ZM212.46 72.985C218.933 78.7596 223 87.1523 223 96.5H231C231 84.7773 225.888 74.2433 217.785 67.015L212.46 72.985ZM223 43.5C223 52.8477 218.933 61.2404 212.46 67.015L217.785 72.985C225.888 65.7567 231 55.2227 231 43.5H223ZM191.5 12C208.897 12 223 26.103 223 43.5H231C231 21.6848 213.315 4 191.5 4V12ZM168.429 22.0527C174.186 15.8632 182.389 12 191.5 12V4C180.075 4 169.778 8.85574 162.571 16.6043L168.429 22.0527ZM139.5 12C148.611 12 156.814 15.8632 162.571 22.0527L168.429 16.6043C161.222 8.85574 150.925 4 139.5 4V12ZM116.429 22.0527C122.186 15.8632 130.389 12 139.5 12V4C128.075 4 117.778 8.85574 110.571 16.6043L116.429 22.0527ZM87.5 12C96.6113 12 104.814 15.8632 110.571 22.0527L116.429 16.6043C109.222 8.85574 98.925 4 87.5 4V12ZM64.429 22.0527C70.1858 15.8632 78.3887 12 87.5 12V4C76.075 4 65.7779 8.85574 58.571 16.6043L64.429 22.0527ZM35.5 12C44.6113 12 52.8142 15.8632 58.571 22.0527L64.429 16.6043C57.2221 8.85574 46.925 4 35.5 4V12ZM4 43.5C4 26.103 18.103 12 35.5 12V4C13.6848 4 -4 21.6848 -4 43.5H4ZM14.5402 67.015C8.06662 61.2404 4 52.8477 4 43.5H-4C-4 55.2227 1.11166 65.7567 9.21472 72.985L14.5402 67.015ZM4 96.5C4 87.1523 8.06662 78.7596 14.5402 72.985L9.21472 67.015C1.11166 74.2433 -4 84.7773 -4 96.5H4ZM35.5 128C18.103 128 4 113.897 4 96.5H-4C-4 118.315 13.6848 136 35.5 136V128ZM58.571 117.947C52.8142 124.137 44.6113 128 35.5 128V136C46.925 136 57.2221 131.144 64.429 123.396L58.571 117.947ZM87.5 128C78.3887 128 70.1858 124.137 64.429 117.947L58.571 123.396C65.7779 131.144 76.075 136 87.5 136V128ZM110.571 117.947C104.814 124.137 96.6113 128 87.5 128V136C98.925 136 109.222 131.144 116.429 123.396L110.571 117.947ZM139.5 128C130.389 128 122.186 124.137 116.429 117.947L110.571 123.396C117.778 131.144 128.075 136 139.5 136V128ZM162.571 117.947C156.814 124.137 148.611 128 139.5 128V136C150.925 136 161.222 131.144 168.429 123.396L162.571 117.947ZM191.5 128C182.389 128 174.186 124.137 168.429 117.947L162.571 123.396C169.778 131.144 180.075 136 191.5 136V128ZM223 96.5C223 113.897 208.897 128 191.5 128V136C213.315 136 231 118.315 231 96.5H223Z" fill="#1F8D61" mask="url(#path-1-inside-1_1644_9086)"/>
<g filter="url(#filter0_d_1644_9086)">
<path d="M187.524 101.206C187.532 101.122 187.54 101.038 187.617 100.714C187.604 100.207 187.522 99.9425 187.44 99.6776C187.44 99.6776 187.394 99.6487 187.499 99.4781C188.316 97.3168 190.234 99.3851 192.271 99.5573C190.258 98.3464 188.874 97.5139 187.49 96.6814C187.49 96.6814 187.501 96.6734 187.5 96.5724C187.475 96.3278 187.402 96.1932 187.279 96.0674C187.287 95.986 187.295 95.9046 187.39 95.5778C187.489 94.9482 187.5 94.5639 187.512 94.1797C188.087 88.7346 188.293 83.1686 189.327 77.874C190.723 70.7197 192.666 63.7226 196.485 57.5696C198.319 54.615 200.733 52.0295 205.569 51.4545C206.098 51.5022 206.247 51.4492 206.355 51.3421C206.355 51.3421 206.37 51.3188 206.524 51.3481C206.863 51.3759 207.007 51.3213 207.11 51.2136C207.11 51.2136 207.125 51.1888 207.278 51.2193C207.614 51.2509 207.755 51.1973 207.853 51.0888C207.853 51.0888 207.876 51.0532 208.134 51.1927C216.557 55.4976 219.316 60.0724 217.727 66.498C217.328 68.1129 217.554 69.9909 214.97 69.4021C215.416 70.4118 216.435 71.7007 216.1 72.1332C214.239 74.5373 215.237 78.8827 210.533 79.2399C213.413 82.0949 209.965 83.0623 209.029 84.4577C207.963 86.0467 208.117 89.3677 203.051 87.4248C204.274 88.3877 204.884 88.8677 205.59 89.4238C203.866 91.4685 202.317 93.4943 200.52 95.3412C199.83 96.0506 197.812 96.1301 197.713 96.8786C197.317 99.8654 194.394 100.818 192.058 102.15C191.204 102.638 189.222 101.971 187.754 101.83C187.754 101.83 187.717 101.81 187.73 101.701C187.72 101.453 187.647 101.324 187.524 101.206ZM204.764 57.4592C205.948 58.4076 207.133 59.356 208.317 60.3044C208.179 60.4363 208.04 60.5683 207.902 60.7002C206.487 59.8922 204.967 59.19 203.682 58.2504C201.936 56.9734 201.087 57.2233 200.885 58.6354C200.626 60.4413 200.903 62.297 203.265 63.8048C206.275 65.7267 209.141 66.3316 210.726 64.8269C211.87 63.7415 212.502 61.8907 212.278 60.2517C212.04 58.5046 207.977 56.1056 205.813 56.0493C205.254 56.0348 204.898 56.7658 204.764 57.4592Z" fill="#EF7322"/>
<path d="M187.693 101.981C189.222 101.972 191.204 102.639 192.059 102.152C194.394 100.819 197.318 99.8665 197.713 96.8797C197.813 96.1312 199.831 96.0517 200.521 95.3424C202.317 93.4954 203.867 91.4696 205.59 89.425C204.884 88.8688 204.274 88.3888 203.051 87.426C208.117 89.3689 207.963 86.0479 209.029 84.4588C209.966 83.0634 213.414 82.0961 210.533 79.241C215.237 78.8839 214.239 74.5385 216.101 72.1343C216.435 71.7018 215.416 70.4129 214.97 69.4033C217.554 69.992 217.328 68.114 217.727 66.4991C219.316 60.0735 216.557 55.4987 208.162 51.2057C209.259 51.0421 210.587 51.0062 212.209 51.0146C215.375 52.414 218.248 53.7691 221.121 55.1243C221.585 55.688 221.942 56.3542 222.53 56.7994C227.775 60.7678 228.769 65.0771 227.876 69.5292C226.825 74.7689 223.881 79.0475 220.522 83.0879C216.778 87.5915 213.461 92.4534 208.954 96.3559C204.583 100.141 199.113 103.089 193.783 106.048C190.845 107.679 188.978 106.61 187.943 103.301C187.821 102.911 187.735 102.521 187.693 101.981Z" fill="#D66B20"/>
<path d="M227.207 24.5466C226.008 23.9223 224.818 23.2771 223.606 22.679C222.112 21.9418 220.511 21.3599 219.117 20.4962C217.738 19.6414 217.758 18.7778 219.087 18.3018C220.248 17.886 221.204 17.3904 219.388 16.0915C219.308 16.0343 219.184 15.9115 219.2 15.8805C219.947 14.4687 220.369 12.7967 221.564 11.7358C222.678 10.7475 223.759 12.104 224.779 13.1383C225.967 14.3428 227.491 15.3524 229.206 16.7145C229.093 16.8018 229.795 16.5746 229.769 16.2302C229.618 14.181 230.575 14.0434 232.781 15.2741C235.543 16.8151 235.189 14.4919 235.794 14.0315C238.11 14.1926 240.021 14.2079 241.953 14.5241C242.625 14.6341 243.887 15.5459 243.956 15.9924C244.246 17.8684 244.186 19.7069 244.255 21.5592C243.945 21.5591 243.635 21.5591 243.325 21.5591C243.761 21.9004 244.298 22.2021 244.607 22.5931C244.978 23.0616 245.333 23.6421 245.338 24.1022C245.341 24.3168 244.503 24.3619 244.047 24.4843C243.198 24.712 242.349 24.9402 241.419 25.3162C241.338 25.4643 241.337 25.4434 241.197 25.3955C241.056 25.3475 240.774 25.2508 240.69 25.0682C239.653 24.3131 238.7 23.7406 238.053 23.3516C237.935 24.2319 237.837 24.9608 237.533 25.6243C235.902 26.3273 234.478 27.0958 233.053 27.8644C233.392 28.1755 233.73 28.4865 234.069 28.7976C235.296 27.7676 236.522 26.7375 237.924 25.6879C238.45 25.4847 238.801 25.301 239.733 24.8133C239.718 25.6861 239.707 26.2852 239.687 27.4194C241.187 26.6806 241.81 26.3741 242.432 26.0675C243.404 26.456 244.377 26.8445 245.349 27.233C244.924 27.8048 244.479 28.3645 244.084 28.9534C243.891 29.2397 243.548 29.6231 243.691 29.8901C244.86 32.0794 243.321 31.8223 241.57 31.6494C241.031 31.5961 240.45 32.1848 240.182 32.6392C239.846 33.2101 239.812 33.9451 239.647 34.6093C238.222 34.0734 236.639 33.7362 235.411 32.9502C233.945 32.0124 233.203 29.9088 230.731 30.5221C230.508 28.3292 230.429 26.2985 230.355 24.3998C231.591 23.8469 232.833 23.2918 234.075 22.7366C233.891 22.51 233.708 22.2834 233.524 22.0568C230.769 21.9821 229 23.2806 227.207 24.5466Z" fill="#3F9242"/>
<path d="M221.226 54.9852C218.248 53.7683 215.374 52.4132 212.333 50.9208C212.401 47.63 212.768 44.5048 212.813 41.3093C212.831 39.984 212.159 38.5084 211.743 36.7909C212.286 35.8959 213.334 35.4294 213.399 34.7028C213.547 33.0509 213.211 31.2712 213.071 29.5434C212.943 28.8014 212.816 28.0594 212.919 27.1175C215.799 27.3209 214.176 28.9529 215.102 29.8255C218.339 32.875 218.234 35.5642 216.488 38.1153C216.379 38.2748 216.513 38.5771 216.585 38.9923C216.799 41.2348 216.961 43.298 217.087 44.9101C218.635 42.2794 220.335 39.3893 222.02 36.3933C221.971 36.1413 221.897 36.0021 221.789 35.764C221.795 35.6585 221.879 35.4735 222.082 35.5332C223.43 35.6562 224.576 35.7194 225.703 35.91C225.664 36.1194 225.644 36.2016 225.561 36.4095C225.414 36.7033 225.33 36.8715 225.059 37.0655C224.72 37.6323 224.568 38.1732 224.328 38.9022C222.606 42.9946 220.973 46.8991 219.34 50.8035C219.669 50.9917 219.998 51.18 220.327 51.3682C221.167 50.5604 222.008 49.7527 223.029 48.9273C223.478 48.6212 223.747 48.3327 224.217 48.0462C227.059 46.5404 230.16 45.3974 231.102 42.4035C233.657 42.566 235.705 42.2213 237.291 41.0558C237.699 41.8027 237.96 42.4129 238.22 43.023C237.62 43.4229 237.02 43.8228 236.086 44.3243C234.352 45.0878 232.952 45.7497 232.143 46.1323C232.424 47.1287 232.603 47.761 232.781 48.3934C228.243 48.1343 226.495 51.0004 223.811 52.8077C222.907 53.416 222.153 54.1632 221.226 54.9852Z" fill="#04843D"/>
<path d="M216.536 38.813C216.515 38.5771 216.382 38.2748 216.491 38.1153C218.237 35.5642 218.341 32.875 215.104 29.8255C214.178 28.9529 215.801 27.3209 212.986 26.9823C212.621 26.7622 212.421 26.4773 212.066 25.9839C211.77 25.6186 211.61 25.5765 211.431 25.649C211.431 25.649 211.143 25.5745 210.757 25.4061C209.383 24.7642 208.397 24.2907 207.41 23.8171C207.41 23.8171 207.473 23.8227 207.505 23.6672C206.77 22.7507 206.002 21.9897 205.235 21.2286C205.235 21.2286 205.26 21.2125 205.424 21.1727C207.695 21.3645 209.136 21.1576 208.027 18.8477C207.805 18.3868 208.364 17.8241 208.562 17.3084C208.562 17.3084 208.585 17.3351 208.773 17.3067C209.348 16.7408 209.735 16.2032 210.122 15.6656C210.373 15.7732 210.624 15.8807 211.118 16.2358C211.645 16.6859 211.929 16.8886 212.213 17.0914C212.213 17.0914 212.183 17.1106 212.204 17.2187C212.34 17.4776 212.453 17.6284 212.567 17.7792C212.567 17.7792 212.534 17.7585 212.5 17.8776C213.045 18.1845 213.624 18.3722 214.202 18.5599C214.202 18.5599 214.202 18.5941 214.348 18.6623C214.605 18.778 214.717 18.8254 214.828 18.8727C214.828 18.8727 214.776 18.8624 214.793 19.0038C215.413 20.083 213.846 21.2331 216.068 22.0123C216.068 22.0123 216.295 22.1727 216.448 22.3414C216.767 22.5118 216.933 22.5137 217.1 22.5155C217.1 22.5155 217.111 22.5442 217.312 22.6468C221.389 26.1235 216.35 25.0928 215.633 26.5462C216.51 26.9782 217.515 27.7784 218.284 27.7838C219.549 27.7927 220.661 27.287 221.838 26.9983C223.518 27.2379 225.198 27.4775 227.107 27.8217C226.431 28.5609 225.527 29.1954 224.61 29.8381C225.545 30.6403 226.221 31.2206 227.065 31.9457C225.614 32.0185 224.515 32.0737 223.275 32.1132C222.948 32.1022 222.792 32.1509 222.484 32.1861C221.942 32.2909 221.581 32.4534 221.221 32.6159C221.337 32.7485 221.454 32.8811 221.57 33.0136C221.959 32.8007 222.347 32.5878 222.875 32.3848C223.197 32.3815 223.349 32.3276 223.653 32.3489C224.464 33.5708 225.094 34.6768 225.724 35.7827C224.578 35.7194 223.433 35.6562 221.862 35.3869C219.715 34.1243 218.74 34.4053 218.184 35.6995C217.721 36.7772 217.091 37.7781 216.536 38.813Z" fill="#33A244"/>
<path d="M212.961 29.6733C213.211 31.271 213.547 33.0507 213.399 34.7025C213.334 35.4292 212.286 35.8957 211.628 36.6338C210.523 36.582 208.98 35.9248 208.509 36.2495C206.486 37.6441 204.846 35.899 202.869 35.0271C203.102 33.6881 204.406 32.1704 201.111 31.4463C200.806 31.3792 200.34 30.6167 200.246 30.1949C199.969 28.9562 199.842 27.7266 199.639 26.3759C201.461 25.8873 205.536 27.2352 207.07 29.1071C208.557 29.011 210.311 27.4332 211.636 30.2354C212.041 30.0914 212.446 29.9474 212.961 29.6733Z" fill="#3F9242"/>
<path d="M238.464 43.0544C237.96 42.4131 237.7 41.8029 237.226 40.9142C235.264 40.4928 233.517 40.3499 231.467 40.1822C231.97 39.3882 232.558 38.4606 232.87 37.9676C232.263 37.0278 231.924 36.4031 231.467 35.8252C231.079 35.3355 230.554 34.9001 230.09 34.4406C230.902 34.6186 232.196 34.642 232.45 34.9998C234.093 37.3101 235.679 37.9662 237.59 36.0544C237.648 36.3429 237.707 36.6315 237.765 36.92C239.02 36.9777 240.271 36.8892 241.532 37.1268C243.514 37.5003 245.588 37.8877 247.438 38.7204C247.985 38.967 248.12 40.7874 248.024 41.7732C247.978 42.2453 246.951 42.4527 246.309 42.8129C246.54 43.388 246.822 44.0908 247.41 45.5582C245.041 44.9391 243.146 44.4637 241.255 43.9408C240.401 43.7044 239.556 43.3735 238.464 43.0544Z" fill="#3F9242"/>
<path d="M232.965 48.5054C232.602 47.7617 232.424 47.1293 232.143 46.133C232.952 45.7503 234.352 45.0884 235.936 44.3927C237.623 44.8494 238.76 45.3715 239.857 46.7902C240.809 48.0216 243.12 48.7168 244.784 49.7152C245.48 50.1328 246.055 50.7212 247.082 51.5544C244.358 51.8284 243.19 54.4347 239.864 51.7531C239.34 52.3425 238.907 52.8297 238.204 53.6206C237.141 52.8554 235.954 52.1771 235.07 51.3116C234.259 50.5183 233.776 49.523 232.965 48.5054Z" fill="#3F9242"/>
<path d="M223.413 32.1288C224.512 32.0737 225.612 32.0185 227.063 31.9456C226.218 31.2206 225.542 30.6402 224.607 29.8381C225.524 29.1953 226.429 28.5608 227.304 27.7872C227.215 26.7164 227.155 25.7847 227.151 24.6998C228.999 23.2806 230.768 21.9821 233.523 22.0568C233.707 22.2834 233.89 22.51 234.074 22.7366C232.832 23.2918 231.59 23.8469 230.354 24.3998C230.428 26.2985 230.507 28.3292 230.511 30.521C230.435 30.682 230.329 30.8544 230.101 30.9474C229.683 31.2233 229.492 31.4064 229.302 31.5894C229.258 31.6516 229.213 31.7137 228.92 31.8938C228.43 32.3188 228.188 32.6258 227.947 32.9329C227.896 32.9943 227.844 33.0556 227.557 33.2319C227.265 33.7366 227.209 34.1264 227.153 34.5162C227.153 34.5162 227.157 34.515 227.202 34.6577C227.512 35.0246 227.776 35.2487 227.974 35.6166C227.785 36.0518 227.663 36.3432 227.347 36.5729C226.644 36.4353 226.134 36.3595 225.624 36.2837C225.644 36.2015 225.664 36.1193 225.703 35.9099C225.092 34.6767 224.462 33.5708 223.638 32.3226C223.444 32.1803 223.413 32.1288 223.413 32.1288Z" fill="#087938"/>
<path d="M227.542 36.635C227.664 36.3436 227.787 36.0522 228.153 35.6823C228.725 35.5953 229.054 35.5868 229.382 35.5783C229.545 35.2855 229.708 34.9928 229.981 34.5703C230.555 34.9001 231.08 35.3356 231.468 35.8252C231.926 36.4031 232.264 37.0278 232.871 37.9676C232.559 38.4606 231.971 39.3883 231.468 40.1823C233.518 40.3499 235.266 40.4928 237.079 40.7776C235.707 42.2216 233.658 42.5663 230.937 42.3128C230.356 42.0634 230.143 41.9306 229.922 41.6316C228.585 40.4436 227.256 39.422 225.841 38.313C225.649 38.0937 225.612 37.9632 225.858 37.925C226.862 37.9138 227.655 37.8115 228.555 37.6481C228.285 37.2913 227.907 36.9956 227.538 36.6858C227.548 36.6717 227.542 36.635 227.542 36.635ZM229.386 39.0036C229.505 39.361 229.623 39.7184 229.741 40.0758C229.966 40.041 230.19 40.0061 230.414 39.9713C230.175 39.6322 229.935 39.2931 229.386 39.0036Z" fill="#33A244"/>
<path d="M221.636 26.8567C220.658 27.2874 219.546 27.793 218.281 27.7842C217.512 27.7788 216.506 26.9786 215.63 26.5466C216.347 25.0932 221.385 26.1239 217.304 22.6332C218.653 22.3808 219.315 23.0146 219.726 24.3385C219.972 25.1313 220.846 25.9227 221.636 26.8567Z" fill="#3F9242"/>
<path d="M237.738 25.6903C237.835 24.9613 237.933 24.2324 238.051 23.3521C238.698 23.7411 239.651 24.3135 240.637 25.1818C240.793 25.6228 240.917 25.7682 241.042 25.9135C241.14 25.757 241.238 25.6004 241.336 25.4439C241.336 25.4439 241.336 25.4648 241.323 25.46C241.556 25.589 241.8 25.7228 242.238 25.9623C241.808 26.3746 241.185 26.6811 239.685 27.4199C239.705 26.2857 239.716 25.6866 239.732 24.8138C238.799 25.3015 238.448 25.4852 237.92 25.6839C237.743 25.699 237.738 25.6903 237.738 25.6903Z" fill="#3D8335"/>
<path d="M208.35 17.2768C208.362 17.8246 207.804 18.3873 208.025 18.8482C209.135 21.1581 207.694 21.3649 205.406 21.1778C205.204 20.9527 205.145 20.4456 205.166 20.4478C207.19 20.6645 207.718 19.9991 206.965 18.3069C206.832 18.0068 207.722 17.6014 208.35 17.2768Z" fill="#3F9242"/>
<path d="M187.43 96.8383C188.874 97.514 190.257 98.3465 192.27 99.5574C190.234 99.3852 188.316 97.3168 187.507 99.4601C187.397 98.7402 187.383 97.8676 187.43 96.8383Z" fill="#D66B20"/>
<path d="M216.046 21.84C213.842 21.2328 215.41 20.0827 214.809 18.9927C215.215 19.7829 215.621 20.7255 216.046 21.84Z" fill="#3F9242"/>
<path d="M205.262 21.3901C206 21.9898 206.768 22.7508 207.473 23.6689C206.703 23.0679 205.997 22.3097 205.262 21.3901Z" fill="#3F9242"/>
<path d="M209.924 15.5466C209.733 16.2035 209.346 16.7411 208.757 17.2964C208.946 16.6851 209.337 16.0562 209.924 15.5466Z" fill="#3F9242"/>
<path d="M207.462 24.0052C208.393 24.2904 209.38 24.764 210.61 25.3622C209.742 25.0558 208.629 24.6247 207.462 24.0052Z" fill="#3F9242"/>
<path d="M229.154 35.4797C229.052 35.5869 228.723 35.5954 228.217 35.5386C227.775 35.2491 227.511 35.025 227.199 34.6584C227.744 34.8042 228.336 35.0926 229.154 35.4797Z" fill="#3D8335"/>
<path d="M213.989 18.4764C213.621 18.3727 213.042 18.1847 212.516 17.8823C212.972 17.9759 213.375 18.184 213.989 18.4764Z" fill="#3F9242"/>
<path d="M227.212 34.3624C227.209 34.1261 227.265 33.7364 227.471 33.3174C227.504 33.595 227.388 33.902 227.212 34.3624Z" fill="#3D8335"/>
<path d="M187.398 94.2925C187.5 94.5643 187.488 94.9485 187.402 95.4561C187.313 95.1879 187.299 94.7964 187.398 94.2925Z" fill="#D66B20"/>
<path d="M228.147 32.9429C228.189 32.6257 228.43 32.3185 228.842 31.9796C228.791 32.2828 228.568 32.6179 228.147 32.9429Z" fill="#3D8335"/>
<path d="M229.484 31.609C229.493 31.4068 229.683 31.2237 230.033 31.0239C230.016 31.2141 229.84 31.421 229.484 31.609Z" fill="#3D8335"/>
<path d="M212.194 16.9398C211.928 16.8881 211.644 16.6855 211.29 16.3435C211.54 16.3989 211.858 16.5939 212.194 16.9398Z" fill="#3F9242"/>
<path d="M187.381 99.7988C187.521 99.9424 187.603 100.207 187.628 100.588C187.488 100.442 187.405 100.181 187.381 99.7988Z" fill="#D66B20"/>
<path d="M212.571 17.6575C212.45 17.6285 212.336 17.4777 212.211 17.2056C212.326 17.2348 212.452 17.3853 212.571 17.6575Z" fill="#3F9242"/>
<path d="M214.819 18.7534C214.715 18.8249 214.604 18.7775 214.33 18.6473C214.382 18.5878 214.596 18.6111 214.819 18.7534Z" fill="#3F9242"/>
<path d="M216.953 22.4617C216.931 22.5141 216.765 22.512 216.555 22.4253C216.512 22.3407 216.808 22.4073 216.953 22.4617Z" fill="#3F9242"/>
<path d="M211.552 25.738C211.607 25.5767 211.767 25.6189 211.937 25.8522C211.967 25.929 211.677 25.8272 211.552 25.738Z" fill="#3F9242"/>
<path d="M187.448 101.289C187.647 101.325 187.72 101.453 187.733 101.686C187.513 101.688 187.396 101.551 187.448 101.289Z" fill="#D66B20"/>
<path d="M187.202 96.1544C187.401 96.1938 187.474 96.3284 187.491 96.5712C187.364 96.5272 187.245 96.384 187.202 96.1544Z" fill="#D66B20"/>
<path d="M207.711 51.0453C207.754 51.198 207.613 51.2517 207.296 51.2277C207.229 51.0607 207.365 50.9928 207.711 51.0453Z" fill="#D66B20"/>
<path d="M206.967 51.1731C207.007 51.3225 206.863 51.3771 206.542 51.3569C206.477 51.1908 206.616 51.1229 206.967 51.1731Z" fill="#D66B20"/>
<path d="M206.209 51.2996C206.246 51.4491 206.097 51.5021 205.769 51.4771C205.713 51.3154 205.858 51.25 206.209 51.2996Z" fill="#D66B20"/>
<path d="M204.607 57.3065C204.898 56.7655 205.254 56.0345 205.813 56.049C207.977 56.1053 212.04 58.5044 212.278 60.2514C212.502 61.8904 211.87 63.7412 210.726 64.8266C209.141 66.3313 206.275 65.7264 203.265 63.8045C200.903 62.2967 200.626 60.441 200.885 58.6351C201.087 57.223 201.936 56.9731 203.682 58.2501C204.967 59.1897 206.487 59.8919 207.902 60.6999C208.04 60.568 208.179 60.436 208.317 60.3041C207.133 59.3557 205.948 58.4073 204.607 57.3065Z" fill="#E59B3A"/>
<path d="M237.746 25.7036C236.522 26.7381 235.295 27.7681 234.068 28.7982C233.729 28.4871 233.391 28.176 233.053 27.8649C234.477 27.0964 235.902 26.3279 237.532 25.6249C237.739 25.6904 237.744 25.6991 237.746 25.7036Z" fill="#3D8335"/>
<path d="M241.197 25.3954C241.24 25.5999 241.142 25.7564 241.043 25.913C240.919 25.7676 240.795 25.6223 240.723 25.3638C240.774 25.2507 241.056 25.3474 241.197 25.3954Z" fill="black"/>
<path d="M216.585 38.9926C217.089 37.7784 217.719 36.7775 218.181 35.6998C218.737 34.4056 219.713 34.1247 221.656 35.3275C221.879 35.4738 221.795 35.6588 221.753 35.8667C221.754 36.2405 221.862 36.3821 222.036 36.4996C220.335 39.3896 218.635 42.2797 217.087 44.9104C216.961 43.2983 216.799 41.2351 216.585 38.9926Z" fill="black"/>
<path d="M225.927 38.3998C227.256 39.4214 228.585 40.4431 229.882 41.641C229.85 41.8172 229.771 41.8358 229.524 41.7015C227.827 40.8531 226.379 40.139 224.804 39.3632C223.358 42.9483 222.042 46.2104 220.564 49.8727C221.571 49.4088 222.176 49.1297 222.798 48.8743C222.815 48.8979 222.85 48.9446 222.85 48.9446C222.009 49.7524 221.168 50.5602 220.328 51.3679C219.999 51.1797 219.67 50.9915 219.341 50.8033C220.974 46.8988 222.607 42.9944 224.5 38.9123C225.149 38.623 225.538 38.5114 225.927 38.3998Z" fill="#3D8335"/>
<path d="M229.888 41.8078C230.141 41.9306 230.354 42.0634 230.734 42.2872C230.159 45.3977 227.059 46.5406 224.196 48.0144C223.976 47.9803 223.935 47.9164 224.033 47.7759C224.935 47.0653 225.802 46.5445 226.532 45.9141C227.891 44.7405 230.437 44.3131 229.769 41.8363C229.769 41.8363 229.849 41.8177 229.888 41.8078Z" fill="#3D8335"/>
<path d="M228.445 37.7091C227.653 37.8113 226.86 37.9135 225.816 37.788C225.458 37.3866 225.352 37.2131 225.245 37.0396C225.329 36.8715 225.413 36.7034 225.561 36.4095C226.134 36.3596 226.644 36.4354 227.347 36.573C227.54 36.6348 227.546 36.6715 227.584 36.8336C227.896 37.2335 228.171 37.4713 228.445 37.7091Z" fill="#3D8335"/>
<path d="M225.059 37.0661C225.352 37.2137 225.459 37.3872 225.605 37.6976C225.611 37.9635 225.648 38.0941 225.84 38.3133C225.537 38.5123 225.148 38.6239 224.588 38.7252C224.568 38.1739 224.72 37.6329 225.059 37.0661Z" fill="#087938"/>
<path d="M223.997 48.0123C223.748 48.3328 223.48 48.6213 223.03 48.9274C222.85 48.945 222.815 48.8983 222.884 48.7488C223.281 48.3716 223.609 48.144 223.937 47.9163C223.937 47.9163 223.977 47.9802 223.997 48.0123Z" fill="#3D8335"/>
<path d="M222.018 36.3936C221.86 36.3821 221.752 36.2405 221.746 35.9722C221.895 36.0024 221.969 36.1416 222.018 36.3936Z" fill="#33A244"/>
<path d="M222.735 32.3747C222.346 32.5876 221.957 32.8005 221.569 33.0134C221.452 32.8808 221.336 32.7482 221.22 32.6157C221.58 32.4532 221.94 32.2907 222.499 32.2193C222.696 32.3105 222.735 32.3747 222.735 32.3747Z" fill="#087938"/>
<path d="M223.456 32.2072C223.346 32.3281 223.194 32.382 222.872 32.3853C222.733 32.3754 222.695 32.3112 222.679 32.2777C222.789 32.1514 222.945 32.1027 223.272 32.1137C223.412 32.1294 223.443 32.1809 223.456 32.2072Z" fill="#087938"/>
<path d="M229.539 38.978C229.933 39.2923 230.173 39.6314 230.413 39.9705C230.188 40.0054 229.964 40.0402 229.74 40.075C229.621 39.7176 229.503 39.3602 229.539 38.978Z" fill="#3D8335"/>
<path d="M228.555 37.6485C228.172 37.4719 227.898 37.2341 227.576 36.8483C227.906 36.996 228.285 37.2917 228.555 37.6485Z" fill="#087938"/>
<path d="M224.032 47.7755C223.607 48.1436 223.279 48.3713 222.866 48.7249C222.175 49.1298 221.569 49.4088 220.562 49.8728C222.04 46.2104 223.356 42.9484 224.803 39.3633C226.377 40.1391 227.826 40.8532 229.522 41.7015C230.437 44.3126 227.891 44.7401 226.532 45.9137C225.802 46.544 224.935 47.0648 224.032 47.7755Z" fill="black"/>
</g>
<defs>
<filter id="filter0_d_1644_9086" x="183.203" y="11.3926" width="68.8496" height="103.408" filterUnits="userSpaceOnUse" color-interpolation-filters="sRGB">
<feFlood flood-opacity="0" result="BackgroundImageFix"/>
<feColorMatrix in="SourceAlpha" type="matrix" values="0 0 0 0 0 0 0 0 0 0 0 0 0 0 0 0 0 0 127 0" result="hardAlpha"/>
<feOffset dy="4"/>
<feGaussianBlur stdDeviation="2"/>
<feComposite in2="hardAlpha" operator="out"/>
<feColorMatrix type="matrix" values="0 0 0 0 0 0 0 0 0 0 0 0 0 0 0 0 0 0 0.25 0"/>
<feBlend mode="normal" in2="BackgroundImageFix" result="effect1_dropShadow_1644_9086"/>
<feBlend mode="normal" in="SourceGraphic" in2="effect1_dropShadow_1644_9086" result="shape"/>
</filter>
</defs>
</svg>
