<svg width="261" height="132" viewBox="0 0 261 132" fill="none" xmlns="http://www.w3.org/2000/svg">
<mask id="path-1-inside-1_1469_10035" fill="white">
<path fill-rule="evenodd" clip-rule="evenodd" d="M227 96.5C227 85.9648 222.411 76.5015 215.123 70C222.411 63.4985 227 54.0352 227 43.5C227 23.8939 211.106 8 191.5 8C181.232 8 171.982 12.3595 165.5 19.3285C159.018 12.3595 149.768 8 139.5 8C129.232 8 119.982 12.3595 113.5 19.3285C107.018 12.3595 97.7682 8 87.5 8C77.2318 8 67.9819 12.3595 61.5 19.3285C55.0181 12.3595 45.7682 8 35.5 8C15.8939 8 0 23.8939 0 43.5C0 54.0352 4.58914 63.4985 11.8774 70C4.58914 76.5015 0 85.9648 0 96.5C0 116.106 15.8939 132 35.5 132C45.7682 132 55.0181 127.641 61.5 120.671C67.9819 127.641 77.2318 132 87.5 132C97.7682 132 107.018 127.641 113.5 120.671C119.982 127.641 129.232 132 139.5 132C149.768 132 159.018 127.641 165.5 120.671C171.982 127.641 181.232 132 191.5 132C211.106 132 227 116.106 227 96.5Z"/>
</mask>
<path fill-rule="evenodd" clip-rule="evenodd" d="M227 96.5C227 85.9648 222.411 76.5015 215.123 70C222.411 63.4985 227 54.0352 227 43.5C227 23.8939 211.106 8 191.5 8C181.232 8 171.982 12.3595 165.5 19.3285C159.018 12.3595 149.768 8 139.5 8C129.232 8 119.982 12.3595 113.5 19.3285C107.018 12.3595 97.7682 8 87.5 8C77.2318 8 67.9819 12.3595 61.5 19.3285C55.0181 12.3595 45.7682 8 35.5 8C15.8939 8 0 23.8939 0 43.5C0 54.0352 4.58914 63.4985 11.8774 70C4.58914 76.5015 0 85.9648 0 96.5C0 116.106 15.8939 132 35.5 132C45.7682 132 55.0181 127.641 61.5 120.671C67.9819 127.641 77.2318 132 87.5 132C97.7682 132 107.018 127.641 113.5 120.671C119.982 127.641 129.232 132 139.5 132C149.768 132 159.018 127.641 165.5 120.671C171.982 127.641 181.232 132 191.5 132C211.106 132 227 116.106 227 96.5Z" fill="#FFF7EA"/>
<path d="M215.123 70L212.46 67.015L209.114 70L212.46 72.985L215.123 70ZM165.5 19.3285L162.571 22.0527L165.5 25.2018L168.429 22.0527L165.5 19.3285ZM113.5 19.3285L110.571 22.0527L113.5 25.2018L116.429 22.0527L113.5 19.3285ZM61.5 19.3285L58.571 22.0527L61.5 25.2018L64.429 22.0527L61.5 19.3285ZM11.8774 70L14.5402 72.985L17.8863 70L14.5402 67.015L11.8774 70ZM61.5 120.671L64.429 117.947L61.5 114.798L58.571 117.947L61.5 120.671ZM113.5 120.671L116.429 117.947L113.5 114.798L110.571 117.947L113.5 120.671ZM165.5 120.671L168.429 117.947L165.5 114.798L162.571 117.947L165.5 120.671ZM212.46 72.985C218.933 78.7596 223 87.1523 223 96.5H231C231 84.7773 225.888 74.2433 217.785 67.015L212.46 72.985ZM223 43.5C223 52.8477 218.933 61.2404 212.46 67.015L217.785 72.985C225.888 65.7567 231 55.2227 231 43.5H223ZM191.5 12C208.897 12 223 26.103 223 43.5H231C231 21.6848 213.315 4 191.5 4V12ZM168.429 22.0527C174.186 15.8632 182.389 12 191.5 12V4C180.075 4 169.778 8.85574 162.571 16.6043L168.429 22.0527ZM139.5 12C148.611 12 156.814 15.8632 162.571 22.0527L168.429 16.6043C161.222 8.85574 150.925 4 139.5 4V12ZM116.429 22.0527C122.186 15.8632 130.389 12 139.5 12V4C128.075 4 117.778 8.85574 110.571 16.6043L116.429 22.0527ZM87.5 12C96.6113 12 104.814 15.8632 110.571 22.0527L116.429 16.6043C109.222 8.85574 98.925 4 87.5 4V12ZM64.429 22.0527C70.1858 15.8632 78.3887 12 87.5 12V4C76.075 4 65.7779 8.85574 58.571 16.6043L64.429 22.0527ZM35.5 12C44.6113 12 52.8142 15.8632 58.571 22.0527L64.429 16.6043C57.2221 8.85574 46.925 4 35.5 4V12ZM4 43.5C4 26.103 18.103 12 35.5 12V4C13.6848 4 -4 21.6848 -4 43.5H4ZM14.5402 67.015C8.06662 61.2404 4 52.8477 4 43.5H-4C-4 55.2227 1.11166 65.7567 9.21472 72.985L14.5402 67.015ZM4 96.5C4 87.1523 8.06662 78.7596 14.5402 72.985L9.21472 67.015C1.11166 74.2433 -4 84.7773 -4 96.5H4ZM35.5 128C18.103 128 4 113.897 4 96.5H-4C-4 118.315 13.6848 136 35.5 136V128ZM58.571 117.947C52.8142 124.137 44.6113 128 35.5 128V136C46.925 136 57.2221 131.144 64.429 123.396L58.571 117.947ZM87.5 128C78.3887 128 70.1858 124.137 64.429 117.947L58.571 123.396C65.7779 131.144 76.075 136 87.5 136V128ZM110.571 117.947C104.814 124.137 96.6113 128 87.5 128V136C98.925 136 109.222 131.144 116.429 123.396L110.571 117.947ZM139.5 128C130.389 128 122.186 124.137 116.429 117.947L110.571 123.396C117.778 131.144 128.075 136 139.5 136V128ZM162.571 117.947C156.814 124.137 148.611 128 139.5 128V136C150.925 136 161.222 131.144 168.429 123.396L162.571 117.947ZM191.5 128C182.389 128 174.186 124.137 168.429 117.947L162.571 123.396C169.778 131.144 180.075 136 191.5 136V128ZM223 96.5C223 113.897 208.897 128 191.5 128V136C213.315 136 231 118.315 231 96.5H223Z" fill="#1F8D61" mask="url(#path-1-inside-1_1469_10035)"/>
<g filter="url(#filter0_d_1469_10035)">
<path d="M187.524 101.206C187.532 101.122 187.54 101.039 187.617 100.714C187.604 100.208 187.522 99.9428 187.44 99.6778C187.44 99.6778 187.394 99.6489 187.499 99.4783C188.316 97.317 190.234 99.3853 192.271 99.5576C190.258 98.3466 188.874 97.5141 187.49 96.6816C187.49 96.6816 187.501 96.6736 187.5 96.5726C187.475 96.3281 187.402 96.1934 187.279 96.0676C187.287 95.9862 187.295 95.9048 187.39 95.578C187.489 94.9484 187.5 94.5642 187.512 94.1799C188.087 88.7348 188.293 83.1688 189.327 77.8742C190.723 70.7199 192.666 63.7229 196.485 57.5699C198.319 54.6152 200.733 52.0297 205.569 51.4547C206.098 51.5024 206.247 51.4494 206.355 51.3423C206.355 51.3423 206.37 51.319 206.524 51.3483C206.863 51.3761 207.007 51.3215 207.11 51.2138C207.11 51.2138 207.125 51.189 207.278 51.2195C207.614 51.2511 207.755 51.1975 207.853 51.089C207.853 51.089 207.876 51.0534 208.134 51.1929C216.557 55.4978 219.316 60.0726 217.727 66.4982C217.328 68.1131 217.554 69.9911 214.97 69.4023C215.416 70.412 216.435 71.7009 216.1 72.1334C214.239 74.5375 215.237 78.883 210.533 79.2401C213.413 82.0951 209.965 83.0625 209.029 84.4579C207.963 86.0469 208.117 89.368 203.051 87.4251C204.274 88.3879 204.884 88.8679 205.59 89.4241C203.866 91.4687 202.317 93.4945 200.52 95.3415C199.83 96.0508 197.812 96.1303 197.713 96.8788C197.317 99.8656 194.394 100.818 192.058 102.151C191.204 102.638 189.222 101.971 187.754 101.83C187.754 101.83 187.717 101.81 187.73 101.701C187.72 101.453 187.647 101.325 187.524 101.206ZM204.764 57.4594C205.948 58.4078 207.133 59.3562 208.317 60.3046C208.179 60.4365 208.04 60.5685 207.902 60.7004C206.487 59.8924 204.967 59.1902 203.682 58.2506C201.936 56.9736 201.087 57.2235 200.885 58.6356C200.626 60.4415 200.903 62.2972 203.265 63.805C206.275 65.727 209.141 66.3318 210.726 64.8271C211.87 63.7417 212.502 61.8909 212.278 60.2519C212.04 58.5049 207.977 56.1058 205.813 56.0496C205.254 56.0351 204.898 56.766 204.764 57.4594Z" fill="#EF7322"/>
<path d="M187.693 101.981C189.222 101.971 191.204 102.639 192.059 102.151C194.394 100.819 197.318 99.8663 197.713 96.8795C197.813 96.131 199.831 96.0516 200.521 95.3422C202.317 93.4953 203.867 91.4694 205.59 89.4248C204.884 88.8686 204.274 88.3886 203.051 87.4258C208.117 89.3687 207.963 86.0477 209.029 84.4586C209.966 83.0632 213.414 82.0959 210.533 79.2408C215.237 78.8837 214.239 74.5383 216.101 72.1341C216.435 71.7017 215.416 70.4128 214.97 69.4031C217.554 69.9918 217.328 68.1139 217.727 66.4989C219.316 60.0733 216.557 55.4985 208.162 51.2055C209.259 51.0419 210.587 51.006 212.209 51.0144C215.375 52.4138 218.248 53.769 221.121 55.1241C221.585 55.6878 221.942 56.354 222.53 56.7992C227.775 60.7676 228.769 65.0769 227.876 69.5291C226.825 74.7688 223.881 79.0473 220.522 83.0878C216.778 87.5913 213.461 92.4532 208.954 96.3557C204.583 100.141 199.113 103.089 193.783 106.048C190.845 107.679 188.978 106.61 187.943 103.301C187.821 102.911 187.735 102.521 187.693 101.981Z" fill="#D66B20"/>
<path d="M227.207 24.5468C226.008 23.9225 224.818 23.2773 223.606 22.6792C222.112 21.9421 220.511 21.3601 219.117 20.4964C217.738 19.6417 217.758 18.778 219.087 18.302C220.248 17.8863 221.204 17.3907 219.388 16.0917C219.308 16.0345 219.184 15.9118 219.2 15.8807C219.947 14.4689 220.369 12.7969 221.564 11.736C222.678 10.7478 223.759 12.1042 224.779 13.1385C225.967 14.343 227.491 15.3527 229.206 16.7148C229.093 16.802 229.795 16.5749 229.769 16.2304C229.618 14.1813 230.575 14.0437 232.781 15.2743C235.543 16.8153 235.189 14.4922 235.794 14.0318C238.11 14.1929 240.021 14.2081 241.953 14.5243C242.625 14.6343 243.887 15.5461 243.956 15.9926C244.246 17.8687 244.186 19.7072 244.255 21.5594C243.945 21.5594 243.635 21.5594 243.325 21.5593C243.761 21.9006 244.298 22.2023 244.607 22.5934C244.978 23.0618 245.333 23.6424 245.338 24.1025C245.341 24.3171 244.503 24.3621 244.047 24.4845C243.198 24.7123 242.349 24.9404 241.419 25.3165C241.338 25.4646 241.337 25.4436 241.197 25.3957C241.056 25.3478 240.774 25.251 240.69 25.0684C239.653 24.3133 238.7 23.7408 238.053 23.3518C237.935 24.2321 237.837 24.9611 237.533 25.6245C235.902 26.3276 234.478 27.0961 233.053 27.8646C233.392 28.1757 233.73 28.4868 234.069 28.7979C235.296 27.7678 236.522 26.7378 237.924 25.6882C238.45 25.4849 238.801 25.3013 239.733 24.8135C239.718 25.6864 239.707 26.2855 239.687 27.4197C241.187 26.6809 241.81 26.3743 242.432 26.0678C243.404 26.4563 244.377 26.8447 245.349 27.2332C244.924 27.805 244.479 28.3647 244.084 28.9537C243.891 29.24 243.548 29.6233 243.691 29.8904C244.86 32.0797 243.321 31.8225 241.57 31.6497C241.031 31.5964 240.45 32.1851 240.182 32.6394C239.846 33.2104 239.812 33.9454 239.647 34.6095C238.222 34.0736 236.639 33.7364 235.411 32.9505C233.945 32.0127 233.203 29.9091 230.731 30.5223C230.508 28.3295 230.429 26.2988 230.355 24.4C231.591 23.8471 232.833 23.292 234.075 22.7369C233.891 22.5103 233.708 22.2837 233.524 22.0571C230.769 21.9823 229 23.2808 227.207 24.5468Z" fill="#3F9242"/>
<path d="M221.226 54.9851C218.248 53.7683 215.374 52.4131 212.333 50.9207C212.401 47.6299 212.768 44.5047 212.813 41.3092C212.831 39.9839 212.159 38.5083 211.743 36.7908C212.286 35.8959 213.334 35.4294 213.399 34.7027C213.547 33.0508 213.211 31.2711 213.071 29.5434C212.943 28.8013 212.816 28.0593 212.919 27.1174C215.799 27.3208 214.176 28.9529 215.102 29.8254C218.339 32.8749 218.234 35.5641 216.488 38.1153C216.379 38.2747 216.513 38.5771 216.585 38.9922C216.799 41.2348 216.961 43.298 217.087 44.91C218.635 42.2793 220.335 39.3893 222.02 36.3932C221.971 36.1412 221.897 36.002 221.789 35.7639C221.795 35.6584 221.879 35.4734 222.082 35.5331C223.43 35.6561 224.576 35.7194 225.703 35.9099C225.664 36.1193 225.644 36.2015 225.561 36.4094C225.414 36.7033 225.33 36.8714 225.059 37.0654C224.72 37.6322 224.568 38.1732 224.328 38.9021C222.606 42.9946 220.973 46.899 219.34 50.8035C219.669 50.9917 219.998 51.1799 220.327 51.3681C221.167 50.5604 222.008 49.7526 223.029 48.9272C223.478 48.6211 223.747 48.3327 224.217 48.0461C227.059 46.5403 230.16 45.3973 231.102 42.4034C233.657 42.5659 235.705 42.2213 237.291 41.0558C237.699 41.8026 237.96 42.4128 238.22 43.023C237.62 43.4228 237.02 43.8227 236.086 44.3242C234.352 45.0877 232.952 45.7496 232.143 46.1323C232.424 47.1286 232.603 47.761 232.781 48.3933C228.243 48.1342 226.495 51.0004 223.811 52.8076C222.907 53.416 222.153 54.1631 221.226 54.9851Z" fill="#04843D"/>
<path d="M216.536 38.8132C216.515 38.5773 216.382 38.2749 216.491 38.1155C218.237 35.5644 218.341 32.8752 215.104 29.8256C214.178 28.9531 215.801 27.3211 212.986 26.9825C212.621 26.7624 212.421 26.4775 212.066 25.984C211.77 25.6188 211.61 25.5767 211.431 25.6492C211.431 25.6492 211.143 25.5747 210.757 25.4063C209.383 24.7644 208.397 24.2909 207.41 23.8173C207.41 23.8173 207.473 23.8229 207.505 23.6674C206.77 22.7509 206.002 21.9898 205.235 21.2288C205.235 21.2288 205.26 21.2127 205.424 21.1729C207.695 21.3646 209.136 21.1578 208.027 18.8479C207.805 18.387 208.364 17.8243 208.562 17.3086C208.562 17.3086 208.585 17.3352 208.773 17.3069C209.348 16.741 209.735 16.2034 210.122 15.6658C210.373 15.7733 210.624 15.8809 211.118 16.2359C211.645 16.6861 211.929 16.8888 212.213 17.0915C212.213 17.0915 212.183 17.1108 212.204 17.2189C212.34 17.4778 212.453 17.6286 212.567 17.7794C212.567 17.7794 212.534 17.7587 212.5 17.8778C213.045 18.1847 213.624 18.3724 214.202 18.5601C214.202 18.5601 214.202 18.5943 214.348 18.6625C214.605 18.7782 214.717 18.8255 214.828 18.8729C214.828 18.8729 214.776 18.8626 214.793 19.004C215.413 20.0832 213.846 21.2333 216.068 22.0125C216.068 22.0125 216.295 22.1729 216.448 22.3415C216.767 22.512 216.933 22.5139 217.1 22.5157C217.1 22.5157 217.111 22.5444 217.312 22.6469C221.389 26.1237 216.35 25.093 215.633 26.5464C216.51 26.9784 217.515 27.7786 218.284 27.784C219.549 27.7929 220.661 27.2872 221.838 26.9985C223.518 27.2381 225.198 27.4777 227.107 27.8219C226.431 28.561 225.527 29.1956 224.61 29.8383C225.545 30.6404 226.221 31.2208 227.065 31.9459C225.614 32.0187 224.515 32.0739 223.275 32.1134C222.948 32.1024 222.792 32.1511 222.484 32.1863C221.942 32.2911 221.581 32.4536 221.221 32.6161C221.337 32.7487 221.454 32.8812 221.57 33.0138C221.959 32.8009 222.347 32.588 222.875 32.385C223.197 32.3817 223.349 32.3278 223.653 32.3491C224.464 33.571 225.094 34.677 225.724 35.7829C224.578 35.7196 223.433 35.6563 221.862 35.3871C219.715 34.1245 218.74 34.4055 218.184 35.6997C217.721 36.7774 217.091 37.7783 216.536 38.8132Z" fill="#33A244"/>
<path d="M212.961 29.6732C213.211 31.2708 213.547 33.0506 213.399 34.7024C213.334 35.4291 212.286 35.8956 211.628 36.6337C210.523 36.5818 208.98 35.9247 208.509 36.2493C206.486 37.644 204.846 35.8989 202.869 35.027C203.102 33.6879 204.406 32.1703 201.111 31.4462C200.806 31.3791 200.34 30.6165 200.246 30.1948C199.969 28.9561 199.842 27.7265 199.639 26.3757C201.461 25.8871 205.536 27.2351 207.07 29.107C208.557 29.0109 210.311 27.4331 211.636 30.2353C212.041 30.0913 212.446 29.9473 212.961 29.6732Z" fill="#3F9242"/>
<path d="M238.464 43.0545C237.96 42.4132 237.7 41.803 237.226 40.9143C235.264 40.4929 233.517 40.35 231.467 40.1824C231.97 39.3884 232.558 38.4607 232.87 37.9677C232.263 37.0279 231.924 36.4032 231.467 35.8253C231.079 35.3357 230.554 34.9002 230.09 34.4407C230.902 34.6187 232.196 34.6421 232.45 34.9999C234.093 37.3102 235.679 37.9663 237.59 36.0545C237.648 36.343 237.707 36.6316 237.765 36.9201C239.02 36.9778 240.271 36.8893 241.532 37.1269C243.514 37.5004 245.588 37.8878 247.438 38.7205C247.985 38.9671 248.12 40.7875 248.024 41.7734C247.978 42.2454 246.951 42.4529 246.309 42.813C246.54 43.3881 246.822 44.091 247.41 45.5583C245.041 44.9392 243.146 44.4638 241.255 43.9409C240.401 43.7045 239.556 43.3736 238.464 43.0545Z" fill="#3F9242"/>
<path d="M232.965 48.5054C232.602 47.7617 232.424 47.1293 232.143 46.133C232.952 45.7503 234.352 45.0884 235.936 44.3927C237.623 44.8494 238.76 45.3715 239.857 46.7902C240.809 48.0216 243.12 48.7168 244.784 49.7152C245.48 50.1328 246.055 50.7212 247.082 51.5544C244.358 51.8284 243.19 54.4347 239.864 51.7531C239.34 52.3425 238.907 52.8297 238.204 53.6206C237.141 52.8554 235.954 52.1771 235.07 51.3116C234.259 50.5183 233.776 49.523 232.965 48.5054Z" fill="#3F9242"/>
<path d="M223.413 32.1288C224.512 32.0736 225.612 32.0184 227.063 31.9456C226.218 31.2205 225.542 30.6401 224.607 29.838C225.524 29.1953 226.429 28.5607 227.304 27.7871C227.215 26.7163 227.155 25.7847 227.151 24.6997C228.999 23.2805 230.768 21.982 233.523 22.0568C233.707 22.2834 233.89 22.51 234.074 22.7366C232.832 23.2917 231.59 23.8468 230.354 24.3997C230.428 26.2985 230.507 28.3292 230.511 30.5209C230.435 30.682 230.329 30.8544 230.101 30.9473C229.683 31.2233 229.492 31.4063 229.302 31.5894C229.258 31.6515 229.213 31.7136 228.92 31.8937C228.43 32.3187 228.188 32.6258 227.947 32.9328C227.896 32.9942 227.844 33.0556 227.557 33.2318C227.265 33.7366 227.209 34.1264 227.153 34.5162C227.153 34.5162 227.157 34.5149 227.202 34.6577C227.512 35.0245 227.776 35.2487 227.974 35.6166C227.785 36.0518 227.663 36.3432 227.347 36.5728C226.644 36.4353 226.134 36.3595 225.624 36.2837C225.644 36.2015 225.664 36.1193 225.703 35.9098C225.092 34.6767 224.462 33.5707 223.638 32.3225C223.444 32.1802 223.413 32.1288 223.413 32.1288Z" fill="#087938"/>
<path d="M227.542 36.6351C227.664 36.3437 227.787 36.0523 228.153 35.6824C228.725 35.5954 229.054 35.5869 229.382 35.5784C229.545 35.2857 229.708 34.9929 229.981 34.5705C230.555 34.9002 231.08 35.3357 231.468 35.8254C231.926 36.4032 232.264 37.0279 232.871 37.9678C232.559 38.4608 231.971 39.3884 231.468 40.1824C233.518 40.3501 235.266 40.493 237.079 40.7777C235.707 42.2218 233.658 42.5664 230.937 42.313C230.356 42.0636 230.143 41.9308 229.922 41.6317C228.585 40.4438 227.256 39.4221 225.841 38.3131C225.649 38.0939 225.612 37.9633 225.858 37.9252C226.862 37.9139 227.655 37.8117 228.555 37.6483C228.285 37.2914 227.907 36.9958 227.538 36.686C227.548 36.6719 227.542 36.6351 227.542 36.6351ZM229.386 39.0038C229.505 39.3612 229.623 39.7186 229.741 40.076C229.966 40.0411 230.19 40.0063 230.414 39.9714C230.175 39.6323 229.935 39.2932 229.386 39.0038Z" fill="#33A244"/>
<path d="M221.636 26.8567C220.658 27.2873 219.546 27.793 218.281 27.7841C217.512 27.7787 216.506 26.9785 215.63 26.5465C216.347 25.0931 221.385 26.1239 217.304 22.6332C218.653 22.3807 219.315 23.0146 219.726 24.3384C219.972 25.1312 220.846 25.9227 221.636 26.8567Z" fill="#3F9242"/>
<path d="M237.738 25.6903C237.835 24.9614 237.933 24.2324 238.051 23.3521C238.698 23.7411 239.651 24.3136 240.637 25.1818C240.793 25.6229 240.917 25.7683 241.042 25.9136C241.14 25.7571 241.238 25.6005 241.336 25.444C241.336 25.444 241.336 25.4649 241.323 25.4601C241.556 25.5891 241.8 25.7229 242.238 25.9624C241.808 26.3746 241.185 26.6812 239.685 27.42C239.705 26.2858 239.716 25.6867 239.732 24.8139C238.799 25.3016 238.448 25.4853 237.92 25.684C237.743 25.6991 237.738 25.6903 237.738 25.6903Z" fill="#3D8335"/>
<path d="M208.35 17.2768C208.362 17.8247 207.804 18.3874 208.025 18.8483C209.135 21.1582 207.694 21.365 205.406 21.1778C205.204 20.9528 205.145 20.4457 205.166 20.4479C207.19 20.6646 207.718 19.9992 206.965 18.307C206.832 18.0069 207.722 17.6015 208.35 17.2768Z" fill="#3F9242"/>
<path d="M187.43 96.8385C188.874 97.5142 190.257 98.3467 192.27 99.5576C190.234 99.3854 188.316 97.3171 187.507 99.4604C187.397 98.7404 187.383 97.8679 187.43 96.8385Z" fill="#D66B20"/>
<path d="M216.046 21.84C213.842 21.2328 215.41 20.0827 214.809 18.9926C215.215 19.7829 215.621 20.7255 216.046 21.84Z" fill="#3F9242"/>
<path d="M205.262 21.39C206 21.9897 206.768 22.7507 207.473 23.6689C206.703 23.0678 205.997 22.3096 205.262 21.39Z" fill="#3F9242"/>
<path d="M209.924 15.5467C209.733 16.2036 209.346 16.7412 208.757 17.2965C208.946 16.6852 209.337 16.0563 209.924 15.5467Z" fill="#3F9242"/>
<path d="M207.462 24.0051C208.393 24.2903 209.38 24.7639 210.61 25.3622C209.742 25.0557 208.629 24.6246 207.462 24.0051Z" fill="#3F9242"/>
<path d="M229.154 35.4794C229.052 35.5866 228.723 35.5951 228.217 35.5383C227.775 35.2489 227.511 35.0248 227.199 34.6581C227.744 34.8039 228.336 35.0923 229.154 35.4794Z" fill="#3D8335"/>
<path d="M213.989 18.4766C213.621 18.3728 213.042 18.1849 212.516 17.8824C212.972 17.976 213.375 18.1841 213.989 18.4766Z" fill="#3F9242"/>
<path d="M227.212 34.3623C227.209 34.1261 227.265 33.7364 227.471 33.3174C227.504 33.595 227.388 33.902 227.212 34.3623Z" fill="#3D8335"/>
<path d="M187.398 94.2927C187.5 94.5645 187.488 94.9487 187.402 95.4563C187.313 95.1882 187.299 94.7967 187.398 94.2927Z" fill="#D66B20"/>
<path d="M228.147 32.9431C228.189 32.6258 228.43 32.3187 228.842 31.9797C228.791 32.283 228.568 32.6181 228.147 32.9431Z" fill="#3D8335"/>
<path d="M229.484 31.6091C229.493 31.407 229.683 31.2238 230.033 31.0241C230.016 31.2143 229.84 31.4212 229.484 31.6091Z" fill="#3D8335"/>
<path d="M212.194 16.9398C211.928 16.888 211.644 16.6855 211.29 16.3434C211.54 16.3989 211.858 16.5939 212.194 16.9398Z" fill="#3F9242"/>
<path d="M187.381 99.799C187.521 99.9426 187.603 100.208 187.628 100.588C187.488 100.442 187.405 100.181 187.381 99.799Z" fill="#D66B20"/>
<path d="M212.571 17.6577C212.45 17.6287 212.336 17.4778 212.211 17.2057C212.326 17.235 212.452 17.3854 212.571 17.6577Z" fill="#3F9242"/>
<path d="M214.819 18.7535C214.715 18.825 214.604 18.7776 214.33 18.6474C214.382 18.5879 214.596 18.6112 214.819 18.7535Z" fill="#3F9242"/>
<path d="M216.953 22.4617C216.931 22.514 216.765 22.512 216.555 22.4253C216.512 22.3406 216.808 22.4072 216.953 22.4617Z" fill="#3F9242"/>
<path d="M211.552 25.738C211.607 25.5767 211.767 25.6189 211.937 25.8522C211.967 25.929 211.677 25.8272 211.552 25.738Z" fill="#3F9242"/>
<path d="M187.448 101.289C187.647 101.325 187.72 101.453 187.733 101.686C187.513 101.687 187.396 101.551 187.448 101.289Z" fill="#D66B20"/>
<path d="M187.202 96.1541C187.401 96.1936 187.474 96.3282 187.491 96.5709C187.364 96.527 187.245 96.3837 187.202 96.1541Z" fill="#D66B20"/>
<path d="M207.711 51.0454C207.754 51.1981 207.613 51.2517 207.296 51.2278C207.229 51.0608 207.365 50.9928 207.711 51.0454Z" fill="#D66B20"/>
<path d="M206.967 51.1729C207.007 51.3223 206.863 51.3769 206.542 51.3567C206.477 51.1906 206.616 51.1227 206.967 51.1729Z" fill="#D66B20"/>
<path d="M206.209 51.2996C206.246 51.4491 206.097 51.502 205.769 51.4771C205.713 51.3153 205.858 51.25 206.209 51.2996Z" fill="#D66B20"/>
<path d="M204.607 57.3066C204.898 56.7657 205.254 56.0347 205.813 56.0492C207.977 56.1054 212.04 58.5045 212.278 60.2515C212.502 61.8905 211.87 63.7414 210.726 64.8267C209.141 66.3315 206.275 65.7266 203.265 63.8047C200.903 62.2969 200.626 60.4412 200.885 58.6353C201.087 57.2232 201.936 56.9733 203.682 58.2503C204.967 59.1899 206.487 59.8921 207.902 60.7001C208.04 60.5681 208.179 60.4362 208.317 60.3042C207.133 59.3558 205.948 58.4075 204.607 57.3066Z" fill="#E59B3A"/>
<path d="M237.746 25.7037C236.522 26.7382 235.295 27.7683 234.068 28.7983C233.729 28.4872 233.391 28.1761 233.053 27.8651C234.477 27.0965 235.902 26.328 237.532 25.625C237.739 25.6905 237.744 25.6992 237.746 25.7037Z" fill="#3D8335"/>
<path d="M241.197 25.3954C241.24 25.5999 241.142 25.7564 241.043 25.913C240.919 25.7676 240.795 25.6223 240.723 25.3638C240.774 25.2507 241.056 25.3475 241.197 25.3954Z" fill="black"/>
<path d="M216.585 38.9924C217.089 37.7782 217.719 36.7773 218.181 35.6997C218.737 34.4054 219.713 34.1245 221.656 35.3273C221.879 35.4736 221.795 35.6586 221.753 35.8665C221.754 36.2403 221.862 36.382 222.036 36.4994C220.335 39.3895 218.635 42.2795 217.087 44.9102C216.961 43.2981 216.799 41.2349 216.585 38.9924Z" fill="black"/>
<path d="M225.927 38.3999C227.256 39.4215 228.585 40.4432 229.882 41.6411C229.85 41.8173 229.771 41.8359 229.524 41.7015C227.827 40.8532 226.379 40.1391 224.804 39.3633C223.358 42.9484 222.042 46.2104 220.564 49.8728C221.571 49.4089 222.176 49.1298 222.798 48.8744C222.815 48.898 222.85 48.9447 222.85 48.9447C222.009 49.7525 221.168 50.5603 220.328 51.368C219.999 51.1798 219.67 50.9916 219.341 50.8034C220.974 46.8989 222.607 42.9945 224.5 38.9124C225.149 38.6231 225.538 38.5115 225.927 38.3999Z" fill="#3D8335"/>
<path d="M229.888 41.8078C230.141 41.9307 230.354 42.0635 230.734 42.2872C230.159 45.3977 227.059 46.5407 224.196 48.0144C223.976 47.9804 223.935 47.9165 224.033 47.776C224.935 47.0653 225.802 46.5445 226.532 45.9142C227.891 44.7406 230.437 44.3131 229.769 41.8363C229.769 41.8363 229.849 41.8178 229.888 41.8078Z" fill="#3D8335"/>
<path d="M228.445 37.709C227.653 37.8112 226.86 37.9135 225.816 37.7879C225.458 37.3866 225.352 37.2131 225.245 37.0395C225.329 36.8714 225.413 36.7033 225.561 36.4095C226.134 36.3596 226.644 36.4354 227.347 36.5729C227.54 36.6347 227.546 36.6714 227.584 36.8335C227.896 37.2334 228.171 37.4712 228.445 37.709Z" fill="#3D8335"/>
<path d="M225.059 37.0663C225.352 37.2139 225.459 37.3874 225.605 37.6977C225.611 37.9637 225.648 38.0942 225.84 38.3135C225.537 38.5124 225.148 38.6241 224.588 38.7253C224.568 38.174 224.72 37.6331 225.059 37.0663Z" fill="#087938"/>
<path d="M223.997 48.0123C223.748 48.3329 223.48 48.6214 223.03 48.9274C222.85 48.9451 222.815 48.8983 222.884 48.7488C223.281 48.3717 223.609 48.144 223.937 47.9163C223.937 47.9163 223.977 47.9803 223.997 48.0123Z" fill="#3D8335"/>
<path d="M222.018 36.3936C221.86 36.3822 221.752 36.2405 221.746 35.9722C221.895 36.0024 221.969 36.1416 222.018 36.3936Z" fill="#33A244"/>
<path d="M222.735 32.3749C222.346 32.5878 221.957 32.8007 221.569 33.0136C221.452 32.881 221.336 32.7484 221.22 32.6158C221.58 32.4534 221.94 32.2909 222.499 32.2195C222.696 32.3106 222.735 32.3749 222.735 32.3749Z" fill="#087938"/>
<path d="M223.456 32.207C223.346 32.328 223.194 32.3819 222.872 32.3851C222.733 32.3753 222.695 32.3111 222.679 32.2776C222.789 32.1512 222.945 32.1025 223.272 32.1136C223.412 32.1292 223.443 32.1807 223.456 32.207Z" fill="#087938"/>
<path d="M229.539 38.9781C229.933 39.2924 230.173 39.6315 230.413 39.9706C230.188 40.0054 229.964 40.0403 229.74 40.0751C229.621 39.7177 229.503 39.3603 229.539 38.9781Z" fill="#3D8335"/>
<path d="M228.555 37.6485C228.172 37.4718 227.898 37.2341 227.576 36.8483C227.906 36.9959 228.285 37.2916 228.555 37.6485Z" fill="#087938"/>
<path d="M224.032 47.7756C223.607 48.1438 223.279 48.3714 222.866 48.725C222.175 49.1299 221.569 49.4089 220.562 49.8729C222.04 46.2105 223.356 42.9485 224.803 39.3634C226.377 40.1392 227.826 40.8533 229.522 41.7016C230.437 44.3127 227.891 44.7402 226.532 45.9138C225.802 46.5441 224.935 47.0649 224.032 47.7756Z" fill="black"/>
</g>
<defs>
<filter id="filter0_d_1469_10035" x="183.203" y="11.3927" width="68.8496" height="103.407" filterUnits="userSpaceOnUse" color-interpolation-filters="sRGB">
<feFlood flood-opacity="0" result="BackgroundImageFix"/>
<feColorMatrix in="SourceAlpha" type="matrix" values="0 0 0 0 0 0 0 0 0 0 0 0 0 0 0 0 0 0 127 0" result="hardAlpha"/>
<feOffset dy="4"/>
<feGaussianBlur stdDeviation="2"/>
<feComposite in2="hardAlpha" operator="out"/>
<feColorMatrix type="matrix" values="0 0 0 0 0 0 0 0 0 0 0 0 0 0 0 0 0 0 0.25 0"/>
<feBlend mode="normal" in2="BackgroundImageFix" result="effect1_dropShadow_1469_10035"/>
<feBlend mode="normal" in="SourceGraphic" in2="effect1_dropShadow_1469_10035" result="shape"/>
</filter>
</defs>
</svg>
