<svg width="211" height="249" viewBox="0 0 211 249" fill="none" xmlns="http://www.w3.org/2000/svg">
<g filter="url(#filter0_d_1202_5221)">
<path d="M44.1714 208.612C44.2012 208.438 44.231 208.263 44.4434 207.593C44.4955 206.528 44.3649 205.959 44.2343 205.389C44.2343 205.389 44.1418 205.321 44.3879 204.979C46.4432 200.568 50.1468 205.212 54.3972 205.893C50.3596 203.035 47.5838 201.07 44.808 199.105C44.808 199.105 44.833 199.09 44.8458 198.877C44.8309 198.36 44.6984 198.066 44.4614 197.782C44.4909 197.613 44.5205 197.443 44.7704 196.772C45.076 195.465 45.1612 194.66 45.2464 193.855C47.3057 182.509 48.6098 170.852 51.6091 159.895C55.6619 145.089 60.8365 130.698 69.8194 118.374C74.1331 112.456 79.6078 107.404 89.8534 106.954C90.9586 107.137 91.2794 107.049 91.5234 106.841C91.5234 106.841 91.5579 106.794 91.8762 106.88C92.5839 106.991 92.8951 106.899 93.1284 106.689C93.1284 106.689 93.1648 106.639 93.4801 106.727C94.1805 106.846 94.4847 106.755 94.708 106.543C94.708 106.543 94.7628 106.472 95.2831 106.805C112.298 117.164 117.375 127.204 113.033 140.449C111.941 143.778 112.122 147.758 106.788 146.117C107.566 148.307 109.505 151.173 108.735 152.029C104.45 156.787 105.865 166.069 95.9303 166.083C101.533 172.529 94.14 174.021 91.9554 176.805C89.4675 179.975 89.2715 186.974 78.9359 182.101C81.3539 184.314 82.5594 185.418 83.956 186.696C80.0155 190.72 76.445 194.732 72.3826 198.33C70.8224 199.712 66.5722 199.563 66.2467 201.119C64.9481 207.33 58.6591 208.872 53.5458 211.305C51.675 212.195 47.6169 210.484 44.5566 209.959C44.5566 209.959 44.4819 209.911 44.5261 209.683C44.5446 209.161 44.4116 208.88 44.1714 208.612ZM87.224 119.438C89.5627 121.615 91.9014 123.792 94.2401 125.969C93.9289 126.225 93.6177 126.48 93.3064 126.736C90.4609 124.817 87.3784 123.105 84.8279 120.93C81.3616 117.975 79.539 118.367 78.8928 121.301C78.0664 125.053 78.3576 128.994 83.0818 132.53C89.1033 137.037 95.0278 138.756 98.5922 135.844C101.163 133.744 102.782 129.956 102.568 126.479C102.34 122.772 94.183 117.098 89.6467 116.641C88.4765 116.523 87.6145 118.003 87.224 119.438Z" fill="#EF7322"/>
<path d="M44.4051 210.265C47.6172 210.484 51.6754 212.196 53.5462 211.306C58.6595 208.873 64.9485 207.33 66.2471 201.12C66.5725 199.563 70.8228 199.712 72.383 198.331C76.4453 194.733 80.0159 190.721 83.9564 186.697C82.5597 185.418 81.3542 184.315 78.9363 182.101C89.2718 186.975 89.4679 179.976 91.9557 176.806C94.1404 174.022 101.533 172.53 95.9307 166.083C105.866 166.07 104.45 156.788 108.735 152.03C109.506 151.174 107.566 148.308 106.789 146.118C112.123 147.758 111.942 143.779 113.033 140.45C117.375 127.204 112.298 117.165 95.338 106.835C97.668 106.663 100.464 106.796 103.867 107.067C110.297 110.502 116.119 113.797 121.941 117.093C122.828 118.35 123.472 119.804 124.638 120.832C135.032 129.986 136.445 139.192 133.872 148.402C130.844 159.241 123.993 167.766 116.306 175.726C107.737 184.598 100.011 194.289 89.9354 201.779C80.163 209.044 68.2141 214.379 56.5572 219.759C50.1318 222.724 46.3777 220.188 44.7232 213.076C44.5283 212.238 44.4081 211.405 44.4051 210.265Z" fill="#D66B20"/>
<path d="M139.508 53.8315C137.087 52.3326 134.69 50.7916 132.238 49.3457C129.215 47.5637 125.945 46.0911 123.153 44.059C120.389 42.048 120.568 40.2375 123.433 39.4459C125.936 38.7545 128.021 37.8633 124.41 34.851C124.251 34.7184 124.011 34.4413 124.05 34.3787C125.839 31.5306 126.986 28.0852 129.663 26.0444C132.157 24.1433 134.215 27.1612 136.195 29.493C138.501 32.2084 141.543 34.5673 144.932 37.6963C144.68 37.8618 146.19 37.4946 146.191 36.7673C146.194 32.4402 148.225 32.301 152.664 35.2307C158.224 38.8993 157.844 33.965 159.188 33.0929C164.025 33.7936 168.036 34.1249 172.044 35.0912C173.438 35.4274 175.946 37.5398 176.021 38.4884C176.336 42.4736 175.924 46.3254 175.778 50.2261C175.127 50.1774 174.476 50.1289 173.826 50.0803C174.688 50.8652 175.767 51.5829 176.356 52.4526C177.061 53.4944 177.716 54.7692 177.655 55.7362C177.626 56.1873 175.861 56.1509 174.883 56.3365C173.064 56.6818 171.246 57.0281 169.233 57.6723C169.04 57.9706 169.043 57.9266 168.755 57.8039C168.466 57.6812 167.89 57.434 167.742 57.0373C165.682 55.2892 163.771 53.9378 162.472 53.0195C162.087 54.8498 161.768 56.3654 161.025 57.7111C157.49 58.9323 154.379 60.3233 151.267 61.7143C151.929 62.4206 152.591 63.1269 153.253 63.8332C155.991 61.862 158.729 59.8908 161.837 57.9059C162.973 57.5615 163.739 57.2307 165.773 56.3523C165.603 58.1829 165.487 59.4394 165.267 61.8181C168.533 60.5014 169.889 59.9551 171.244 59.4087C173.225 60.3768 175.206 61.3448 177.187 62.3128C176.206 63.4471 175.183 64.5529 174.261 65.7279C173.812 66.299 173.031 67.0504 173.289 67.6335C175.403 72.4144 172.21 71.6334 168.561 70.9963C167.436 70.8 166.123 71.9453 165.49 72.8576C164.694 74.0041 164.508 75.5423 164.059 76.9114C161.149 75.5628 157.877 74.6069 155.421 72.764C152.49 70.5652 151.26 66.0312 145.973 66.9321C145.849 62.2922 146 58.0151 146.142 54.0159C148.825 53.0484 151.519 52.0769 154.214 51.1053C153.864 50.6007 153.514 50.0962 153.164 49.5916C147.39 49.0034 143.471 51.4534 139.508 53.8315Z" fill="#3F9242"/>
<path d="M122.183 116.818C116.12 113.796 110.297 110.501 104.143 106.89C104.803 99.9901 106.063 93.4843 106.656 86.7803C106.902 84 105.722 80.7959 105.116 77.1237C106.397 75.3293 108.672 74.5137 108.922 72.9977C109.49 69.5518 109.063 65.7616 109.041 62.1113C108.888 60.533 108.736 58.9546 109.101 56.9928C115.116 57.8707 111.453 61.0441 113.261 63.0215C119.581 69.9324 118.941 75.5637 114.875 80.648C114.621 80.9658 114.854 81.6216 114.941 82.5049C115.039 87.2479 115.056 91.6061 115.069 95.0114C118.731 89.7289 122.755 83.9257 126.762 77.8974C126.698 77.3605 126.566 77.0566 126.376 76.5397C126.403 76.3189 126.609 75.9436 127.026 76.1007C129.839 76.5701 132.235 76.8823 134.571 77.4587C134.457 77.8925 134.402 78.062 134.195 78.4857C133.84 79.0797 133.637 79.4196 133.038 79.7846C132.238 80.922 131.834 82.0343 131.215 83.5275C126.959 91.8526 122.919 99.7967 118.878 107.741C119.539 108.188 120.2 108.634 120.861 109.081C122.753 107.516 124.645 105.952 126.919 104.378C127.911 103.805 128.52 103.242 129.551 102.713C135.756 99.9959 142.446 98.0809 144.893 91.9409C150.234 92.6821 154.589 92.2789 158.102 90.0794C158.843 91.7118 159.294 93.034 159.745 94.3561C158.422 95.102 157.099 95.8478 155.06 96.7549C151.3 98.087 148.256 99.2578 146.496 99.9348C146.931 102.071 147.207 103.427 147.483 104.783C137.992 103.529 133.874 109.274 127.953 112.65C125.96 113.786 124.259 115.237 122.183 116.818Z" fill="#04843D"/>
<path d="M114.864 82.1211C114.858 81.6225 114.625 80.9666 114.879 80.6488C118.945 75.5645 119.586 69.9332 113.265 63.0223C111.457 61.0449 115.121 57.8715 109.262 56.72C108.529 56.2004 108.154 55.5709 107.486 54.479C106.921 53.6655 106.591 53.552 106.204 53.6764C106.204 53.6764 105.612 53.4749 104.826 53.0608C102.042 51.4978 100.045 50.3489 98.0468 49.1999C98.0468 49.1999 98.1771 49.2215 98.2705 48.9C96.8703 46.8601 95.3768 45.1417 93.8834 43.4233C93.8834 43.4233 93.9393 43.3934 94.2899 43.3355C99.0293 44.0937 102.088 43.8849 100.12 38.8602C99.7267 37.8576 100.987 36.7633 101.486 35.7112C101.486 35.7112 101.529 35.7708 101.928 35.7408C103.225 34.6423 104.121 33.5738 105.018 32.5053C105.528 32.7705 106.038 33.0356 107.02 33.8586C108.057 34.8866 108.622 35.3567 109.186 35.8269C109.186 35.8269 109.12 35.8627 109.148 36.093C109.391 36.6578 109.607 36.9924 109.823 37.327C109.823 37.327 109.756 37.2782 109.667 37.5231C110.763 38.2528 111.949 38.7376 113.134 39.2224C113.134 39.2224 113.128 39.294 113.424 39.4602C113.946 39.7433 114.172 39.8603 114.399 39.9772C114.399 39.9772 114.291 39.9473 114.306 40.2471C115.439 42.6105 111.967 44.7805 116.512 46.7648C116.512 46.7648 116.963 47.137 117.257 47.5152C117.901 47.9232 118.251 47.9531 118.6 47.983C118.6 47.983 118.618 48.045 119.026 48.2919C127.042 56.2315 116.622 53.2783 114.889 56.2184C116.662 57.2627 118.648 59.1006 120.262 59.2323C122.918 59.449 125.332 58.5611 127.848 58.1388C131.339 58.905 134.83 59.6711 138.785 60.6929C137.251 62.1394 135.252 63.3304 133.226 64.5368C135.063 66.3675 136.392 67.6922 138.053 69.3472C134.993 69.273 132.676 69.2168 130.067 69.1057C129.381 69.0313 129.046 69.1092 128.394 69.135C127.239 69.2703 126.456 69.5551 125.674 69.8399C125.897 70.1365 126.121 70.4332 126.345 70.7298C127.194 70.3436 128.044 69.9573 129.184 69.6134C129.86 69.657 130.189 69.5676 130.823 69.6598C132.336 72.353 133.485 74.7742 134.635 77.1953C132.239 76.8831 129.843 76.5709 126.586 75.7595C122.276 72.7721 120.183 73.2094 118.813 75.8405C117.673 78.0312 116.193 80.0346 114.864 82.1211Z" fill="#33A244"/>
<path d="M108.786 62.3672C109.061 65.7615 109.487 69.5517 108.919 72.9977C108.669 74.5136 106.394 75.3292 104.897 76.7764C102.584 76.4944 99.4479 74.873 98.4078 75.481C93.9396 78.0932 90.7682 74.1715 86.753 72.0311C87.4527 69.2554 90.4281 66.2722 83.6215 64.2358C82.9911 64.0472 82.1326 62.3729 82.0009 61.4724C81.6141 58.8278 81.5404 56.2256 81.3253 53.3571C85.2274 52.6162 93.5743 56.0849 96.5035 60.2561C99.6412 60.287 103.571 57.2479 105.916 63.3403C106.789 63.1013 107.662 62.8622 108.786 62.3672Z" fill="#3F9242"/>
<path d="M160.251 94.4614C159.293 93.0358 158.843 91.7136 157.986 89.773C153.933 88.581 150.286 88.0074 146.007 87.3345C147.187 85.7458 148.567 83.8895 149.3 82.9031C148.172 80.8344 147.559 79.4694 146.688 78.1842C145.951 77.0952 144.916 76.0985 144.013 75.0609C145.692 75.562 148.404 75.8134 148.883 76.6046C151.971 81.7137 155.199 83.3399 159.511 79.6239C159.589 80.239 159.666 80.8541 159.744 81.4693C162.371 81.7869 165.011 81.7968 167.622 82.4931C171.727 83.5878 176.022 84.726 179.775 86.7641C180.887 87.3678 180.885 91.2119 180.529 93.2672C180.358 94.2513 178.168 94.5263 176.765 95.1823C177.16 96.4261 177.641 97.9463 178.647 101.12C173.769 99.4491 169.863 98.154 165.975 96.76C164.217 96.1296 162.496 95.3027 160.251 94.4614Z" fill="#3F9242"/>
<path d="M147.849 105.048C147.204 103.429 146.928 102.073 146.493 99.9369C148.253 99.26 151.297 98.0891 154.732 96.8759C158.203 98.0991 160.511 99.3737 162.591 102.525C164.398 105.26 169.143 107.082 172.48 109.439C173.876 110.424 174.992 111.75 177.02 113.661C171.255 113.81 168.395 119.101 161.829 112.948C160.637 114.104 159.651 115.059 158.051 116.611C155.939 114.837 153.552 113.227 151.83 111.271C150.253 109.478 149.394 107.312 147.849 105.048Z" fill="#3F9242"/>
<path d="M130.353 69.1589C132.671 69.2151 134.988 69.2713 138.048 69.3455C136.387 67.6905 135.058 66.3658 133.221 64.5351C135.247 63.3287 137.246 62.1377 139.205 60.65C139.186 58.3873 139.206 56.4214 139.367 54.1423C143.469 51.451 147.388 49.001 153.163 49.5892C153.513 50.0938 153.863 50.5984 154.212 51.1029C151.518 52.0745 148.824 53.046 146.141 54.0135C145.999 58.0127 145.847 62.2898 145.512 66.8933C145.328 67.2196 145.079 67.5651 144.585 67.7245C143.663 68.2386 143.235 68.5933 142.806 68.9479C142.703 69.0714 142.6 69.1949 141.956 69.5272C140.86 70.343 140.305 70.9501 139.751 71.5573C139.633 71.6781 139.515 71.7989 138.884 72.1241C138.192 73.1384 138.013 73.9482 137.834 74.758C137.834 74.758 137.843 74.7561 137.916 75.063C138.509 75.8818 139.028 76.3938 139.386 77.1975C138.922 78.082 138.619 78.6747 137.92 79.1077C136.466 78.7087 135.406 78.4697 134.347 78.2307C134.402 78.0612 134.456 77.8916 134.571 77.4579C133.48 74.7725 132.331 72.3513 130.796 69.601C130.411 69.2718 130.353 69.1589 130.353 69.1589Z" fill="#087938"/>
<path d="M138.32 79.2701C138.623 78.6773 138.926 78.0845 139.753 77.365C140.968 77.2718 141.659 77.3054 142.351 77.339C142.739 76.7497 143.126 76.1603 143.766 75.3159C144.92 76.0983 145.955 77.0951 146.692 78.184C147.563 79.4692 148.176 80.8342 149.304 82.903C148.571 83.8894 147.192 85.7456 146.011 87.3343C150.29 88.0072 153.937 88.5808 157.7 89.4626C154.592 92.2805 150.237 92.6838 144.561 91.7255C143.381 91.1109 142.954 90.7986 142.536 90.1359C139.915 87.4319 137.284 85.0783 134.486 82.5279C134.116 82.0373 134.06 81.7574 134.581 81.7157C136.692 81.8493 138.373 81.7587 140.289 81.5564C139.778 80.7647 139.03 80.0845 138.304 79.3762C138.327 79.3481 138.32 79.2701 138.32 79.2701ZM141.823 84.5332C142.016 85.3023 142.208 86.0713 142.401 86.8405C142.877 86.8024 143.354 86.7644 143.831 86.7263C143.38 85.9766 142.93 85.2269 141.823 84.5332Z" fill="#33A244"/>
<path d="M127.447 57.8097C125.326 58.5611 122.911 59.449 120.256 59.2323C118.642 59.1006 116.656 57.2627 114.883 56.2184C116.616 53.2783 127.036 56.2316 119.01 48.2619C121.884 47.943 123.175 49.3777 123.831 52.2222C124.223 53.9257 125.934 55.7246 127.447 57.8097Z" fill="#3F9242"/>
<path d="M161.446 57.8814C161.765 56.3658 162.084 54.8502 162.469 53.0199C163.768 53.9382 165.679 55.2896 167.613 57.2672C167.873 58.218 168.111 58.5427 168.349 58.8674C168.579 58.5539 168.81 58.2405 169.04 57.9271C169.04 57.9271 169.037 57.971 169.012 57.9591C169.48 58.2664 169.972 58.5856 170.853 59.157C169.886 59.9555 168.53 60.5018 165.264 61.8186C165.484 59.4398 165.6 58.1833 165.77 56.3527C163.736 57.2311 162.97 57.5619 161.829 57.8966C161.455 57.9005 161.446 57.8814 161.446 57.8814Z" fill="#3D8335"/>
<path d="M101.043 35.6123C100.982 36.7646 99.7213 37.8589 100.114 38.8615C102.083 43.8863 99.0239 44.095 94.2486 43.3439C93.8591 42.8397 93.8162 41.7655 93.8592 41.7733C98.0766 42.5453 99.2884 41.2305 97.9729 37.5589C97.7396 36.9077 99.6732 36.1958 101.043 35.6123Z" fill="#3F9242"/>
<path d="M44.657 199.424C47.5841 201.069 50.3599 203.034 54.3975 205.892C50.1471 205.212 46.4435 200.568 44.4084 204.943C44.2902 203.413 44.3979 201.579 44.657 199.424Z" fill="#D66B20"/>
<path d="M116.493 46.3988C111.96 44.7786 115.432 42.6086 114.34 40.2253C115.071 41.9487 115.776 43.9916 116.493 46.3988Z" fill="#3F9242"/>
<path d="M93.9141 43.7659C95.3714 45.1408 96.8648 46.8592 98.2007 48.8977C96.6788 47.5149 95.3145 45.8121 93.9141 43.7659Z" fill="#3F9242"/>
<path d="M104.621 32.2259C104.117 33.5756 103.22 34.6441 101.895 35.718C102.387 34.4638 103.308 33.2042 104.621 32.2259Z" fill="#3F9242"/>
<path d="M98.1259 49.6026C100.037 50.3473 102.035 51.4963 104.525 52.9453C102.749 52.1658 100.481 51.0864 98.1259 49.6026Z" fill="#3F9242"/>
<path d="M141.887 77.096C141.655 77.3051 140.963 77.2714 139.909 77.0729C139.027 76.396 138.508 75.884 137.911 75.0652C139.031 75.4566 140.23 76.155 141.887 77.096Z" fill="#3D8335"/>
<path d="M112.699 39.0141C111.943 38.7386 110.757 38.2533 109.7 37.5358C110.642 37.8038 111.457 38.3039 112.699 39.0141Z" fill="#3F9242"/>
<path d="M137.981 74.4451C138.011 73.9484 138.19 73.1389 138.688 72.291C138.714 72.8792 138.422 73.5058 137.981 74.4451Z" fill="#3D8335"/>
<path d="M44.9883 194.073C45.1588 194.66 45.0736 195.465 44.8126 196.518C44.6687 195.941 44.7006 195.116 44.9883 194.073Z" fill="#D66B20"/>
<path d="M140.167 71.612C140.306 70.9523 140.86 70.345 141.779 69.6976C141.624 70.3265 141.104 70.9954 140.167 71.612Z" fill="#3D8335"/>
<path d="M143.184 69.0197C143.235 68.5966 143.663 68.2417 144.428 67.8768C144.364 68.2738 143.962 68.6808 143.184 69.0197Z" fill="#3D8335"/>
<path d="M109.172 35.5061C108.62 35.3558 108.055 34.886 107.367 34.1123C107.881 34.2677 108.52 34.7271 109.172 35.5061Z" fill="#3F9242"/>
<path d="M44.0898 205.634C44.3621 205.957 44.4927 206.526 44.4848 207.329C44.2137 207.001 44.081 206.44 44.0898 205.634Z" fill="#D66B20"/>
<path d="M109.849 37.0725C109.6 36.9925 109.384 36.6579 109.163 36.0668C109.4 36.1462 109.642 36.482 109.849 37.0725Z" fill="#3F9242"/>
<path d="M114.398 39.7253C114.17 39.8594 113.943 39.7424 113.389 39.4261C113.508 39.3093 113.953 39.3918 114.398 39.7253Z" fill="#3F9242"/>
<path d="M118.3 47.8459C118.247 47.9525 117.898 47.9222 117.471 47.7073C117.394 47.5228 118.004 47.7089 118.3 47.8459Z" fill="#3F9242"/>
<path d="M106.446 53.883C106.586 53.5528 106.916 53.6665 107.237 54.1831C107.286 54.349 106.693 54.0897 106.446 53.883Z" fill="#3F9242"/>
<path d="M43.9974 208.773C44.4099 208.88 44.543 209.161 44.5353 209.652C44.0729 209.62 43.8474 209.315 43.9974 208.773Z" fill="#D66B20"/>
<path d="M44.2869 197.951C44.6981 198.065 44.8306 198.359 44.8276 198.871C44.5689 198.759 44.3409 198.44 44.2869 197.951Z" fill="#D66B20"/>
<path d="M94.4161 106.43C94.4817 106.757 94.1775 106.848 93.5148 106.748C93.4011 106.387 93.6978 106.265 94.4161 106.43Z" fill="#D66B20"/>
<path d="M92.8359 106.58C92.8973 106.9 92.5861 106.993 91.9138 106.9C91.8033 106.541 92.1067 106.42 92.8359 106.58Z" fill="#D66B20"/>
<path d="M91.2252 106.728C91.279 107.047 90.9582 107.135 90.2725 107.031C90.1799 106.683 90.4942 106.568 91.2252 106.728Z" fill="#D66B20"/>
<path d="M86.9174 119.091C87.6144 118.001 88.4765 116.522 89.6467 116.639C94.183 117.096 102.34 122.771 102.568 126.477C102.782 129.954 101.163 133.742 98.5922 135.842C95.0278 138.754 89.1033 137.035 83.0817 132.528C78.3576 128.992 78.0664 125.051 78.8928 121.299C79.5389 118.365 81.3616 117.973 84.8279 120.928C87.3783 123.103 90.4609 124.815 93.3064 126.734C93.6176 126.478 93.9289 126.223 94.2401 125.967C91.9014 123.79 89.5627 121.613 86.9174 119.091Z" fill="#E59B3A"/>
<path d="M161.461 57.9103C158.728 59.8913 155.99 61.8624 153.252 63.8336C152.59 63.1274 151.928 62.4211 151.266 61.7148C154.378 60.3238 157.49 58.9327 161.025 57.7116C161.448 57.8814 161.457 57.9005 161.461 57.9103Z" fill="#3D8335"/>
<path d="M134.652 82.7243C137.282 85.0778 139.912 87.4314 142.449 90.1501C142.356 90.5153 142.186 90.5418 141.687 90.221C138.258 88.1739 135.327 86.4475 132.143 84.5719C128.544 91.8745 125.269 98.5191 121.593 105.979C123.78 105.162 125.095 104.671 126.441 104.232C126.473 104.284 126.538 104.388 126.538 104.388C124.646 105.953 122.754 107.517 120.862 109.082C120.201 108.636 119.54 108.189 118.879 107.742C122.92 99.7979 126.96 91.8537 131.575 83.5772C132.983 83.0713 133.817 82.8978 134.652 82.7243Z" fill="#3D8335"/>
<path d="M142.438 90.5018C142.949 90.7994 143.377 91.1117 144.139 91.641C142.445 98.0834 135.755 99.9984 129.513 102.645C129.055 102.539 128.98 102.399 129.206 102.119C131.213 100.768 133.114 99.8098 134.746 98.6002C137.784 96.3482 143.199 95.8491 142.184 90.5431C142.184 90.5431 142.353 90.5166 142.438 90.5018Z" fill="#3D8335"/>
<path d="M140.049 81.6663C138.368 81.757 136.688 81.8476 134.515 81.4205C133.826 80.5217 133.63 80.1406 133.433 79.7595C133.636 79.4196 133.839 79.0797 134.194 78.4856C135.406 78.4706 136.465 78.7096 137.92 79.1086C138.315 79.2684 138.322 79.3465 138.376 79.6929C138.969 80.5816 139.509 81.124 140.049 81.6663Z" fill="#3D8335"/>
<path d="M133.036 79.7874C133.629 80.1433 133.826 80.5244 134.084 81.199C134.055 81.7585 134.112 82.0384 134.481 82.529C133.814 82.8993 132.98 83.0729 131.787 83.1979C131.832 82.037 132.236 80.9247 133.036 79.7874Z" fill="#087938"/>
<path d="M129.095 102.609C128.522 103.243 127.913 103.807 126.921 104.379C126.539 104.388 126.473 104.285 126.642 103.981C127.535 103.251 128.259 102.825 128.983 102.398C128.983 102.398 129.058 102.538 129.095 102.609Z" fill="#3D8335"/>
<path d="M126.758 77.8995C126.428 77.8508 126.223 77.5363 126.252 76.972C126.561 77.0588 126.693 77.3626 126.758 77.8995Z" fill="#33A244"/>
<path d="M128.891 69.5696C128.042 69.9558 127.192 70.3421 126.342 70.7284C126.119 70.4317 125.895 70.1351 125.671 69.8384C126.454 69.5536 127.236 69.2688 128.42 69.2063C128.821 69.4286 128.891 69.5696 128.891 69.5696Z" fill="#087938"/>
<path d="M130.43 69.33C130.181 69.5669 129.852 69.6563 129.176 69.6127C128.886 69.5703 128.815 69.4294 128.788 69.3566C129.038 69.1085 129.373 69.0306 130.059 69.105C130.351 69.1599 130.408 69.2728 130.43 69.33Z" fill="#087938"/>
<path d="M142.146 84.5043C142.925 85.226 143.375 85.9756 143.826 86.7253C143.349 86.7634 142.873 86.8014 142.396 86.8395C142.203 86.0704 142.011 85.3013 142.146 84.5043Z" fill="#3D8335"/>
<path d="M140.29 81.5557C139.514 81.1249 138.974 80.5826 138.358 79.7219C139.03 80.0838 139.778 80.764 140.29 81.5557Z" fill="#087938"/>
</g>
<defs>
<filter id="filter0_d_1202_5221" x="39.9512" y="25.4442" width="144.789" height="203.532" filterUnits="userSpaceOnUse" color-interpolation-filters="sRGB">
<feFlood flood-opacity="0" result="BackgroundImageFix"/>
<feColorMatrix in="SourceAlpha" type="matrix" values="0 0 0 0 0 0 0 0 0 0 0 0 0 0 0 0 0 0 127 0" result="hardAlpha"/>
<feOffset dy="4"/>
<feGaussianBlur stdDeviation="2"/>
<feComposite in2="hardAlpha" operator="out"/>
<feColorMatrix type="matrix" values="0 0 0 0 0 0 0 0 0 0 0 0 0 0 0 0 0 0 0.25 0"/>
<feBlend mode="normal" in2="BackgroundImageFix" result="effect1_dropShadow_1202_5221"/>
<feBlend mode="normal" in="SourceGraphic" in2="effect1_dropShadow_1202_5221" result="shape"/>
</filter>
</defs>
</svg>
