<svg width="63" height="62" viewBox="0 0 63 62" fill="none" xmlns="http://www.w3.org/2000/svg">
<path d="M10.1289 31.861C10.1289 32.8125 53.1845 33.6727 53.1845 32.7221V26.6943H52.3234V17.2221C52.3234 16.0802 51.8697 14.985 51.0623 14.1776C50.2548 13.3701 49.1597 12.9165 48.0178 12.9165H15.2956C14.1537 12.9165 13.0585 13.3701 12.2511 14.1776C11.4436 14.985 10.99 16.0802 10.99 17.2221V26.6943H10.1289V31.861Z" fill="#FCEA2B"/>
<path d="M10.9902 18.8788C11.8181 18.3226 12.8134 18.0711 13.8062 18.1672C14.7989 18.2634 15.7275 18.7011 16.4333 19.4058C17.2411 20.2134 18.3365 20.667 19.4786 20.667C20.6208 20.667 21.7162 20.2134 22.524 19.4058C23.3314 18.5987 24.4263 18.1452 25.568 18.1452C26.7097 18.1452 27.8046 18.5987 28.612 19.4058C29.4197 20.2131 30.5149 20.6666 31.6569 20.6666C32.7989 20.6666 33.8941 20.2131 34.7018 19.4058C35.5092 18.5987 36.6041 18.1452 37.7458 18.1452C38.8875 18.1452 39.9824 18.5987 40.7898 19.4058C41.5976 20.2134 42.693 20.667 43.8352 20.667C44.9773 20.667 46.0727 20.2134 46.8805 19.4058C47.5863 18.7011 48.5149 18.2634 49.5076 18.1672C50.5004 18.0711 51.4957 18.3226 52.3236 18.8788V17.2221C52.3236 16.0802 51.8699 14.985 51.0625 14.1776C50.2551 13.3701 49.1599 12.9165 48.018 12.9165H15.2958C14.1539 12.9165 13.0588 13.3701 12.2513 14.1776C11.4439 14.985 10.9902 16.0802 10.9902 17.2221V18.8788Z" fill="white"/>
<path d="M4.96094 51.6667C4.96094 52.1234 5.14239 52.5615 5.46536 52.8845C5.78834 53.2074 6.2264 53.3889 6.68316 53.3889H56.6276C57.0844 53.3889 57.5224 53.2074 57.8454 52.8845C58.1684 52.5615 58.3498 52.1234 58.3498 51.6667V35.3056C58.3498 34.1637 57.8962 33.0685 57.0888 32.2611C56.2813 31.4536 55.1862 31 54.0443 31H9.26649C8.12459 31 7.02945 31.4536 6.22201 32.2611C5.41456 33.0685 4.96094 34.1637 4.96094 35.3056V51.6667Z" fill="#FCEA2B"/>
<path d="M31.6556 12.9167C33.0823 12.9167 34.2389 11.7601 34.2389 10.3333C34.2389 8.9066 33.0823 7.75 31.6556 7.75C30.2289 7.75 29.0723 8.9066 29.0723 10.3333C29.0723 11.7601 30.2289 12.9167 31.6556 12.9167Z" fill="#EA5A47"/>
<path d="M10.3437 39.2116C11.1512 40.0187 12.2461 40.4722 13.3878 40.4722C14.5295 40.4722 15.6244 40.0187 16.4318 39.2116C17.2395 38.404 18.3349 37.9504 19.4771 37.9504C20.6193 37.9504 21.7147 38.404 22.5224 39.2116C23.3298 40.0187 24.4248 40.4722 25.5665 40.4722C26.7081 40.4722 27.8031 40.0187 28.6105 39.2116C29.4182 38.4043 30.5134 37.9508 31.6554 37.9508C32.7973 37.9508 33.8926 38.4043 34.7003 39.2116C35.5077 40.0187 36.6026 40.4722 37.7443 40.4722C38.886 40.4722 39.9809 40.0187 40.7883 39.2116C41.5961 38.404 42.6915 37.9504 43.8336 37.9504C44.9758 37.9504 46.0712 38.404 46.879 39.2116C47.6864 40.0187 48.7813 40.4722 49.923 40.4722C51.0647 40.4722 52.1596 40.0187 52.967 39.2116C53.664 38.5155 54.5785 38.0795 55.5581 37.9762C56.5377 37.8729 57.523 38.1087 58.3498 38.6441V35.3056C58.3498 34.1637 57.8962 33.0685 57.0888 32.2611C56.2813 31.4536 55.1862 31 54.0443 31H9.26649C8.12459 31 7.02945 31.4536 6.22201 32.2611C5.41456 33.0685 4.96094 34.1637 4.96094 35.3056V38.6441C5.78781 38.1088 6.77324 37.8732 7.75282 37.9766C8.73239 38.0801 9.64689 38.5154 10.3437 39.2116Z" fill="white"/>
<path d="M31.6556 12.9167C33.0823 12.9167 34.2389 11.7601 34.2389 10.3333C34.2389 8.9066 33.0823 7.75 31.6556 7.75C30.2289 7.75 29.0723 8.9066 29.0723 10.3333C29.0723 11.7601 30.2289 12.9167 31.6556 12.9167Z" stroke="black" stroke-width="1.11111" stroke-miterlimit="10" stroke-linecap="round" stroke-linejoin="round"/>
<path d="M31.6554 9.25673C31.6554 8.11482 32.109 7.01969 32.9165 6.21224C33.7239 5.40479 34.819 4.95117 35.9609 4.95117M10.3437 39.2113C11.1512 40.0185 12.2461 40.4719 13.3878 40.4719C14.5295 40.4719 15.6244 40.0185 16.4318 39.2113C17.2395 38.4038 18.3349 37.9502 19.4771 37.9502C20.6193 37.9502 21.7147 38.4038 22.5224 39.2113C23.3298 40.0185 24.4248 40.4719 25.5665 40.4719C26.7081 40.4719 27.8031 40.0185 28.6105 39.2113C29.4182 38.4041 30.5134 37.9506 31.6554 37.9506C32.7973 37.9506 33.8926 38.4041 34.7003 39.2113C35.5077 40.0185 36.6026 40.4719 37.7443 40.4719C38.886 40.4719 39.9809 40.0185 40.7883 39.2113C41.5961 38.4038 42.6915 37.9502 43.8336 37.9502C44.9758 37.9502 46.0712 38.4038 46.879 39.2113C47.6864 40.0185 48.7813 40.4719 49.923 40.4719C51.0647 40.4719 52.1596 40.0185 52.967 39.2113C53.664 38.5153 54.5785 38.0793 55.5581 37.976C56.5377 37.8727 57.523 38.1085 58.3498 38.6439V35.3053C58.3498 34.1634 57.8962 33.0683 57.0888 32.2609C56.2813 31.4534 55.1862 30.9998 54.0443 30.9998H9.26649C8.12459 30.9998 7.02945 31.4534 6.22201 32.2609C5.41456 33.0683 4.96094 34.1634 4.96094 35.3053V38.6439C5.78781 38.1086 6.77324 37.873 7.75282 37.9764C8.73239 38.0798 9.64689 38.5152 10.3437 39.2113Z" stroke="black" stroke-width="1.11111" stroke-miterlimit="10" stroke-linecap="round" stroke-linejoin="round"/>
<path d="M4.96094 38.644V51.6666C4.96094 52.1234 5.14239 52.5614 5.46536 52.8844C5.78834 53.2074 6.2264 53.3889 6.68316 53.3889H56.6276C57.0844 53.3889 57.5224 53.2074 57.8454 52.8844C58.1684 52.5614 58.3498 52.1234 58.3498 51.6666V38.644" stroke="black" stroke-width="1.11111" stroke-miterlimit="10" stroke-linecap="round" stroke-linejoin="round"/>
<path d="M52.3221 18.8788V27.5554M52.3221 18.8788C51.4942 18.3226 50.4988 18.0711 49.5061 18.1672C48.5134 18.2634 47.5848 18.7011 46.879 19.4058C46.0712 20.2134 44.9758 20.667 43.8336 20.667C42.6915 20.667 41.5961 20.2134 40.7883 19.4058C39.9809 18.5987 38.886 18.1452 37.7443 18.1452C36.6026 18.1452 35.5077 18.5987 34.7003 19.4058C33.8926 20.2131 32.7973 20.6666 31.6554 20.6666C30.5134 20.6666 29.4182 20.2131 28.6105 19.4058C27.8031 18.5987 26.7081 18.1452 25.5665 18.1452C24.4248 18.1452 23.3298 18.5987 22.5224 19.4058C21.7147 20.2134 20.6193 20.667 19.4771 20.667C18.3349 20.667 17.2395 20.2134 16.4318 19.4058C15.726 18.7011 14.7974 18.2634 13.8047 18.1672C12.8119 18.0711 11.8166 18.3226 10.9887 18.8788M52.3221 18.8788V17.2221C52.3221 16.0802 51.8684 14.985 51.061 14.1776C50.2535 13.3701 49.1584 12.9165 48.0165 12.9165H15.2943C14.1524 12.9165 13.0572 13.3701 12.2498 14.1776C11.4423 14.985 10.9887 16.0802 10.9887 17.2221V18.8788M10.9887 18.8788V27.5554M10.3437 39.2114C11.1512 40.0186 12.2461 40.472 13.3878 40.472C14.5295 40.472 15.6244 40.0186 16.4318 39.2114C17.2395 38.4039 18.3349 37.9502 19.4771 37.9502C20.6193 37.9502 21.7147 38.4039 22.5224 39.2114C23.3298 40.0186 24.4248 40.472 25.5665 40.472C26.7081 40.472 27.8031 40.0186 28.6105 39.2114C29.4182 38.4041 30.5134 37.9506 31.6554 37.9506C32.7973 37.9506 33.8926 38.4041 34.7003 39.2114C35.5077 40.0186 36.6026 40.472 37.7443 40.472C38.886 40.472 39.9809 40.0186 40.7883 39.2114C41.5961 38.4039 42.6915 37.9502 43.8336 37.9502C44.9758 37.9502 46.0712 38.4039 46.879 39.2114C47.6864 40.0186 48.7813 40.472 49.923 40.472C51.0647 40.472 52.1596 40.0186 52.967 39.2114C53.664 38.5153 54.5785 38.0793 55.5581 37.9761C56.5377 37.8728 57.523 38.1085 58.3498 38.6439V35.3054C58.3498 34.1635 57.8962 33.0684 57.0888 32.2609C56.2813 31.4535 55.1862 30.9998 54.0443 30.9998H9.26649C8.12459 30.9998 7.02945 31.4535 6.22201 32.2609C5.41456 33.0684 4.96094 34.1635 4.96094 35.3054V38.6439C5.78781 38.1086 6.77324 37.873 7.75282 37.9765C8.73239 38.0799 9.64689 38.5152 10.3437 39.2114Z" stroke="black" stroke-width="1.11111" stroke-miterlimit="10" stroke-linecap="round" stroke-linejoin="round"/>
</svg>
