<svg width="60" height="64" viewBox="0 0 60 64" fill="none" xmlns="http://www.w3.org/2000/svg">
<path d="M58.3447 24.357C59.3195 21.4246 57.9728 13.5874 54.8557 13.481C59.1391 1.19863 41.2445 0.0136836 40.7898 3.41933C36.9809 -3.86154 21.5758 6.95827 26.8228 13.9077C24.5545 14.4067 22.0799 22.3919 24.2951 25.0125C26.2953 27.3811 32.7136 29.8855 32.7136 29.8855C32.821 32.9708 37.3491 36.3312 40.4662 36.2248C43.3868 36.1245 49.9892 34.8711 49.6334 29.8843C49.6334 29.8843 56.7324 29.2007 58.3447 24.357Z" fill="#FFA7C0" stroke="#FFA7C0" stroke-width="0.555556"/>
<path d="M38.9583 21.1253C36.6066 21.1253 34.7012 19.411 34.7012 17.2963C34.7012 15.6699 35.6872 14.2811 37.2773 13.7251C37.4284 13.678 37.5904 13.669 37.7466 13.6991C37.9028 13.7291 38.0475 13.7971 38.1659 13.8961L42.5731 17.2856L46.77 20.5753C47.2431 20.9459 47.4957 21.5364 47.3342 22.0912C46.8585 23.7378 45.1941 24.9544 43.2142 24.9544C40.8638 24.9544 38.9583 23.24 38.9583 21.1253Z" fill="#FCEA2B"/>
<path d="M15.522 27.395C20.4668 33.6203 18.9965 43.273 18.9965 43.273C18.9965 43.273 9.50819 42.8309 4.56212 36.6056C-0.383946 30.3802 1.08761 20.7275 1.08761 20.7275C1.08761 20.7275 10.5772 21.1748 15.522 27.395Z" fill="#B1CC33"/>
<path d="M29.358 37.4281C25.1003 41.8037 19.8519 50.0642 22.1393 63M41.7656 18.3641C41.7656 18.3641 45.518 13.5334 41.6764 9.11459M45.9737 21.6348C45.9737 22.616 45.5823 23.5571 44.8856 24.251C44.1888 24.9448 43.2438 25.3346 42.2585 25.3346C41.2732 25.3346 40.3282 24.9448 39.6314 24.251C38.9347 23.5571 38.5433 22.616 38.5433 21.6348C37.6369 21.6356 36.7615 21.3064 36.0818 20.7092C35.4022 20.112 34.9652 19.288 34.8532 18.3923C34.7411 17.4966 34.9618 16.591 35.4735 15.846C35.9853 15.101 36.7529 14.568 37.6318 14.3474M26.5988 13.5124C24.3895 10.7758 25.6824 6.19544 29.488 3.28121C33.2924 0.368221 38.1693 0.226395 40.3786 2.96303M15.5188 26.8774C20.4625 32.9032 18.9925 42.2465 18.9925 42.2465C18.9925 42.2465 9.50628 41.8185 4.56131 35.7928C-0.383665 29.767 1.08757 20.4237 1.08757 20.4237C1.08757 20.4237 10.575 20.8566 15.5188 26.8774Z" stroke="black" stroke-width="1.11111" stroke-linecap="round" stroke-linejoin="round"/>
<path d="M27.0319 13.5555C24.8688 10.832 26.1346 6.27355 29.8607 3.37328C33.5856 0.474225 38.3605 0.333078 40.5237 3.05661M32.658 29.9189C29.4145 31.118 25.5563 28.4386 24.0406 23.9366C22.525 19.4334 23.9266 14.8124 27.1701 13.6132M40.6389 3.18549C42.6128 0.317122 47.2908 0.265572 51.0872 3.07011C54.8824 5.87343 56.3592 10.4712 54.3852 13.3383M54.5695 13.3015C57.9016 14.2183 59.5227 18.6602 58.1914 23.2223C56.8588 27.7832 53.0794 30.7375 49.7473 29.8207M49.7097 29.7924C49.8286 33.2855 46.1158 36.1662 41.4173 36.2263C36.7188 36.2865 32.8132 33.504 32.6944 30.0109" stroke="black" stroke-width="1.11111" stroke-linecap="round" stroke-linejoin="round"/>
</svg>
