<svg width="63" height="62" viewBox="0 0 63 62" fill="none" xmlns="http://www.w3.org/2000/svg">
<path d="M22.7918 34.5365C22.9175 35.2297 23.5883 35.7954 24.4864 35.9651L34.7388 37.9026C35.2185 37.9921 35.2245 38.5071 34.744 38.5984L24.4804 40.5376C23.5823 40.7072 22.9175 41.2713 22.7926 41.9644L20.0741 57.0279C19.9992 57.4412 19.207 57.4412 19.132 57.0279L16.4144 41.9653C16.2887 41.2721 15.6239 40.7072 14.7257 40.5376L4.46129 38.5984C3.98165 38.5079 3.98165 37.9939 4.46129 37.9034L14.7257 35.9634C15.6239 35.7937 15.735 34.9808 15.8598 34.2876L18.1443 22.1529C18.2193 21.7378 19.9992 19.0572 20.0732 19.4722L22.7918 34.5365Z" fill="#FCEA2B"/>
<path d="M20.1606 57.0279L21.5228 43.7633C19.1117 39.7867 18.1903 35.6603 17.0683 32.7222L15.9015 34.5477C15.7853 35.2409 15.1678 35.8049 14.3343 35.9746L4.80265 37.9129C4.35745 38.0042 4.35745 38.5174 4.80265 38.6079L14.3326 40.5454C15.1661 40.7159 16.6455 41.2799 16.7609 41.9731L19.2848 57.0279C19.3537 57.4412 20.0908 57.4412 20.1606 57.0279Z" fill="#F1B31C"/>
<path d="M40.8499 16.6238C40.9403 17.1241 41.4251 17.5331 42.0736 17.6554L49.4782 19.0547C49.8244 19.1201 49.8287 19.4913 49.4817 19.5567L42.0692 20.9578C41.4208 21.08 40.9403 21.4882 40.8499 21.9885L38.8866 32.8669C38.8332 33.1666 38.2605 33.1666 38.2063 32.8669L36.243 21.9885C36.1534 21.4882 35.6729 21.08 35.0245 20.9578L27.6112 19.5576C27.265 19.4913 27.265 19.121 27.6112 19.0556L35.0245 17.6545C35.6729 17.5323 35.753 16.9441 35.8434 16.4438L37.3874 7.67942C37.4416 7.38061 38.8332 5.44483 38.8866 5.74364L40.8499 16.6238Z" fill="#FCEA2B"/>
<path d="M39.1884 32.8677L39.9332 23.2879C38.1921 20.4152 36.9047 17.4357 36.0944 15.314L35.8731 16.6315C35.7896 17.1326 35.3435 17.5399 34.7407 17.6622L27.8587 19.0624C27.5367 19.1278 27.5367 19.499 27.8587 19.5644L34.7407 20.9637C35.3435 21.086 36.6507 21.4942 36.7342 21.9945L38.5563 32.8677C38.6071 33.1665 39.1384 33.1665 39.1884 32.8677Z" fill="#F1B31C"/>
<path d="M49.6384 42.1393C49.7133 42.5389 50.112 42.8644 50.6442 42.9617L56.7288 44.0777C57.0138 44.1293 57.0173 44.4264 56.7323 44.4781L50.6408 45.5949C50.1077 45.6931 49.7133 46.0177 49.6384 46.4173L48.0264 55.0921C47.9825 55.3307 47.5115 55.3307 47.4667 55.0921L45.8538 46.4173C45.7798 46.0177 45.3854 45.6931 44.8524 45.5949L38.76 44.4789C38.4758 44.4264 38.4758 44.1302 38.76 44.0785L44.8524 42.9608C45.3854 42.8635 45.4508 42.395 45.5257 41.9964L46.7942 35.0067C46.8389 34.7682 47.9825 33.2242 48.0264 33.4636L49.6384 42.1393Z" fill="#FCEA2B"/>
<path d="M48.2163 55.0921L49.1239 47.454C47.7358 45.1635 46.7094 42.7868 46.0627 41.0947L45.887 42.1453C45.8198 42.5448 45.4642 42.8695 44.9837 42.9676L39.4958 44.0836C39.2384 44.1353 39.2384 44.4315 39.4958 44.4841L44.9837 45.6001C45.4642 45.6974 45.819 46.0229 45.887 46.4216L47.7126 55.0929C47.753 55.3306 48.1776 55.3298 48.2163 55.0921Z" fill="#F1B31C"/>
<path d="M17.8789 27.5558L19.7234 17.9458L20.3262 21.5418L22.3326 33.5155C22.5565 34.8589 23.7474 35.9404 25.3637 36.2694L35.1011 38.2499L25.3568 40.2331C23.7448 40.5611 22.5573 41.6418 22.3317 42.986L19.7234 58.5558L17.1151 42.9869C16.8904 41.6427 15.7029 40.562 14.09 40.2339L4.3457 38.2508L14.09 36.2676C15.7029 35.9404 16.7931 34.0658 17.0178 32.7224M37.3021 11.5822L38.6343 4.6416L39.0692 7.23871L40.5175 15.8869C40.6812 16.8565 41.5397 17.6375 42.7073 17.8752L49.74 19.3063L42.7022 20.7384C41.538 20.9752 40.6803 21.7553 40.5175 22.7258L38.6343 33.9711L36.7502 22.7267C36.5874 21.7562 35.7298 20.9752 34.5655 20.7384L27.5277 19.3063L34.5655 17.8743C35.7298 17.6375 36.5177 16.2838 36.6796 15.3134M47.0258 38.119L48.0884 32.5838L48.4355 34.6556L49.5902 41.5514C49.7202 42.3256 50.4057 42.9481 51.3365 43.1376L56.9441 44.2786L51.3322 45.4204C50.404 45.6098 49.7202 46.2316 49.5902 47.0048L48.0884 55.9724L46.5858 47.0057C46.4566 46.2316 45.7729 45.6098 44.8438 45.4212L39.2319 44.2786L44.8438 43.1367C45.7729 42.9473 46.4006 41.8683 46.5298 41.095" stroke="black" stroke-width="1.11111" stroke-miterlimit="10" stroke-linecap="round" stroke-linejoin="round"/>
</svg>
