<svg width="62" height="62" viewBox="0 0 62 62" fill="none" xmlns="http://www.w3.org/2000/svg">
<path d="M49.3361 14.1851C45.0667 14.1851 37.4932 18.3442 33.7207 22.3932C34.4763 23.2109 34.8934 24.285 34.8875 25.3984C34.8453 30.8071 34.9848 31.0146 34.7515 31.9463C44.7317 35.042 47.2246 42.7231 52.1416 36.1976C57.7517 28.7508 54.613 14.1851 49.3361 14.1851Z" fill="#EA5A47"/>
<path d="M34.8841 25.7903C38.8934 22.1391 45.4697 18.7274 49.3361 18.7274C52.226 18.7274 54.4735 23.0941 54.9953 28.2685C55.704 21.3986 53.0492 14.1851 49.3361 14.1851C45.0667 14.1851 37.4932 18.3442 33.7207 22.3932C34.4763 23.2109 34.8934 24.285 34.8875 25.3984L34.8841 25.7903Z" fill="#D22F27"/>
<path d="M25.9287 24.533V24.9291C25.9373 26.2552 25.9373 27.2541 25.9287 28.0118V29.8546C25.9287 30.3455 25.9545 30.6124 26.0234 30.9224C26.032 30.9482 26.032 30.9741 26.0406 30.9999C26.0578 31.0257 26.0578 31.0516 26.0664 31.086H26.0578C19.8751 33.0063 16.5684 36.6832 13.7784 37.6477C12.3145 38.1557 10.9884 37.9232 9.47284 36.3043C9.21451 36.0288 8.94756 35.7016 8.672 35.3399C7.37173 33.6091 6.53645 31.4993 6.09728 29.2777V29.2605C5.97673 28.6491 5.88201 28.0291 5.82173 27.4091C5.77867 27.0302 5.74423 26.6513 5.73562 26.2724C5.70978 25.9021 5.70117 25.5232 5.70117 25.153C5.70117 20.3652 7.22534 15.8099 9.47284 14.0705C9.61062 13.9585 9.74839 13.8638 9.89478 13.7777C10.3942 13.4849 10.9281 13.3213 11.4792 13.3213C12.0045 13.3213 12.5728 13.3816 13.1842 13.5021C13.3823 13.5366 13.5803 13.5796 13.7784 13.6313C13.9592 13.6743 14.1487 13.726 14.3381 13.7777C18.437 14.9143 23.6812 18.0488 26.7639 21.1918L25.9287 24.533Z" fill="#EA5A47"/>
<path d="M25.9287 24.533V24.9291C22.6392 21.9324 17.6103 19.0907 13.7784 18.178C12.9431 17.9799 12.1681 17.868 11.4792 17.868C10.7645 17.868 10.0928 18.1349 9.47284 18.6171C9.36951 18.6946 9.27478 18.7721 9.17145 18.8668C7.44062 20.4427 6.19201 23.7235 5.82173 27.4091C5.77867 27.0302 5.74423 26.6513 5.73562 26.2724C5.70978 25.9021 5.70117 25.5232 5.70117 25.153C5.70117 20.3652 7.22534 15.8099 9.47284 14.0705C9.61062 13.9585 9.74839 13.8638 9.89478 13.7777C10.3942 13.4849 10.9281 13.3213 11.4792 13.3213C12.0045 13.3213 12.5728 13.3816 13.1842 13.5021C13.3823 13.5366 13.5803 13.5796 13.7784 13.6313C13.9592 13.6743 14.1487 13.726 14.3381 13.7777C18.437 14.9143 23.6812 18.0488 26.7639 21.1918L25.9287 24.533Z" fill="#D22F27"/>
<path d="M26.0885 31.7061C25.0782 32.0733 24.0991 32.5214 23.1607 33.0459C21.2585 35.5759 17.889 40.653 14.2818 48.7354C13.9942 49.3786 14.4342 50.1502 15.0172 50.0227L19.1678 49.1151C19.7705 48.9834 20.3733 49.3425 20.6695 50.009L22.539 54.2224C22.8662 54.9595 23.7506 54.8131 23.9099 53.9942C24.7211 49.8402 26.5802 40.8691 28.8337 34.8198C27.505 34.5374 26.4338 33.3051 26.0885 31.7061ZM38.014 33.095C37.0677 32.5474 36.0757 32.0827 35.0492 31.7061C34.7048 33.3051 33.6327 34.5374 32.304 34.8198C34.5575 40.8691 36.4167 49.8393 37.2279 53.9942C37.3872 54.8122 38.2715 54.9595 38.5987 54.2224L40.4682 50.009C40.7644 49.3425 41.3672 48.9842 41.9691 49.1151L46.1205 50.0227C46.7044 50.1502 47.1444 49.3786 46.8568 48.7345C43.272 40.7047 39.9231 35.6413 38.014 33.095Z" fill="#EA5A47"/>
<path d="M30.8619 19.5625H29.4152C27.4924 19.5625 25.9277 21.6128 25.9277 24.1341V29.8562C25.9277 32.3767 27.4924 34.4279 29.4152 34.4279H30.8619C32.7848 34.4279 34.3494 32.3767 34.3494 29.8554V24.1341C34.3494 21.6128 32.7848 19.5625 30.8619 19.5625Z" fill="#EA5A47"/>
<path d="M34.0545 21.2038C34.5616 21.9977 34.8665 23.0207 34.8665 24.1341V29.8562C34.8665 32.3767 33.3018 34.4279 31.379 34.4279H29.9323C29.4621 34.4258 29.0002 34.3043 28.5898 34.0748C29.8488 33.3842 30.7357 31.7533 30.7357 29.8554V24.1341C30.7357 22.2362 29.8488 20.6053 28.5898 19.9147C29.0005 19.6853 29.4628 19.5641 29.9332 19.5625H31.3781C32.4519 19.5625 33.4138 20.2014 34.0545 21.2038Z" fill="#D22F27"/>
<path d="M50.8541 13.8673C50.3935 13.598 49.8704 13.454 49.3368 13.4497C47.4278 13.4497 44.8591 14.2807 42.2637 15.5629" stroke="black" stroke-width="1.66" stroke-miterlimit="10"/>
<path d="M34.7525 31.2109C44.7328 34.3074 47.2257 41.9877 52.1426 35.4622C57.1896 28.7627 55.1565 16.3007 50.8544 13.8672M42.2639 15.5628C39.0546 17.1472 35.8073 19.4188 33.7217 21.6577M25.9287 24.533V24.9291C25.9373 26.2552 25.9373 27.2541 25.9287 28.0118C25.9287 28.8902 25.9201 29.4499 25.9287 29.8546C25.9287 30.3455 25.9545 30.6124 26.0234 30.9224C26.0234 30.9396 26.032 30.9482 26.032 30.9655C26.0492 30.9999 26.0578 31.043 26.0664 31.086H26.0578C19.8751 33.0063 16.5684 36.6832 13.7784 37.6477C12.3145 38.1557 10.9884 37.9232 9.47284 36.3043C9.21451 36.0288 8.94756 35.7016 8.672 35.3399C7.37173 33.6091 6.53645 31.4993 6.09728 29.2777C5.97673 28.6577 5.88201 28.0377 5.82173 27.4091C5.77867 27.0302 5.74423 26.6513 5.73562 26.2724C5.70978 25.9021 5.70117 25.5232 5.70117 25.153C5.70117 20.3652 7.22534 15.8099 9.47284 14.0705C9.61062 13.9585 9.74839 13.8638 9.89478 13.7777C10.3942 13.4849 10.9281 13.3213 11.4792 13.3213C12.0045 13.3213 12.5728 13.3816 13.1842 13.5021C13.3823 13.5366 13.5803 13.5796 13.7784 13.6313C13.9592 13.6743 14.1487 13.726 14.3381 13.7777C18.437 14.9143 23.6812 18.0488 26.7639 21.1918" stroke="black" stroke-width="1.66" stroke-miterlimit="10"/>
<path d="M26.0905 31.7061C25.0801 32.0733 24.101 32.5214 23.1627 33.0459C21.2605 35.5759 17.891 40.653 14.2838 48.7354C13.9962 49.3786 14.4362 50.1502 15.0192 50.0227L19.1697 49.1151C19.7725 48.9834 20.3753 49.3425 20.6715 50.009L22.541 54.2224C22.8682 54.9595 23.7526 54.8131 23.9119 53.9942C24.723 49.8402 26.5822 40.8691 28.8357 34.8198C27.507 34.5374 26.4358 33.3051 26.0905 31.7061ZM38.016 33.095C37.0696 32.5474 36.0777 32.0827 35.0512 31.7061C34.7067 33.3051 33.6347 34.5374 32.306 34.8198C34.5595 40.8691 36.4186 49.8393 37.2298 53.9942C37.3891 54.8122 38.2735 54.9595 38.6007 54.2224L40.4702 50.009C40.7664 49.3425 41.3692 48.9842 41.9711 49.1151L46.1225 50.0227C46.7063 50.1502 47.1464 49.3786 46.8588 48.7345C43.2739 40.7047 39.9251 35.6413 38.016 33.095Z" stroke="black" stroke-width="1.66667" stroke-miterlimit="10" stroke-linecap="round" stroke-linejoin="round"/>
<path d="M30.8619 19.5625H29.4152C27.4924 19.5625 25.9277 21.6128 25.9277 24.1341V29.8562C25.9277 32.3767 27.4924 34.4279 29.4152 34.4279H30.8619C32.7848 34.4279 34.3494 32.3767 34.3494 29.8554V24.1341C34.3494 21.6128 32.7848 19.5625 30.8619 19.5625Z" stroke="black" stroke-width="1.66667" stroke-miterlimit="10"/>
</svg>
