<svg width="63" height="62" viewBox="0 0 63 62" fill="none" xmlns="http://www.w3.org/2000/svg">
<path d="M44.5941 12.0737C43.1561 9.48263 41.433 8.16943 39.4722 8.16943C37.2161 8.16943 34.8731 9.94591 32.5059 13.4506C32.2117 13.8869 31.9286 14.3305 31.6568 14.781C31.3852 14.3304 31.102 13.8868 30.8077 13.4506C28.4414 9.94591 26.0975 8.16943 23.8414 8.16943C21.8815 8.16943 20.1575 9.48263 18.7195 12.0737C17.6448 14.0129 17.7335 15.5354 18.2476 16.3612C19.175 17.8509 21.5456 18.7249 24.8816 19.2984C27.4434 19.7402 30.1533 19.8056 31.5414 19.8056H31.773C33.1603 19.8056 35.8711 19.7402 38.432 19.2984C41.7671 18.7249 44.1377 17.85 45.066 16.3612C45.5784 15.5345 45.6697 14.0129 44.5941 12.0737Z" fill="#D22F27"/>
<path d="M14.4336 31H48.0169V52.5278H14.4336V31Z" fill="#FCEA2B"/>
<path d="M46.6316 30.5693L15.2949 30.6193V35.3554L38.6681 38.7387L48.0171 40.0416V30.6193L46.6316 30.5693Z" fill="#F1B31C"/>
<path d="M26.2441 51.6667H37.07V38.124L26.2441 35.9824V51.6667Z" fill="#EA5A47"/>
<path d="M12.7109 18.0835H50.5998V30.1391H12.7109V18.0835Z" fill="#FCEA2B"/>
<path d="M26.2441 18.9443H37.0692V30.1388H26.2441V18.9443Z" fill="#EA5A47"/>
<path d="M37.07 30.5693L26.2441 30.5866V36.9192L37.07 38.4976V30.5693Z" fill="#D22F27"/>
<path d="M14.7406 30.5695H12.7109V18.3908H15.6008H47.2337H50.5998V30.5695H48.5702V52.2204H14.7406V30.5695ZM14.7406 30.5695H49.247M44.5385 15.7153C44.8691 14.8715 44.9621 13.6547 44.1165 12.0737C42.7319 9.48263 41.0716 8.16943 39.1841 8.16943C37.0098 8.16943 34.7528 9.94591 32.4726 13.4506C32.189 13.8873 31.9162 14.3309 31.6545 14.781C31.3933 14.3308 31.1208 13.8872 30.8373 13.4506C28.558 9.94591 26.3001 8.16943 24.1267 8.16943C22.2383 8.16943 20.5789 9.48263 19.1925 12.0737C18.4167 13.529 18.4322 14.6751 18.6982 15.507" stroke="black" stroke-width="1.11111" stroke-miterlimit="10" stroke-linecap="round" stroke-linejoin="round"/>
<path d="M37.0681 51.6666V38.1239M26.2422 35.9823V51.6666M37.0681 30.1388V18.9443M26.2422 18.9443V30.1388M37.0681 38.4976V30.5693L26.2422 30.5866V36.9192" stroke="black" stroke-width="1.11111" stroke-miterlimit="10"/>
</svg>
