<svg width="144" height="144" viewBox="0 0 144 144" fill="none" xmlns="http://www.w3.org/2000/svg">
<g filter="url(#filter0_d_1202_5318)">
<path d="M125.875 107.097C125.875 107.097 126.033 106.696 126.21 106.052C126.769 103.462 126.859 101.402 127.581 99.5857C131.795 88.9699 130.752 78.239 128.381 67.4322C127.963 65.525 127.808 63.5648 127.531 61.6291C127.531 61.6291 127.451 61.6655 127.255 61.4494C126.985 60.6539 126.91 60.0746 126.836 59.4952C126.836 59.4952 126.779 59.537 126.578 59.3755C126.119 58.9675 125.984 58.6687 125.971 58.3177C125.971 58.3177 125.904 58.3801 125.712 58.1564C125.455 57.3514 125.39 56.7702 125.324 56.189C125.324 56.189 125.277 56.2182 125.068 56.0605C124.601 55.6605 124.464 55.3657 124.449 55.0185C124.449 55.0185 124.371 55.0666 124.19 54.9051C123.756 54.4988 123.62 54.2027 123.605 53.8554C123.605 53.8554 123.522 53.9103 123.345 53.7473C122.911 53.3406 122.774 53.0449 122.757 52.6971C122.757 52.6971 122.674 52.7516 122.497 52.5882C122.064 52.1814 121.928 51.8859 121.911 51.5383C121.911 51.5383 121.827 51.5916 121.65 51.4294C121.215 51.0262 121.077 50.7321 121.061 50.3846C121.061 50.3846 120.982 50.43 120.802 50.2698C120.366 49.8673 120.23 49.573 120.214 49.2266C120.214 49.2266 120.138 49.2637 119.948 49.1243C119.503 48.7693 119.299 48.5144 119.147 48.2201C119.147 48.2201 118.792 48.0808 118.388 47.8659C117.826 47.3436 117.67 47.0362 117.513 46.7287C117.513 46.7287 117.447 46.7214 117.172 46.6493C116.478 46.1788 116.06 45.7805 115.641 45.3823C115.641 45.3823 115.561 45.4326 115.3 45.3397C114.621 44.8477 114.203 44.4486 113.785 44.0494C113.785 44.0494 113.695 44.0953 113.434 44.0097C112.749 43.5316 112.324 43.1391 111.898 42.7467C111.898 42.7467 111.835 42.7831 111.439 42.7083C104.883 41.193 98.7229 39.7524 92.2229 38.4045C91.2402 39.8567 90.1812 41.1741 90.0435 42.5846C89.7802 45.2802 90.0415 48.0288 90.0868 50.8584C85.7941 48.4894 81.6123 47.3031 79.2263 44.6065C75.492 40.3866 72.1161 42.2431 68.4359 43.5502C66.8932 44.0982 65.5086 45.0618 63.6965 46.0253C63.6283 44.6988 63.5796 43.752 63.1347 42.7416C59.4216 43.1188 55.828 42.9118 52.8341 44.1092C37.534 50.2288 27.7705 69.454 29.9694 87.5506C31.9259 103.652 42.0323 113.532 55.7603 120.801C68.562 127.578 82.5273 130.59 96.7146 132.806C96.7146 132.806 96.7501 132.792 96.9597 132.499C98.4662 131.978 99.7631 131.749 101.06 131.519C101.06 131.519 101.16 131.532 101.275 131.155C102.433 130.532 103.476 130.286 104.52 130.04C108.822 126.957 113.124 123.873 117.666 120.237C118.217 119.533 118.529 119.382 118.84 119.231C118.84 119.231 118.836 119.171 118.909 118.899C119.392 118.227 119.802 117.826 120.212 117.424C120.212 117.424 120.151 117.347 120.291 117.171C120.656 116.751 120.92 116.557 121.222 116.413C121.222 116.413 121.368 116.059 121.514 115.589C122.006 114.631 122.352 114.145 122.699 113.659C122.699 113.659 122.844 113.261 123.009 112.78C123.523 111.825 123.871 111.351 124.22 110.877C124.22 110.877 124.37 110.48 124.52 109.955C125.072 108.652 125.474 107.875 125.875 107.097ZM94.8822 77.1148C94.3403 76.472 93.7492 75.8624 93.264 75.1815C89.0039 69.2027 90.3376 62.0218 96.3831 58.2894C102.076 54.7748 110.143 56.9192 113.572 62.8586C115.84 66.7858 115.007 73.1358 111.808 76.3025C107.37 80.6969 102.151 81.119 94.8822 77.1148Z" fill="#E02828"/>
<path d="M96.4986 133.089C82.5297 130.59 68.5644 127.579 55.7627 120.801C42.0347 113.533 31.9283 103.653 29.9718 87.5511C27.7729 69.4545 37.5364 50.2292 52.8365 44.1097C55.8304 42.9122 59.424 43.1193 63.358 42.4322C64.8984 40.6442 65.8218 39.1027 67.4059 36.4579C62.4214 35.925 58.0571 35.4583 53.6765 35.1211C53.6604 35.2506 53.3117 35.2774 53.3117 35.2774C53.3117 35.2774 53.7604 35.0708 53.8731 34.7628C55.5854 33.2938 57.185 32.1328 58.7847 30.9718C42.6357 26.6749 25.707 35.9196 16.8052 50.3387C8.06023 64.5035 5.62089 80.0319 9.47642 95.8516C12.6254 108.772 21.0375 118.86 34.2597 125.264C35.726 125.861 36.463 126.332 37.2001 126.803C37.2001 126.803 37.2485 126.784 37.6055 126.843C39.0052 127.428 40.0478 127.953 41.0905 128.478C41.0905 128.478 41.1398 128.45 41.6002 128.528C55.3092 130.85 68.5576 133.094 81.8061 135.339C86.6308 134.683 91.4555 134.027 96.4986 133.089Z" fill="#C22220"/>
<path d="M59.0901 31.0039C57.1823 32.1326 55.5826 33.2936 53.8514 34.7443C53.72 35.0341 53.69 34.9913 53.69 34.9913C58.0543 35.458 62.4187 35.9247 67.4031 36.4577C65.819 39.1024 64.8957 40.644 63.7514 42.4955C63.5792 43.7523 63.6279 44.699 63.6962 46.0256C65.5082 45.062 66.8928 44.0985 68.4355 43.5505C72.1157 42.2434 75.4916 40.3869 79.2259 44.6068C81.612 47.3033 85.7938 48.4897 90.0864 50.8586C90.0412 48.0291 89.7798 45.2805 90.0431 42.5849C90.1808 41.1744 91.2399 39.8569 92.4816 38.1594C95.5562 37.3376 98.0322 36.8537 100.508 36.3699C100.539 35.7989 100.57 35.228 100.601 34.6571C96.5435 33.7708 92.4859 32.8846 87.5679 31.8104C88.8171 30.7122 89.7675 29.8768 90.7178 29.0413C91.5001 27.7821 92.2825 26.523 93.6916 24.255C89.8106 24.8221 87.1624 25.209 84.0261 26.0841C82.828 26.2434 81.4963 25.8964 81.5032 25.5889C81.5829 22.0374 81.8654 18.4919 82.0939 14.9448C82.0939 14.9448 82.1174 14.9429 81.8503 14.6312C81.53 13.8105 81.4768 13.3015 81.4236 12.7925C81.4236 12.7925 81.4442 12.7935 81.186 12.5763C80.8592 11.9531 80.7907 11.5473 80.7221 11.1415C80.7221 11.1415 80.7021 11.1288 80.4115 11.0691C80.0388 10.6643 79.9567 10.3193 79.8747 9.97429C79.8747 9.97429 79.8539 9.9623 79.4356 9.98491C75.0685 8.69842 74.1916 11.042 73.906 14.0888C73.906 14.0888 73.9341 14.0696 74.1944 14.1533C74.5571 14.5746 74.6594 14.9121 74.7618 15.2496C74.7618 15.2496 74.7827 15.2284 75.0422 15.3402C75.396 15.8102 75.4902 16.1683 75.5845 16.5263C76.0651 18.9326 76.667 21.3278 76.9193 23.7549C76.9671 24.2144 75.6272 24.8002 74.2521 25.2052C73.1396 24.6895 72.7026 24.2963 72.2656 23.903C72.2656 23.903 72.2661 23.9591 71.8299 23.9175C67.8902 23.2864 64.3867 22.6967 59.8275 21.9294C61.2448 24.3173 61.8658 25.3636 62.4868 26.4099C62.4868 26.4099 62.4927 26.3576 62.8114 26.3312C63.5403 26.7819 63.9505 27.2591 64.3607 27.7362C64.3607 27.7362 64.365 27.6785 64.6271 27.7555C64.99 28.1878 65.0906 28.5431 65.1913 28.8983C65.1913 28.8983 65.2049 28.8461 65.4889 28.9092C65.9646 32.2944 63.6572 30.2275 62.4057 30.4376C61.4032 30.6371 60.4007 30.8366 59.0901 31.0039Z" fill="#087938"/>
<path d="M127.847 61.8141C127.811 63.5653 127.966 65.5255 128.385 67.4327C130.755 78.2395 131.798 88.9705 127.584 99.5863C126.863 101.403 126.772 103.462 126.316 105.864C131.357 96.899 132.55 86.704 131.544 76.2873C131.079 71.4688 129.328 66.7581 127.847 61.8141Z" fill="#98323C"/>
<path d="M90.4929 29.3896C89.7703 29.876 88.82 30.7114 87.5707 31.8097C92.4888 32.8839 96.5464 33.7701 100.604 34.6564C100.573 35.2273 100.542 35.7982 100.511 36.3691C98.035 36.853 95.5591 37.3368 92.8241 38.066C98.7254 39.7519 104.886 41.1925 111.469 42.6822C104.813 39.2659 100.735 30.7383 91.3925 31.0272C91.0348 31.0382 90.6418 30.1877 90.4929 29.3896Z" fill="#98323C"/>
<path d="M81.4984 135.633C68.5551 133.094 55.3066 130.849 41.5784 128.548C41.5934 128.883 42.0446 129.536 42.5891 129.627C55.451 131.764 68.323 133.84 81.4984 135.633Z" fill="#C82A25"/>
<path d="M62.1259 26.3388C61.8678 25.3631 61.2468 24.3167 59.8295 21.9289C64.3887 22.6962 67.8922 23.2859 71.86 23.9112C67.74 21.5803 63.0972 20.2614 56.9674 22.8778C59.1777 24.4405 60.4704 25.3543 62.1259 26.3388Z" fill="#98323C"/>
<path d="M82.3553 15.2752C81.8655 18.492 81.583 22.0374 81.5033 25.589C81.4964 25.8964 82.8281 26.2435 83.7313 26.2663C83.4885 22.5089 83.0526 19.0572 82.3553 15.2752Z" fill="#5D4C41"/>
<path d="M73.5632 13.9007C74.1934 11.042 75.0703 8.69848 79.4311 9.97494C77.6373 9.58306 75.4314 9.2239 73.2255 8.86474C73.2232 10.4807 73.2209 12.0966 73.5632 13.9007Z" fill="#5D4C41"/>
<path d="M100.885 131.812C99.7643 131.748 98.4673 131.977 96.9764 132.488C98.091 132.548 99.3997 132.327 100.885 131.812Z" fill="#C22220"/>
<path d="M62.6571 30.2167C63.6568 30.2265 65.9641 32.2934 65.461 28.9055C64.4026 29.2255 63.6558 29.6111 62.6571 30.2167Z" fill="#98323C"/>
<path d="M104.348 130.312C103.475 130.286 102.432 130.532 101.294 131.11C102.192 131.156 103.184 130.871 104.348 130.312Z" fill="#C22220"/>
<path d="M40.72 128.396C40.0463 127.953 39.0036 127.427 37.5865 126.863C38.2584 127.32 39.3048 127.818 40.72 128.396Z" fill="#C82A25"/>
<path d="M36.853 126.725C36.4615 126.331 35.7244 125.86 34.6377 125.347C35.0279 125.752 35.7677 126.2 36.853 126.725Z" fill="#C82A25"/>
<path d="M125.912 107.462C125.476 107.875 125.074 108.653 124.62 109.766C125.028 109.344 125.487 108.585 125.912 107.462Z" fill="#98323C"/>
<path d="M112.217 42.8011C112.328 43.1399 112.753 43.5323 113.482 43.981C113.368 43.6432 112.95 43.249 112.217 42.8011Z" fill="#98323C"/>
<path d="M127.111 59.6554C126.911 60.0741 126.985 60.6534 127.292 61.4324C127.478 61.0267 127.432 60.4213 127.111 59.6554Z" fill="#98323C"/>
<path d="M125.602 56.3507C125.392 56.7707 125.458 57.3518 125.755 58.1334C125.95 57.7264 125.913 57.1192 125.602 56.3507Z" fill="#98323C"/>
<path d="M122.732 113.995C122.355 114.146 122.008 114.632 121.602 115.418C121.95 115.255 122.357 114.793 122.732 113.995Z" fill="#98323C"/>
<path d="M120.16 117.731C119.804 117.826 119.394 118.227 118.931 118.923C119.287 118.825 119.697 118.432 120.16 117.731Z" fill="#98323C"/>
<path d="M115.957 45.4423C116.063 45.7803 116.482 46.1786 117.205 46.6334C117.096 46.2942 116.683 45.8984 115.957 45.4423Z" fill="#98323C"/>
<path d="M114.098 44.1105C114.203 44.4489 114.621 44.8481 115.34 45.31C115.231 44.9722 114.821 44.5718 114.098 44.1105Z" fill="#98323C"/>
<path d="M124.248 111.209C123.873 111.352 123.525 111.826 123.112 112.593C123.456 112.438 123.865 111.99 124.248 111.209Z" fill="#98323C"/>
<path d="M72.5617 23.9819C72.7042 24.2966 73.1412 24.6898 73.8987 25.0764C73.7648 24.7333 73.3105 24.397 72.5617 23.9819Z" fill="#98323C"/>
<path d="M64.0316 27.6751C63.95 27.2592 63.5398 26.782 62.7841 26.3338C62.8601 26.7798 63.2816 27.1968 64.0316 27.6751Z" fill="#98323C"/>
<path d="M121.307 50.4865C121.078 50.7322 121.215 51.0264 121.689 51.3986C121.787 51.216 121.67 50.9021 121.307 50.4865Z" fill="#98323C"/>
<path d="M126.217 58.4244C125.985 58.669 126.12 58.9678 126.597 59.3457C126.697 59.1617 126.58 58.8462 126.217 58.4244Z" fill="#98323C"/>
<path d="M124.698 55.1202C124.469 55.3651 124.605 55.6599 125.077 56.0333C125.176 55.8504 125.06 55.5364 124.698 55.1202Z" fill="#98323C"/>
<path d="M123.85 53.9599C123.622 54.2027 123.757 54.4987 124.227 54.8757C124.326 54.6934 124.211 54.379 123.85 53.9599Z" fill="#98323C"/>
<path d="M123.005 52.8016C122.777 53.045 122.914 53.3407 123.386 53.7166C123.484 53.5346 123.367 53.2203 123.005 52.8016Z" fill="#98323C"/>
<path d="M122.158 51.644C121.93 51.8872 122.067 52.1827 122.538 52.5585C122.636 52.3767 122.519 52.0626 122.158 51.644Z" fill="#98323C"/>
<path d="M120.46 49.3281C120.23 49.5733 120.366 49.8675 120.837 50.2411C120.936 50.058 120.821 49.7436 120.46 49.3281Z" fill="#98323C"/>
<path d="M119.438 48.2338C119.302 48.5148 119.506 48.7697 119.983 49.0966C120.045 48.8877 119.885 48.5674 119.438 48.2338Z" fill="#98323C"/>
<path d="M117.767 46.8406C117.674 47.0367 117.831 47.3441 118.223 47.78C118.311 47.5896 118.164 47.2707 117.767 46.8406Z" fill="#98323C"/>
<path d="M118.737 119.477C118.53 119.382 118.219 119.533 117.78 119.913C117.98 120.003 118.305 119.863 118.737 119.477Z" fill="#98323C"/>
<path d="M121.206 116.693C120.921 116.557 120.657 116.751 120.319 117.21C120.533 117.275 120.861 117.124 121.206 116.693Z" fill="#98323C"/>
<path d="M81.023 11.3107C80.7921 11.5475 80.8606 11.9533 81.1795 12.5749C81.394 12.3537 81.3583 11.9167 81.023 11.3107Z" fill="#5D4C41"/>
<path d="M64.926 28.7954C65.0928 28.5432 64.9922 28.1879 64.5997 27.7534C64.4248 28.0134 64.5416 28.3529 64.926 28.7954Z" fill="#98323C"/>
<path d="M75.3458 16.3832C75.4934 16.1672 75.3992 15.8092 75.0313 15.3437C74.8731 15.5712 74.9885 15.9061 75.3458 16.3832Z" fill="#5D4C41"/>
<path d="M74.5049 15.1533C74.6602 14.9116 74.5578 14.5741 74.1799 14.1602C74.0187 14.4084 74.1331 14.733 74.5049 15.1533Z" fill="#5D4C41"/>
<path d="M81.6746 13.1015C81.4792 13.3019 81.5324 13.8109 81.8459 14.6228C82.0451 14.4206 81.9841 13.9154 81.6746 13.1015Z" fill="#5D4C41"/>
<path d="M80.1369 10.0556C79.9584 10.3186 80.0405 10.6637 80.4131 11.0568C80.6016 10.7825 80.4995 10.4599 80.1369 10.0556Z" fill="#5D4C41"/>
<path d="M95.198 77.3676C102.153 81.119 107.372 80.6969 111.81 76.3025C115.008 73.1358 115.842 66.7858 113.574 62.8586C110.145 56.9192 102.077 54.7748 96.3845 58.2894C90.339 62.0218 89.0054 69.2027 93.2654 75.1815C93.7507 75.8624 94.3418 76.472 95.198 77.3676Z" fill="#E55A40"/>
<path d="M53.7386 35.052C53.7575 35.0702 53.3088 35.2769 53.3088 35.2769C53.3088 35.2769 53.6575 35.25 53.6736 35.1205C53.6898 34.991 53.7198 35.0337 53.7386 35.052Z" fill="#087938"/>
</g>
<defs>
<filter id="filter0_d_1202_5318" x="3.70508" y="8.86475" width="132.166" height="134.768" filterUnits="userSpaceOnUse" color-interpolation-filters="sRGB">
<feFlood flood-opacity="0" result="BackgroundImageFix"/>
<feColorMatrix in="SourceAlpha" type="matrix" values="0 0 0 0 0 0 0 0 0 0 0 0 0 0 0 0 0 0 127 0" result="hardAlpha"/>
<feOffset dy="4"/>
<feGaussianBlur stdDeviation="2"/>
<feComposite in2="hardAlpha" operator="out"/>
<feColorMatrix type="matrix" values="0 0 0 0 0 0 0 0 0 0 0 0 0 0 0 0 0 0 0.25 0"/>
<feBlend mode="normal" in2="BackgroundImageFix" result="effect1_dropShadow_1202_5318"/>
<feBlend mode="normal" in="SourceGraphic" in2="effect1_dropShadow_1202_5318" result="shape"/>
</filter>
</defs>
</svg>
