<svg width="83" height="83" viewBox="0 0 83 83" fill="none" xmlns="http://www.w3.org/2000/svg">
<path d="M46.2885 62.25C46.2885 63.1971 46.0076 64.1229 45.4815 64.9103C44.9553 65.6978 44.2074 66.3115 43.3325 66.6739C42.4575 67.0364 41.4947 67.1312 40.5658 66.9464C39.637 66.7617 38.7837 66.3056 38.1141 65.6359C37.4444 64.9663 36.9883 64.113 36.8036 63.1842C36.6188 62.2553 36.7136 61.2925 37.076 60.4175C37.4385 59.5425 38.0522 58.7947 38.8397 58.2685C39.6271 57.7424 40.5529 57.4615 41.5 57.4615C42.77 57.4615 43.9879 57.966 44.886 58.864C45.784 59.762 46.2885 60.98 46.2885 62.25ZM41.5 19.1538C32.6972 19.1538 25.5385 25.5983 25.5385 33.5192V35.1154C25.5385 35.962 25.8748 36.774 26.4735 37.3727C27.0722 37.9714 27.8841 38.3077 28.7308 38.3077C29.5774 38.3077 30.3894 37.9714 30.9881 37.3727C31.5868 36.774 31.9231 35.962 31.9231 35.1154V33.5192C31.9231 29.1298 36.2207 25.5385 41.5 25.5385C46.7793 25.5385 51.0769 29.1298 51.0769 33.5192C51.0769 37.9086 46.7793 41.5 41.5 41.5C40.6534 41.5 39.8414 41.8363 39.2427 42.435C38.644 43.0337 38.3077 43.8456 38.3077 44.6923V47.8846C38.3077 48.7313 38.644 49.5432 39.2427 50.1419C39.8414 50.7406 40.6534 51.0769 41.5 51.0769C42.3467 51.0769 43.1586 50.7406 43.7573 50.1419C44.356 49.5432 44.6923 48.7313 44.6923 47.8846V47.5973C51.9708 46.2605 57.4615 40.4545 57.4615 33.5192C57.4615 25.5983 50.3028 19.1538 41.5 19.1538ZM83 41.5C83 49.7079 80.5661 57.7315 76.006 64.5561C71.4459 71.3808 64.9645 76.6999 57.3814 79.841C49.7982 82.982 41.454 83.8039 33.4038 82.2026C25.3536 80.6013 17.959 76.6488 12.1551 70.8449C6.35121 65.041 2.39872 57.6464 0.797429 49.5962C-0.803857 41.546 0.0179813 33.2018 3.15902 25.6186C6.30005 18.0355 11.6192 11.5541 18.4438 6.99401C25.2685 2.43393 33.2921 0 41.5 0C52.5029 0.0116193 63.0519 4.38766 70.8321 12.1679C78.6123 19.9481 82.9884 30.4971 83 41.5ZM76.6154 41.5C76.6154 34.5548 74.5559 27.7656 70.6974 21.9909C66.8389 16.2162 61.3546 11.7154 54.9381 9.05761C48.5216 6.39981 41.4611 5.70441 34.6493 7.05935C27.8376 8.41428 21.5807 11.7587 16.6697 16.6697C11.7587 21.5806 8.4143 27.8376 7.05936 34.6493C5.70443 41.461 6.39983 48.5216 9.05763 54.9381C11.7154 61.3546 16.2163 66.8388 21.991 70.6974C27.7656 74.5559 34.5548 76.6154 41.5 76.6154C50.8099 76.6048 59.7355 72.9018 66.3187 66.3186C72.9018 59.7355 76.6048 50.8099 76.6154 41.5Z" fill="#FFF7EA"/>
</svg>
