<svg width="83" height="83" viewBox="0 0 83 83" fill="none" xmlns="http://www.w3.org/2000/svg">
<path d="M73.4156 67.9705C77.6757 62.8491 80.6386 56.7778 82.0538 50.2702C83.4689 43.7627 83.2946 37.0103 81.5455 30.5842C79.7965 24.1582 76.5242 18.2476 72.0055 13.3525C67.4868 8.45734 61.8545 4.72164 55.5853 2.4614C49.316 0.201169 42.5942 -0.517106 35.9883 0.367343C29.3825 1.25179 23.087 3.71294 17.6344 7.5426C12.1819 11.3723 7.73267 16.4577 4.66317 22.3689C1.59366 28.28 -0.00582184 34.8429 1.59226e-05 41.5023C0.00225607 51.1832 3.41656 60.554 9.6438 67.9705L9.58447 68.0209C9.79212 68.2699 10.0294 68.4833 10.243 68.7293C10.51 69.0346 10.7977 69.3221 11.0736 69.6185C11.9042 70.5196 12.7585 71.385 13.6544 72.1972C13.9273 72.4461 14.2091 72.6773 14.485 72.9144C15.4342 73.7325 16.4102 74.5091 17.4217 75.2323C17.5522 75.3212 17.6709 75.4368 17.8014 75.5287V75.4931C24.749 80.3782 33.0372 83 41.5326 83C50.0281 83 58.3163 80.3782 65.2639 75.4931V75.5287C65.3944 75.4368 65.5101 75.3212 65.6436 75.2323C66.6522 74.5061 67.6311 73.7325 68.5803 72.9144C68.8562 72.6773 69.138 72.4432 69.4109 72.1972C70.3068 71.3821 71.1611 70.5196 71.9917 69.6185C72.2676 69.3221 72.5523 69.0346 72.8223 68.7293C73.0329 68.4833 73.2732 68.2699 73.4808 68.018L73.4156 67.9705ZM41.5297 17.7905C44.1698 17.7905 46.7507 18.5728 48.9459 20.0383C51.1411 21.5039 52.852 23.587 53.8624 26.0242C54.8727 28.4614 55.1371 31.1432 54.622 33.7305C54.1069 36.3178 52.8356 38.6943 50.9687 40.5597C49.1019 42.425 46.7233 43.6953 44.1339 44.21C41.5445 44.7246 38.8605 44.4605 36.4213 43.451C33.9821 42.4414 31.8973 40.7319 30.4305 38.5385C28.9638 36.3451 28.1809 33.7664 28.1809 31.1284C28.1809 27.591 29.5872 24.1984 32.0906 21.6971C34.594 19.1957 37.9894 17.7905 41.5297 17.7905ZM17.8192 67.9705C17.8707 64.0787 19.4535 60.3637 22.2254 57.6291C24.9972 54.8944 28.7351 53.3602 32.6305 53.3582H50.4289C54.3242 53.3602 58.0621 54.8944 60.834 57.6291C63.6058 60.3637 65.1887 64.0787 65.2401 67.9705C58.7344 73.8283 50.2873 77.0702 41.5297 77.0702C32.7721 77.0702 24.325 73.8283 17.8192 67.9705Z" fill="#FFF7EA"/>
</svg>
