<svg width="106" height="83" viewBox="0 0 106 83" fill="none" xmlns="http://www.w3.org/2000/svg">
<path d="M0 16.9773C0 12.4746 1.78867 8.15638 4.97253 4.97253C8.15638 1.78867 12.4746 0 16.9773 0H88.6591C93.1617 0 97.48 1.78867 100.664 4.97253C103.848 8.15638 105.636 12.4746 105.636 16.9773V66.0227C105.636 70.5254 103.848 74.8436 100.664 78.0275C97.48 81.2113 93.1617 83 88.6591 83H16.9773C12.4746 83 8.15638 81.2113 4.97253 78.0275C1.78867 74.8436 0 70.5254 0 66.0227V16.9773ZM16.9773 7.54545C14.4758 7.54545 12.0768 8.53916 10.308 10.308C8.53916 12.0768 7.54545 14.4758 7.54545 16.9773V22.6364H98.0909V16.9773C98.0909 14.4758 97.0972 12.0768 95.3284 10.308C93.5596 8.53916 91.1606 7.54545 88.6591 7.54545H16.9773ZM7.54545 66.0227C7.54545 68.5242 8.53916 70.9232 10.308 72.692C12.0768 74.4608 14.4758 75.4545 16.9773 75.4545H88.6591C91.1606 75.4545 93.5596 74.4608 95.3284 72.692C97.0972 70.9232 98.0909 68.5242 98.0909 66.0227V30.1818H7.54545V66.0227ZM71.6818 52.8182H83C84.0006 52.8182 84.9602 53.2157 85.6677 53.9232C86.3752 54.6307 86.7727 55.5903 86.7727 56.5909C86.7727 57.5915 86.3752 58.5511 85.6677 59.2586C84.9602 59.9662 84.0006 60.3636 83 60.3636H71.6818C70.6812 60.3636 69.7216 59.9662 69.0141 59.2586C68.3066 58.5511 67.9091 57.5915 67.9091 56.5909C67.9091 55.5903 68.3066 54.6307 69.0141 53.9232C69.7216 53.2157 70.6812 52.8182 71.6818 52.8182Z" fill="#FFF7EA"/>
</svg>
