<svg width="107" height="83" viewBox="0 0 107 83" fill="none" xmlns="http://www.w3.org/2000/svg">
<path d="M7.62414 37.7236H53.369V45.2684H7.62414V37.7236ZM0 18.8618H38.1207V26.4065H0V18.8618Z" fill="#FFF7EA"/>
<path d="M106.429 40.0097L94.993 13.6031C94.6995 12.9244 94.2111 12.3459 93.5882 11.9395C92.9654 11.5331 92.2357 11.3167 91.4897 11.3171H80.0535V3.77236C80.0535 2.77187 79.6519 1.81236 78.937 1.1049C78.2221 0.397445 77.2524 0 76.2414 0H15.2483V7.54473H72.4294V54.9105C70.6923 55.9087 69.1721 57.2372 67.9565 58.8196C66.7409 60.402 65.8538 62.2069 65.3465 64.1302H41.3915C40.4636 60.5741 38.2571 57.475 35.1854 55.4137C32.1137 53.3525 28.3878 52.4706 24.706 52.9333C21.0243 53.3961 17.6395 55.1718 15.1861 57.9275C12.7327 60.6833 11.3791 64.2299 11.3791 67.9025C11.3791 71.5752 12.7327 75.1218 15.1861 77.8775C17.6395 80.6333 21.0243 82.4089 24.706 82.8717C28.3878 83.3345 32.1137 82.4526 35.1854 80.3913C38.2571 78.3301 40.4636 75.2309 41.3915 71.6749H65.3465C66.1758 74.9125 68.0723 77.784 70.7359 79.8352C73.3996 81.8863 76.6784 83 80.0535 83C83.4286 83 86.7074 81.8863 89.371 79.8352C92.0347 77.784 93.9312 74.9125 94.7605 71.6749H102.926C103.937 71.6749 104.907 71.2775 105.621 70.57C106.336 69.8625 106.738 68.903 106.738 67.9025V41.496C106.738 40.9849 106.633 40.4792 106.429 40.0097ZM26.6845 75.4473C25.1766 75.4473 23.7025 75.0048 22.4487 74.1757C21.195 73.3467 20.2178 72.1684 19.6407 70.7898C19.0636 69.4112 18.9127 67.8942 19.2068 66.4306C19.501 64.9671 20.2272 63.6228 21.2934 62.5676C22.3597 61.5125 23.7182 60.7939 25.1971 60.5028C26.676 60.2117 28.209 60.3611 29.6021 60.9321C30.9953 61.5032 32.186 62.4702 33.0237 63.7109C33.8615 64.9516 34.3086 66.4103 34.3086 67.9025C34.3066 69.9029 33.5027 71.8208 32.0733 73.2353C30.644 74.6497 28.7059 75.4453 26.6845 75.4473ZM80.0535 18.8618H88.9737L97.1468 37.7236H80.0535V18.8618ZM80.0535 75.4473C78.5456 75.4473 77.0715 75.0048 75.8177 74.1757C74.564 73.3467 73.5868 72.1684 73.0097 70.7898C72.4327 69.4112 72.2817 67.8942 72.5758 66.4306C72.87 64.9671 73.5961 63.6228 74.6624 62.5676C75.7287 61.5125 77.0872 60.7939 78.5661 60.5028C80.045 60.2117 81.578 60.3611 82.9711 60.9321C84.3643 61.5032 85.555 62.4702 86.3927 63.7109C87.2305 64.9516 87.6776 66.4103 87.6776 67.9025C87.6756 69.9029 86.8717 71.8208 85.4423 73.2353C84.013 74.6497 82.0749 75.4453 80.0535 75.4473ZM99.1139 64.1302H94.7605C93.9207 60.8989 92.0212 58.0347 89.3597 55.9866C86.6981 53.9385 83.425 52.8224 80.0535 52.8131V45.2684H99.1139V64.1302Z" fill="#FFF7EA"/>
</svg>
