<svg width="89" height="83" viewBox="0 0 89 83" fill="none" xmlns="http://www.w3.org/2000/svg">
<path d="M88.4153 24.9649C88.4153 21.9132 85.9412 19.439 82.8895 19.439H73.4567C75.8978 17.031 77.4602 13.8744 77.4602 9.9868C77.4602 5.19993 74.7111 0 66.994 0C56.8401 0 48.3577 10.8116 44.3721 16.8722C40.3838 10.8129 31.6417 0.00138139 21.4891 0.00138139C13.7721 0.00138139 11.0229 5.20131 11.0229 9.98818C11.0229 13.8743 12.6282 17.0324 15.119 19.4403H5.52597C2.47425 19.4403 0 21.9146 0 24.9663V41.5069H5.57432V77.474C5.57432 80.5257 8.04848 83 11.1003 83H77.3842C80.4359 83 82.9102 80.5257 82.9102 77.474V41.5055H88.4154V24.9649H88.4153ZM66.994 5.52735C70.4105 5.52735 71.9343 6.9628 71.9343 9.98827C71.9343 16.1262 65.0834 19.4376 58.6402 19.4376H49.2861C53.2122 13.6063 60.1225 5.52735 66.994 5.52735ZM21.489 5.52743C28.3619 5.52743 35.5332 13.6064 39.4594 19.4363H30.1025C23.6592 19.4363 16.5487 16.0392 16.5487 9.90123C16.5487 6.87715 18.0725 5.52743 21.489 5.52743ZM82.8894 35.9796H46.9706V24.9649H82.8894V35.9796ZM5.52588 24.9649H41.4447V35.9796H5.52588V24.9649ZM11.1002 41.5055H41.4447V77.4727H11.1002V41.5055ZM77.3855 77.4727H46.9706V41.5055H77.3855V77.4727Z" fill="#FFF7EA"/>
</svg>
