<svg width="98" height="83" viewBox="0 0 98 83" fill="none" xmlns="http://www.w3.org/2000/svg">
<path d="M74.4782 29.9186V45.3605C74.4782 46.1284 74.1764 46.8648 73.6392 47.4078C73.102 47.9508 72.3734 48.2558 71.6137 48.2558H32.694L39.2634 54.8958C39.5448 55.1609 39.7706 55.4805 39.9271 55.8357C40.0837 56.1908 40.1679 56.5742 40.1747 56.963C40.1815 57.3518 40.1107 57.7379 39.9666 58.0984C39.8226 58.459 39.6081 58.7865 39.3361 59.0614C39.0641 59.3363 38.7401 59.5531 38.3834 59.6987C38.0267 59.8443 37.6447 59.9158 37.26 59.909C36.8754 59.9021 36.4961 59.817 36.1447 59.6588C35.7933 59.5005 35.4771 59.2724 35.2148 58.9879L23.7566 47.4065C23.2202 46.8636 22.9189 46.1277 22.9189 45.3605C22.9189 44.5932 23.2202 43.8573 23.7566 43.3144L35.2148 31.733C35.7579 31.2216 36.4761 30.9432 37.2182 30.9564C37.9603 30.9696 38.6684 31.2735 39.1932 31.804C39.718 32.3345 40.0187 33.0501 40.0318 33.8002C40.0449 34.5503 39.7694 35.2763 39.2634 35.8251L32.694 42.4651H68.7491V29.9186C68.7491 29.1507 69.0509 28.4143 69.5881 27.8713C70.1253 27.3283 70.854 27.0233 71.6137 27.0233C72.3734 27.0233 73.102 27.3283 73.6392 27.8713C74.1764 28.4143 74.4782 29.1507 74.4782 29.9186ZM97.3946 6.75581V76.2442C97.3946 78.0359 96.6904 79.7543 95.4369 81.0213C94.1834 82.2882 92.4833 83 90.7107 83H6.68394C4.91125 83 3.21116 82.2882 1.95768 81.0213C0.7042 79.7543 0 78.0359 0 76.2442V6.75581C0 4.96406 0.7042 3.24569 1.95768 1.97873C3.21116 0.711772 4.91125 0 6.68394 0H90.7107C92.4833 0 94.1834 0.711772 95.4369 1.97873C96.6904 3.24569 97.3946 4.96406 97.3946 6.75581ZM91.6655 6.75581C91.6655 6.49985 91.5649 6.25437 91.3858 6.07337C91.2068 5.89238 90.9639 5.7907 90.7107 5.7907H6.68394C6.4307 5.7907 6.18783 5.89238 6.00876 6.07337C5.82969 6.25437 5.72909 6.49985 5.72909 6.75581V76.2442C5.72909 76.5001 5.82969 76.7456 6.00876 76.9266C6.18783 77.1076 6.4307 77.2093 6.68394 77.2093H90.7107C90.9639 77.2093 91.2068 77.1076 91.3858 76.9266C91.5649 76.7456 91.6655 76.5001 91.6655 76.2442V6.75581Z" fill="#FFF7EA"/>
</svg>
