<svg width="38" height="35" viewBox="0 0 38 35" fill="none" xmlns="http://www.w3.org/2000/svg">
<path d="M0 29.1667C0 30.4573 1.06133 31.5 2.375 31.5H6.43477C7.34766 33.5635 9.44062 35 11.875 35C14.3094 35 16.4023 33.5635 17.3152 31.5H35.625C36.9387 31.5 38 30.4573 38 29.1667C38 27.876 36.9387 26.8333 35.625 26.8333H17.3152C16.4023 24.7698 14.3094 23.3333 11.875 23.3333C9.44062 23.3333 7.34766 24.7698 6.43477 26.8333H2.375C1.06133 26.8333 0 27.876 0 29.1667ZM9.5 29.1667C9.5 28.5478 9.75022 27.9543 10.1956 27.5168C10.641 27.0792 11.2451 26.8333 11.875 26.8333C12.5049 26.8333 13.109 27.0792 13.5544 27.5168C13.9998 27.9543 14.25 28.5478 14.25 29.1667C14.25 29.7855 13.9998 30.379 13.5544 30.8166C13.109 31.2542 12.5049 31.5 11.875 31.5C11.2451 31.5 10.641 31.2542 10.1956 30.8166C9.75022 30.379 9.5 29.7855 9.5 29.1667ZM23.75 17.5C23.75 16.8812 24.0002 16.2877 24.4456 15.8501C24.891 15.4125 25.4951 15.1667 26.125 15.1667C26.7549 15.1667 27.359 15.4125 27.8044 15.8501C28.2498 16.2877 28.5 16.8812 28.5 17.5C28.5 18.1188 28.2498 18.7123 27.8044 19.1499C27.359 19.5875 26.7549 19.8333 26.125 19.8333C25.4951 19.8333 24.891 19.5875 24.4456 19.1499C24.0002 18.7123 23.75 18.1188 23.75 17.5ZM26.125 11.6667C23.6906 11.6667 21.5977 13.1031 20.6848 15.1667H2.375C1.06133 15.1667 0 16.2094 0 17.5C0 18.7906 1.06133 19.8333 2.375 19.8333H20.6848C21.5977 21.8969 23.6906 23.3333 26.125 23.3333C28.5594 23.3333 30.6523 21.8969 31.5652 19.8333H35.625C36.9387 19.8333 38 18.7906 38 17.5C38 16.2094 36.9387 15.1667 35.625 15.1667H31.5652C30.6523 13.1031 28.5594 11.6667 26.125 11.6667ZM14.25 8.16667C13.6201 8.16667 13.016 7.92083 12.5706 7.48325C12.1252 7.04566 11.875 6.45217 11.875 5.83333C11.875 5.21449 12.1252 4.621 12.5706 4.18342C13.016 3.74583 13.6201 3.5 14.25 3.5C14.8799 3.5 15.484 3.74583 15.9294 4.18342C16.3748 4.621 16.625 5.21449 16.625 5.83333C16.625 6.45217 16.3748 7.04566 15.9294 7.48325C15.484 7.92083 14.8799 8.16667 14.25 8.16667ZM19.6902 3.5C18.7773 1.43646 16.6844 0 14.25 0C11.8156 0 9.72266 1.43646 8.80977 3.5H2.375C1.06133 3.5 0 4.54271 0 5.83333C0 7.12396 1.06133 8.16667 2.375 8.16667H8.80977C9.72266 10.2302 11.8156 11.6667 14.25 11.6667C16.6844 11.6667 18.7773 10.2302 19.6902 8.16667H35.625C36.9387 8.16667 38 7.12396 38 5.83333C38 4.54271 36.9387 3.5 35.625 3.5H19.6902Z" fill="#1F8D61"/>
</svg>
