<svg width="46" height="9" viewBox="0 0 46 9" fill="none" xmlns="http://www.w3.org/2000/svg">
<path d="M40.3787 0.602817L40.8632 0.145294C41.0684 -0.0484314 41.4001 -0.0484314 41.6031 0.145294L45.8458 4.14964C46.051 4.34337 46.051 4.65663 45.8458 4.84829L41.6031 8.85471C41.3979 9.04843 41.0662 9.04843 40.8632 8.85471L40.3787 8.39718C40.1714 8.2014 40.1757 7.88196 40.3874 7.69029L43.0173 5.32436L1.5 5.34291C1.20973 5.34291 0.976201 5.12239 0.976201 4.84829V4.1888C0.976201 3.9147 1.20973 3.69418 1.5 3.69418L43.0173 3.67564L40.3874 1.30971C40.1735 1.11804 40.1692 0.798603 40.3787 0.602817Z" fill="#1F8D61"/>
</svg>
