<svg width="46" height="9" viewBox="0 0 46 9" fill="none" xmlns="http://www.w3.org/2000/svg">
<path d="M39.4026 0.602817L39.8871 0.145294C40.0923 -0.0484314 40.424 -0.0484314 40.627 0.145294L44.8698 4.14964C45.0749 4.34337 45.0749 4.65663 44.8698 4.84829L40.627 8.85471C40.4218 9.04843 40.0901 9.04843 39.8871 8.85471L39.4026 8.39718C39.1953 8.2014 39.1996 7.88196 39.4113 7.69029L42.0413 5.32436L0.523926 5.34291C0.233654 5.34291 0.00012666 5.12239 0.00012666 4.84829V4.1888C0.00012666 3.9147 0.233654 3.69418 0.523926 3.69418L42.0413 3.67564L39.4113 1.30971C39.1975 1.11804 39.1931 0.798603 39.4026 0.602817Z" fill="white"/>
</svg>
