<svg width="1920" height="510" viewBox="0 0 1920 510" fill="none" xmlns="http://www.w3.org/2000/svg">
<path fill-rule="evenodd" clip-rule="evenodd" d="M-14 199.956C-67.8407 198.37 -111 154.225 -111 100C-111 44.7715 -66.2285 0 -11 0C25.2281 0 56.9566 19.2649 74.5 48.1091C92.0434 19.2649 123.772 0 160 0C196.228 0 227.957 19.2649 245.5 48.1091C263.043 19.2649 294.772 0 331 0C367.228 0 398.957 19.2649 416.5 48.1091C434.043 19.2649 465.772 0 502 0C538.228 0 569.957 19.2649 587.5 48.1091C605.043 19.2649 636.772 0 673 0C709.228 0 740.957 19.2649 758.5 48.1091C776.043 19.2649 807.772 0 844 0C880.228 0 911.957 19.2649 929.5 48.1091C947.043 19.2649 978.772 0 1015 0C1051.23 0 1082.96 19.2649 1100.5 48.1091C1118.04 19.2649 1149.77 0 1186 0C1222.23 0 1253.96 19.2649 1271.5 48.1091C1289.04 19.2649 1320.77 0 1357 0C1393.23 0 1424.96 19.2649 1442.5 48.1091C1460.04 19.2649 1491.77 0 1528 0C1564.23 0 1595.96 19.2649 1613.5 48.1091C1631.04 19.2649 1662.77 0 1699 0C1735.23 0 1766.96 19.2649 1784.5 48.1091C1802.04 19.2649 1833.77 0 1870 0C1925.23 0 1970 44.7715 1970 100C1970 137.014 1949.89 169.331 1920 186.622V510H-14V199.956Z" fill="#CAE0C4"/>
</svg>
