<svg width="489" height="716" viewBox="0 0 489 716" fill="none" xmlns="http://www.w3.org/2000/svg">
<path fill-rule="evenodd" clip-rule="evenodd" d="M444.201 99.2281C501.286 130.482 576.371 135.334 614.909 186.845C653.768 238.784 658.384 309.12 646.316 369.381C635.089 425.448 576.067 456.072 550.812 506.929C523.156 562.623 540.241 641.41 491.597 680.948C442.944 720.493 367.549 720.068 302.259 708.951C240.514 698.437 187.035 660.449 137.954 620.73C94.0639 585.211 58.9126 541.618 34.3164 492.115C11.0938 445.377 0.246248 395.089 0.750084 344.59C1.24308 295.177 22.1074 251.644 37.178 205.303C55.8901 147.764 52.8406 76.7562 100.25 38.6327C148.206 0.0700899 220.83 -5.1376 284.851 6.14133C345.902 16.897 389.311 69.1767 444.201 99.2281Z" fill="#FFF6B4"/>
</svg>
