<svg width="40" height="32" viewBox="0 0 40 32" fill="none" xmlns="http://www.w3.org/2000/svg">
<path d="M2.88202 0.623379C3.07406 0.193222 3.49656 -0.0535893 3.92546 0.00987647L19.5963 2.16771L35.2671 0.00987647C35.696 -0.0465376 36.1185 0.200274 36.3105 0.623379L38.9799 6.50454C39.5561 7.76681 38.9415 9.29704 37.7125 9.68488L27.2524 12.978C26.3626 13.2601 25.4088 12.8441 24.9351 11.9696L19.5963 2.16771L14.2574 11.9696C13.7837 12.8441 12.8299 13.2601 11.9401 12.978L1.4865 9.68488C0.251012 9.29704 -0.357128 7.76681 0.219005 6.50454L2.88202 0.623379ZM19.6667 6.68083L23.1811 13.1261C24.1349 14.875 26.0362 15.7071 27.8222 15.1429L35.9841 12.5761V24.3525C35.9841 25.9039 35.0238 27.2579 33.6539 27.6386L20.5885 31.235C19.9356 31.4184 19.2506 31.4184 18.604 31.235L5.53863 27.6386C4.16872 27.2508 3.20849 25.8969 3.20849 24.3455V12.569L11.3768 15.1429C13.1564 15.7071 15.064 14.875 16.0178 13.1261L19.5259 6.68083H19.6667Z" fill="#1F8D61"/>
</svg>
