<svg width="25" height="23" viewBox="0 0 25 23" fill="none" xmlns="http://www.w3.org/2000/svg">
<path d="M25 5.96874V19.792C25 21.064 23.9502 22.0959 22.6562 22.0959H2.34375C1.0498 22.0959 0 21.064 0 19.792V5.96874C0 4.69681 1.0498 3.66486 2.34375 3.66486H6.64062L7.24121 2.08574C7.58301 1.18819 8.45703 0.593018 9.43359 0.593018H15.5615C16.5381 0.593018 17.4121 1.18819 17.7539 2.08574L18.3594 3.66486H22.6562C23.9502 3.66486 25 4.69681 25 5.96874ZM18.3594 12.8804C18.3594 9.70295 15.7324 7.12068 12.5 7.12068C9.26758 7.12068 6.64062 9.70295 6.64062 12.8804C6.64062 16.0578 9.26758 18.6401 12.5 18.6401C15.7324 18.6401 18.3594 16.0578 18.3594 12.8804ZM16.7969 12.8804C16.7969 15.2083 14.8682 17.1042 12.5 17.1042C10.1318 17.1042 8.20312 15.2083 8.20312 12.8804C8.20312 10.5525 10.1318 8.6566 12.5 8.6566C14.8682 8.6566 16.7969 10.5525 16.7969 12.8804Z" fill="#FDFAF5"/>
</svg>
