<svg width="25" height="25" viewBox="0 0 25 25" fill="none" xmlns="http://www.w3.org/2000/svg">
<path d="M24.2188 12.1094C24.2188 18.7972 18.7972 24.2188 12.1094 24.2188C5.42153 24.2188 0 18.7972 0 12.1094C0 5.42153 5.42153 0 12.1094 0C18.7972 0 24.2188 5.42153 24.2188 12.1094ZM10.7087 18.5212L19.6931 9.53682C19.9981 9.23174 19.9981 8.73706 19.6931 8.43198L18.5882 7.32715C18.2832 7.02202 17.7885 7.02202 17.4833 7.32715L10.1783 14.6322C10.1642 14.6463 10.1562 14.6654 10.1562 14.6854C10.1562 14.7524 10.0761 14.7892 10.0275 14.7431C9.2774 14.0329 5.91248 10.9514 5.63052 11.2333L4.52568 12.3382C4.22061 12.6433 4.22061 13.1379 4.52568 13.443L9.60381 18.5211C9.90894 18.8263 10.4036 18.8263 10.7087 18.5212Z" fill="#1F8D61"/>
</svg>
