<svg width="40" height="39" viewBox="0 0 40 39" fill="none" xmlns="http://www.w3.org/2000/svg">
<path d="M17.6471 10.7913C17.6471 8.88329 16.9034 7.05342 15.5796 5.70424C14.2558 4.35506 12.4604 3.5971 10.5882 3.5971C8.71612 3.5971 6.92068 4.35506 5.59689 5.70424C4.27311 7.05342 3.52941 8.88329 3.52941 10.7913C3.52941 12.6993 4.27311 14.5292 5.59689 15.8784C6.92068 17.2276 8.71612 17.9855 10.5882 17.9855C12.4604 17.9855 14.2558 17.2276 15.5796 15.8784C16.9034 14.5292 17.6471 12.6993 17.6471 10.7913ZM20.9118 13.1894C19.8456 17.993 15.625 21.5826 10.5882 21.5826C4.74265 21.5826 0 16.749 0 10.7913C0 4.83361 4.74265 0 10.5882 0C15.625 0 19.8456 3.58961 20.9118 8.39324H26.1912C26.8382 7.65883 27.7794 7.19421 28.8235 7.19421H36.4706C38.4191 7.19421 40 8.80541 40 10.7913C40 12.7772 38.4191 14.3884 36.4706 14.3884H28.8235C27.7794 14.3884 26.8382 13.9238 26.1912 13.1894H20.9118ZM10.5882 5.99517C11.8363 5.99517 13.0333 6.50048 13.9158 7.39993C14.7983 8.29938 15.2941 9.5193 15.2941 10.7913C15.2941 12.0633 14.7983 13.2832 13.9158 14.1827C13.0333 15.0821 11.8363 15.5875 10.5882 15.5875C9.34016 15.5875 8.1432 15.0821 7.26067 14.1827C6.37815 13.2832 5.88235 12.0633 5.88235 10.7913C5.88235 9.5193 6.37815 8.29938 7.26067 7.39993C8.1432 6.50048 9.34016 5.99517 10.5882 5.99517ZM29.4118 17.9855C30.3897 17.9855 31.1765 18.7874 31.1765 19.7841V20.3836H38.2353C39.2132 20.3836 40 21.1854 40 22.1821C40 23.1788 39.2132 23.9807 38.2353 23.9807H20.5882C19.6103 23.9807 18.8235 23.1788 18.8235 22.1821C18.8235 21.1854 19.6103 20.3836 20.5882 20.3836H27.6471V19.7841C27.6471 18.7874 28.4338 17.9855 29.4118 17.9855ZM21.1765 34.772V26.3788H37.6471V34.772C37.6471 36.7579 36.0662 38.3691 34.1176 38.3691H24.7059C22.7574 38.3691 21.1765 36.7579 21.1765 34.772ZM3.52941 23.9807H9.41176H10.5882H12.9412C14.8897 23.9807 16.4706 25.5919 16.4706 27.5778C16.4706 29.5637 14.8897 31.1749 12.9412 31.1749H11.7647C11.7647 32.5013 10.7132 33.573 9.41176 33.573H4.70588C3.40441 33.573 2.35294 32.5013 2.35294 31.1749V25.1797C2.35294 24.5203 2.88235 23.9807 3.52941 23.9807ZM12.9412 28.7768C13.5882 28.7768 14.1176 28.2373 14.1176 27.5778C14.1176 26.9183 13.5882 26.3788 12.9412 26.3788H11.7647V28.7768H12.9412ZM1.76471 34.772H14.7059C15.6838 34.772 16.4706 35.5739 16.4706 36.5706C16.4706 37.5673 15.6838 38.3691 14.7059 38.3691H1.76471C0.786765 38.3691 0 37.5673 0 36.5706C0 35.5739 0.786765 34.772 1.76471 34.772Z" fill="#1F8D61"/>
</svg>
