<svg width="21" height="28" viewBox="0 0 21 28" fill="none" xmlns="http://www.w3.org/2000/svg">
<path d="M15.317 27.7773C22.8957 20.0261 22.8929 7.97078 15.317 0.22265C15.0322 -0.068725 14.5498 -0.0744126 14.2543 0.207338L12.6832 1.70534C12.4011 1.97396 12.3951 2.40621 12.6657 2.68534C18.8481 9.06934 18.8495 18.9297 12.6656 25.315C12.3951 25.5942 12.4016 26.0264 12.6832 26.295L14.2543 27.793C14.5498 28.0744 15.0322 28.0687 15.317 27.7773ZM10.0665 22.8668C14.7806 17.8242 14.7755 10.1701 10.0665 5.13315C9.7844 4.83128 9.29464 4.82165 8.99587 5.10821L7.4239 6.61497C7.15012 6.87747 7.13162 7.30009 7.38691 7.57965C10.7431 11.2525 10.7357 16.7558 7.3869 20.4198C7.13162 20.6994 7.14965 21.122 7.4239 21.3845L8.99587 22.8913C9.29463 23.1783 9.78486 23.1682 10.0665 22.8668Z" fill="#9F9D9D"/>
<path d="M2.86022 22.8821C7.57428 17.8395 7.56919 10.1854 2.86022 5.14846C2.57811 4.84659 2.08834 4.83696 1.78958 5.12353L0.217613 6.63028C-0.0561755 6.89278 -0.0746749 7.3154 0.180614 7.59497C3.53683 11.2678 3.52943 16.7711 0.180614 20.4352C-0.0746755 20.7147 -0.0566377 21.1373 0.217612 21.3998L1.78958 22.9066C2.08834 23.1936 2.57857 23.1835 2.86022 22.8821Z" fill="#9F9D9D"/>
</svg>
