<svg width="25" height="33" viewBox="0 0 25 33" fill="none" xmlns="http://www.w3.org/2000/svg">
<path d="M17.8028 32.7275C26.2157 23.869 26.2126 10.0915 17.8028 1.23645C17.4865 0.903452 16.951 0.896952 16.623 1.21895L14.879 2.93095C14.5658 3.23795 14.5591 3.73195 14.8595 4.05095C21.7225 11.347 21.7241 22.616 14.8595 29.9135C14.5591 30.2325 14.5663 30.7265 14.879 31.0335L16.623 32.7455C16.951 33.067 17.4865 33.0605 17.8028 32.7275ZM11.9742 27.1155C17.2072 21.3525 17.2016 12.605 11.9742 6.84845C11.661 6.50345 11.1174 6.49245 10.7857 6.81996L9.04068 8.54196C8.73675 8.84196 8.71622 9.32496 8.99961 9.64446C12.7253 13.842 12.7171 20.1315 8.99961 24.319C8.71622 24.6385 8.73624 25.1215 9.04068 25.4215L10.7857 27.1435C11.1174 27.4715 11.6616 27.46 11.9742 27.1155Z" fill="#575655"/>
<path d="M3.9746 27.133C9.20761 21.37 9.20196 12.6225 3.9746 6.86595C3.66143 6.52095 3.11775 6.50995 2.78609 6.83746L1.04107 8.55946C0.737144 8.85946 0.71661 9.34246 1 9.66196C4.72569 13.8595 4.71748 20.149 1 24.3365C0.716609 24.656 0.73663 25.139 1.04107 25.439L2.78609 27.161C3.11775 27.489 3.66194 27.4775 3.9746 27.133Z" fill="#575655"/>
</svg>
