<svg width="25" height="16" viewBox="0 0 25 16" fill="none" xmlns="http://www.w3.org/2000/svg">
<path d="M5.84322 15.3102L0.374323 10.2337C-0.124408 9.77061 -0.12514 8.98003 0.374323 8.51626L5.84322 3.43936C6.59029 2.74571 7.81251 3.27451 7.81251 4.2981V7.42188L21.0938 7.42188V3.32149C21.0937 3.24454 21.1089 3.16835 21.1384 3.09726C21.1678 3.02617 21.211 2.96158 21.2654 2.90718L23.9998 0.172806C24.3689 -0.196335 25 0.0650909 25 0.587112V10.1563C25 10.8035 24.4753 11.3281 23.8281 11.3281L7.81251 11.3281V14.4515C7.81251 15.4709 6.59332 16.0067 5.84322 15.3102Z" fill="#1F8D61"/>
</svg>
