<svg width="43" height="21" viewBox="0 0 43 21" fill="none" xmlns="http://www.w3.org/2000/svg">
<path fill-rule="evenodd" clip-rule="evenodd" d="M36.8275 6.39998L27.4582 8.80009C27.398 8.80002 27.3384 8.81657 27.2828 8.84879C27.2272 8.881 27.1767 8.92825 27.1341 8.98783C27.0915 9.04741 27.0578 9.11816 27.0348 9.19602C27.0118 9.27388 27 9.35732 27 9.44159V11.3586C27 11.4428 27.0118 11.5263 27.0348 11.6041C27.0578 11.682 27.0915 11.7528 27.1341 11.8123C27.1767 11.8719 27.2272 11.9192 27.2828 11.9514C27.3384 11.9836 27.398 12.0001 27.4582 12.0001L36.8275 9.59997C36.8877 9.60003 36.9473 9.58348 37.0029 9.55127C37.0585 9.51905 37.1091 9.4718 37.1516 9.41222C37.1942 9.35264 37.2279 9.2819 37.2509 9.20404C37.2739 9.12618 37.2858 9.04273 37.2857 8.95847V7.04148C37.2858 6.95721 37.2739 6.87377 37.2509 6.79591C37.2279 6.71805 37.1942 6.6473 37.1516 6.58772C37.1091 6.52814 37.0585 6.48089 37.0029 6.44868C36.9473 6.41646 36.8877 6.39991 36.8275 6.39998ZM27.5714 18.4001L39.0404 16C39.1919 16 39.3373 15.9157 39.4444 15.7657C39.5516 15.6157 39.6118 15.4122 39.6118 15.2V13.6C39.6118 13.3878 39.5516 13.1844 39.4444 13.0343C39.3373 12.8843 39.1919 12.8 39.0404 12.8L27.5714 15.2001C27.4199 15.2001 27.2745 15.2843 27.1674 15.4344C27.0602 15.5844 27 15.7879 27 16.0001V17.6001C27 17.8122 27.0602 18.0157 27.1674 18.1657C27.2745 18.3158 27.4199 18.4001 27.5714 18.4001ZM27.5714 5.6001L42.4286 3.19999C42.5801 3.19999 42.7255 3.1157 42.8326 2.96568C42.9398 2.81565 43 2.61216 43 2.39999V0.799997C43 0.587825 42.9398 0.384342 42.8326 0.234314C42.7255 0.0842855 42.5801 0 42.4286 0L27.5714 2.40011C27.4199 2.40011 27.2745 2.4844 27.1674 2.63442C27.0602 2.78445 27 2.98794 27 3.20011V4.8001C27 5.01227 27.0602 5.21576 27.1674 5.36579C27.2745 5.51581 27.4199 5.6001 27.5714 5.6001ZM25 7.82095C25 7.58169 24.7168 7.44009 24.5264 7.59146C23.4326 8.44107 21.9873 9.52505 17.0068 13.1432C16.8557 13.2534 16.6865 13.3843 16.502 13.527C15.476 14.3207 13.9775 15.4798 12.5 15.4674C11.0294 15.4757 9.55526 14.3383 8.51296 13.534C8.3267 13.3903 8.15424 13.2572 7.99805 13.1432C3.01758 9.52505 1.56738 8.44595 0.473633 7.59634C0.27832 7.44497 0 7.58169 0 7.82583V17.8063C0 19.1002 1.0498 20.1501 2.34375 20.1501H22.6562C23.9502 20.1501 25 19.1002 25 17.8063V7.82095ZM15.5977 12.2478C14.7196 12.9264 13.4388 13.9162 12.5 13.9001C11.5612 13.9162 10.2804 12.9264 9.40231 12.2478C9.22082 12.1076 9.05653 11.9806 8.91602 11.8786C2.9106 7.52046 2.04757 6.84506 0.763841 5.84044C0.662501 5.76113 0.558539 5.67977 0.449219 5.59439C0.166016 5.36978 0 5.03286 0 4.67154V3.7438C0 2.44986 1.0498 1.40005 2.34375 1.40005H22.6562C23.9502 1.40005 25 2.44986 25 3.7438V4.67154C25 5.03286 24.834 5.37466 24.5508 5.59439C24.467 5.6601 24.3864 5.72341 24.3077 5.78522C22.9825 6.82575 22.2002 7.44008 16.084 11.8786C15.9435 11.9806 15.7792 12.1076 15.5977 12.2478Z" fill="#FFF7EA"/>
</svg>
