<svg width="30" height="22" viewBox="0 0 30 22" fill="none" xmlns="http://www.w3.org/2000/svg">
<path d="M0 3.56226C0 1.9054 1.34315 0.562256 3 0.562256H27C28.6569 0.562256 30 1.9054 30 3.56226V18.5623C30 20.2191 28.6569 21.5623 27 21.5623H3C1.34315 21.5623 0 20.2191 0 18.5623V3.56226Z" fill="#96C0A0"/>
<path d="M0 7.56226H30V9.56226H0V7.56226Z" fill="#575655"/>
<path d="M21 0.562256V21.5623H19V0.562256L21 0.562256Z" fill="#575655"/>
<path d="M26.9321 7.03621L22.4263 7.16129L24.7875 3.32171C24.9206 3.10533 24.8531 2.83553 24.6367 2.71859L23.0701 1.87295C22.8538 1.75626 22.5706 1.83675 22.4375 2.05313L20.0763 5.89271L17.9319 2.17844C17.811 1.96911 17.532 1.90412 17.3087 2.03304L15.6911 2.96696C15.4678 3.09588 15.3846 3.37 15.5055 3.57933L17.65 7.29384L13.1443 7.41891C12.8903 7.42596 12.679 7.63101 12.6719 7.87662L12.6208 9.65595C12.6138 9.90157 12.8138 10.0952 13.0677 10.0881L17.5735 9.96307L15.2123 13.8026C15.0792 14.019 15.1469 14.2891 15.3631 14.4058L16.9298 15.2514C17.146 15.3681 17.4291 15.2874 17.5623 15.0712L19.9235 11.2316L22.068 14.9459C22.1888 15.1552 22.4678 15.2202 22.6911 15.0913L24.3087 14.1574C24.532 14.0285 24.6152 13.7544 24.4944 13.545L22.3498 9.83052L26.8556 9.70544C27.1095 9.6984 27.321 9.49358 27.3279 9.24773L27.3789 7.46817C27.3859 7.22255 27.186 7.02917 26.9321 7.03621Z" fill="#FED550"/>
</svg>
