<svg width="27" height="29" viewBox="0 0 27 29" fill="none" xmlns="http://www.w3.org/2000/svg">
<path d="M22.2218 11.6406C22.1986 11.8857 22.1063 12.1187 21.9568 12.3102C21.8072 12.5017 21.6071 12.643 21.3816 12.7163C21.1561 12.7896 20.9154 12.7915 20.69 12.7219C20.4646 12.6524 20.2646 12.5143 20.1152 12.3253C19.9659 12.1363 19.8739 11.9047 19.8509 11.66C19.8279 11.4153 19.875 11.1683 19.9862 10.9503C20.0973 10.7324 20.2676 10.5532 20.4754 10.4355C20.6832 10.3177 20.9193 10.2668 21.1537 10.289C21.4681 10.3187 21.7573 10.4779 21.9576 10.7313C22.1579 10.9848 22.2529 11.3119 22.2218 11.6406ZM22.0926 0.374153C19.9135 0.167808 17.9834 1.66796 17.7893 3.71805L17.7502 4.13117C17.7294 4.3503 17.7928 4.56834 17.9263 4.73732C18.0598 4.9063 18.2526 5.01239 18.4622 5.03223C18.6718 5.05208 18.881 4.98406 19.0439 4.84315C19.2068 4.70223 19.3099 4.49996 19.3307 4.28083L19.3698 3.86771C19.4774 2.73164 20.6293 1.90287 21.9361 2.02662C23.243 2.15037 24.2189 3.18062 24.1113 4.3167C24.0037 5.45277 22.8518 6.28154 21.5449 6.15779C21.3354 6.13794 21.1261 6.20596 20.9632 6.34687C20.8004 6.48779 20.6972 6.69006 20.6764 6.90919L20.5982 7.73543C20.5775 7.95456 20.6408 8.1726 20.7743 8.34158C20.9079 8.51056 21.1006 8.61664 21.3102 8.63649C21.5198 8.65634 21.7291 8.58832 21.8919 8.4474C22.0548 8.30649 22.158 8.10422 22.1787 7.88509L22.1858 7.81073C24.0203 7.63535 25.5218 6.26135 25.6918 4.46636C25.8859 2.41626 24.2717 0.580498 22.0926 0.374153Z" fill="#5A766B"/>
<path fill-rule="evenodd" clip-rule="evenodd" d="M15.0235 12.2723C15.0235 8.90465 12.333 6.17456 9.0141 6.17456C5.69522 6.17456 3.0047 8.90465 3.0047 12.2723C3.0047 15.64 5.69522 18.3701 9.0141 18.3701C12.333 18.3701 15.0235 15.64 15.0235 12.2723ZM12.4545 19.8946H13.5211C16.0104 19.8946 18.0282 21.9421 18.0282 24.4679V28.975H0V24.4679C0 21.9421 2.01784 19.8946 4.50705 19.8946H5.57372C7.79814 20.9325 10.322 20.8895 12.4545 19.8946Z" fill="#575655"/>
</svg>
