<svg width="27" height="29" viewBox="0 0 27 29" fill="none" xmlns="http://www.w3.org/2000/svg">
<path d="M22.2216 11.6406C22.1984 11.8857 22.1062 12.1187 21.9567 12.3102C21.8071 12.5017 21.6069 12.643 21.3815 12.7163C21.156 12.7896 20.9153 12.7915 20.6899 12.7219C20.4645 12.6524 20.2645 12.5143 20.1151 12.3253C19.9657 12.1363 19.8737 11.9047 19.8508 11.66C19.8278 11.4153 19.8749 11.1683 19.986 10.9503C20.0972 10.7324 20.2675 10.5532 20.4753 10.4355C20.6831 10.3177 20.9192 10.2668 21.1536 10.289C21.468 10.3187 21.7571 10.4779 21.9574 10.7313C22.1577 10.9848 22.2528 11.3119 22.2216 11.6406ZM22.0925 0.374153C19.9134 0.167808 17.9833 1.66796 17.7892 3.71805L17.75 4.13117C17.7293 4.3503 17.7927 4.56834 17.9262 4.73732C18.0597 4.9063 18.2525 5.01239 18.4621 5.03223C18.6716 5.05208 18.8809 4.98406 19.0438 4.84315C19.2066 4.70223 19.3098 4.49996 19.3305 4.28083L19.3697 3.86771C19.4772 2.73164 20.6291 1.90287 21.936 2.02662C23.2429 2.15037 24.2187 3.18062 24.1112 4.3167C24.0036 5.45277 22.8517 6.28154 21.5448 6.15779C21.3352 6.13794 21.126 6.20596 20.9631 6.34687C20.8002 6.48779 20.6971 6.69006 20.6763 6.90919L20.5981 7.73543C20.5773 7.95456 20.6407 8.1726 20.7742 8.34158C20.9078 8.51056 21.1005 8.61664 21.3101 8.63649C21.5197 8.65634 21.7289 8.58832 21.8918 8.4474C22.0547 8.30649 22.1578 8.10422 22.1786 7.88509L22.1856 7.81073C24.0202 7.63535 25.5217 6.26135 25.6917 4.46636C25.8858 2.41626 24.2716 0.580498 22.0925 0.374153Z" fill="#FFF7EA"/>
<path fill-rule="evenodd" clip-rule="evenodd" d="M15.0235 12.2722C15.0235 8.90453 12.333 6.17444 9.0141 6.17444C5.69522 6.17444 3.0047 8.90453 3.0047 12.2722C3.0047 15.6399 5.69522 18.37 9.0141 18.37C12.333 18.37 15.0235 15.6399 15.0235 12.2722ZM12.4545 19.8944H13.5211C16.0104 19.8944 18.0282 21.9419 18.0282 24.4678V28.9749H0V24.4678C0 21.9419 2.01784 19.8944 4.50705 19.8944H5.57372C7.79814 20.9324 10.322 20.8894 12.4545 19.8944Z" fill="#FFF7EA"/>
</svg>
