<svg width="30" height="29" viewBox="0 0 30 29" fill="none" xmlns="http://www.w3.org/2000/svg">
<path d="M14.2171 10.7272C16.6824 13.1703 16.7899 17.0589 14.4573 19.4126C12.1247 21.7663 8.23538 21.6938 5.77017 19.2507C3.30496 16.8075 4.99199 13.7865 5.53 10.5653C6.06801 7.34413 11.7519 8.28414 14.2171 10.7272Z" fill="#FED550"/>
<path d="M21.2071 7.96527C20.8938 9.71454 20.4534 16.5756 20.5505 18.3057L22.3496 17.1791C22.4714 16.3305 22.6915 11.5102 23.4017 8.56652C23.6959 7.34727 25.4216 3.87085 26.2053 2.74229L24.1629 0.534668C23.5787 2.19877 21.8903 4.14998 21.2071 7.96527Z" fill="#9FAEA3"/>
<path d="M22.4231 11.9634C21.5046 13.5134 20.3044 17.0238 19.9508 18.6812L23.549 16.428C23.8904 15.6399 24.7354 13.7896 25.3849 12.6936C26.0344 11.5976 28.3372 9.40891 29.4074 8.45154L26.8699 5.73247C25.8581 7.22762 24.0468 9.22348 22.4231 11.9634Z" fill="#9FAEA3"/>
<path d="M21.86 9.73124C22.1986 11.4944 22.8338 15.2168 22.7616 16.9433L21.1501 17.9302C21.0161 17.0762 20.4262 13.2139 19.6733 10.2389C19.3615 9.00671 17.5852 5.45548 16.785 4.29309L18.7963 2.17206C19.4046 3.86163 21.1216 5.88558 21.86 9.73124Z" fill="#CCE1D1"/>
<path d="M20.2363 12.4711C21.1869 15.3223 21.0213 16.4341 21.1501 17.9302L18.7513 19.4323C18.5501 18.737 19.0002 15.83 18.4374 13.598C18.1838 12.5923 15.5114 9.80586 14.737 9.0223L16.6028 7.56471C17.279 8.84986 19.4151 10.0081 20.2363 12.4711Z" fill="#9FAEA3"/>
<path d="M0.17737 17.152C0.0841767 16.5462 0.552857 16 1.16574 16H24.8345C25.4474 16 25.9161 16.5463 25.8229 17.152L24.5219 25.6082C24.2217 27.5595 22.5427 29 20.5685 29H5.43181C3.45752 29 1.77852 27.5595 1.47832 25.6082L0.17737 17.152Z" fill="#575655"/>
<path d="M0.899762 14.2359C0.402909 13.9948 0.195626 13.3965 0.436781 12.8996C0.677935 12.4028 1.27621 12.1955 1.77306 12.4367L10.7694 16.8032C11.2662 17.0443 11.4735 17.6426 11.2324 18.1394C10.9912 18.6363 10.3929 18.8436 9.89608 18.6024L0.899762 14.2359Z" fill="#9FAEA3"/>
<path d="M27.1348 19.937C27.6671 20.0845 27.979 20.6355 27.8315 21.1677C27.684 21.7 27.133 22.0119 26.6008 21.8644L16.9639 19.1943C16.4316 19.0468 16.1197 18.4958 16.2672 17.9636C16.4147 17.4313 16.9657 17.1194 17.4979 17.2669L27.1348 19.937Z" fill="#9FAEA3"/>
</svg>
