<svg width="23" height="27" viewBox="0 0 23 27" fill="none" xmlns="http://www.w3.org/2000/svg">
<path d="M6.94107 0.933398C7.2183 0.358594 7.78817 0 8.40938 0H14.5906C15.2118 0 15.7817 0.358594 16.0589 0.933398L16.4286 1.6875H21.3571C22.2658 1.6875 23 2.4416 23 3.375C23 4.3084 22.2658 5.0625 21.3571 5.0625H1.64286C0.734152 5.0625 0 4.3084 0 3.375C0 2.4416 0.734152 1.6875 1.64286 1.6875H6.57143L6.94107 0.933398ZM1.64286 6.75H21.3571V23.625C21.3571 25.4865 19.8837 27 18.0714 27H4.92857C3.11629 27 1.64286 25.4865 1.64286 23.625V6.75ZM6.57143 10.125C6.11964 10.125 5.75 10.5047 5.75 10.9688V22.7812C5.75 23.2453 6.11964 23.625 6.57143 23.625C7.02321 23.625 7.39286 23.2453 7.39286 22.7812V10.9688C7.39286 10.5047 7.02321 10.125 6.57143 10.125ZM11.5 10.125C11.0482 10.125 10.6786 10.5047 10.6786 10.9688V22.7812C10.6786 23.2453 11.0482 23.625 11.5 23.625C11.9518 23.625 12.3214 23.2453 12.3214 22.7812V10.9688C12.3214 10.5047 11.9518 10.125 11.5 10.125ZM16.4286 10.125C15.9768 10.125 15.6071 10.5047 15.6071 10.9688V22.7812C15.6071 23.2453 15.9768 23.625 16.4286 23.625C16.8804 23.625 17.25 23.2453 17.25 22.7812V10.9688C17.25 10.5047 16.8804 10.125 16.4286 10.125Z" fill="#575655"/>
</svg>
