<svg width="20" height="23" viewBox="0 0 20 23" fill="none" xmlns="http://www.w3.org/2000/svg">
<path fill-rule="evenodd" clip-rule="evenodd" d="M16.5469 5.91429C16.5469 9.18066 13.6253 11.8286 10.0213 11.8286C6.41735 11.8286 3.49575 9.18066 3.49575 5.91429C3.49575 2.64792 6.41735 0 10.0213 0C13.6253 0 16.5469 2.64792 16.5469 5.91429ZM15.0968 5.91429C15.0968 8.4548 12.8244 10.5143 10.0213 10.5143C7.21824 10.5143 4.94588 8.4548 4.94588 5.91429C4.94588 3.37378 7.21824 1.31429 10.0213 1.31429C12.8244 1.31429 15.0968 3.37378 15.0968 5.91429Z" fill="#1F8D61"/>
<path fill-rule="evenodd" clip-rule="evenodd" d="M9.65892 23C6.27509 23 3.02494 22.4813 0 21.5268C0.777954 17.1461 4.96856 13.8 10.0215 13.8C14.9879 13.8 19.1213 17.0326 20 21.3028C16.7836 22.3999 13.2986 23 9.65892 23ZM10.0215 15.1143C13.8461 15.1143 17.0965 17.3519 18.2621 20.4618C15.5538 21.2561 12.663 21.6857 9.65892 21.6857C6.89694 21.6857 4.23082 21.3226 1.7143 20.6467C2.81841 17.4412 6.12122 15.1143 10.0215 15.1143Z" fill="#1F8D61"/>
</svg>
