<svg width="175" height="176" viewBox="0 0 175 176" fill="none" xmlns="http://www.w3.org/2000/svg">
<rect x="10.2256" y="31.8271" width="25" height="19" fill="#FF3030"/>
<rect width="25" height="19" transform="matrix(0 -1 -1 0 143.241 164.843)" fill="#FF3030"/>
<path d="M69.4099 30.6256L143.868 105.083L143.868 165.859L9.32372 31.3148L69.4099 30.6256Z" fill="#FF7272"/>
<path d="M89.9178 66.6296L91.1057 67.8176C90.7192 68.1664 90.2007 68.619 89.5501 69.1752C88.8996 69.7315 88.1265 70.3255 87.2308 70.9571C86.354 71.5888 85.3735 72.1828 84.2892 72.739C83.205 73.2953 82.0406 73.7526 80.7961 74.1108C79.5516 74.4691 78.227 74.6624 76.8222 74.6907C75.4268 74.7284 73.9749 74.521 72.4664 74.0684C72.5136 73.8516 72.5324 73.5876 72.523 73.2764C72.5136 72.9653 72.4806 72.6683 72.424 72.3855C73.8948 72.8569 75.2948 73.0879 76.6242 73.0785C77.9536 73.069 79.2122 72.8946 80.4002 72.5552C81.5881 72.2158 82.6865 71.7774 83.6953 71.24C84.7135 70.6932 85.6327 70.1228 86.453 69.5288C87.2732 68.9348 87.9709 68.3786 88.546 67.86C89.14 67.3415 89.5973 66.9313 89.9178 66.6296ZM90.7663 68.0439C90.6155 68.2136 90.3562 68.5105 89.9885 68.9348C89.6397 69.3591 89.2343 69.8965 88.7723 70.547C88.3103 71.1976 87.8436 71.9377 87.3722 72.7673C86.9008 73.597 86.4718 74.5068 86.0853 75.4968C85.6987 76.4867 85.4018 77.5285 85.1943 78.6222C84.9869 79.7158 84.9162 80.8519 84.9822 82.0304C85.0576 83.1995 85.3263 84.3922 85.7883 85.6084C85.5055 85.5707 85.2085 85.5565 84.8974 85.566C84.5862 85.5942 84.3128 85.632 84.0771 85.6791C83.634 84.4252 83.3794 83.1807 83.3134 81.9456C83.2663 80.7105 83.3559 79.5178 83.5821 78.3676C83.8273 77.2174 84.1572 76.1237 84.5721 75.0866C84.9963 74.059 85.4583 73.1067 85.958 72.2299C86.4671 71.3437 86.9715 70.5564 87.4712 69.8682C87.9803 69.1705 88.4282 68.5907 88.8147 68.1287C89.2107 67.6573 89.4983 67.3226 89.6774 67.1246L90.7663 68.0439ZM100.567 79.0323L110.169 88.6348L109.335 89.4692L99.7325 79.8667L100.567 79.0323ZM98.8981 80.8142L107.369 89.2853L106.535 90.1197L98.0637 81.6486L98.8981 80.8142ZM95.6878 81.1112L104.117 89.5399L103.268 90.3884L94.8393 81.9597L95.6878 81.1112ZM91.134 83.8265L99.6759 92.3683L98.8274 93.2169L90.2855 84.675L91.134 83.8265ZM102.179 77.9575L102.999 79.3717C102.132 79.73 101.232 80.027 100.298 80.2627C99.3742 80.4889 98.4644 80.6445 97.5687 80.7294C96.673 80.8142 95.8245 80.8331 95.0231 80.7859C95.0231 80.6539 95.0043 80.4842 94.9666 80.2768C94.9288 80.0694 94.8864 79.8573 94.8393 79.6404C94.8016 79.433 94.7591 79.2586 94.712 79.1171C95.8811 79.268 97.1209 79.2444 98.4314 79.0464C99.7513 78.839 101.001 78.476 102.179 77.9575ZM103.735 89.1581L104.795 90.2187C104.079 90.973 103.381 91.7178 102.702 92.4532C102.033 93.1791 101.43 93.8768 100.892 94.5462C100.364 95.225 99.921 95.8473 99.5627 96.413C99.2139 96.9692 98.9829 97.4548 98.8698 97.8696C98.7661 98.275 98.8179 98.5814 99.0253 98.7889C99.1479 98.9114 99.4213 98.8077 99.8456 98.4777C100.279 98.1572 100.807 97.6952 101.43 97.0918C101.42 97.3086 101.42 97.5444 101.43 97.7989C101.458 98.0535 101.496 98.2703 101.543 98.4494C100.609 99.2885 99.8739 99.8165 99.3365 100.033C98.8085 100.26 98.3324 100.161 97.9081 99.7364C97.4179 99.2461 97.2293 98.6427 97.3424 97.9262C97.4556 97.2097 97.7997 96.3941 98.3748 95.4796C98.9688 94.5651 99.7277 93.5798 100.652 92.5239C101.585 91.4585 102.613 90.3366 103.735 89.1581ZM94.0049 82.9072L95.1504 83.3456C95.1221 83.8642 95.0467 84.4016 94.9241 84.9579C94.811 85.5047 94.6696 85.9478 94.4999 86.2872L93.2836 85.8064C93.4533 85.467 93.6042 85.0238 93.7362 84.477C93.8682 83.9302 93.9577 83.4069 94.0049 82.9072ZM93.7503 89.5823L94.9948 89.6672C95.1834 90.2894 95.3625 90.9588 95.5322 91.6754C95.7019 92.3919 95.8528 93.0896 95.9848 93.7684C96.1168 94.4472 96.1969 95.0271 96.2252 95.5079L94.8676 95.4796C94.8487 95.0082 94.778 94.4284 94.6554 93.7401C94.5423 93.0613 94.4056 92.3589 94.2453 91.6329C94.1039 90.907 93.9389 90.2234 93.7503 89.5823ZM97.4273 85.17L98.4314 86.1741L91.3886 93.2169L90.3845 92.2128L97.4273 85.17ZM100.341 88.3944L100.935 89.6955C100.35 89.7709 99.7466 89.8463 99.1243 89.9217C98.5115 89.9877 97.9647 90.0254 97.4839 90.0349L97.102 89.0308C97.432 89.0025 97.7903 88.9554 98.1768 88.8894C98.5634 88.8234 98.9499 88.7479 99.3365 88.6631C99.723 88.5782 100.058 88.4887 100.341 88.3944ZM94.316 87.659L94.811 88.7762C94.019 88.9648 93.1658 89.0638 92.2513 89.0732C91.3462 89.0921 90.4505 89.0449 89.5643 88.9318C88.6874 88.8281 87.8813 88.6631 87.146 88.4368C87.1837 88.3048 87.2072 88.1493 87.2167 87.9701C87.2355 87.8004 87.2497 87.626 87.2591 87.4469C87.2779 87.2772 87.2779 87.1169 87.2591 86.966C87.9379 87.23 88.6874 87.4327 89.5077 87.5741C90.3374 87.725 91.167 87.8098 91.9967 87.8287C92.8358 87.857 93.6089 87.8004 94.316 87.659Z" fill="white"/>
</svg>
