<svg width="40" height="36" viewBox="0 0 40 36" fill="none" xmlns="http://www.w3.org/2000/svg">
<path d="M21.25 5.00588C15.1094 5.00588 9.91406 9.02932 8.14844 14.5762C10.7734 13.2481 13.7344 12.5059 16.875 12.5059H23.75C24.4375 12.5059 25 13.0684 25 13.7559C25 14.4434 24.4375 15.0059 23.75 15.0059H22.5H16.875C15.5781 15.0059 14.3203 15.1543 13.1094 15.4278C11.0859 15.8887 9.20312 16.709 7.53125 17.8262C2.99219 20.8496 0 26.0137 0 31.8809V33.1309C0 34.1699 0.835938 35.0059 1.875 35.0059C2.91406 35.0059 3.75 34.1699 3.75 33.1309V31.8809C3.75 28.0762 5.36719 24.6543 7.95312 22.2559C9.5 28.1543 14.8672 32.5059 21.25 32.5059H21.3281C31.6484 32.4512 40 22.2793 40 9.74026C40 6.41213 39.4141 3.24807 38.3516 0.396506C38.1484 -0.142556 37.3594 -0.119119 37.0859 0.388694C35.6172 3.13869 32.7109 5.00588 29.375 5.00588H21.25Z" fill="#1F8D61"/>
</svg>
