<svg width="28" height="28" viewBox="0 0 28 28" fill="none" xmlns="http://www.w3.org/2000/svg">
<circle cx="14" cy="14" r="13" transform="matrix(-1 0 0 1 28 0)" fill="#1F8D61" stroke="#1F8D61" stroke-width="2"/>
<path d="M15.1322 9.35118L15.1322 9.35119L15.1303 9.3494L14.4862 8.74409C14.4049 8.66766 14.2652 8.67022 14.1893 8.74225L14.1873 8.74418L8.54696 14.0419C8.54693 14.042 8.5469 14.042 8.54686 14.042C8.51122 14.0756 8.5 14.1113 8.5 14.1408C8.5 14.1701 8.51105 14.2042 8.54501 14.2357L8.54696 14.2375L14.1874 19.5381C14.2687 19.6146 14.4084 19.612 14.4842 19.54L14.4862 19.5381L15.1303 18.9328C15.1649 18.9003 15.1763 18.8648 15.1759 18.8339C15.1755 18.8029 15.1631 18.7666 15.1268 18.7338C15.1267 18.7336 15.1266 18.7335 15.1264 18.7334L11.6313 15.6043L10.6568 14.7318H11.9648H20.3036C20.4431 14.7318 20.5 14.6351 20.5 14.5774V13.7048C20.5 13.6472 20.4431 13.5505 20.3036 13.5505H11.9648H10.6568L11.6313 12.6779L15.1276 9.54776L15.1283 9.54711C15.1659 9.51361 15.1777 9.47759 15.178 9.44829C15.1784 9.4192 15.1678 9.38426 15.1322 9.35118Z" fill="white" stroke="white"/>
</svg>
