<svg width="39" height="39" viewBox="0 0 39 39" fill="none" xmlns="http://www.w3.org/2000/svg">
<path d="M15.5614 0.383535C7.98969 1.86129 1.88818 7.94752 0.395173 15.4963C-2.42325 29.7406 10.4272 40.3592 20.1089 38.8586C23.2473 38.3711 24.786 34.6995 23.3463 31.8735C21.5867 28.4152 24.1004 24.3781 27.9853 24.3781H34.0563C36.7833 24.3781 38.9924 22.1233 39 19.404C38.9619 7.39908 28.0386 -2.04639 15.5614 0.383535ZM7.31174 24.3781C5.96347 24.3781 4.87419 23.2888 4.87419 21.9405C4.87419 20.5923 5.96347 19.503 7.31174 19.503C8.66002 19.503 9.7493 20.5923 9.7493 21.9405C9.7493 23.2888 8.66002 24.3781 7.31174 24.3781ZM9.7493 14.6279C8.40103 14.6279 7.31174 13.5386 7.31174 12.1904C7.31174 10.8421 8.40103 9.75282 9.7493 9.75282C11.0976 9.75282 12.1869 10.8421 12.1869 12.1904C12.1869 13.5386 11.0976 14.6279 9.7493 14.6279ZM19.4995 9.75282C18.1513 9.75282 17.062 8.66355 17.062 7.31529C17.062 5.96702 18.1513 4.87775 19.4995 4.87775C20.8478 4.87775 21.9371 5.96702 21.9371 7.31529C21.9371 8.66355 20.8478 9.75282 19.4995 9.75282ZM29.2498 14.6279C27.9015 14.6279 26.8122 13.5386 26.8122 12.1904C26.8122 10.8421 27.9015 9.75282 29.2498 9.75282C30.598 9.75282 31.6873 10.8421 31.6873 12.1904C31.6873 13.5386 30.598 14.6279 29.2498 14.6279Z" fill="#1F8D61"/>
</svg>
