<svg width="59" height="47" viewBox="0 0 59 47" fill="none" xmlns="http://www.w3.org/2000/svg">
<path d="M0 6.71429C0 3.01094 3.30723 0 7.375 0H51.625C55.6928 0 59 3.01094 59 6.71429V40.2857C59 43.9891 55.6928 47 51.625 47H7.375C3.30723 47 0 43.9891 0 40.2857V6.71429ZM37.3129 17.8873C36.7943 17.1949 35.9416 16.7857 35.0313 16.7857C34.1209 16.7857 33.2566 17.1949 32.7496 17.8873L22.7242 31.2739L19.6705 27.8013C19.1404 27.2033 18.3453 26.8571 17.5156 26.8571C16.6859 26.8571 15.8793 27.2033 15.3607 27.8013L7.98574 36.1942C7.31738 36.9496 7.19063 37.9882 7.65156 38.8589C8.1125 39.7297 9.08047 40.2857 10.1406 40.2857H21.2031H24.8906H48.8594C49.885 40.2857 50.8299 39.7717 51.3023 38.9429C51.7748 38.1141 51.7172 37.1174 51.141 36.3516L37.3129 17.8873ZM12.9063 16.7857C14.3732 16.7857 15.7801 16.2552 16.8174 15.3108C17.8547 14.3664 18.4375 13.0856 18.4375 11.75C18.4375 10.4144 17.8547 9.13359 16.8174 8.18921C15.7801 7.24483 14.3732 6.71429 12.9063 6.71429C11.4393 6.71429 10.0324 7.24483 8.99507 8.18921C7.95775 9.13359 7.375 10.4144 7.375 11.75C7.375 13.0856 7.95775 14.3664 8.99507 15.3108C10.0324 16.2552 11.4393 16.7857 12.9063 16.7857Z" fill="#1F8D61"/>
</svg>
