<svg width="40" height="40" viewBox="0 0 40 40" fill="none" xmlns="http://www.w3.org/2000/svg">
<path d="M28.6875 32.2266L7.77344 11.3125C6.02344 13.7578 5 16.7578 5 20C5 28.2812 11.7188 35 20 35C23.2422 35 26.2422 33.9766 28.6875 32.2266ZM32.2266 28.6875C33.9766 26.2422 35 23.2422 35 20C35 11.7188 28.2812 5 20 5C16.7578 5 13.7578 6.02344 11.3125 7.77344L32.2266 28.6875ZM0 20C0 14.6957 2.10714 9.60859 5.85786 5.85786C9.60859 2.10714 14.6957 0 20 0C25.3043 0 30.3914 2.10714 34.1421 5.85786C37.8929 9.60859 40 14.6957 40 20C40 25.3043 37.8929 30.3914 34.1421 34.1421C30.3914 37.8929 25.3043 40 20 40C14.6957 40 9.60859 37.8929 5.85786 34.1421C2.10714 30.3914 0 25.3043 0 20Z" fill="#1F8D61"/>
</svg>
