<svg width="38" height="36" viewBox="0 0 38 36" fill="none" xmlns="http://www.w3.org/2000/svg">
<path d="M0 12.5714C0 9.79786 2.08737 7.54286 4.65476 7.54286C4.69113 7.54286 4.73477 7.54286 4.77113 7.54286C5.30934 4.675 7.65854 2.51429 10.4732 2.51429C11.5642 2.51429 12.5824 2.83643 13.4479 3.39429C14.4152 1.38286 16.3717 0 18.619 0C20.8664 0 22.8229 1.38286 23.7902 3.39429C24.6557 2.83643 25.6739 2.51429 26.7649 2.51429C29.5796 2.51429 31.9288 4.675 32.467 7.54286C32.5033 7.54286 32.547 7.54286 32.5833 7.54286C35.1507 7.54286 37.2381 9.79786 37.2381 12.5714C37.2381 13.4907 37.0126 14.3471 36.6126 15.0857H0.625484C0.225465 14.3471 0 13.4907 0 12.5714ZM0 19.7529C0 18.5664 0.894587 17.6 1.99282 17.6H35.2453C36.3435 17.6 37.2381 18.5664 37.2381 19.7529C37.2381 25.2921 34.0089 30.0221 29.4777 31.8607L29.3468 33C29.2014 34.2571 28.2122 35.2 27.034 35.2H10.1968C9.02587 35.2 8.02946 34.2571 7.884 33L7.75309 31.8686C3.22924 30.0221 0 25.2921 0 19.7529Z" fill="#1F8D61"/>
</svg>
