<svg width="28" height="28" viewBox="0 0 28 28" fill="none" xmlns="http://www.w3.org/2000/svg">
<circle cx="14" cy="14" r="13" fill="#1F8D61" stroke="#1F8D61" stroke-width="2"/>
<path d="M12.8678 9.35118L12.8678 9.35119L12.8697 9.3494L13.5138 8.74409C13.5951 8.66766 13.7348 8.67022 13.8107 8.74225L13.8127 8.74418L19.453 14.0419C19.4531 14.042 19.4531 14.042 19.4531 14.042C19.4888 14.0756 19.5 14.1113 19.5 14.1408C19.5 14.1701 19.4889 14.2042 19.455 14.2357L19.453 14.2375L13.8126 19.5381C13.7313 19.6146 13.5916 19.612 13.5158 19.54L13.5138 19.5381L12.8697 18.9328C12.8351 18.9003 12.8237 18.8648 12.8241 18.8339C12.8245 18.8029 12.8369 18.7666 12.8732 18.7338C12.8733 18.7336 12.8734 18.7335 12.8736 18.7334L16.3687 15.6043L17.3432 14.7318H16.0352H7.69635C7.55687 14.7318 7.5 14.6351 7.5 14.5774V13.7048C7.5 13.6472 7.55687 13.5505 7.69635 13.5505H16.0352H17.3432L16.3687 12.6779L12.8724 9.54776L12.8717 9.54711C12.8341 9.51361 12.8223 9.47759 12.822 9.44829C12.8216 9.4192 12.8322 9.38426 12.8678 9.35118Z" fill="white" stroke="white"/>
</svg>
