<svg width="173" height="173" viewBox="0 0 173 173" fill="none" xmlns="http://www.w3.org/2000/svg">
<path d="M86.291 15.0902C74.8867 15.0902 63.9495 19.6206 55.8854 27.6846C47.8214 35.7487 43.291 46.6859 43.291 58.0902C43.291 68.2597 45.4553 74.9175 51.3535 82.2777L86.291 122.59L121.229 82.2777C127.127 74.9175 129.291 68.2597 129.291 58.0902C129.291 46.6859 124.761 35.7487 116.697 27.6846C108.633 19.6206 97.6953 15.0902 86.291 15.0902Z" fill="#FF7272" stroke="white" stroke-width="2" stroke-linecap="round" stroke-linejoin="round"/>
<path d="M86.2912 65.2569C90.2492 65.2569 93.4578 62.0483 93.4578 58.0903C93.4578 54.1322 90.2492 50.9236 86.2912 50.9236C82.3331 50.9236 79.1245 54.1322 79.1245 58.0903C79.1245 62.0483 82.3331 65.2569 86.2912 65.2569Z" stroke="white" stroke-width="2" stroke-linecap="round" stroke-linejoin="round"/>
</svg>
