<svg width="404" height="303" viewBox="0 0 404 303" fill="none" xmlns="http://www.w3.org/2000/svg">
<g clip-path="url(#clip0_1161_4701)">
<path d="M112.452 229.56L89.7088 232.035L78.8248 224.611L72.5264 232.035L75.5527 247.696L79.0091 260.061L100.001 249.395L116.907 247.865L112.452 229.56Z" fill="#A0616A"/>
<path d="M227.69 203.332L172.794 202.341L106.023 230.544L114.925 249.848L175.267 233.018L268.738 259.738L255.88 196.408L227.69 203.332Z" fill="#2F2E41"/>
<path d="M77.1117 231.358L88.0264 230.505L74.1468 201.173C74.1468 201.173 67.7178 198.898 66.7269 205.976C65.7361 213.046 74.1775 260.945 76.6508 260.945C79.1241 260.945 87.4196 256.103 87.4196 256.103L75.1377 232.842L77.1194 231.358L77.1117 231.358Z" fill="#2F2E41"/>
<path d="M350.786 223.328C349.688 223.443 348.49 223.62 347.215 223.881C341.807 224.98 341.7 228.654 341.746 229.491L341.707 229.468C341.162 230.336 340.824 231.22 340.617 232.058L340.371 220.807C340.532 220.477 340.678 220.093 340.801 219.708C341.208 220.953 341.869 222.129 342.437 222.052C343.182 221.952 343.505 219.762 343.366 218.21C344.311 219.424 345.901 220.73 346.5 220.331C346.976 220.008 346.692 218.686 346.17 217.488C347.261 218.148 348.467 218.579 348.843 218.156C349.358 217.587 348.129 215.643 347 214.56C348.513 214.698 350.441 214.46 350.564 213.768C350.671 213.199 349.519 212.485 348.298 212.024C349.527 211.701 350.679 211.132 350.64 210.571C350.594 209.903 348.889 209.457 347.414 209.395C348.528 208.527 349.55 207.321 349.235 206.775C348.95 206.275 347.614 206.468 346.377 206.906C347.107 205.861 347.622 204.685 347.23 204.285C346.746 203.786 345.018 204.646 343.835 205.607C344.065 204.116 343.95 202.233 343.282 202.064C342.721 201.918 341.93 203.017 341.385 204.208C341.147 202.956 340.655 201.772 340.094 201.772C339.295 201.772 338.65 204.185 338.65 205.753V206.007C338.573 205.914 338.481 205.814 338.374 205.714C337.245 204.623 335.071 203.409 334.51 203.978C334.118 204.377 334.633 205.553 335.363 206.598C334.126 206.16 332.79 205.96 332.505 206.468C332.121 207.144 333.773 208.819 335.109 209.634C335.032 209.626 334.94 209.618 334.856 209.611C333.289 209.503 330.839 209.987 330.785 210.786C330.747 211.347 331.899 211.916 333.128 212.239C331.899 212.7 330.754 213.415 330.862 213.983C330.985 214.675 332.913 214.913 334.426 214.775C333.297 215.858 332.068 217.803 332.582 218.371C332.959 218.786 334.165 218.356 335.255 217.703C334.733 218.902 334.449 220.223 334.925 220.546C335.555 220.969 337.298 219.493 338.212 218.225C338.12 219.778 338.489 221.914 339.226 221.998C339.534 222.037 339.864 221.706 340.156 221.199L339.319 233.295C339.127 234.701 340.371 235.624 340.486 236.2L340.663 244.392C340.463 243.808 340.186 243.208 339.818 242.617L339.779 242.64C339.825 241.794 339.718 238.129 334.311 237.03C333.035 236.769 331.837 236.592 330.739 236.477C329.441 236.338 328.934 238.113 330.109 238.69C331.806 239.52 333.404 240.565 334.234 241.802C336.361 244.968 339.295 243.139 339.718 242.855C340.186 243.631 340.494 244.415 340.686 245.16L340.778 249.51C340.755 249.61 340.74 249.671 340.74 249.671L340.786 249.687L341.016 260.215L343.167 260.199L342.399 249.441C342.529 248.857 342.929 246.882 342.399 244.83L341.631 236.377L340.632 233.057C340.778 232.027 341.116 230.874 341.8 229.729C342.214 230.014 345.156 231.843 347.284 228.677C348.113 227.439 349.711 226.394 351.408 225.564C352.576 224.988 352.077 223.213 350.779 223.351V223.328L350.786 223.328ZM340.985 248.234L340.947 246.39C341.031 247.089 341.024 247.712 340.985 248.234Z" fill="#2F853F"/>
<path d="M0.263184 260C0.263184 260.507 0.670278 260.914 1.17722 260.914H402.349C402.856 260.914 403.263 260.507 403.263 260C403.263 259.492 402.856 259.085 402.349 259.085H1.17722C0.670278 259.085 0.263184 259.492 0.263184 260Z" fill="#3F3D56"/>
<path d="M266.449 137.351L271.895 119.046L287.717 118.546L294.146 141.308L266.449 137.351Z" fill="#A0616A"/>
<path opacity="0.1" d="M266.449 137.351L271.895 119.046L287.717 118.546L294.146 141.308L266.449 137.351Z" fill="black"/>
<path d="M290.744 134.799L265.028 133.808L257.055 150.215L244.75 222.875L309.294 237.468C309.294 237.468 313.249 156.317 304.347 144.936C295.445 133.555 290.744 134.792 290.744 134.792V134.799Z" fill="#FDFAF5"/>
<path d="M215.424 77.9015C214.349 72.1763 210.531 68.0803 206.883 68.7643C203.234 69.4482 201.153 74.6431 202.228 80.376C202.627 82.6737 203.564 84.8331 204.97 86.6928L209.817 110.908L219.38 108.963L215.14 84.787C215.777 82.5431 215.869 80.1838 215.409 77.9015L215.424 77.9015Z" fill="#A0616A"/>
<path d="M286.896 141.393L234.373 131.042L219.61 86.6237L203.073 90.5429L219.664 156.155L279.115 163.979L286.896 141.393Z" fill="#FDFAF5"/>
<path d="M206.906 6.75591C206.852 6.80971 206.806 6.85581 206.752 6.90961C198.802 -0.990331 185.99 -1.05949 177.948 6.75591C169.883 14.5944 169.607 27.4664 177.334 35.6429L177.526 35.8427L205.984 65.1601L235.487 36.496L235.402 36.4114C235.448 36.3653 235.502 36.3192 235.556 36.2731C243.706 28.3578 243.89 15.3321 235.978 7.18626C228.067 -0.967277 215.048 -1.15171 206.906 6.7636V6.75591Z" fill="#2F853F"/>
<path d="M213.941 152.152C213.849 152.244 213.757 152.344 213.665 152.436C199.017 137.896 175.429 137.766 160.62 152.152C145.765 166.591 145.258 190.299 159.491 205.353L159.844 205.73L212.259 259.723L266.587 206.929L266.434 206.775C266.526 206.69 266.618 206.606 266.71 206.521C281.711 191.943 282.064 167.959 267.494 152.943C252.923 137.935 228.95 137.581 213.941 152.159V152.152Z" fill="#2F853F"/>
<path d="M294.078 212.331C294.078 212.331 313.488 228.507 306.283 238.321C299.086 248.134 274.599 265.702 263.538 260.253C252.477 254.805 229.519 215.428 229.519 215.428L223.512 255.765L207.797 254.374C207.797 254.374 196.383 197.399 206.906 188.662C217.436 179.924 265.366 195.371 265.366 195.371L294.07 212.339L294.078 212.331Z" fill="#2F2E41"/>
<path d="M211.721 249.018L207.22 263.012L197.842 276.161L205.031 286.927L227.882 271.873L227.805 264.126L224.218 259.293L221.684 250.025L211.721 249.018Z" fill="#A0616A"/>
<path d="M204.532 281.625L198.795 272.295L179.039 298.031C179.039 298.031 179.953 304.794 186.697 302.443C193.441 300.091 235.249 278.651 234.12 276.445C232.991 274.239 228.359 262.39 228.359 262.39L206.76 282.7L204.54 281.617L204.532 281.625Z" fill="#2F2E41"/>
<path d="M216.66 212.2C210.861 212.777 206.46 216.235 206.829 219.924C207.197 223.612 212.19 226.141 217.989 225.564C220.309 225.364 222.544 224.611 224.518 223.374L249.044 220.631L247.93 210.932L223.489 213.076C221.315 212.246 218.972 211.947 216.66 212.208L216.66 212.2Z" fill="#A0616A"/>
<path d="M286.051 146.434L271.211 197.891L225.709 208.773L228.182 225.603L294.953 214.713L307.865 156.132L286.051 146.434Z" fill="#FDFAF5"/>
<path d="M277.794 124.525C289.4 124.525 298.809 115.111 298.809 103.499C298.809 91.8873 289.4 82.4739 277.794 82.4739C266.187 82.4739 256.778 91.8873 256.778 103.499C256.778 115.111 266.187 124.525 277.794 124.525Z" fill="#A0616A"/>
<path d="M279.468 75.2272C278.861 75.5807 278.047 75.0427 277.847 74.3665C277.655 73.6902 277.878 72.9679 278.108 72.307C278.485 71.185 278.861 70.063 279.245 68.9487C280.052 66.5664 280.904 64.0996 282.648 62.286C285.275 59.5503 289.453 58.8509 293.217 59.3581C298.048 60.0037 302.811 62.6242 305.061 66.9507C307.304 71.2772 306.352 77.3174 302.296 80.0148C308.08 86.6467 310.092 94.0395 309.777 102.831C309.462 111.63 299.876 119.722 293.632 125.916C292.234 125.071 290.967 121.105 291.735 119.66C292.503 118.223 291.404 116.548 292.349 115.226C293.294 113.905 294.093 116.01 293.133 114.696C292.526 113.866 294.891 111.945 293.993 111.453C289.638 109.04 288.186 103.607 285.444 99.4419C282.141 94.4237 276.488 91.0194 270.512 90.4584C267.217 90.151 263.737 90.712 261.041 92.6255C258.338 94.539 256.594 97.9587 257.216 101.209C255.595 99.5648 254.789 97.1441 255.088 94.8541C255.396 92.564 256.801 90.443 258.798 89.2749C257.585 85.2635 258.622 80.6449 261.441 77.5403C264.26 74.4357 275.681 74.9659 279.791 75.7805L279.476 75.2349L279.468 75.2272Z" fill="#2F2E41"/>
<path d="M280.113 90.5736C285.559 91.1653 289.492 95.8838 292.81 100.241C294.723 102.754 296.727 105.528 296.681 108.687C296.635 111.876 294.5 114.619 293.478 117.647C291.811 122.596 293.432 128.475 297.403 131.864C293.486 132.609 289.246 129.666 288.57 125.731C287.779 121.151 291.251 116.733 290.844 112.099C290.483 108.018 287.272 104.883 284.538 101.832C281.803 98.7809 279.245 94.7388 280.497 90.8426L280.113 90.5813L280.113 90.5736Z" fill="#2F2E41"/>
</g>
<defs>
<clipPath id="clip0_1161_4701">
<rect width="403" height="302" fill="white" transform="translate(0.263184 0.939209)"/>
</clipPath>
</defs>
</svg>
