<svg width="245" height="296" viewBox="0 0 245 296" fill="none" xmlns="http://www.w3.org/2000/svg">
<g clip-path="url(#clip0_1161_4722)">
<path d="M2.62245 141.342C3.51899 142.845 4.73292 144.132 6.17873 145.113C7.62454 146.093 9.26706 146.744 10.9906 147.019C12.7141 147.294 14.4768 147.186 16.1543 146.703C17.8319 146.221 19.3836 145.375 20.7002 144.225L57.4988 165.406L56.1274 143.326L21.393 126.598C19.3219 124.506 16.5583 123.249 13.6257 123.066C10.6932 122.883 7.79555 123.785 5.48184 125.603C3.16813 127.42 1.59911 130.026 1.07211 132.927C0.545105 135.828 1.09673 138.822 2.62245 141.342Z" fill="#FFB8B8"/>
<path d="M109.158 226.19C98.2425 241.522 98.633 267.173 101.678 295.248H153.288L155.532 289.993L158.524 295.248H207.142C207.142 295.248 203.402 223.938 196.67 221.686C189.939 219.434 109.158 226.19 109.158 226.19Z" fill="#2F2E41"/>
<path d="M153.288 66.0011C167.746 66.0011 179.467 54.2388 179.467 39.7293C179.467 25.2197 167.746 13.4574 153.288 13.4574C138.83 13.4574 127.109 25.2197 127.109 39.7293C127.109 54.2388 138.83 66.0011 153.288 66.0011Z" fill="#FFB8B8"/>
<path d="M172.209 72.8174L177.329 82.6645L212.738 98.5054L203.43 188.9L199.513 198.26L201.63 206.389L196.527 212.389C201.649 217.04 202.299 221.909 199.513 226.945L183.207 230.694C183.207 230.694 92.5415 238.785 100.182 224.689C108.531 209.287 110.657 163.802 92.2265 139.495C76.5793 118.86 88.5923 92.0834 88.5923 92.0834L125.708 80.9519L139.36 72.8174L172.209 72.8174Z" fill="#3F3D56"/>
<path d="M164.911 1.24516C165.034 0.98395 165.232 0.765602 165.479 0.618158C165.727 0.470714 166.013 0.400905 166.3 0.417699C154.315 -0.301766 141.691 1.1001 131.664 7.7282C129.235 9.33398 126.945 11.2493 124.301 12.4142C124.176 12.4704 124.068 12.5581 123.987 12.6687C123.906 12.7793 123.855 12.909 123.839 13.0453C123.823 13.1816 123.842 13.3198 123.894 13.4465C123.947 13.5732 124.031 13.684 124.139 13.7683L124.43 13.9968C124.544 14.087 124.632 14.2069 124.683 14.3436C124.735 14.4803 124.748 14.6285 124.721 14.7721C124.694 14.9157 124.629 15.0492 124.532 15.1581C124.435 15.267 124.31 15.3471 124.17 15.3897C124.025 15.4341 123.896 15.5192 123.797 15.635C123.699 15.7508 123.635 15.8924 123.614 16.0432C123.593 16.1941 123.615 16.3478 123.679 16.4862C123.742 16.6247 123.843 16.7422 123.97 16.8249L126.195 18.268C126.307 18.3394 126.4 18.4379 126.464 18.5545C126.528 18.671 126.562 18.8019 126.563 18.9351C126.564 19.0683 126.531 19.1996 126.468 19.3168C126.405 19.4341 126.314 19.5336 126.203 19.6062C126.014 19.723 125.816 19.8237 125.611 19.9073C125.483 19.9554 125.37 20.0358 125.282 20.1406C125.194 20.2454 125.135 20.3712 125.11 20.5057C125.084 20.6403 125.094 20.7791 125.138 20.9088C125.182 21.0385 125.258 21.1547 125.359 21.2463C126.323 22.1071 127.062 23.1913 127.512 24.4044C128.254 26.3395 128.387 28.447 128.512 30.5164C129.278 27.5304 132.526 25.7728 135.593 25.5942C138.66 25.4156 141.652 26.4312 144.637 27.1613C151.139 28.7469 157.891 29.0076 164.495 27.928C162.253 32.4442 164.144 37.8312 166.048 42.5015L172.209 39.8511C180.672 35.0574 174.777 55.3358 171.614 58.1196C178.073 60.3671 194.98 35.4227 189.541 25.9607C186.712 21.0387 188.72 14.6905 183.158 10.0224C180.432 7.14224 174.989 8.42235 172.209 6.02863C171.116 5.0865 172.783 2.56597 171.28 2.01667C170.78 1.83422 164.993 1.06128 164.911 1.24516Z" fill="#2F2E41"/>
<path d="M120.567 83.495C115.763 104.897 103.443 154.869 90.9429 165.32C90.1501 166.071 89.1996 166.634 88.1613 166.968C44.2239 177.71 30.1455 150.309 30.1455 150.309C30.1455 150.309 41.9202 144.551 42.2188 133.295L65.9644 140.689L86.6639 93.9414L89.7099 91.0901L89.727 91.073L120.567 83.495Z" fill="#3F3D56"/>
<path d="M214.249 281.135C215.507 279.922 216.484 278.446 217.113 276.812C217.741 275.178 218.005 273.426 217.885 271.678C217.766 269.931 217.266 268.231 216.421 266.699C215.576 265.167 214.407 263.839 212.995 262.809L225.312 222.071L204.178 228.363L195.722 266.084C194.155 268.578 193.554 271.563 194.034 274.472C194.513 277.381 196.04 280.013 198.323 281.868C200.607 283.723 203.49 284.673 206.425 284.538C209.36 284.403 212.144 283.193 214.249 281.135Z" fill="#FFB8B8"/>
<path d="M202.975 96.2263L212.738 98.5054C212.738 98.5054 253.089 177.294 243.366 192.306C233.642 207.319 221.73 257.021 221.73 257.021C221.73 257.021 204.112 253.506 197.38 244.499L209.707 185.551L196.992 136.009L202.975 96.2263Z" fill="#3F3D56"/>
<path d="M17.7632 213.225L18.1138 86.3311C18.1237 83.7627 19.1485 81.3033 20.9632 79.4922C22.7778 77.6812 25.2342 76.6664 27.7935 76.6707L123.287 76.9364C125.847 76.9464 128.297 77.9748 130.102 79.7959C131.907 81.617 132.918 84.0821 132.913 86.6505L132.563 213.544C132.553 216.113 131.528 218.572 129.714 220.383C127.899 222.194 125.442 223.209 122.883 223.205L27.3894 222.939C24.8302 222.929 22.3794 221.901 20.5748 220.079C18.7701 218.258 17.759 215.793 17.7632 213.225Z" fill="#E6E6E6"/>
<path d="M25.1939 174.918L25.4193 93.3391C25.4286 90.9338 26.3883 88.6304 28.0878 86.9343C29.7873 85.2382 32.0878 84.2879 34.4846 84.2919L116.554 84.5202C118.95 84.5295 121.246 85.4926 122.936 87.1981C124.626 88.9037 125.573 91.2124 125.569 93.6178L125.257 206.536C125.248 208.941 124.288 211.245 122.589 212.941C120.889 214.637 118.588 215.587 116.191 215.583L65.3515 215.442C54.6752 215.4 44.4514 211.11 36.923 203.513C29.3946 195.916 25.1764 185.632 25.1939 174.918Z" fill="white"/>
<path d="M107.15 120.126H43.1574C42.1391 120.126 41.1625 119.72 40.4425 118.998C39.7224 118.275 39.3179 117.295 39.3179 116.273C39.3179 115.251 39.7224 114.271 40.4425 113.548C41.1625 112.826 42.1391 112.42 43.1574 112.42H107.15C108.168 112.42 109.145 112.826 109.865 113.548C110.585 114.271 110.99 115.251 110.99 116.273C110.99 117.295 110.585 118.275 109.865 118.998C109.145 119.72 108.168 120.126 107.15 120.126Z" fill="#2F853F"/>
<path d="M57.2358 102.358H43.1574C42.1391 102.358 41.1625 101.953 40.4425 101.23C39.7224 100.507 39.3179 99.5272 39.3179 98.5053C39.3179 97.4834 39.7224 96.5033 40.4425 95.7807C41.1625 95.0581 42.1391 94.6521 43.1574 94.6521H57.2358C58.2541 94.6521 59.2308 95.0581 59.9508 95.7807C60.6709 96.5033 61.0754 97.4834 61.0754 98.5053C61.0754 99.5272 60.6709 100.507 59.9508 101.23C59.2308 101.953 58.2541 102.358 57.2358 102.358Z" fill="#2F853F"/>
<path d="M107.15 137.894H43.1574C42.1391 137.894 41.1625 137.488 40.4425 136.765C39.7224 136.042 39.3179 135.062 39.3179 134.04C39.3179 133.019 39.7224 132.038 40.4425 131.316C41.1625 130.593 42.1391 130.187 43.1574 130.187H107.15C108.168 130.187 109.145 130.593 109.865 131.316C110.585 132.038 110.99 133.019 110.99 134.04C110.99 135.062 110.585 136.042 109.865 136.765C109.145 137.488 108.168 137.894 107.15 137.894Z" fill="#2F853F"/>
<path d="M107.15 155.661H43.1574C42.1391 155.661 41.1625 155.255 40.4425 154.533C39.7224 153.81 39.3179 152.83 39.3179 151.808C39.3179 150.786 39.7224 149.806 40.4425 149.083C41.1625 148.361 42.1391 147.955 43.1574 147.955H107.15C108.168 147.955 109.145 148.361 109.865 149.083C110.585 149.806 110.99 150.786 110.99 151.808C110.99 152.83 110.585 153.81 109.865 154.533C109.145 155.255 108.168 155.661 107.15 155.661Z" fill="#2F853F"/>
<path d="M101.972 202.478C110.41 202.478 117.25 195.613 117.25 187.146C117.25 178.678 110.41 171.814 101.972 171.814C93.5344 171.814 86.6943 178.678 86.6943 187.146C86.6943 195.613 93.5344 202.478 101.972 202.478Z" fill="#2F853F"/>
<path d="M99.888 195.125C99.6242 195.125 99.364 195.064 99.128 194.945C98.8921 194.827 98.6868 194.655 98.5286 194.443L94.3606 188.866C94.2264 188.687 94.1287 188.483 94.0731 188.266C94.0174 188.049 94.005 187.823 94.0365 187.601C94.0679 187.379 94.1427 187.165 94.2564 186.973C94.3701 186.78 94.5206 186.611 94.6993 186.477C94.878 186.342 95.0813 186.244 95.2977 186.189C95.5141 186.133 95.7393 186.121 95.9603 186.153C96.1814 186.185 96.3941 186.26 96.5861 186.374C96.7782 186.489 96.9459 186.64 97.0797 186.82L99.8065 190.468L106.81 179.926C106.934 179.738 107.093 179.578 107.278 179.452C107.464 179.327 107.672 179.24 107.891 179.195C108.11 179.151 108.336 179.15 108.556 179.194C108.775 179.237 108.984 179.324 109.17 179.448C109.356 179.573 109.516 179.733 109.64 179.919C109.764 180.106 109.85 180.315 109.894 180.535C109.938 180.755 109.937 180.982 109.893 181.202C109.849 181.422 109.763 181.631 109.638 181.818L101.302 194.366C101.151 194.593 100.949 194.78 100.711 194.912C100.473 195.044 100.207 195.117 99.9353 195.125C99.9195 195.125 99.9038 195.125 99.888 195.125Z" fill="white"/>
<path d="M69.3946 47.1294C73.4 47.1294 76.6471 43.8708 76.6471 39.8511C76.6471 35.8315 73.4 32.5729 69.3946 32.5729C65.3891 32.5729 62.1421 35.8315 62.1421 39.8511C62.1421 43.8708 65.3891 47.1294 69.3946 47.1294Z" fill="#2F853F"/>
<path d="M42.9439 256.486C46.9494 256.486 50.1964 253.228 50.1964 249.208C50.1964 245.189 46.9494 241.93 42.9439 241.93C38.9385 241.93 35.6914 245.189 35.6914 249.208C35.6914 253.228 38.9385 256.486 42.9439 256.486Z" fill="#2F853F"/>
<path d="M209.752 75.3861C213.757 75.3861 217.004 72.1275 217.004 68.1079C217.004 64.0882 213.757 60.8296 209.752 60.8296C205.746 60.8296 202.499 64.0882 202.499 68.1079C202.499 72.1275 205.746 75.3861 209.752 75.3861Z" fill="#2F853F"/>
</g>
<defs>
<clipPath id="clip0_1161_4722">
<rect width="244" height="295" fill="white" transform="translate(0.87793 0.247559)"/>
</clipPath>
</defs>
</svg>
