<svg width="422" height="450" viewBox="0 0 422 450" fill="none" xmlns="http://www.w3.org/2000/svg">
<circle cx="210.878" cy="239.101" r="210.528" fill="#FFF6B4"/>
<g clip-path="url(#clip0_1643_9278)">
<path d="M90.6225 141.342C91.519 142.845 92.7329 144.132 94.1787 145.113C95.6245 146.093 97.2671 146.744 98.9906 147.019C100.714 147.294 102.477 147.186 104.154 146.703C105.832 146.221 107.384 145.375 108.7 144.225L145.499 165.406L144.127 143.326L109.393 126.598C107.322 124.506 104.558 123.249 101.626 123.066C98.6932 122.883 95.7956 123.785 93.4818 125.603C91.1681 127.42 89.5991 130.026 89.0721 132.927C88.5451 135.828 89.0967 138.822 90.6225 141.342Z" fill="#FFB8B8"/>
<path d="M197.158 226.19C186.242 241.522 186.633 267.173 189.678 295.248H241.288L243.532 289.993L246.524 295.248H295.142C295.142 295.248 291.402 223.938 284.67 221.686C277.939 219.434 197.158 226.19 197.158 226.19Z" fill="#2F2E41"/>
<path d="M241.288 66.0011C255.746 66.0011 267.467 54.2388 267.467 39.7293C267.467 25.2197 255.746 13.4574 241.288 13.4574C226.83 13.4574 215.109 25.2197 215.109 39.7293C215.109 54.2388 226.83 66.0011 241.288 66.0011Z" fill="#FFB8B8"/>
<path d="M260.209 72.8174L265.329 82.6645L300.738 98.5054L291.43 188.9L287.513 198.26L289.63 206.389L284.527 212.389C289.649 217.04 290.299 221.909 287.513 226.945L271.207 230.694C271.207 230.694 180.542 238.785 188.182 224.689C196.531 209.287 198.657 163.802 180.227 139.495C164.579 118.86 176.592 92.0834 176.592 92.0834L213.708 80.9519L227.36 72.8174L260.209 72.8174Z" fill="#3F3D56"/>
<path d="M252.911 1.24516C253.034 0.98395 253.232 0.765602 253.479 0.618158C253.727 0.470714 254.013 0.400905 254.3 0.417699C242.315 -0.301766 229.691 1.1001 219.664 7.7282C217.235 9.33398 214.945 11.2493 212.301 12.4142C212.176 12.4704 212.068 12.5581 211.987 12.6687C211.906 12.7793 211.855 12.909 211.839 13.0453C211.823 13.1816 211.842 13.3198 211.894 13.4465C211.947 13.5732 212.031 13.684 212.139 13.7683L212.43 13.9968C212.544 14.087 212.632 14.2069 212.683 14.3436C212.735 14.4803 212.748 14.6285 212.721 14.7721C212.694 14.9157 212.629 15.0492 212.532 15.1581C212.435 15.267 212.31 15.3471 212.17 15.3897C212.025 15.4341 211.896 15.5192 211.797 15.635C211.699 15.7508 211.635 15.8924 211.614 16.0432C211.593 16.1941 211.615 16.3478 211.679 16.4862C211.742 16.6247 211.843 16.7422 211.97 16.8249L214.195 18.268C214.307 18.3394 214.4 18.4379 214.464 18.5545C214.528 18.671 214.562 18.8019 214.563 18.9351C214.564 19.0683 214.531 19.1996 214.468 19.3168C214.405 19.4341 214.314 19.5336 214.203 19.6062C214.014 19.723 213.816 19.8237 213.611 19.9073C213.483 19.9554 213.37 20.0358 213.282 20.1406C213.194 20.2454 213.135 20.3712 213.11 20.5057C213.084 20.6403 213.094 20.7791 213.138 20.9088C213.182 21.0385 213.258 21.1547 213.359 21.2463C214.323 22.1071 215.062 23.1913 215.512 24.4044C216.254 26.3395 216.387 28.447 216.512 30.5164C217.278 27.5304 220.526 25.7728 223.593 25.5942C226.66 25.4156 229.652 26.4312 232.637 27.1613C239.139 28.7469 245.891 29.0076 252.495 27.928C250.253 32.4442 252.144 37.8312 254.048 42.5015L260.209 39.8511C268.672 35.0574 262.777 55.3358 259.614 58.1196C266.073 60.3671 282.98 35.4227 277.541 25.9607C274.712 21.0387 276.72 14.6905 271.158 10.0224C268.432 7.14224 262.989 8.42235 260.209 6.02863C259.116 5.0865 260.783 2.56597 259.28 2.01667C258.78 1.83422 252.993 1.06128 252.911 1.24516Z" fill="#2F2E41"/>
<path d="M208.567 83.495C203.763 104.897 191.443 154.869 178.943 165.32C178.15 166.071 177.2 166.634 176.161 166.968C132.224 177.71 118.146 150.309 118.146 150.309C118.146 150.309 129.92 144.551 130.219 133.295L153.964 140.689L174.664 93.9414L177.71 91.0901L177.727 91.073L208.567 83.495Z" fill="#3F3D56"/>
<path d="M302.249 281.135C303.507 279.922 304.484 278.446 305.113 276.812C305.741 275.178 306.005 273.426 305.885 271.678C305.766 269.931 305.266 268.231 304.421 266.699C303.576 265.167 302.407 263.839 300.995 262.809L313.312 222.071L292.178 228.363L283.722 266.084C282.155 268.578 281.554 271.563 282.034 274.472C282.513 277.381 284.04 280.013 286.323 281.868C288.607 283.723 291.49 284.673 294.425 284.538C297.36 284.403 300.144 283.193 302.249 281.135Z" fill="#FFB8B8"/>
<path d="M290.975 96.2263L300.738 98.5054C300.738 98.5054 341.089 177.294 331.366 192.306C321.642 207.319 309.73 257.021 309.73 257.021C309.73 257.021 292.112 253.506 285.38 244.499L297.707 185.551L284.992 136.009L290.975 96.2263Z" fill="#3F3D56"/>
<path d="M105.763 213.225L106.114 86.3311C106.124 83.7627 107.148 81.3033 108.963 79.4922C110.778 77.6812 113.234 76.6664 115.793 76.6707L211.287 76.9364C213.847 76.9464 216.297 77.9748 218.102 79.7959C219.907 81.617 220.918 84.0821 220.913 86.6505L220.563 213.544C220.553 216.113 219.528 218.572 217.714 220.383C215.899 222.194 213.442 223.209 210.883 223.205L115.389 222.939C112.83 222.929 110.379 221.901 108.575 220.079C106.77 218.258 105.759 215.793 105.763 213.225Z" fill="#E6E6E6"/>
<path d="M113.194 174.918L113.419 93.3391C113.429 90.9338 114.388 88.6304 116.088 86.9343C117.787 85.2382 120.088 84.2879 122.485 84.2919L204.554 84.5202C206.95 84.5295 209.246 85.4926 210.936 87.1981C212.626 88.9037 213.573 91.2124 213.569 93.6178L213.257 206.536C213.248 208.941 212.288 211.245 210.589 212.941C208.889 214.637 206.588 215.587 204.191 215.583L153.351 215.442C142.675 215.4 132.451 211.11 124.923 203.513C117.395 195.916 113.176 185.632 113.194 174.918Z" fill="white"/>
<path d="M195.15 120.126H131.157C130.139 120.126 129.163 119.72 128.442 118.998C127.722 118.275 127.318 117.295 127.318 116.273C127.318 115.251 127.722 114.271 128.442 113.548C129.163 112.826 130.139 112.42 131.157 112.42H195.15C196.168 112.42 197.145 112.826 197.865 113.548C198.585 114.271 198.99 115.251 198.99 116.273C198.99 117.295 198.585 118.275 197.865 118.998C197.145 119.72 196.168 120.126 195.15 120.126Z" fill="#2F853F"/>
<path d="M145.236 102.358H131.157C130.139 102.358 129.163 101.953 128.442 101.23C127.722 100.507 127.318 99.5272 127.318 98.5053C127.318 97.4834 127.722 96.5033 128.442 95.7807C129.163 95.0581 130.139 94.6521 131.157 94.6521H145.236C146.254 94.6521 147.231 95.0581 147.951 95.7807C148.671 96.5033 149.075 97.4834 149.075 98.5053C149.075 99.5272 148.671 100.507 147.951 101.23C147.231 101.953 146.254 102.358 145.236 102.358Z" fill="#2F853F"/>
<path d="M195.15 137.894H131.157C130.139 137.894 129.163 137.488 128.442 136.765C127.722 136.042 127.318 135.062 127.318 134.04C127.318 133.019 127.722 132.038 128.442 131.316C129.163 130.593 130.139 130.187 131.157 130.187H195.15C196.168 130.187 197.145 130.593 197.865 131.316C198.585 132.038 198.99 133.019 198.99 134.04C198.99 135.062 198.585 136.042 197.865 136.765C197.145 137.488 196.168 137.894 195.15 137.894Z" fill="#2F853F"/>
<path d="M195.15 155.661H131.157C130.139 155.661 129.163 155.255 128.442 154.533C127.722 153.81 127.318 152.83 127.318 151.808C127.318 150.786 127.722 149.806 128.442 149.083C129.163 148.361 130.139 147.955 131.157 147.955H195.15C196.168 147.955 197.145 148.361 197.865 149.083C198.585 149.806 198.99 150.786 198.99 151.808C198.99 152.83 198.585 153.81 197.865 154.533C197.145 155.255 196.168 155.661 195.15 155.661Z" fill="#2F853F"/>
<path d="M189.972 202.478C198.41 202.478 205.25 195.613 205.25 187.146C205.25 178.678 198.41 171.814 189.972 171.814C181.534 171.814 174.694 178.678 174.694 187.146C174.694 195.613 181.534 202.478 189.972 202.478Z" fill="#2F853F"/>
<path d="M187.888 195.125C187.624 195.125 187.364 195.064 187.128 194.945C186.892 194.827 186.687 194.655 186.529 194.443L182.361 188.866C182.226 188.687 182.129 188.483 182.073 188.266C182.017 188.049 182.005 187.823 182.036 187.601C182.068 187.379 182.143 187.165 182.256 186.973C182.37 186.78 182.521 186.611 182.699 186.477C182.878 186.342 183.081 186.244 183.298 186.189C183.514 186.133 183.739 186.121 183.96 186.153C184.181 186.185 184.394 186.26 184.586 186.374C184.778 186.489 184.946 186.64 185.08 186.82L187.807 190.468L194.81 179.926C194.934 179.738 195.093 179.578 195.278 179.452C195.464 179.327 195.672 179.24 195.891 179.195C196.11 179.151 196.336 179.15 196.556 179.194C196.775 179.237 196.984 179.324 197.17 179.448C197.356 179.573 197.516 179.733 197.64 179.919C197.764 180.106 197.85 180.315 197.894 180.535C197.938 180.755 197.937 180.982 197.893 181.202C197.849 181.422 197.763 181.631 197.638 181.818L189.302 194.366C189.151 194.593 188.949 194.78 188.711 194.912C188.473 195.044 188.207 195.117 187.935 195.125C187.92 195.125 187.904 195.125 187.888 195.125Z" fill="white"/>
<path d="M157.395 47.1294C161.4 47.1294 164.647 43.8708 164.647 39.8511C164.647 35.8315 161.4 32.5729 157.395 32.5729C153.389 32.5729 150.142 35.8315 150.142 39.8511C150.142 43.8708 153.389 47.1294 157.395 47.1294Z" fill="#2F853F"/>
<path d="M130.944 256.486C134.949 256.486 138.196 253.228 138.196 249.208C138.196 245.189 134.949 241.93 130.944 241.93C126.938 241.93 123.691 245.189 123.691 249.208C123.691 253.228 126.938 256.486 130.944 256.486Z" fill="#2F853F"/>
<path d="M297.752 75.3861C301.757 75.3861 305.004 72.1275 305.004 68.1079C305.004 64.0882 301.757 60.8296 297.752 60.8296C293.746 60.8296 290.499 64.0882 290.499 68.1079C290.499 72.1275 293.746 75.3861 297.752 75.3861Z" fill="#2F853F"/>
</g>
<defs>
<clipPath id="clip0_1643_9278">
<rect width="244" height="295" fill="white" transform="translate(88.8779 0.247559)"/>
</clipPath>
</defs>
</svg>
