<svg width="399" height="343" viewBox="0 0 399 343" fill="none" xmlns="http://www.w3.org/2000/svg">
<g clip-path="url(#clip0_1161_4742)">
<path d="M0.492188 338.905C0.492188 339.404 0.894255 339.805 1.39493 339.805H397.589C398.09 339.805 398.492 339.404 398.492 338.905C398.492 338.406 398.09 338.005 397.589 338.005H1.39493C0.89425 338.005 0.492188 338.406 0.492188 338.905Z" fill="#3F3C57"/>
<path d="M129.759 36.7146L134.068 56.318L124.903 83.6041L110.139 54.2874L112.187 37.2796L129.759 36.7146Z" fill="#FDB4B4"/>
<path d="M134.868 55.3027H109.375V86.0154H134.868V55.3027Z" fill="#2F853F"/>
<path d="M124.385 46.5892C134 46.5892 141.795 38.8171 141.795 29.2298C141.795 19.6424 134 11.8704 124.385 11.8704C114.77 11.8704 106.975 19.6424 106.975 29.2298C106.975 38.8171 114.77 46.5892 124.385 46.5892Z" fill="#FDB4B4"/>
<path d="M109.23 42.1383C109.23 42.1383 96.253 18.2407 107.954 6.74062C119.654 -4.75949 129.047 2.81836 129.047 2.81836L134.411 2.60223C134.411 2.60223 135.529 6.81104 137.333 4.53263C139.137 2.25422 142.396 10.5519 142.396 10.5519C148.446 21.4155 127.474 23.8491 127.474 23.8491C127.474 23.8491 128.988 28.6592 127.449 29.6665C125.91 30.6739 121.797 34.4633 121.797 34.4633L118.116 37.2354L115.928 33.912C115.928 33.912 113.643 32.1135 112.489 32.869C111.334 33.6245 112.922 43.565 112.922 43.565L109.23 42.1383Z" fill="#2E2E41"/>
<path d="M88.3447 217.949L81.6885 316.95L98.0518 317.503L119.685 218.778L88.3447 217.949Z" fill="#2E2E41"/>
<path d="M128.005 217.396L121.349 316.397L137.712 316.95L159.345 218.225L128.005 217.396Z" fill="#2E2E41"/>
<path d="M84.3364 240.567L93.0474 132.741L79.6887 76.5936C78.537 68.2472 83.8112 60.3498 91.9513 58.1964L105.023 54.7385L110.809 48.9694L123.968 77.9462L132.187 48.9915L138.597 53.6397L157.608 62.0025L157.599 62.1984L154.55 130.024L161.357 239.607L161.055 239.611L84.3364 240.567Z" fill="#FDFAF5"/>
<path d="M136.661 315.825L141.399 329.928C141.399 329.928 159.936 332.441 160.224 338.163C160.513 343.885 135.032 340.573 120.112 341.32C105.192 342.068 117.612 325.958 117.612 325.958L119.202 316.7L136.661 315.825Z" fill="#2E2E41"/>
<path d="M97.968 314.81L102.706 328.913C102.706 328.913 121.242 331.426 121.531 337.148C121.819 342.87 96.3389 339.558 81.4187 340.305C66.4984 341.053 78.9184 324.942 78.9184 324.942L80.5083 315.685L97.968 314.81Z" fill="#2E2E41"/>
<path d="M74.8514 183.302C74.6505 180.521 75.1205 177.733 76.2222 175.171L72.686 146.247L86.5382 144.972L88.6334 174.449C90.0254 176.866 90.8168 179.58 90.9413 182.364C91.3487 189.329 88.077 195.182 83.6334 195.44C79.1898 195.699 75.2577 190.264 74.8514 183.302Z" fill="#FDB4B4"/>
<path d="M162.587 187.548C162.417 184.765 162.917 181.982 164.047 179.432L160.827 150.471L174.692 149.346L176.465 178.845C177.831 181.277 178.592 183.999 178.686 186.785C179.018 193.753 175.682 199.57 171.236 199.78C166.79 199.991 162.917 194.514 162.587 187.548Z" fill="#FDB4B4"/>
<path d="M72.6289 171.703L72.5821 171.453L65.3628 132.83L73.8931 69.9377C74.6543 64.3227 79.6827 60.278 85.353 60.73C88.3143 60.9664 90.9711 62.3668 92.8349 64.6738C94.6983 66.9809 95.5046 69.8678 95.1051 72.8031L88.6849 119.972L92.7271 170.423L72.6289 171.703Z" fill="#FDFAF5"/>
<path d="M158.309 170.796L143.794 74.1912C143.04 71.3585 143.482 68.3941 145.044 65.875C146.607 63.3559 149.07 61.6383 151.979 61.0383C157.545 59.8905 163.041 63.2829 164.494 68.7603L178.438 169.583L158.309 170.796Z" fill="#FDFAF5"/>
<path d="M124.394 86.7769C125.378 86.7769 126.176 85.9814 126.176 85.0002C126.176 84.0189 125.378 83.2234 124.394 83.2234C123.41 83.2234 122.612 84.0189 122.612 85.0002C122.612 85.9814 123.41 86.7769 124.394 86.7769Z" fill="#D6D7D8"/>
<path d="M124.394 100.23C125.378 100.23 126.176 99.4341 126.176 98.4528C126.176 97.4715 125.378 96.676 124.394 96.676C123.41 96.676 122.612 97.4715 122.612 98.4528C122.612 99.4341 123.41 100.23 124.394 100.23Z" fill="#D6D7D8"/>
<path d="M124.394 113.682C125.378 113.682 126.176 112.887 126.176 111.906C126.176 110.924 125.378 110.129 124.394 110.129C123.41 110.129 122.612 110.924 122.612 111.906C122.612 112.887 123.41 113.682 124.394 113.682Z" fill="#D6D7D8"/>
<path d="M124.394 127.135C125.378 127.135 126.176 126.339 126.176 125.358C126.176 124.377 125.378 123.581 124.394 123.581C123.41 123.581 122.612 124.377 122.612 125.358C122.612 126.339 123.41 127.135 124.394 127.135Z" fill="#D6D7D8"/>
<path d="M124.394 140.588C125.378 140.588 126.176 139.792 126.176 138.811C126.176 137.83 125.378 137.034 124.394 137.034C123.41 137.034 122.612 137.83 122.612 138.811C122.612 139.792 123.41 140.588 124.394 140.588Z" fill="#D6D7D8"/>
<path d="M124.394 154.04C125.378 154.04 126.176 153.245 126.176 152.263C126.176 151.282 125.378 150.487 124.394 150.487C123.41 150.487 122.612 151.282 122.612 152.263C122.612 153.245 123.41 154.04 124.394 154.04Z" fill="#D6D7D8"/>
<path d="M124.394 167.493C125.378 167.493 126.176 166.697 126.176 165.716C126.176 164.735 125.378 163.939 124.394 163.939C123.41 163.939 122.612 164.735 122.612 165.716C122.612 166.697 123.41 167.493 124.394 167.493Z" fill="#D6D7D8"/>
<path d="M124.394 180.946C125.378 180.946 126.176 180.15 126.176 179.169C126.176 178.188 125.378 177.392 124.394 177.392C123.41 177.392 122.612 178.188 122.612 179.169C122.612 180.15 123.41 180.946 124.394 180.946Z" fill="#D6D7D8"/>
<path d="M124.396 191.352L90.68 186.872L90.0308 186.786L72.7991 147.169L62.5371 123.582H89.2666L124.396 191.352Z" fill="#2F853F"/>
<path d="M259.581 41.0247L281.017 29.3156V62.7702H256.226L259.581 41.0247Z" fill="#2E2E41"/>
<path d="M285.612 48.4835L287.591 64.9077L273.333 93.2184L264.483 66.8686L268.644 47.9379L285.612 48.4835Z" fill="#FDB4B4"/>
<path d="M288.328 65.8882H263.71V95.547H288.328V65.8882Z" fill="#2F853F"/>
<path d="M308.637 222.953L315.065 318.557L299.263 319.091L278.373 223.754L308.637 222.953Z" fill="#2E2E41"/>
<path d="M270.338 222.419L276.766 318.023L260.964 318.557L240.073 223.22L270.338 222.419Z" fill="#2E2E41"/>
<path d="M325.332 243.23L324.955 243.229L224.29 242.901L224.38 242.546L250.261 140.303L243.778 88.705C242.55 78.9278 247.799 69.6862 256.84 65.7091L260.104 64.2735L266.305 59.7772L274.237 87.7259L286.941 59.7554L292.537 65.3343L305.156 68.673C313.023 70.7537 318.119 78.3848 317.011 86.4235L316.997 86.4794L297.725 141.312L325.332 243.23Z" fill="#FDFAF5"/>
<path d="M261.978 317.471L278.839 318.316L280.374 327.256C280.374 327.256 292.368 342.814 277.96 342.092C263.552 341.369 238.945 344.568 239.224 339.042C239.503 333.517 257.403 331.09 257.403 331.09L261.978 317.471Z" fill="#2E2E41"/>
<path d="M299.344 316.49L316.205 317.335L317.74 326.275C317.74 326.275 329.734 341.833 315.326 341.111C300.917 340.389 276.311 343.588 276.59 338.062C276.868 332.536 294.769 330.11 294.769 330.11L299.344 316.49Z" fill="#2E2E41"/>
<path d="M314.784 188.515C314.392 195.238 310.595 200.486 306.304 200.236C302.012 199.987 298.853 194.335 299.246 187.609C299.367 184.92 300.131 182.299 301.475 179.965L303.499 151.5L316.875 152.731L313.461 180.663C314.524 183.137 314.978 185.83 314.784 188.515Z" fill="#FDB4B4"/>
<path d="M246.042 185.958C245.506 192.672 241.598 197.838 237.313 197.497C233.028 197.157 229.99 191.439 230.527 184.723C230.705 182.037 231.525 179.433 232.919 177.128L235.549 148.712L248.897 150.227L244.886 178.08C245.897 180.576 246.294 183.278 246.042 185.958Z" fill="#FDB4B4"/>
<path d="M316.938 177.324L297.511 176.087L297.534 175.797L301.415 127.358L295.216 81.8089C294.829 78.9718 295.609 76.1811 297.41 73.9512C299.211 71.7211 301.779 70.3675 304.642 70.1389C310.123 69.7081 314.983 73.6119 315.719 79.0392L323.957 139.775L323.948 139.821L316.938 177.324Z" fill="#FDFAF5"/>
<path d="M249.277 175.468L229.818 174.295L229.861 173.989L243.279 76.9548C244.69 71.6254 250.005 68.3474 255.383 69.4563C258.195 70.0362 260.575 71.6965 262.086 74.1316C263.596 76.5668 264.023 79.4319 263.288 82.1997L249.277 175.468Z" fill="#FDFAF5"/>
<path d="M273.824 96.2823C274.775 96.2823 275.545 95.5141 275.545 94.5665C275.545 93.6189 274.775 92.8507 273.824 92.8507C272.874 92.8507 272.104 93.6189 272.104 94.5665C272.104 95.5141 272.874 96.2823 273.824 96.2823Z" fill="#D6D7D8"/>
<path d="M273.824 109.273C274.775 109.273 275.545 108.505 275.545 107.558C275.545 106.61 274.775 105.842 273.824 105.842C272.874 105.842 272.104 106.61 272.104 107.558C272.104 108.505 272.874 109.273 273.824 109.273Z" fill="#D6D7D8"/>
<path d="M273.824 122.264C274.775 122.264 275.545 121.496 275.545 120.549C275.545 119.601 274.775 118.833 273.824 118.833C272.874 118.833 272.104 119.601 272.104 120.549C272.104 121.496 272.874 122.264 273.824 122.264Z" fill="#D6D7D8"/>
<path d="M273.824 135.255C274.775 135.255 275.545 134.487 275.545 133.54C275.545 132.592 274.775 131.824 273.824 131.824C272.874 131.824 272.104 132.592 272.104 133.54C272.104 134.487 272.874 135.255 273.824 135.255Z" fill="#D6D7D8"/>
<path d="M273.824 148.247C274.775 148.247 275.545 147.478 275.545 146.531C275.545 145.583 274.775 144.815 273.824 144.815C272.874 144.815 272.104 145.583 272.104 146.531C272.104 147.478 272.874 148.247 273.824 148.247Z" fill="#D6D7D8"/>
<path d="M273.824 161.238C274.775 161.238 275.545 160.469 275.545 159.522C275.545 158.574 274.775 157.806 273.824 157.806C272.874 157.806 272.104 158.574 272.104 159.522C272.104 160.469 272.874 161.238 273.824 161.238Z" fill="#D6D7D8"/>
<path d="M273.824 174.229C274.775 174.229 275.545 173.461 275.545 172.513C275.545 171.565 274.775 170.797 273.824 170.797C272.874 170.797 272.104 171.565 272.104 172.513C272.104 173.461 272.874 174.229 273.824 174.229Z" fill="#D6D7D8"/>
<path d="M273.824 187.22C274.775 187.22 275.545 186.451 275.545 185.504C275.545 184.556 274.775 183.788 273.824 183.788C272.874 183.788 272.104 184.556 272.104 185.504C272.104 186.451 272.874 187.22 273.824 187.22Z" fill="#D6D7D8"/>
<path d="M276.437 56.8657C285.326 56.8657 292.532 49.6804 292.532 40.8169C292.532 31.9535 285.326 24.7682 276.437 24.7682C267.547 24.7682 260.341 31.9535 260.341 40.8169C260.341 49.6804 267.547 56.8657 276.437 56.8657Z" fill="#FDB4B4"/>
<path d="M284.872 22.0821C285.643 23.6461 284.42 25.5998 282.801 26.2574C281.182 26.915 279.354 26.6486 277.627 26.3748C275.901 26.1011 274.07 25.8416 272.456 26.5108C270.367 27.3767 269.19 29.5488 268.176 31.5644C266.282 35.3273 264.388 39.0901 262.495 42.853C261.57 44.6914 260.623 46.6126 260.606 48.6694C260.573 52.4449 263.577 55.4622 265.193 58.8767C267.161 63.0341 266.998 68.1289 264.77 72.1533C262.542 76.1778 258.304 79.0293 253.727 79.5839C252.523 79.7299 251.249 79.714 250.166 79.1685C249.083 78.6231 248.257 77.4318 248.457 76.2389C248.85 73.9058 252.425 73.3606 253.082 71.0873C253.425 69.9006 252.817 68.6333 251.999 67.7064C251.181 66.7795 250.146 66.0565 249.365 65.0977C247.565 62.887 247.445 59.4742 249.085 57.1433C250.05 55.7734 251.541 54.7556 252.164 53.2017C252.695 51.8772 252.502 50.3883 252.301 48.976C252.042 47.1613 251.784 45.3465 251.525 43.5318C251.224 41.4145 250.927 39.2213 251.523 37.167C252.889 32.4594 258.22 30.2484 261.346 26.467C262.799 24.7098 263.776 22.5965 265.267 20.871C267.768 17.9753 271.705 16.3778 275.524 16.7099C279.342 17.042 282.943 19.295 284.903 22.5788" fill="#2E2E41"/>
<path d="M282.331 22.3789C281.545 22.6593 281.253 23.6805 281.479 24.4821C281.705 25.2836 282.298 25.9205 282.841 26.5535C288.977 33.7136 290.403 44.5438 286.329 53.0405C285.245 55.3006 283.801 57.4276 283.217 59.8639C282.792 61.6366 282.814 63.5811 281.828 65.1158C280.824 66.6783 278.834 67.7252 278.637 69.5705C278.511 70.7547 279.235 71.905 280.205 72.5993C281.176 73.2935 282.361 73.6112 283.527 73.8702C286.557 74.5434 289.655 74.911 292.759 74.9654C293.771 74.9831 294.815 74.9613 295.743 74.5593C296.672 74.1573 297.464 73.2854 297.474 72.2763C297.483 71.4832 297.024 70.7516 296.965 69.9607C296.79 67.5906 299.989 66.3298 300.612 64.036C301.021 62.5279 300.214 60.9761 299.354 59.6699C298.494 58.3638 297.513 56.9923 297.534 55.43C297.555 53.9344 298.496 52.6173 298.862 51.1667C299.368 49.1603 298.746 47.0616 298.13 45.0862C297.605 43.4067 297.081 41.7272 296.557 40.0478C296 38.2624 295.443 36.4771 294.885 34.6918C293.912 31.5749 292.891 28.3678 290.786 25.868C288.681 23.3681 285.192 21.7296 282.083 22.7503" fill="#2E2E41"/>
<path d="M293.298 84.568L292.195 84.2474C294.493 76.3897 289.538 61.7262 289.488 61.579L290.575 61.2092C290.786 61.8244 295.698 76.3662 293.298 84.568Z" fill="#3F3C57"/>
<path d="M292.747 93.5933C295.398 93.5933 297.547 91.4505 297.547 88.8072C297.547 86.1638 295.398 84.021 292.747 84.021C290.096 84.021 287.947 86.1638 287.947 88.8072C287.947 91.4505 290.096 93.5933 292.747 93.5933Z" fill="#3F3C57"/>
<path d="M261.207 105.752H258.296C257.979 105.752 257.722 105.495 257.722 105.179C257.722 104.862 257.979 104.606 258.296 104.606H261.207C262.01 104.606 262.763 104.294 263.33 103.728C263.896 103.162 264.208 102.41 264.206 101.61L264.171 83.7318C264.171 79.8479 261.002 76.689 257.108 76.689C253.214 76.689 250.046 79.8479 250.046 83.7307L250.081 100.465C250.084 102.098 251.419 103.436 253.057 103.449L255.055 103.464C255.372 103.466 255.627 103.724 255.625 104.041C255.623 104.356 255.366 104.61 255.05 104.61H255.046L253.048 104.594C250.783 104.577 248.936 102.725 248.932 100.467L248.896 83.7318C248.896 79.2162 252.58 75.5432 257.108 75.5432C261.636 75.5432 265.32 79.2162 265.32 83.7307L265.355 101.608C265.357 102.714 264.927 103.755 264.143 104.537C263.36 105.32 262.317 105.752 261.207 105.752Z" fill="#3F3C57"/>
<path d="M255.05 106.067C256.175 106.067 257.087 105.158 257.087 104.037C257.087 102.915 256.175 102.006 255.05 102.006C253.925 102.006 253.014 102.915 253.014 104.037C253.014 105.158 253.925 106.067 255.05 106.067Z" fill="#3F3C57"/>
<path d="M258.296 107.21C259.421 107.21 260.333 106.3 260.333 105.179C260.333 104.057 259.421 103.148 258.296 103.148C257.172 103.148 256.26 104.057 256.26 105.179C256.26 106.3 257.172 107.21 258.296 107.21Z" fill="#3F3C57"/>
<path d="M140.73 75.9802L139.627 75.6596C141.926 67.802 137.026 52.9113 136.976 52.7642L138.354 53.8006C138.565 54.4158 143.13 67.7785 140.73 75.9802Z" fill="#3F3C57"/>
<path d="M101.952 77.3763L103.055 77.0557C100.757 69.198 105.713 54.5345 105.763 54.3873L104.583 55.1755C104.372 55.7907 99.5529 69.1745 101.952 77.3763Z" fill="#3F3C57"/>
<path d="M140.179 85.0057C142.83 85.0057 144.979 82.8628 144.979 80.2195C144.979 77.5762 142.83 75.4333 140.179 75.4333C137.528 75.4333 135.379 77.5762 135.379 80.2195C135.379 82.8628 137.528 85.0057 140.179 85.0057Z" fill="#3F3C57"/>
<path d="M107.07 106.809H104.159C103.841 106.809 103.584 106.553 103.584 106.236C103.584 105.92 103.841 105.664 104.159 105.664H107.07C107.872 105.664 108.626 105.352 109.192 104.786C109.758 104.22 110.07 103.468 110.068 102.668L110.033 84.7894C110.033 80.9055 106.865 77.7467 102.971 77.7467C99.0765 77.7467 95.9079 80.9055 95.9079 84.7883L95.9433 101.523C95.9467 103.155 97.2816 104.494 98.9189 104.506L100.917 104.521C101.234 104.524 101.489 104.782 101.487 105.099C101.485 105.413 101.228 105.667 100.913 105.667H100.908L98.9099 105.652C96.6452 105.635 94.7986 103.783 94.7941 101.525L94.7588 84.7894C94.7588 80.2738 98.4425 76.6008 102.971 76.6008C107.498 76.6008 111.182 80.2738 111.182 84.7883L111.217 102.666C111.22 103.772 110.789 104.812 110.005 105.595C109.222 106.378 108.179 106.809 107.07 106.809Z" fill="#3F3C57"/>
<path d="M100.912 107.125C102.037 107.125 102.949 106.216 102.949 105.094C102.949 103.973 102.037 103.064 100.912 103.064C99.7878 103.064 98.876 103.973 98.876 105.094C98.876 106.216 99.7878 107.125 100.912 107.125Z" fill="#3F3C57"/>
<path d="M104.159 108.267C105.283 108.267 106.195 107.358 106.195 106.236C106.195 105.115 105.283 104.206 104.159 104.206C103.034 104.206 102.122 105.115 102.122 106.236C102.122 107.358 103.034 108.267 104.159 108.267Z" fill="#3F3C57"/>
</g>
<defs>
<clipPath id="clip0_1161_4742">
<rect width="398" height="342" fill="white" transform="translate(0.492188 0.368652)"/>
</clipPath>
</defs>
</svg>
