<svg width="422" height="439" viewBox="0 0 422 439" fill="none" xmlns="http://www.w3.org/2000/svg">
<circle cx="210.763" cy="228.101" r="210.528" fill="#FFF6B4"/>
<g clip-path="url(#clip0_1643_9277)">
<path d="M121.452 229.56L98.7088 232.035L87.8248 224.611L81.5264 232.035L84.5527 247.696L88.0091 260.061L109.001 249.395L125.907 247.865L121.452 229.56Z" fill="#FFB8B8"/>
<path d="M236.69 203.332L181.794 202.341L115.023 230.544L123.925 249.848L184.267 233.018L277.738 259.738L264.88 196.408L236.69 203.332Z" fill="#2F2E41"/>
<path d="M86.1117 231.358L97.0264 230.505L83.1468 201.173C83.1468 201.173 76.7178 198.898 75.7269 205.976C74.7361 213.046 83.1775 260.945 85.6508 260.945C88.1241 260.945 96.4196 256.103 96.4196 256.103L84.1377 232.842L86.1194 231.358L86.1117 231.358Z" fill="#2F2E41"/>
<path d="M359.786 223.328C358.688 223.443 357.49 223.62 356.215 223.881C350.807 224.98 350.7 228.654 350.746 229.491L350.707 229.468C350.162 230.336 349.824 231.22 349.617 232.058L349.371 220.807C349.532 220.477 349.678 220.093 349.801 219.708C350.208 220.953 350.869 222.129 351.437 222.052C352.182 221.952 352.505 219.762 352.366 218.21C353.311 219.424 354.901 220.73 355.5 220.331C355.976 220.008 355.692 218.686 355.17 217.488C356.261 218.148 357.467 218.579 357.843 218.156C358.358 217.587 357.129 215.643 356 214.56C357.513 214.698 359.441 214.46 359.564 213.768C359.671 213.199 358.519 212.485 357.298 212.024C358.527 211.701 359.679 211.132 359.64 210.571C359.594 209.903 357.889 209.457 356.414 209.395C357.528 208.527 358.55 207.321 358.235 206.775C357.95 206.275 356.614 206.468 355.377 206.906C356.107 205.861 356.622 204.685 356.23 204.285C355.746 203.786 354.018 204.646 352.835 205.607C353.065 204.116 352.95 202.233 352.282 202.064C351.721 201.918 350.93 203.017 350.385 204.208C350.147 202.956 349.655 201.772 349.094 201.772C348.295 201.772 347.65 204.185 347.65 205.753V206.007C347.573 205.914 347.481 205.814 347.374 205.714C346.245 204.623 344.071 203.409 343.51 203.978C343.118 204.377 343.633 205.553 344.363 206.598C343.126 206.16 341.79 205.96 341.505 206.468C341.121 207.144 342.773 208.819 344.109 209.634C344.032 209.626 343.94 209.618 343.856 209.611C342.289 209.503 339.839 209.987 339.785 210.786C339.747 211.347 340.899 211.916 342.128 212.239C340.899 212.7 339.754 213.415 339.862 213.983C339.985 214.675 341.913 214.913 343.426 214.775C342.297 215.858 341.068 217.803 341.582 218.371C341.959 218.786 343.165 218.356 344.255 217.703C343.733 218.902 343.449 220.223 343.925 220.546C344.555 220.969 346.298 219.493 347.212 218.225C347.12 219.778 347.489 221.914 348.226 221.998C348.534 222.037 348.864 221.706 349.156 221.199L348.319 233.295C348.127 234.701 349.371 235.624 349.486 236.2L349.663 244.392C349.463 243.808 349.186 243.208 348.818 242.617L348.779 242.64C348.825 241.794 348.718 238.129 343.311 237.03C342.035 236.769 340.837 236.592 339.739 236.477C338.441 236.338 337.934 238.113 339.109 238.69C340.806 239.52 342.404 240.565 343.234 241.802C345.361 244.968 348.295 243.139 348.718 242.855C349.186 243.631 349.494 244.415 349.686 245.16L349.778 249.51C349.755 249.61 349.74 249.671 349.74 249.671L349.786 249.687L350.016 260.215L352.167 260.199L351.399 249.441C351.529 248.857 351.929 246.882 351.399 244.83L350.631 236.377L349.632 233.057C349.778 232.027 350.116 230.874 350.8 229.729C351.214 230.014 354.156 231.843 356.284 228.677C357.113 227.439 358.711 226.394 360.408 225.564C361.576 224.988 361.077 223.213 359.779 223.351V223.328L359.786 223.328ZM349.985 248.234L349.947 246.39C350.031 247.089 350.024 247.712 349.985 248.234Z" fill="#2F853F"/>
<path d="M9.26318 260C9.26318 260.507 9.67028 260.914 10.1772 260.914H411.349C411.856 260.914 412.263 260.507 412.263 260C412.263 259.492 411.856 259.085 411.349 259.085H10.1772C9.67028 259.085 9.26318 259.492 9.26318 260Z" fill="#3F3D56"/>
<path d="M275.449 137.351L280.895 119.046L296.717 118.546L303.146 141.308L275.449 137.351Z" fill="#FFB8B8"/>
<path opacity="0.1" d="M275.449 137.351L280.895 119.046L296.717 118.546L303.146 141.308L275.449 137.351Z" fill="#FFB8B8"/>
<path d="M299.744 134.799L274.028 133.808L266.055 150.215L253.75 222.875L318.294 237.468C318.294 237.468 322.249 156.317 313.347 144.936C304.445 133.555 299.744 134.792 299.744 134.792V134.799Z" fill="#FDFAF5"/>
<path d="M224.424 77.9015C223.349 72.1763 219.531 68.0803 215.883 68.7643C212.234 69.4482 210.153 74.6431 211.228 80.376C211.627 82.6737 212.564 84.8331 213.97 86.6928L218.817 110.908L228.38 108.963L224.14 84.787C224.777 82.5431 224.869 80.1838 224.409 77.9015L224.424 77.9015Z" fill="#FFB8B8"/>
<path d="M295.896 141.393L243.373 131.042L228.61 86.6237L212.073 90.5429L228.664 156.155L288.115 163.979L295.896 141.393Z" fill="#FDFAF5"/>
<path d="M215.906 6.75591C215.852 6.80971 215.806 6.85581 215.752 6.90961C207.802 -0.990331 194.99 -1.05949 186.948 6.75591C178.883 14.5944 178.607 27.4664 186.334 35.6429L186.526 35.8427L214.984 65.1601L244.487 36.496L244.402 36.4114C244.448 36.3653 244.502 36.3192 244.556 36.2731C252.706 28.3578 252.89 15.3321 244.978 7.18626C237.067 -0.967277 224.048 -1.15171 215.906 6.7636V6.75591Z" fill="#2F853F"/>
<path d="M222.941 152.152C222.849 152.244 222.757 152.344 222.665 152.436C208.017 137.896 184.429 137.766 169.62 152.152C154.765 166.591 154.258 190.299 168.491 205.353L168.844 205.73L221.259 259.723L275.587 206.929L275.434 206.775C275.526 206.69 275.618 206.606 275.71 206.521C290.711 191.943 291.064 167.959 276.494 152.943C261.923 137.935 237.95 137.581 222.941 152.159V152.152Z" fill="#2F853F"/>
<path d="M303.078 212.331C303.078 212.331 322.488 228.507 315.283 238.321C308.086 248.134 283.599 265.702 272.538 260.253C261.477 254.805 238.519 215.428 238.519 215.428L232.512 255.765L216.797 254.374C216.797 254.374 205.383 197.399 215.906 188.662C226.436 179.924 274.366 195.371 274.366 195.371L303.07 212.339L303.078 212.331Z" fill="#2F2E41"/>
<path d="M220.721 249.018L216.22 263.012L206.842 276.161L214.031 286.927L236.882 271.873L236.805 264.126L233.218 259.293L230.684 250.025L220.721 249.018Z" fill="#FFB8B8"/>
<path d="M213.532 281.625L207.795 272.295L188.039 298.031C188.039 298.031 188.953 304.794 195.697 302.443C202.441 300.091 244.249 278.651 243.12 276.445C241.991 274.239 237.359 262.39 237.359 262.39L215.76 282.7L213.54 281.617L213.532 281.625Z" fill="#2F2E41"/>
<path d="M225.66 212.2C219.861 212.777 215.46 216.235 215.829 219.924C216.197 223.612 221.19 226.141 226.989 225.564C229.309 225.364 231.544 224.611 233.518 223.374L258.044 220.631L256.93 210.932L232.489 213.076C230.315 212.246 227.972 211.947 225.66 212.208L225.66 212.2Z" fill="#FFB8B8"/>
<path d="M295.051 146.434L280.211 197.891L234.709 208.773L237.182 225.603L303.953 214.713L316.865 156.132L295.051 146.434Z" fill="#FDFAF5"/>
<path d="M286.794 124.525C298.4 124.525 307.809 115.111 307.809 103.499C307.809 91.8873 298.4 82.4739 286.794 82.4739C275.187 82.4739 265.778 91.8873 265.778 103.499C265.778 115.111 275.187 124.525 286.794 124.525Z" fill="#FFB8B8"/>
<path d="M288.468 75.2272C287.861 75.5807 287.047 75.0427 286.847 74.3665C286.655 73.6902 286.878 72.9679 287.108 72.307C287.485 71.185 287.861 70.063 288.245 68.9487C289.052 66.5664 289.904 64.0996 291.648 62.286C294.275 59.5503 298.453 58.8509 302.217 59.3581C307.048 60.0037 311.811 62.6242 314.061 66.9507C316.304 71.2772 315.352 77.3174 311.296 80.0148C317.08 86.6467 319.092 94.0395 318.777 102.831C318.462 111.63 308.876 119.722 302.632 125.916C301.234 125.071 299.967 121.105 300.735 119.66C301.503 118.223 300.404 116.548 301.349 115.226C302.294 113.905 303.093 116.01 302.133 114.696C301.526 113.866 303.891 111.945 302.993 111.453C298.638 109.04 297.186 103.607 294.444 99.4419C291.141 94.4237 285.488 91.0194 279.512 90.4584C276.217 90.151 272.737 90.712 270.041 92.6255C267.338 94.539 265.594 97.9587 266.216 101.209C264.595 99.5648 263.789 97.1441 264.088 94.8541C264.396 92.564 265.801 90.443 267.798 89.2749C266.585 85.2635 267.622 80.6449 270.441 77.5403C273.26 74.4357 284.681 74.9659 288.791 75.7805L288.476 75.2349L288.468 75.2272Z" fill="#2F2E41"/>
<path d="M289.113 90.5736C294.559 91.1653 298.492 95.8838 301.81 100.241C303.723 102.754 305.727 105.528 305.681 108.687C305.635 111.876 303.5 114.619 302.478 117.647C300.811 122.596 302.432 128.475 306.403 131.864C302.486 132.609 298.246 129.666 297.57 125.731C296.779 121.151 300.251 116.733 299.844 112.099C299.483 108.018 296.272 104.883 293.538 101.832C290.803 98.7809 288.245 94.7388 289.497 90.8426L289.113 90.5813L289.113 90.5736Z" fill="#2F2E41"/>
</g>
<defs>
<clipPath id="clip0_1643_9277">
<rect width="403" height="302" fill="white" transform="translate(9.26318 0.939209)"/>
</clipPath>
</defs>
</svg>
