<svg width="423" height="462" viewBox="0 0 423 462" fill="none" xmlns="http://www.w3.org/2000/svg">
<circle cx="211.493" cy="251.101" r="210.528" fill="#FFF6B4"/>
<g clip-path="url(#clip0_1643_9279)">
<path d="M12.4922 338.905C12.4922 339.404 12.8943 339.805 13.3949 339.805H409.589C410.09 339.805 410.492 339.404 410.492 338.905C410.492 338.406 410.09 338.005 409.589 338.005H13.3949C12.8942 338.005 12.4922 338.406 12.4922 338.905Z" fill="#3F3C57"/>
<path d="M141.759 36.7146L146.068 56.318L136.903 83.6041L122.139 54.2874L124.187 37.2796L141.759 36.7146Z" fill="#FDB4B4"/>
<path d="M146.868 55.3027H121.375V86.0154H146.868V55.3027Z" fill="#2F853F"/>
<path d="M136.385 46.5892C146 46.5892 153.795 38.8171 153.795 29.2298C153.795 19.6424 146 11.8704 136.385 11.8704C126.77 11.8704 118.975 19.6424 118.975 29.2298C118.975 38.8171 126.77 46.5892 136.385 46.5892Z" fill="#FDB4B4"/>
<path d="M121.23 42.1383C121.23 42.1383 108.253 18.2407 119.954 6.74062C131.654 -4.75949 141.047 2.81836 141.047 2.81836L146.411 2.60223C146.411 2.60223 147.529 6.81104 149.333 4.53263C151.137 2.25422 154.396 10.5519 154.396 10.5519C160.446 21.4155 139.474 23.8491 139.474 23.8491C139.474 23.8491 140.988 28.6592 139.449 29.6665C137.91 30.6739 133.797 34.4633 133.797 34.4633L130.116 37.2354L127.928 33.912C127.928 33.912 125.643 32.1135 124.489 32.869C123.334 33.6245 124.922 43.565 124.922 43.565L121.23 42.1383Z" fill="#2E2E41"/>
<path d="M100.345 217.949L93.6885 316.95L110.052 317.503L131.685 218.778L100.345 217.949Z" fill="#2E2E41"/>
<path d="M140.005 217.396L133.349 316.397L149.712 316.95L171.345 218.225L140.005 217.396Z" fill="#2E2E41"/>
<path d="M96.3364 240.567L105.047 132.741L91.6887 76.5936C90.537 68.2472 95.8112 60.3498 103.951 58.1964L117.023 54.7385L122.809 48.9694L135.968 77.9462L144.187 48.9915L150.597 53.6397L169.608 62.0025L169.599 62.1984L166.55 130.024L173.357 239.607L173.055 239.611L96.3364 240.567Z" fill="#FDFAF5"/>
<path d="M148.661 315.825L153.399 329.928C153.399 329.928 171.936 332.441 172.224 338.163C172.513 343.885 147.032 340.573 132.112 341.32C117.192 342.068 129.612 325.958 129.612 325.958L131.202 316.7L148.661 315.825Z" fill="#2E2E41"/>
<path d="M109.968 314.81L114.706 328.913C114.706 328.913 133.242 331.426 133.531 337.148C133.819 342.87 108.339 339.558 93.4187 340.305C78.4984 341.053 90.9184 324.942 90.9184 324.942L92.5083 315.685L109.968 314.81Z" fill="#2E2E41"/>
<path d="M86.8514 183.302C86.6505 180.521 87.1205 177.733 88.2222 175.171L84.686 146.247L98.5382 144.972L100.633 174.449C102.025 176.866 102.817 179.58 102.941 182.364C103.349 189.329 100.077 195.182 95.6334 195.44C91.1898 195.699 87.2577 190.264 86.8514 183.302Z" fill="#FDB4B4"/>
<path d="M174.587 187.548C174.417 184.765 174.917 181.982 176.047 179.432L172.827 150.471L186.692 149.346L188.465 178.845C189.831 181.277 190.592 183.999 190.686 186.785C191.018 193.753 187.682 199.57 183.236 199.78C178.79 199.991 174.917 194.514 174.587 187.548Z" fill="#FDB4B4"/>
<path d="M84.6289 171.703L84.5821 171.453L77.3628 132.83L85.8931 69.9377C86.6543 64.3227 91.6827 60.278 97.353 60.73C100.314 60.9664 102.971 62.3668 104.835 64.6738C106.698 66.9809 107.505 69.8678 107.105 72.8031L100.685 119.972L104.727 170.423L84.6289 171.703Z" fill="#FDFAF5"/>
<path d="M170.309 170.796L155.794 74.1912C155.04 71.3585 155.482 68.3941 157.044 65.875C158.607 63.3559 161.07 61.6383 163.979 61.0383C169.545 59.8905 175.041 63.2829 176.494 68.7603L190.438 169.583L170.309 170.796Z" fill="#FDFAF5"/>
<path d="M136.394 86.7769C137.378 86.7769 138.176 85.9814 138.176 85.0002C138.176 84.0189 137.378 83.2234 136.394 83.2234C135.41 83.2234 134.612 84.0189 134.612 85.0002C134.612 85.9814 135.41 86.7769 136.394 86.7769Z" fill="#D6D7D8"/>
<path d="M136.394 100.23C137.378 100.23 138.176 99.4341 138.176 98.4528C138.176 97.4715 137.378 96.676 136.394 96.676C135.41 96.676 134.612 97.4715 134.612 98.4528C134.612 99.4341 135.41 100.23 136.394 100.23Z" fill="#D6D7D8"/>
<path d="M136.394 113.682C137.378 113.682 138.176 112.887 138.176 111.906C138.176 110.924 137.378 110.129 136.394 110.129C135.41 110.129 134.612 110.924 134.612 111.906C134.612 112.887 135.41 113.682 136.394 113.682Z" fill="#D6D7D8"/>
<path d="M136.394 127.135C137.378 127.135 138.176 126.339 138.176 125.358C138.176 124.377 137.378 123.581 136.394 123.581C135.41 123.581 134.612 124.377 134.612 125.358C134.612 126.339 135.41 127.135 136.394 127.135Z" fill="#D6D7D8"/>
<path d="M136.394 140.588C137.378 140.588 138.176 139.792 138.176 138.811C138.176 137.83 137.378 137.034 136.394 137.034C135.41 137.034 134.612 137.83 134.612 138.811C134.612 139.792 135.41 140.588 136.394 140.588Z" fill="#D6D7D8"/>
<path d="M136.394 154.04C137.378 154.04 138.176 153.245 138.176 152.263C138.176 151.282 137.378 150.487 136.394 150.487C135.41 150.487 134.612 151.282 134.612 152.263C134.612 153.245 135.41 154.04 136.394 154.04Z" fill="#D6D7D8"/>
<path d="M136.394 167.493C137.378 167.493 138.176 166.697 138.176 165.716C138.176 164.735 137.378 163.939 136.394 163.939C135.41 163.939 134.612 164.735 134.612 165.716C134.612 166.697 135.41 167.493 136.394 167.493Z" fill="#D6D7D8"/>
<path d="M136.394 180.946C137.378 180.946 138.176 180.15 138.176 179.169C138.176 178.188 137.378 177.392 136.394 177.392C135.41 177.392 134.612 178.188 134.612 179.169C134.612 180.15 135.41 180.946 136.394 180.946Z" fill="#D6D7D8"/>
<path d="M136.396 191.352L102.68 186.872L102.031 186.786L84.7991 147.169L74.5371 123.582H101.267L136.396 191.352Z" fill="#2F853F"/>
<path d="M271.581 41.0247L293.017 29.3156V62.7702H268.226L271.581 41.0247Z" fill="#2E2E41"/>
<path d="M297.612 48.4835L299.591 64.9077L285.333 93.2184L276.483 66.8686L280.644 47.9379L297.612 48.4835Z" fill="#FDB4B4"/>
<path d="M300.328 65.8882H275.71V95.547H300.328V65.8882Z" fill="#2F853F"/>
<path d="M320.637 222.953L327.065 318.557L311.263 319.091L290.373 223.754L320.637 222.953Z" fill="#2E2E41"/>
<path d="M282.338 222.419L288.766 318.023L272.964 318.557L252.073 223.22L282.338 222.419Z" fill="#2E2E41"/>
<path d="M337.332 243.23L336.955 243.229L236.29 242.901L236.38 242.546L262.261 140.303L255.778 88.705C254.55 78.9278 259.799 69.6862 268.84 65.7091L272.104 64.2735L278.305 59.7772L286.237 87.7259L298.941 59.7554L304.537 65.3343L317.156 68.673C325.023 70.7537 330.119 78.3848 329.011 86.4235L328.997 86.4794L309.725 141.312L337.332 243.23Z" fill="#FDFAF5"/>
<path d="M273.978 317.471L290.839 318.316L292.374 327.256C292.374 327.256 304.368 342.814 289.96 342.092C275.552 341.369 250.945 344.568 251.224 339.042C251.503 333.517 269.403 331.09 269.403 331.09L273.978 317.471Z" fill="#2E2E41"/>
<path d="M311.344 316.49L328.205 317.335L329.74 326.275C329.74 326.275 341.734 341.833 327.326 341.111C312.917 340.389 288.311 343.588 288.59 338.062C288.868 332.536 306.769 330.11 306.769 330.11L311.344 316.49Z" fill="#2E2E41"/>
<path d="M326.784 188.515C326.392 195.238 322.595 200.486 318.304 200.236C314.012 199.987 310.853 194.335 311.246 187.609C311.367 184.92 312.131 182.299 313.475 179.965L315.499 151.5L328.875 152.731L325.461 180.663C326.524 183.137 326.978 185.83 326.784 188.515Z" fill="#FDB4B4"/>
<path d="M258.042 185.958C257.506 192.672 253.598 197.838 249.313 197.497C245.028 197.157 241.99 191.439 242.527 184.723C242.705 182.037 243.525 179.433 244.919 177.128L247.549 148.712L260.897 150.227L256.886 178.08C257.897 180.576 258.294 183.278 258.042 185.958Z" fill="#FDB4B4"/>
<path d="M328.938 177.324L309.511 176.087L309.534 175.797L313.415 127.358L307.216 81.8089C306.829 78.9718 307.609 76.1811 309.41 73.9512C311.211 71.7211 313.779 70.3675 316.642 70.1389C322.123 69.7081 326.983 73.6119 327.719 79.0392L335.957 139.775L335.948 139.821L328.938 177.324Z" fill="#FDFAF5"/>
<path d="M261.277 175.468L241.818 174.295L241.861 173.989L255.279 76.9548C256.69 71.6254 262.005 68.3474 267.383 69.4563C270.195 70.0362 272.575 71.6965 274.086 74.1316C275.596 76.5668 276.023 79.4319 275.288 82.1997L261.277 175.468Z" fill="#FDFAF5"/>
<path d="M285.824 96.2823C286.775 96.2823 287.545 95.5141 287.545 94.5665C287.545 93.6189 286.775 92.8507 285.824 92.8507C284.874 92.8507 284.104 93.6189 284.104 94.5665C284.104 95.5141 284.874 96.2823 285.824 96.2823Z" fill="#D6D7D8"/>
<path d="M285.824 109.273C286.775 109.273 287.545 108.505 287.545 107.558C287.545 106.61 286.775 105.842 285.824 105.842C284.874 105.842 284.104 106.61 284.104 107.558C284.104 108.505 284.874 109.273 285.824 109.273Z" fill="#D6D7D8"/>
<path d="M285.824 122.264C286.775 122.264 287.545 121.496 287.545 120.549C287.545 119.601 286.775 118.833 285.824 118.833C284.874 118.833 284.104 119.601 284.104 120.549C284.104 121.496 284.874 122.264 285.824 122.264Z" fill="#D6D7D8"/>
<path d="M285.824 135.255C286.775 135.255 287.545 134.487 287.545 133.54C287.545 132.592 286.775 131.824 285.824 131.824C284.874 131.824 284.104 132.592 284.104 133.54C284.104 134.487 284.874 135.255 285.824 135.255Z" fill="#D6D7D8"/>
<path d="M285.824 148.247C286.775 148.247 287.545 147.478 287.545 146.531C287.545 145.583 286.775 144.815 285.824 144.815C284.874 144.815 284.104 145.583 284.104 146.531C284.104 147.478 284.874 148.247 285.824 148.247Z" fill="#D6D7D8"/>
<path d="M285.824 161.238C286.775 161.238 287.545 160.469 287.545 159.522C287.545 158.574 286.775 157.806 285.824 157.806C284.874 157.806 284.104 158.574 284.104 159.522C284.104 160.469 284.874 161.238 285.824 161.238Z" fill="#D6D7D8"/>
<path d="M285.824 174.229C286.775 174.229 287.545 173.461 287.545 172.513C287.545 171.565 286.775 170.797 285.824 170.797C284.874 170.797 284.104 171.565 284.104 172.513C284.104 173.461 284.874 174.229 285.824 174.229Z" fill="#D6D7D8"/>
<path d="M285.824 187.22C286.775 187.22 287.545 186.451 287.545 185.504C287.545 184.556 286.775 183.788 285.824 183.788C284.874 183.788 284.104 184.556 284.104 185.504C284.104 186.451 284.874 187.22 285.824 187.22Z" fill="#D6D7D8"/>
<path d="M288.437 56.8657C297.326 56.8657 304.532 49.6804 304.532 40.8169C304.532 31.9535 297.326 24.7682 288.437 24.7682C279.547 24.7682 272.341 31.9535 272.341 40.8169C272.341 49.6804 279.547 56.8657 288.437 56.8657Z" fill="#FDB4B4"/>
<path d="M296.872 22.0821C297.643 23.6461 296.42 25.5998 294.801 26.2574C293.182 26.915 291.354 26.6486 289.627 26.3748C287.901 26.1011 286.07 25.8416 284.456 26.5108C282.367 27.3767 281.19 29.5488 280.176 31.5644C278.282 35.3273 276.388 39.0901 274.495 42.853C273.57 44.6914 272.623 46.6126 272.606 48.6694C272.573 52.4449 275.577 55.4622 277.193 58.8767C279.161 63.0341 278.998 68.1289 276.77 72.1533C274.542 76.1778 270.304 79.0293 265.727 79.5839C264.523 79.7299 263.249 79.714 262.166 79.1685C261.083 78.6231 260.257 77.4318 260.457 76.2389C260.85 73.9058 264.425 73.3606 265.082 71.0873C265.425 69.9006 264.817 68.6333 263.999 67.7064C263.181 66.7795 262.146 66.0565 261.365 65.0977C259.565 62.887 259.445 59.4742 261.085 57.1433C262.05 55.7734 263.541 54.7556 264.164 53.2017C264.695 51.8772 264.502 50.3883 264.301 48.976C264.042 47.1613 263.784 45.3465 263.525 43.5318C263.224 41.4145 262.927 39.2213 263.523 37.167C264.889 32.4594 270.22 30.2484 273.346 26.467C274.799 24.7098 275.776 22.5965 277.267 20.871C279.768 17.9753 283.705 16.3778 287.524 16.7099C291.342 17.042 294.943 19.295 296.903 22.5788" fill="#2E2E41"/>
<path d="M294.331 22.3789C293.545 22.6593 293.253 23.6805 293.479 24.4821C293.705 25.2836 294.298 25.9205 294.841 26.5535C300.977 33.7136 302.403 44.5438 298.329 53.0405C297.245 55.3006 295.801 57.4276 295.217 59.8639C294.792 61.6366 294.814 63.5811 293.828 65.1158C292.824 66.6783 290.834 67.7252 290.637 69.5705C290.511 70.7547 291.235 71.905 292.205 72.5993C293.176 73.2935 294.361 73.6112 295.527 73.8702C298.557 74.5434 301.655 74.911 304.759 74.9654C305.771 74.9831 306.815 74.9613 307.743 74.5593C308.672 74.1573 309.464 73.2854 309.474 72.2763C309.483 71.4832 309.024 70.7516 308.965 69.9607C308.79 67.5906 311.989 66.3298 312.612 64.036C313.021 62.5279 312.214 60.9761 311.354 59.6699C310.494 58.3638 309.513 56.9923 309.534 55.43C309.555 53.9344 310.496 52.6173 310.862 51.1667C311.368 49.1603 310.746 47.0616 310.13 45.0862C309.605 43.4067 309.081 41.7272 308.557 40.0478C308 38.2624 307.443 36.4771 306.885 34.6918C305.912 31.5749 304.891 28.3678 302.786 25.868C300.681 23.3681 297.192 21.7296 294.083 22.7503" fill="#2E2E41"/>
<path d="M305.298 84.568L304.195 84.2474C306.493 76.3897 301.538 61.7262 301.488 61.579L302.575 61.2092C302.786 61.8244 307.698 76.3662 305.298 84.568Z" fill="#3F3C57"/>
<path d="M304.747 93.5933C307.398 93.5933 309.547 91.4505 309.547 88.8072C309.547 86.1638 307.398 84.021 304.747 84.021C302.096 84.021 299.947 86.1638 299.947 88.8072C299.947 91.4505 302.096 93.5933 304.747 93.5933Z" fill="#3F3C57"/>
<path d="M273.207 105.752H270.296C269.979 105.752 269.722 105.495 269.722 105.179C269.722 104.862 269.979 104.606 270.296 104.606H273.207C274.01 104.606 274.763 104.294 275.33 103.728C275.896 103.162 276.208 102.41 276.206 101.61L276.171 83.7318C276.171 79.8479 273.002 76.689 269.108 76.689C265.214 76.689 262.046 79.8479 262.046 83.7307L262.081 100.465C262.084 102.098 263.419 103.436 265.057 103.449L267.055 103.464C267.372 103.466 267.627 103.724 267.625 104.041C267.623 104.356 267.366 104.61 267.05 104.61H267.046L265.048 104.594C262.783 104.577 260.936 102.725 260.932 100.467L260.896 83.7318C260.896 79.2162 264.58 75.5432 269.108 75.5432C273.636 75.5432 277.32 79.2162 277.32 83.7307L277.355 101.608C277.357 102.714 276.927 103.755 276.143 104.537C275.36 105.32 274.317 105.752 273.207 105.752Z" fill="#3F3C57"/>
<path d="M267.05 106.067C268.175 106.067 269.087 105.158 269.087 104.037C269.087 102.915 268.175 102.006 267.05 102.006C265.925 102.006 265.014 102.915 265.014 104.037C265.014 105.158 265.925 106.067 267.05 106.067Z" fill="#3F3C57"/>
<path d="M270.296 107.21C271.421 107.21 272.333 106.3 272.333 105.179C272.333 104.057 271.421 103.148 270.296 103.148C269.172 103.148 268.26 104.057 268.26 105.179C268.26 106.3 269.172 107.21 270.296 107.21Z" fill="#3F3C57"/>
<path d="M152.73 75.9802L151.627 75.6596C153.926 67.802 149.026 52.9113 148.976 52.7642L150.354 53.8006C150.565 54.4158 155.13 67.7785 152.73 75.9802Z" fill="#3F3C57"/>
<path d="M113.952 77.3763L115.055 77.0557C112.757 69.198 117.713 54.5345 117.763 54.3873L116.583 55.1755C116.372 55.7907 111.553 69.1745 113.952 77.3763Z" fill="#3F3C57"/>
<path d="M152.179 85.0057C154.83 85.0057 156.979 82.8628 156.979 80.2195C156.979 77.5762 154.83 75.4333 152.179 75.4333C149.528 75.4333 147.379 77.5762 147.379 80.2195C147.379 82.8628 149.528 85.0057 152.179 85.0057Z" fill="#3F3C57"/>
<path d="M119.07 106.809H116.159C115.841 106.809 115.584 106.553 115.584 106.236C115.584 105.92 115.841 105.664 116.159 105.664H119.07C119.872 105.664 120.626 105.352 121.192 104.786C121.758 104.22 122.07 103.468 122.068 102.668L122.033 84.7894C122.033 80.9055 118.865 77.7467 114.971 77.7467C111.077 77.7467 107.908 80.9055 107.908 84.7883L107.943 101.523C107.947 103.155 109.282 104.494 110.919 104.506L112.917 104.521C113.234 104.524 113.489 104.782 113.487 105.099C113.485 105.413 113.228 105.667 112.913 105.667H112.908L110.91 105.652C108.645 105.635 106.799 103.783 106.794 101.525L106.759 84.7894C106.759 80.2738 110.442 76.6008 114.971 76.6008C119.498 76.6008 123.182 80.2738 123.182 84.7883L123.217 102.666C123.22 103.772 122.789 104.812 122.005 105.595C121.222 106.378 120.179 106.809 119.07 106.809Z" fill="#3F3C57"/>
<path d="M112.912 107.125C114.037 107.125 114.949 106.216 114.949 105.094C114.949 103.973 114.037 103.064 112.912 103.064C111.788 103.064 110.876 103.973 110.876 105.094C110.876 106.216 111.788 107.125 112.912 107.125Z" fill="#3F3C57"/>
<path d="M116.159 108.267C117.283 108.267 118.195 107.358 118.195 106.236C118.195 105.115 117.283 104.206 116.159 104.206C115.034 104.206 114.122 105.115 114.122 106.236C114.122 107.358 115.034 108.267 116.159 108.267Z" fill="#3F3C57"/>
</g>
<defs>
<clipPath id="clip0_1643_9279">
<rect width="398" height="342" fill="white" transform="translate(12.4922 0.368652)"/>
</clipPath>
</defs>
</svg>
