<svg width="186" height="171" viewBox="0 0 186 171" fill="none" xmlns="http://www.w3.org/2000/svg">
<path d="M103.673 5.03235H8.43627C6.19883 5.03235 4.05303 5.92311 2.47092 7.50867C0.888814 9.09423 3.52988e-06 11.2447 0 13.487V59.9896C0 62.2319 0.888816 64.3824 2.47092 65.968C4.05303 67.5536 6.19883 68.4443 8.43627 68.4443H103.673C105.91 68.4443 108.056 67.5536 109.638 65.968C111.22 64.3825 112.109 62.232 112.109 59.9896V13.4871C112.109 11.2447 111.22 9.09425 109.638 7.50868C108.056 5.92312 105.91 5.03236 103.673 5.03235ZM6.07998 10.7998C6.26805 10.7657 10.7275 10.0051 14.4203 12.232C18.1128 14.4584 19.5315 18.7637 19.59 18.9457L19.7392 19.4099L19.26 19.4951C18.5764 19.6021 17.8852 19.6529 17.1934 19.6472C14.9985 19.6893 12.8323 19.1421 10.9196 18.0625C7.22707 15.8365 5.80853 11.5312 5.75006 11.3492L5.60077 10.885L6.07998 10.7998ZM26.7533 53.9745H9.76709C8.52821 53.9745 7.34007 53.4813 6.46404 52.6033C5.58802 51.7254 5.09588 50.5347 5.09588 49.2931C5.09588 48.0515 5.58802 46.8607 6.46404 45.9828C7.34007 45.1049 8.52821 44.6116 9.76709 44.6116H26.7533C27.9922 44.6116 29.1804 45.1049 30.0564 45.9828C30.9324 46.8607 31.4246 48.0515 31.4246 49.2931C31.4246 50.5347 30.9324 51.7254 30.0564 52.6033C29.1804 53.4813 27.9922 53.9745 26.7533 53.9745ZM104.041 53.1233C104.037 54.4766 103.499 55.7733 102.544 56.7302C101.589 57.687 100.295 58.2264 98.9448 58.2303H86.2052C84.8549 58.2264 83.561 57.687 82.6062 56.7302C81.6514 55.7733 81.1133 54.4766 81.1093 53.1233V45.4628C81.1133 44.1096 81.6514 42.8129 82.6062 41.856C83.561 40.8991 84.8549 40.3598 86.2052 40.3558H98.9448C100.295 40.3598 101.589 40.8991 102.544 41.856C103.499 42.8129 104.037 44.1096 104.041 45.4628L104.041 53.1233Z" fill="#1F8D61"/>
<path d="M90.8412 52.041H85.7189C85.3532 52.041 85.0024 52.1866 84.7438 52.4458C84.4851 52.705 84.3398 53.0565 84.3398 53.4231C84.3398 53.7896 84.4851 54.1412 84.7438 54.4004C85.0024 54.6596 85.3532 54.8052 85.7189 54.8052H90.8412C91.2069 54.8052 91.5577 54.6596 91.8163 54.4004C92.075 54.1412 92.2203 53.7896 92.2203 53.4231C92.2203 53.0565 92.075 52.705 91.8163 52.4458C91.5577 52.1866 91.2069 52.041 90.8412 52.041Z" fill="#3F3D56"/>
<path d="M100.298 52.041H95.1759C94.8102 52.041 94.4594 52.1866 94.2008 52.4458C93.9422 52.705 93.7969 53.0565 93.7969 53.4231C93.7969 53.7896 93.9422 54.1412 94.2008 54.4004C94.4594 54.6596 94.8102 54.8052 95.1759 54.8052H100.298C100.664 54.8052 101.015 54.6596 101.273 54.4004C101.532 54.1412 101.677 53.7896 101.677 53.4231C101.677 53.0565 101.532 52.705 101.273 52.4458C101.015 52.1866 100.664 52.041 100.298 52.041Z" fill="#3F3D56"/>
<path d="M90.8412 48.1396H85.7189C85.3532 48.1396 85.0024 48.2853 84.7438 48.5445C84.4851 48.8036 84.3398 49.1552 84.3398 49.5218C84.3398 49.8883 84.4851 50.2398 84.7438 50.499C85.0024 50.7582 85.3532 50.9038 85.7189 50.9038H90.8412C91.2069 50.9038 91.5577 50.7582 91.8164 50.499C92.075 50.2398 92.2203 49.8883 92.2203 49.5218C92.2203 49.1552 92.075 48.8036 91.8164 48.5445C91.5577 48.2853 91.2069 48.1396 90.8412 48.1396Z" fill="#3F3D56"/>
<path d="M100.298 48.1396H95.176C94.8102 48.1396 94.4594 48.2853 94.2008 48.5445C93.9422 48.8036 93.7969 49.1552 93.7969 49.5218C93.7969 49.8883 93.9422 50.2398 94.2008 50.499C94.4594 50.7582 94.8102 50.9038 95.176 50.9038H100.298C100.664 50.9038 101.015 50.7582 101.273 50.499C101.532 50.2398 101.677 49.8883 101.677 49.5218C101.677 49.1552 101.532 48.8036 101.273 48.5445C101.015 48.2853 100.664 48.1396 100.298 48.1396Z" fill="#3F3D56"/>
<path d="M90.8412 44.3169H85.7189C85.3532 44.3169 85.0024 44.4625 84.7438 44.7217C84.4851 44.9809 84.3398 45.3324 84.3398 45.699C84.3398 46.0655 84.4851 46.4171 84.7438 46.6763C85.0024 46.9355 85.3532 47.0811 85.7189 47.0811H90.8412C91.2069 47.0811 91.5577 46.9355 91.8164 46.6763C92.075 46.4171 92.2203 46.0655 92.2203 45.699C92.2203 45.3324 92.075 44.9809 91.8164 44.7217C91.5577 44.4625 91.2069 44.3169 90.8412 44.3169Z" fill="#3F3D56"/>
<path d="M100.298 44.3169H95.176C94.8102 44.3169 94.4594 44.4625 94.2008 44.7217C93.9422 44.9809 93.7969 45.3324 93.7969 45.699C93.7969 46.0655 93.9422 46.4171 94.2008 46.6763C94.4594 46.9355 94.8102 47.0811 95.176 47.0811H100.298C100.664 47.0811 101.015 46.9355 101.273 46.6763C101.532 46.4171 101.677 46.0655 101.677 45.699C101.677 45.3324 101.532 44.9809 101.273 44.7217C101.015 44.4625 100.664 44.3169 100.298 44.3169Z" fill="#3F3D56"/>
<path d="M153.519 165.611H148.08L145.492 144.585H153.52L153.519 165.611Z" fill="#FFB8B8"/>
<path d="M144.194 164.053H154.684V170.672H137.59C137.59 168.916 138.286 167.233 139.524 165.992C140.763 164.75 142.443 164.053 144.194 164.053Z" fill="#2F2E41"/>
<path d="M180.581 165.611H175.142L172.555 144.585H180.582L180.581 165.611Z" fill="#FFB8B8"/>
<path d="M171.257 164.053H181.746V170.672H164.652C164.652 168.916 165.348 167.233 166.587 165.992C167.825 164.75 169.505 164.053 171.257 164.053Z" fill="#2F2E41"/>
<path d="M126.233 90.4196C125.841 89.8418 125.581 89.1851 125.471 88.4957C125.36 87.8063 125.402 87.1009 125.592 86.4293C125.783 85.7577 126.118 85.1362 126.575 84.6086C127.031 84.081 127.598 83.6601 128.234 83.3755L146.723 32.3037L155.821 37.2796L134.71 86.0856C135.116 87.1885 135.105 88.4024 134.678 89.4973C134.25 90.5922 133.437 91.4921 132.392 92.0263C131.347 92.5605 130.143 92.692 129.008 92.3959C127.873 92.0998 126.885 91.3966 126.233 90.4196Z" fill="#FFB8B8"/>
<path d="M177.8 100.017C177.196 99.6693 176.675 99.1933 176.274 98.6223C175.873 98.0513 175.601 97.3992 175.479 96.7118C175.357 96.0243 175.386 95.3184 175.565 94.6437C175.745 93.9689 176.07 93.3417 176.517 92.8064L170.789 38.7811L181.143 39.2552L183.523 92.3961C184.371 93.2088 184.892 94.3049 184.987 95.4767C185.082 96.6485 184.745 97.8145 184.039 98.7538C183.334 99.6931 182.309 100.34 181.159 100.573C180.009 100.806 178.814 100.608 177.8 100.017Z" fill="#FFB8B8"/>
<path d="M161.283 26.8729C167.301 26.8729 172.18 21.9837 172.18 15.9526C172.18 9.92152 167.301 5.03235 161.283 5.03235C155.265 5.03235 150.387 9.92152 150.387 15.9526C150.387 21.9837 155.265 26.8729 161.283 26.8729Z" fill="#FFB8B8"/>
<path d="M177.734 87.7294H144.883L144.922 87.4733C144.981 87.0903 150.777 49.0409 146.503 36.593C146.074 35.3697 146.111 34.0306 146.608 32.8336C147.106 31.6365 148.027 30.666 149.195 30.1089C155.305 27.2254 167.033 23.6747 176.932 32.2916C178.389 33.5805 179.526 35.1913 180.255 36.9967C180.983 38.8021 181.282 40.7526 181.129 42.6939L177.734 87.7294Z" fill="#FED550"/>
<path d="M151.192 54.6639L136.402 51.6569L143.335 35.1928C143.75 33.5981 144.779 32.2334 146.196 31.3981C147.614 30.5627 149.304 30.3249 150.896 30.7369C152.488 31.1488 153.853 32.1768 154.689 33.5954C155.526 35.014 155.768 36.7074 155.36 38.304L151.192 54.6639Z" fill="#FED550"/>
<path d="M170.132 60.2473L169.243 39.821C168.569 35.9811 170.762 32.3513 174.135 31.7579C177.509 31.1668 180.804 33.8299 181.481 37.698L184.823 56.7844L170.132 60.2473Z" fill="#FED550"/>
<path d="M176.641 85.2839C181.927 105.459 182.503 131.11 181.077 159.09L173.979 158.201L161.113 104.847L154.015 159.09L146.029 158.646C143.643 129.288 141.32 104.084 145.142 87.507L176.641 85.2839Z" fill="#2F2E41"/>
<path d="M168.465 24.3925C166.432 26.5626 162.657 25.3977 162.392 22.433C162.372 22.2029 162.373 21.9712 162.397 21.7413C162.534 20.4281 163.291 19.2359 163.109 17.8493C163.068 17.5042 162.94 17.1754 162.737 16.8939C161.117 14.72 157.314 17.8662 155.785 15.8983C154.848 14.6916 155.95 12.7917 155.231 11.443C154.281 9.6629 151.469 10.541 149.705 9.56615C147.743 8.48151 147.861 5.46444 149.152 3.62931C150.727 1.39128 153.489 0.197076 156.217 0.024969C158.944 -0.147138 161.653 0.591743 164.199 1.58622C167.092 2.71614 169.961 4.27771 171.741 6.82716C173.906 9.92755 174.115 14.0958 173.032 17.7211C172.373 19.9264 170.125 22.6204 168.465 24.3925Z" fill="#2F2E41"/>
</svg>
