<svg width="226" height="164" viewBox="0 0 226 164" fill="none" xmlns="http://www.w3.org/2000/svg">
<g clip-path="url(#clip0_2660_8818)">
<path d="M173.786 6.7525L177.282 0.702026H170.289L173.786 6.7525L177.282 0.702026H170.289L173.786 6.7525Z" fill="#1F8D61"/>
<path d="M223.178 14.5748H137.312C136.776 14.575 136.263 14.7876 135.884 15.1658C135.506 15.5439 135.293 16.0568 135.293 16.5916V85.1631C135.293 85.698 135.506 86.2108 135.884 86.589C136.263 86.9672 136.776 87.1797 137.312 87.1799H223.178C223.713 87.1797 224.227 86.9672 224.605 86.589C224.984 86.2108 225.197 85.698 225.197 85.1631V16.5916C225.197 16.0568 224.984 15.5439 224.605 15.1658C224.227 14.7876 223.713 14.575 223.178 14.5748Z" fill="white"/>
<path d="M223.178 14.5748H137.312C136.776 14.575 136.263 14.7876 135.884 15.1658C135.506 15.5439 135.293 16.0568 135.293 16.5916V85.1631C135.293 85.698 135.506 86.2108 135.884 86.589C136.263 86.9672 136.776 87.1797 137.312 87.1799H223.178C223.713 87.1797 224.227 86.9672 224.605 86.589C224.984 86.2108 225.197 85.698 225.197 85.1631V16.5916C225.197 16.0568 224.984 15.5439 224.605 15.1658C224.227 14.7876 223.713 14.575 223.178 14.5748ZM224.389 85.1631C224.389 85.4839 224.261 85.7914 224.034 86.0183C223.807 86.2451 223.499 86.3727 223.178 86.3732H137.312C136.991 86.3727 136.683 86.2451 136.456 86.0183C136.229 85.7914 136.101 85.4839 136.1 85.1631V16.5916C136.101 16.2709 136.229 15.9633 136.456 15.7365C136.683 15.5097 136.991 15.382 137.312 15.3816H223.178C223.499 15.382 223.807 15.5097 224.034 15.7365C224.261 15.9633 224.389 16.2709 224.389 16.5916L224.389 85.1631Z" fill="#1F8D61"/>
<path d="M160.153 22.7749C159.733 22.7818 159.332 22.9532 159.038 23.2523C158.743 23.5515 158.578 23.9542 158.578 24.3738C158.578 24.7934 158.743 25.1962 159.038 25.4953C159.332 25.7944 159.733 25.9659 160.153 25.9727H200.282C200.493 25.9762 200.701 25.9382 200.897 25.8611C201.092 25.7839 201.271 25.669 201.422 25.523C201.573 25.377 201.694 25.2026 201.777 25.01C201.861 24.8173 201.906 24.61 201.909 24.4001C201.913 24.1901 201.875 23.9815 201.798 23.7862C201.72 23.5909 201.605 23.4127 201.459 23.2618C201.313 23.1108 201.138 22.9902 200.946 22.9066C200.753 22.8231 200.545 22.7783 200.335 22.7749C200.318 22.7746 200.3 22.7746 200.282 22.7749H160.153Z" fill="#1F8D61"/>
<path d="M160.153 35.7621C159.733 35.7689 159.332 35.9404 159.038 36.2395C158.743 36.5386 158.578 36.9414 158.578 37.361C158.578 37.7806 158.743 38.1833 159.038 38.4825C159.332 38.7816 159.733 38.953 160.153 38.9599H200.282C200.707 38.9669 201.117 38.8051 201.422 38.5102C201.727 38.2152 201.902 37.8113 201.909 37.3872C201.916 36.9632 201.754 36.5537 201.459 36.2489C201.164 35.9442 200.76 35.769 200.335 35.7621C200.318 35.7618 200.3 35.7618 200.282 35.7621H160.153Z" fill="#1F8D61"/>
<path d="M160.153 48.7492C159.733 48.7561 159.332 48.9276 159.038 49.2267C158.743 49.5258 158.578 49.9286 158.578 50.3482C158.578 50.7678 158.743 51.1705 159.038 51.4696C159.332 51.7687 159.733 51.9402 160.153 51.9471H200.282C200.707 51.9541 201.117 51.7923 201.422 51.4974C201.727 51.2024 201.902 50.7985 201.909 50.3744C201.916 49.9504 201.754 49.5409 201.459 49.2361C201.164 48.9313 200.76 48.7562 200.335 48.7492C200.318 48.749 200.3 48.749 200.282 48.7492H160.153Z" fill="#1F8D61"/>
<path d="M160.153 61.7363C159.733 61.7432 159.332 61.9147 159.038 62.2138C158.743 62.5129 158.578 62.9157 158.578 63.3352C158.578 63.7548 158.743 64.1576 159.038 64.4567C159.332 64.7558 159.733 64.9273 160.153 64.9342H200.282C200.707 64.9411 201.117 64.7793 201.422 64.4844C201.727 64.1895 201.902 63.7856 201.909 63.3615C201.916 62.9374 201.754 62.528 201.459 62.2232C201.164 61.9184 200.76 61.7433 200.335 61.7363C200.318 61.736 200.3 61.736 200.282 61.7363H160.153Z" fill="#1F8D61"/>
<path d="M160.153 74.7236C159.733 74.7305 159.332 74.902 159.038 75.2011C158.743 75.5002 158.578 75.903 158.578 76.3225C158.578 76.7421 158.743 77.1449 159.038 77.444C159.332 77.7431 159.733 77.9146 160.153 77.9215H200.282C200.707 77.9284 201.117 77.7666 201.422 77.4717C201.727 77.1768 201.902 76.7729 201.909 76.3488C201.916 75.9247 201.754 75.5153 201.459 75.2105C201.164 74.9057 200.76 74.7306 200.335 74.7236C200.318 74.7233 200.3 74.7233 200.282 74.7236H160.153Z" fill="#1F8D61"/>
<path d="M175.394 10.2494H0.28108C0.206533 10.2494 0.135039 10.2198 0.0823263 10.1671C0.0296135 10.1144 0 10.043 0 9.96855C0 9.89407 0.0296135 9.82265 0.0823263 9.76999C0.135039 9.71733 0.206533 9.68774 0.28108 9.68774H175.394C175.469 9.68774 175.54 9.71733 175.593 9.76999C175.646 9.82265 175.675 9.89407 175.675 9.96855C175.675 10.043 175.646 10.1144 175.593 10.1671C175.54 10.2198 175.469 10.2494 175.394 10.2494Z" fill="#1F8D61"/>
<path d="M6.60751 6.31806C8.31511 6.31806 9.69939 4.93514 9.69939 3.22922C9.69939 1.5233 8.31511 0.140381 6.60751 0.140381C4.89991 0.140381 3.51562 1.5233 3.51562 3.22922C3.51562 4.93514 4.89991 6.31806 6.60751 6.31806Z" fill="#1F8D61"/>
<path d="M17.2872 6.31806C18.9948 6.31806 20.3791 4.93514 20.3791 3.22922C20.3791 1.5233 18.9948 0.140381 17.2872 0.140381C15.5796 0.140381 14.1953 1.5233 14.1953 3.22922C14.1953 4.93514 15.5796 6.31806 17.2872 6.31806Z" fill="#1F8D61"/>
<path d="M27.9708 6.31806C29.6784 6.31806 31.0627 4.93514 31.0627 3.22922C31.0627 1.5233 29.6784 0.140381 27.9708 0.140381C26.2632 0.140381 24.8789 1.5233 24.8789 3.22922C24.8789 4.93514 26.2632 6.31806 27.9708 6.31806Z" fill="#1F8D61"/>
<path d="M163.449 6.45848H140.682C139.824 6.45848 139.002 6.11826 138.396 5.51266C137.79 4.90706 137.449 4.08569 137.449 3.22924C137.449 2.37279 137.79 1.55142 138.396 0.945822C139.002 0.340222 139.824 0 140.682 0H163.449C164.306 0 165.129 0.340222 165.735 0.945822C166.341 1.55142 166.682 2.37279 166.682 3.22924C166.682 4.08569 166.341 4.90706 165.735 5.51266C165.129 6.11826 164.306 6.45848 163.449 6.45848Z" fill="#1F8D61"/>
<path d="M38.4964 89.8093L41.0309 66.5717L45.0442 50.2463L37.5697 47.9342L33.6298 66.3062L34.9322 88.9116C34.2436 89.1465 33.6495 89.5975 33.2384 90.1973C32.8274 90.7971 32.6214 91.5136 32.6513 92.2399C32.6811 92.9662 32.9452 93.6634 33.4041 94.2275C33.863 94.7916 34.4922 95.1924 35.1977 95.3701C35.9033 95.5478 36.6474 95.4929 37.3192 95.2135C37.9909 94.9342 38.5543 94.4454 38.9252 93.82C39.2962 93.1947 39.4548 92.4663 39.3776 91.7435C39.3003 91.0207 38.9912 90.3422 38.4964 89.8093Z" fill="#FFB8B8"/>
<path d="M32.2216 92.3694C32.746 84.6642 36.4494 77.2344 42.9885 70.05L60.4847 71.1257L60.7539 84.5711L74.7509 158.79L69.9058 159.059L47.0261 110.924L36.2592 158.79L31.4141 159.059L32.2216 92.3694Z" fill="#2F2E41"/>
<path d="M49.9889 38.5402C54.5974 38.5402 58.3333 34.808 58.3333 30.2041C58.3333 25.6001 54.5974 21.8679 49.9889 21.8679C45.3804 21.8679 41.6445 25.6001 41.6445 30.2041C41.6445 34.808 45.3804 38.5402 49.9889 38.5402Z" fill="#FFB8B8"/>
<path d="M39.7152 63.8849C37.0647 58.7705 36.0204 52.9762 36.7188 47.2594C36.8872 45.8983 37.4397 44.6131 38.3117 43.5538C39.1836 42.4945 40.3392 41.7048 41.6435 41.2769L51.3338 41.5458L58.3323 49.3441C61.683 53.4385 63.7726 57.6583 62.1007 62.2517L60.4856 72.4702L42.451 71.3945L39.7152 63.8849Z" fill="#FED550"/>
<path d="M27.9707 52.7264C31.8763 51.0417 31.9486 47.5373 30.4345 43.2799C28.4285 39.2583 29.8878 35.4659 33.4258 31.8109C35.2739 30.1892 35.9656 28.2553 35.7079 26.0649C35.5781 25.0888 35.6759 24.0959 35.9935 23.1638C36.3112 22.2316 36.8402 21.3854 37.5392 20.6912C38.918 19.3665 45.34 18.5459 47.3494 18.4729L49.9761 18.3775C50.1095 18.3726 50.2429 18.3711 50.3763 18.373C51.4224 18.3875 52.4554 18.6077 53.4163 19.021C54.3772 19.4344 55.2473 20.0328 55.9767 20.782C56.7061 21.5312 57.2807 22.4167 57.6676 23.3878C58.0545 24.3588 58.2462 25.3965 58.2316 26.4416C54.0272 25.4257 53.5149 26.6255 51.2128 29.3119C49.547 31.3274 48.7063 33.8979 48.8595 36.5072C49.0054 40.0362 46.5903 45.7406 44.4239 51.2337C46.9783 55.6557 43.8153 59.1878 40.1755 62.3385H39.9825C34.9519 62.3385 26.7022 57.5896 27.9707 52.7264Z" fill="#2F2E41"/>
<path d="M49.854 33.8343C50.4487 33.8343 50.9307 32.9313 50.9307 31.8175C50.9307 30.7036 50.4487 29.8007 49.854 29.8007C49.2594 29.8007 48.7773 30.7036 48.7773 31.8175C48.7773 32.9313 49.2594 33.8343 49.854 33.8343Z" fill="#FFB8B8"/>
<path d="M65.7068 93.7115L59.678 71.1257L57.5248 54.4534L49.7188 54.9912L52.6796 73.5458L62.0586 94.1591C61.5012 94.6264 61.11 95.2611 60.9433 95.9687C60.7765 96.6763 60.8432 97.4187 61.1334 98.0853C61.4235 98.7519 61.9216 99.3069 62.5533 99.6676C63.1851 100.028 63.9166 100.175 64.6388 100.087C65.361 99.9981 66.0351 99.6787 66.5608 99.176C67.0864 98.6734 67.4352 98.0145 67.5554 97.2975C67.6755 96.5806 67.5604 95.8441 67.2272 95.1978C66.8941 94.5516 66.3608 94.0302 65.7068 93.7115Z" fill="#FFB8B8"/>
<path d="M46.8562 47.1967C46.8543 47.0778 46.8561 46.9589 46.8618 46.8401C46.8965 46.1119 47.0744 45.3975 47.3855 44.738C47.6965 44.0784 48.1346 43.4865 48.6746 42.996C49.2146 42.5056 49.8461 42.1262 50.5329 41.8795C51.2197 41.6328 51.9484 41.5237 52.6774 41.5584C54.1205 41.6271 55.4801 42.2544 56.4681 43.3076C57.4561 44.3607 57.9947 45.7568 57.9698 47.1999L58.8702 57.4112C55.5728 54.9249 52.252 55.1266 48.9108 57.6801L46.8562 47.1967Z" fill="#FED550"/>
<path d="M69.5195 158.473L76.3059 158.473C77.4529 158.473 78.5532 158.928 79.3642 159.739C80.1753 160.549 80.631 161.648 80.631 162.794V162.934L69.5197 162.934L69.5195 158.473Z" fill="#2F2E41"/>
<path d="M31.293 158.473L38.0794 158.473C39.2264 158.473 40.3266 158.928 41.1377 159.739C41.9487 160.549 42.4044 161.648 42.4045 162.794V162.934L31.2932 162.934L31.293 158.473Z" fill="#2F2E41"/>
<path d="M21.8742 152.22L22.9037 149.686C24.1543 149.349 25.4229 149.083 26.7036 148.889L26.619 150.12L27.146 148.823C28.732 148.598 29.7965 148.55 29.7965 148.55C29.7965 148.55 27.6578 153.683 24.1539 157.349L20.6441 157.477L23.2531 158.228C22.8215 158.622 22.3656 158.988 21.888 159.325C17.0614 162.701 12.0449 163.863 10.6833 161.921C9.32165 159.978 12.1305 155.666 16.9571 152.29C18.5182 151.252 20.2294 150.459 22.0309 149.94L21.8742 152.22Z" fill="#1F8D61"/>
<path d="M12.7662 140.597L11.4604 136.854C12.4993 135.291 13.6256 133.788 14.834 132.352L15.9217 133.774L15.2531 131.858C16.765 130.097 17.8777 129.027 17.8777 129.027C17.8777 129.027 20.4655 136.661 20.1617 144.003L16.4628 147.498L20.0231 145.821C19.9302 146.663 19.7844 147.497 19.5867 148.32C17.5651 156.611 13.2158 162.673 9.87226 161.859C6.52873 161.045 5.45705 153.665 7.47863 145.374C8.18451 142.751 9.28862 140.252 10.7525 137.964L12.7662 140.597Z" fill="#1F8D61"/>
<path d="M107.373 163.006H0.28108C0.206533 163.006 0.135039 162.977 0.0823263 162.924C0.0296135 162.872 0 162.8 0 162.726C0 162.651 0.0296135 162.58 0.0823263 162.527C0.135039 162.474 0.206533 162.445 0.28108 162.445H107.373C107.447 162.445 107.519 162.474 107.571 162.527C107.624 162.58 107.654 162.651 107.654 162.726C107.654 162.8 107.624 162.872 107.571 162.924C107.519 162.977 107.447 163.006 107.373 163.006Z" fill="#CACACA"/>
</g>
<defs>
<clipPath id="clip0_2660_8818">
<rect width="225.198" height="163.006" fill="white"/>
</clipPath>
</defs>
</svg>
