<svg width="279" height="137" viewBox="0 0 279 137" fill="none" xmlns="http://www.w3.org/2000/svg">
<path d="M211.746 58.9213V33.4099C211.746 30.8662 213.523 28.7969 215.708 28.7969H230.042C232.227 28.7969 234.004 30.8662 234.004 33.4099V58.9213C234.004 61.465 232.227 63.5344 230.042 63.5344H215.708C213.523 63.5344 211.746 61.4651 211.746 58.9213Z" fill="#FFAB87"/>
<path d="M219.087 39.8247H226.664V37.6192H219.087V39.8247Z" fill="#3F3D56"/>
<path d="M220.981 35.9648H224.77V28.7968H220.981V35.9648Z" fill="#3F3D56"/>
<path d="M220.981 63.5344H224.77V56.3664H220.981V63.5344Z" fill="#3F3D56"/>
<path d="M201.561 59.9524H179.65C177.465 59.9524 175.688 57.8831 175.688 55.3393V38.6501C175.688 36.1064 177.465 34.0371 179.65 34.0371H201.561C203.745 34.0371 205.523 36.1064 205.523 38.6501V55.3393C205.523 57.8831 203.745 59.9524 201.561 59.9524Z" fill="#FFAB87"/>
<path d="M194.866 37.6211H187.289V39.8266H194.866V37.6211Z" fill="#3F3D56"/>
<path d="M181.844 49.2004V44.7893H175.687V49.2004H181.844Z" fill="#3F3D56"/>
<path d="M205.523 49.2004V44.7893H199.367V49.2004H205.523Z" fill="#3F3D56"/>
<path d="M23.8221 107.658L20.1642 82.8145C18.5389 71.7752 25.5564 61.5598 35.1632 60.9805L87.3093 57.8359L99.7546 33.954C101.404 30.7879 104.354 28.8545 107.535 28.8545H145.003C147.949 28.8545 150.437 31.3974 150.819 34.7976L151.771 53.9068L245.184 54.2324L256.935 99.3222L246.027 98.703L246.587 112.38L232.323 113.031L227.568 97.377C226.673 94.4294 222.75 91.1058 218.672 88.3251C209.53 82.0914 197.785 84.0921 190.866 93.4341C189.234 95.6379 188.093 97.9341 187.774 100.087L185.617 114.659L81.0165 112.705L67.3077 90.3778C63.2575 85.2461 44.138 83.3611 42.4162 90.3778L32.0726 108.146L23.8221 107.658Z" fill="#1F8D61"/>
<path d="M137.511 43.3863L140.589 60.2782L101.434 61.2551L109.703 40.5822C110.453 38.7068 112.1 37.5424 113.875 37.6323L132.638 38.5821C135.014 38.7024 137.018 40.6785 137.511 43.3863Z" fill="white"/>
<path d="M96.1209 59.9524L103.952 36.5068L101.902 34.1196L89.1289 56.6961L91.7242 61.2549L96.1209 59.9524Z" fill="white"/>
<path d="M208.271 136.151C218.466 136.151 226.73 126.528 226.73 114.659C226.73 102.789 218.466 93.167 208.271 93.167C198.077 93.167 189.812 102.789 189.812 114.659C189.812 126.528 198.077 136.151 208.271 136.151Z" fill="#3F3D56"/>
<path d="M195.547 114.659C195.547 106.489 201.255 99.8428 208.272 99.8428C215.289 99.8428 220.998 106.489 220.998 114.659C220.998 122.829 215.289 129.475 208.272 129.475C201.255 129.475 195.547 122.829 195.547 114.659ZM195.827 114.659C195.827 122.649 201.41 129.15 208.272 129.15C215.135 129.15 220.718 122.649 220.718 114.659C220.718 106.669 215.135 100.168 208.272 100.168C201.41 100.168 195.827 106.669 195.827 114.659Z" fill="white"/>
<path d="M197.363 114.659C197.363 121.673 202.247 127.359 208.271 127.359C214.295 127.359 219.178 121.673 219.178 114.659C219.178 107.645 214.295 101.959 208.271 101.959C202.247 101.959 197.363 107.645 197.363 114.659ZM215.361 111.618L213.428 113.085L212.686 111.758L215.361 111.618ZM212.419 119.077L212.934 117.611L214.554 120.093L212.419 119.077ZM207.47 124.103L208.83 121.417V124.103H207.47ZM207.47 108.553L208.83 105.867V108.553H207.47ZM201.428 120.093L203.049 117.611L203.563 119.077L201.428 120.093ZM200.621 111.618L203.296 111.758L202.554 113.085L200.621 111.618Z" fill="#E6E6E6"/>
<path d="M53.3299 136.151C63.5245 136.151 71.7888 126.528 71.7888 114.659C71.7888 102.789 63.5245 93.167 53.3299 93.167C43.1354 93.167 34.8711 102.789 34.8711 114.659C34.8711 126.528 43.1354 136.151 53.3299 136.151Z" fill="#3F3D56"/>
<path d="M40.6055 114.659C40.6055 106.489 46.314 99.8428 53.3309 99.8428C60.3477 99.8428 66.0563 106.489 66.0563 114.659C66.0563 122.829 60.3477 129.475 53.3309 129.475C46.314 129.475 40.6055 122.829 40.6055 114.659ZM40.8851 114.659C40.8851 122.649 46.4682 129.15 53.3309 129.15C60.1935 129.15 65.7766 122.649 65.7766 114.659C65.7766 106.669 60.1935 100.168 53.3309 100.168C46.4682 100.168 40.8851 106.669 40.8851 114.659Z" fill="white"/>
<path d="M42.4219 114.659C42.4219 121.673 47.3053 127.359 53.3294 127.359C59.3534 127.359 64.2369 121.673 64.2369 114.659C64.2369 107.645 59.3534 101.959 53.3294 101.959C47.3053 101.959 42.4219 107.645 42.4219 114.659ZM60.4196 111.618L58.487 113.085L57.7445 111.758L60.4196 111.618ZM57.4774 119.077L57.9921 117.611L59.6126 120.093L57.4774 119.077ZM52.5289 124.103L53.8887 121.417V124.103H52.5289ZM52.5289 108.553L53.8887 105.867V108.553H52.5289ZM46.4867 120.093L48.1073 117.611L48.6219 119.077L46.4867 120.093ZM45.6798 111.618L48.3549 111.758L47.6124 113.085L45.6798 111.618Z" fill="#E6E6E6"/>
<path d="M130.38 68.9072H141.008V66.3022H130.38V68.9072Z" fill="#3F3D56"/>
<path d="M0 136.272C0 136.487 0.258782 136.659 0.581037 136.659H277.959C278.281 136.659 278.54 136.487 278.54 136.272C278.54 136.057 278.281 135.884 277.959 135.884H0.581037C0.258782 135.884 0 136.057 0 136.272Z" fill="#1F8D61"/>
<path d="M140.942 133.825L144.825 133.824L146.673 116.385L140.941 116.385L140.942 133.825Z" fill="#FFB6B6"/>
<path d="M154.246 133.722C154.367 133.959 154.431 134.725 154.431 135C154.431 135.848 153.84 136.535 153.113 136.535L141.087 136.535C140.59 136.535 140.187 136.066 140.187 135.488V134.905C140.187 134.905 139.593 133.153 140.817 130.993C140.817 130.993 142.34 132.684 144.614 130.036L145.285 128.621L150.141 132.756L152.832 133.141C153.421 133.226 153.943 133.128 154.246 133.722Z" fill="#2F2E41"/>
<path d="M123.497 133.825L127.38 133.824L129.227 116.385L123.496 116.385L123.497 133.825Z" fill="#FFB6B6"/>
<path d="M136.801 133.722C136.921 133.959 136.985 134.725 136.985 135C136.985 135.848 136.395 136.535 135.667 136.535L123.641 136.535C123.145 136.535 122.742 136.066 122.742 135.488V134.905C122.742 134.905 122.147 133.153 123.372 130.993C123.372 130.993 124.894 132.684 127.169 130.036L127.84 128.621L132.695 132.756L135.387 133.141C135.976 133.226 136.498 133.128 136.801 133.722Z" fill="#2F2E41"/>
<path d="M140.328 14.7431L141.066 22.7543L132.465 21.8959L133.939 14.457L140.328 14.7431Z" fill="#FFB6B6"/>
<path opacity="0.1" d="M140.328 14.7431L141.066 22.7543L132.465 21.8959L133.939 14.457L140.328 14.7431Z" fill="black"/>
<path d="M137.253 15.7446C140.375 15.7446 142.905 12.7984 142.905 9.16405C142.905 5.52971 140.375 2.5835 137.253 2.5835C134.132 2.5835 131.602 5.52971 131.602 9.16405C131.602 12.7984 134.132 15.7446 137.253 15.7446Z" fill="#FFB6B6"/>
<path d="M140.941 19.4643L150.401 25.9018L147.302 43.3546L149.419 66.8157L147.944 124.324L138.852 123.18L137.623 74.2546L130.497 124.896H121.668L123.125 70.2491L127.548 47.074L124.845 21.8963L133.077 18.8921L140.941 19.4643Z" fill="#FED550"/>
<path d="M141.31 11.0238C141.31 11.0238 141.801 9.02103 142.907 9.16409C144.013 9.30715 144.259 8.1627 144.013 7.59048C143.767 7.01826 143.276 4.15714 143.276 4.15714C143.276 4.15714 143.522 2.15436 142.047 1.86826C140.573 1.58214 140.081 1.29603 139.835 0.723811C139.59 0.151587 135.904 -0.420634 134.675 0.437699C133.446 1.29603 132.463 2.94286 131.603 3.40695C130.743 3.87104 130.006 4.72937 130.498 6.15992C130.989 7.59048 131.702 10.3883 131.702 10.3883C131.702 10.3883 132.955 9.87937 133.201 10.7377C133.446 11.596 132.463 10.4516 133.692 8.1627C134.921 5.87382 134.921 3.58492 136.887 4.44326C138.853 5.30159 141.064 5.01548 140.818 6.73215C140.573 8.44882 141.31 11.0238 141.31 11.0238Z" fill="#2F2E41"/>
<path d="M145.522 61.6829C144.339 63.1411 144.027 65.0337 144.824 65.9099C145.621 66.7862 147.226 66.3144 148.409 64.8555C148.889 64.2803 149.243 63.5797 149.442 62.8125L154.387 56.5605L151.817 53.9214L147.215 60.365C146.569 60.6405 145.988 61.0925 145.522 61.6829Z" fill="#FFB6B6"/>
<path d="M150.302 25.7583L158.629 42.2755L159.862 49.816L151.844 61.6653L148.452 56.6383L152.461 49.816L145.984 36.5304L150.302 25.7583Z" fill="#FED550"/>
<path d="M126.891 60.1452V40.6706C126.891 37.7023 128.965 35.2876 131.514 35.2876H157.082C159.631 35.2876 161.705 37.7023 161.705 40.6706V60.1452C161.705 63.1135 159.631 65.5282 157.082 65.5282H131.514C128.965 65.5282 126.891 63.1135 126.891 60.1452Z" fill="#FFAB87"/>
<path d="M139.326 47.5793H148.168V45.0057H139.326V47.5793Z" fill="#3F3D56"/>
<path d="M147.441 65.3556V60.2083H140.257V65.3556H147.441Z" fill="#3F3D56"/>
<path d="M147.777 40.6075V35.4602H140.593V40.6075H147.777Z" fill="#3F3D56"/>
<path d="M129.481 57.9635C130.664 59.4216 130.977 61.3142 130.18 62.1905C129.382 63.0667 127.778 62.5949 126.595 61.136C126.115 60.5608 125.761 59.8603 125.562 59.093L120.617 52.841L123.186 50.2019L127.788 56.6455C128.435 56.9211 129.016 57.373 129.481 57.9635Z" fill="#FFB6B6"/>
<path d="M124.701 22.0391L116.374 38.5563L115.141 46.0967L123.159 57.946L126.551 52.919L122.542 46.0967L129.018 32.8112L124.701 22.0391Z" fill="#FED550"/>
<path d="M21.1607 100.798C25.3312 100.798 28.7121 97.3719 28.7121 93.1456C28.7121 88.9193 25.3312 85.4932 21.1607 85.4932C16.9902 85.4932 13.6094 88.9193 13.6094 93.1456C13.6094 97.3719 16.9902 100.798 21.1607 100.798Z" fill="#FED550"/>
</svg>
