<svg width="269" height="224" viewBox="0 0 269 224" fill="none" xmlns="http://www.w3.org/2000/svg">
<path d="M267.09 13.286H1.48772C1.09329 13.2855 0.715129 13.1078 0.43622 12.7918C0.157311 12.4758 0.000431121 12.0473 0 11.6004V1.68555C0.000431121 1.23866 0.157311 0.810218 0.43622 0.494221C0.715129 0.178225 1.09329 0.000487445 1.48772 0H267.09C267.484 0.00048845 267.863 0.17823 268.142 0.494227C268.42 0.810223 268.577 1.23866 268.578 1.68555V11.6004C268.577 12.0473 268.42 12.4758 268.142 12.7918C267.863 13.1078 267.484 13.2855 267.09 13.286Z" fill="#1F8D61"/>
<path d="M8.69249 8.36518C9.89258 8.36518 10.8654 7.3738 10.8654 6.15085C10.8654 4.92791 9.89258 3.93652 8.69249 3.93652C7.4924 3.93652 6.51953 4.92791 6.51953 6.15085C6.51953 7.3738 7.4924 8.36518 8.69249 8.36518Z" fill="white"/>
<path d="M16.5128 8.36518C17.7129 8.36518 18.6858 7.3738 18.6858 6.15085C18.6858 4.92791 17.7129 3.93652 16.5128 3.93652C15.3127 3.93652 14.3398 4.92791 14.3398 6.15085C14.3398 7.3738 15.3127 8.36518 16.5128 8.36518Z" fill="white"/>
<path d="M24.7706 8.36518C25.9707 8.36518 26.9436 7.3738 26.9436 6.15085C26.9436 4.92791 25.9707 3.93652 24.7706 3.93652C23.5705 3.93652 22.5977 4.92791 22.5977 6.15085C22.5977 7.3738 23.5705 8.36518 24.7706 8.36518Z" fill="white"/>
<path d="M75.8439 196.777C76.8238 187.856 81.7074 179.065 89.2224 176.162C86.2587 185.345 86.2593 195.418 89.2242 204.6C90.379 208.137 91.9887 211.934 90.9024 215.498C90.2266 217.716 88.5733 219.413 86.7252 220.474C84.877 221.535 82.8258 222.04 80.8004 222.536L80.4018 222.909C77.1864 214.689 74.8639 205.698 75.8439 196.777Z" fill="#1F8D61"/>
<path d="M89.0432 176.52C84.6649 182.079 81.9436 189.06 81.2659 196.471C81.0951 198.063 81.1468 199.677 81.4192 201.251C81.7283 202.775 82.3919 204.177 83.341 205.312C84.2072 206.39 85.2034 207.379 85.8231 208.678C86.1317 209.347 86.3118 210.084 86.3516 210.838C86.3915 211.592 86.2901 212.347 86.0543 213.054C85.5071 214.832 84.4286 216.282 83.3305 217.658C82.1112 219.186 80.8234 220.751 80.3051 222.776C80.2423 223.021 79.91 222.897 79.9727 222.652C80.8744 219.128 83.8932 217.126 85.3329 213.952C86.0047 212.471 86.2867 210.752 85.6569 209.189C85.1062 207.822 84.0796 206.8 83.1943 205.717C82.2541 204.625 81.5641 203.289 81.1846 201.826C80.8423 200.272 80.7359 198.664 80.8698 197.07C81.1207 193.476 81.8687 189.95 83.0865 186.619C84.4577 182.809 86.394 179.293 88.8116 176.223C88.9613 176.033 89.192 176.332 89.0432 176.52Z" fill="white"/>
<path d="M81.4697 193.871C80.3605 193.591 79.3832 192.911 78.7122 191.952C78.0412 190.993 77.7203 189.817 77.8068 188.635C77.8108 188.586 77.8326 188.542 77.8676 188.51C77.9027 188.478 77.9483 188.462 77.9947 188.464C78.0412 188.467 78.085 188.488 78.1168 188.523C78.1487 188.558 78.1661 188.605 78.1654 188.653C78.0829 189.754 78.3819 190.849 79.0085 191.741C79.6351 192.633 80.5479 193.263 81.5822 193.517C81.8069 193.572 81.6931 193.926 81.4697 193.871Z" fill="white"/>
<path d="M83.0936 204.813C84.994 203.496 86.3969 201.395 87.0226 198.93C87.0844 198.686 87.4077 198.81 87.3459 199.054C86.6907 201.618 85.227 203.801 83.2468 205.167C83.0579 205.297 82.9058 204.943 83.0936 204.813Z" fill="white"/>
<path d="M84.9785 183.25C85.3828 183.493 85.8284 183.606 86.2754 183.577C86.7224 183.548 87.1567 183.379 87.5395 183.085C87.7354 182.933 87.8942 183.337 87.6996 183.488C87.2756 183.811 86.7957 183.997 86.3019 184.03C85.8081 184.063 85.3154 183.943 84.8669 183.679C84.823 183.658 84.7868 183.617 84.7658 183.564C84.7447 183.511 84.7404 183.45 84.7536 183.393C84.7686 183.337 84.8007 183.29 84.8428 183.263C84.8849 183.236 84.9337 183.231 84.9785 183.25Z" fill="white"/>
<path d="M112.125 192.356C112.006 192.443 111.886 192.529 111.767 192.618C110.172 193.786 108.664 195.095 107.259 196.534C107.149 196.644 107.039 196.756 106.931 196.869C103.58 200.376 100.843 204.545 98.8588 209.164C98.0709 211.003 97.4099 212.906 96.8815 214.857C96.1519 217.55 95.5534 220.535 94.1092 222.739C93.9608 222.97 93.7997 223.192 93.6268 223.401H80.5752C80.5456 223.385 80.5158 223.371 80.486 223.355L79.9648 223.381C79.9858 223.279 80.0095 223.173 80.0304 223.07C80.0424 223.01 80.0572 222.951 80.0691 222.891C80.078 222.851 80.087 222.812 80.093 222.775C80.0959 222.762 80.0989 222.749 80.1018 222.739C80.1078 222.702 80.1168 222.669 80.1228 222.636C80.2538 222.043 80.3887 221.45 80.5277 220.857C80.5277 220.853 80.5277 220.853 80.5306 220.85C81.5506 216.32 83.0499 211.94 84.9972 207.803C85.0569 207.68 85.1163 207.554 85.1819 207.432C86.0836 205.6 87.1184 203.854 88.2758 202.21C88.9122 201.312 89.589 200.451 90.3037 199.629C92.154 197.51 94.2923 195.727 96.6403 194.348C101.321 191.598 106.741 190.544 111.744 192.224C111.872 192.267 111.997 192.31 112.125 192.356Z" fill="#1F8D61"/>
<path d="M111.972 192.31C105.485 193.765 99.5698 197.492 95.0653 202.961C94.077 204.119 93.2566 205.446 92.6341 206.892C92.068 208.323 91.8515 209.9 92.0071 211.457C92.1264 212.913 92.3977 214.387 92.2017 215.85C92.0915 216.597 91.8427 217.309 91.4717 217.94C91.1006 218.571 90.6156 219.107 90.0486 219.511C88.6588 220.561 87.0182 220.983 85.4011 221.334C83.6056 221.723 81.7352 222.095 80.2367 223.361C80.0551 223.515 79.8549 223.188 80.0362 223.034C82.6434 220.83 86.1371 221.293 88.9893 219.737C90.3202 219.011 91.4654 217.827 91.7951 216.145C92.0834 214.674 91.8048 213.154 91.6727 211.682C91.5011 210.165 91.661 208.623 92.1384 207.192C92.6937 205.714 93.4676 204.354 94.4268 203.17C96.5488 200.464 99.0342 198.153 101.792 196.319C104.929 194.207 108.363 192.717 111.945 191.913C112.167 191.863 112.192 192.26 111.972 192.31Z" fill="white"/>
<path d="M96.5439 201.184C95.9237 200.228 95.5927 199.024 95.61 197.788C95.6273 196.552 95.9918 195.364 96.6384 194.436C96.7697 194.248 97.0061 194.497 96.8746 194.685C96.2712 195.548 95.9318 196.655 95.9175 197.806C95.9033 198.957 96.2151 200.077 96.7968 200.963C96.923 201.156 96.6694 201.376 96.5439 201.184Z" fill="white"/>
<path d="M91.9051 210.643C94.2068 210.922 96.5178 210.22 98.3774 208.679C98.5615 208.526 98.7641 208.853 98.5802 209.006C96.6424 210.606 94.2361 211.33 91.8415 211.035C91.6132 211.006 91.6781 210.615 91.9051 210.643Z" fill="white"/>
<path d="M105.063 194.942C105.272 195.36 105.576 195.718 105.95 195.983C106.323 196.248 106.754 196.411 107.202 196.459C107.433 196.483 107.367 196.852 107.138 196.829C106.643 196.774 106.168 196.592 105.754 196.301C105.341 196.009 105.003 195.616 104.768 195.156C104.742 195.114 104.733 195.064 104.741 195.016C104.75 194.967 104.775 194.924 104.813 194.894C104.853 194.866 104.901 194.855 104.947 194.864C104.994 194.873 105.036 194.901 105.063 194.942Z" fill="white"/>
<path d="M87.1613 68.3903H44.518C43.3533 68.3888 42.2225 67.8669 41.3784 66.9151C40.5326 65.9614 40.0483 64.6568 40.0469 63.2854V37.0972C40.0483 35.7258 40.5326 34.4213 41.3784 33.4677C42.2225 32.516 43.3531 31.9942 44.5177 31.9927H87.1617C88.3263 31.9942 89.4569 32.516 90.3009 33.4677C91.1468 34.4214 91.6311 35.7259 91.6325 37.0974V63.2851C91.6311 64.6567 91.1468 65.9613 90.301 66.9151C89.4569 67.8669 88.3261 68.3888 87.1613 68.3903Z" stroke="#1F8D61"/>
<path d="M152.353 68.8903H109.709C108.391 68.8886 107.128 68.2975 106.196 67.2468C105.264 66.1961 104.74 64.7715 104.738 63.2856V37.097C104.74 35.6111 105.264 34.1866 106.196 33.1359C107.128 32.0853 108.391 31.4943 109.709 31.4927H152.353C153.671 31.4943 154.935 32.0853 155.866 33.1359C156.798 34.1866 157.322 35.6111 157.324 37.0969V63.2856C157.322 64.7715 156.798 66.1961 155.866 67.2468C154.935 68.2975 153.671 68.8886 152.353 68.8903Z" fill="#1F8D61"/>
<path d="M217.54 68.3903H174.897C173.732 68.3888 172.601 67.8669 171.757 66.9151C170.912 65.9614 170.427 64.6568 170.426 63.2854V37.0972C170.427 35.7258 170.912 34.4213 171.757 33.4677C172.601 32.516 173.732 31.9942 174.897 31.9927H217.541C218.705 31.9942 219.836 32.516 220.68 33.4677C221.526 34.4214 222.01 35.7259 222.011 37.0974V63.2851C222.01 64.6567 221.526 65.9613 220.68 66.9151C219.836 67.8669 218.705 68.3888 217.54 68.3903Z" stroke="#1F8D61"/>
<path d="M87.1613 127.439H44.518C43.3557 127.438 42.2255 126.91 41.3805 125.945C40.5338 124.978 40.0483 123.654 40.0469 122.261V95.7281C40.0483 94.3353 40.5338 93.0112 41.3806 92.044C42.2254 91.0789 43.3555 90.5513 44.5177 90.5498H87.1617C88.3239 90.5513 89.454 91.0789 90.2988 92.044C91.1456 93.0113 91.6311 94.3354 91.6325 95.7283V122.261C91.6311 123.653 91.1456 124.978 90.2988 125.945C89.4539 126.91 88.3237 127.438 87.1613 127.439Z" stroke="#1F8D61"/>
<path d="M152.353 127.439H109.709C108.547 127.438 107.417 126.91 106.572 125.945C105.725 124.978 105.24 123.654 105.238 122.261V95.7281C105.24 94.3353 105.725 93.0112 106.572 92.044C107.417 91.0789 108.547 90.5513 109.709 90.5498H152.353C153.515 90.5513 154.645 91.0789 155.49 92.044C156.337 93.0113 156.823 94.3354 156.824 95.7283V122.261C156.823 123.653 156.337 124.978 155.49 125.945C154.645 126.91 153.515 127.438 152.353 127.439Z" stroke="#1F8D61"/>
<path d="M155.286 132.632C159.499 132.632 162.915 128.764 162.915 123.993C162.915 119.222 159.499 115.354 155.286 115.354C151.072 115.354 147.656 119.222 147.656 123.993C147.656 128.764 151.072 132.632 155.286 132.632Z" fill="#1F8D61"/>
<path d="M158.453 123.268H155.859V120.331C155.859 120.24 155.843 120.15 155.812 120.066C155.782 119.982 155.737 119.906 155.68 119.842C155.623 119.778 155.556 119.727 155.482 119.692C155.408 119.657 155.329 119.639 155.248 119.639C155.168 119.639 155.089 119.657 155.015 119.692C154.941 119.727 154.873 119.778 154.817 119.842C154.76 119.906 154.715 119.982 154.684 120.066C154.654 120.15 154.638 120.24 154.638 120.331V123.268H152.044C151.964 123.268 151.884 123.286 151.81 123.32C151.736 123.355 151.669 123.406 151.612 123.47C151.556 123.534 151.511 123.61 151.48 123.694C151.449 123.778 151.434 123.868 151.434 123.959C151.434 124.05 151.449 124.139 151.48 124.223C151.511 124.307 151.556 124.383 151.612 124.447C151.669 124.512 151.736 124.563 151.81 124.597C151.884 124.632 151.964 124.65 152.044 124.65H154.638V127.587C154.638 127.678 154.654 127.768 154.684 127.852C154.715 127.935 154.76 128.012 154.817 128.076C154.873 128.14 154.941 128.191 155.015 128.226C155.089 128.26 155.168 128.278 155.248 128.278C155.41 128.278 155.566 128.205 155.68 128.076C155.794 127.946 155.859 127.77 155.859 127.587V124.65H158.453C158.533 124.65 158.612 124.632 158.686 124.597C158.76 124.563 158.828 124.512 158.884 124.447C158.941 124.383 158.986 124.307 159.017 124.223C159.047 124.139 159.063 124.05 159.063 123.959C159.063 123.868 159.047 123.778 159.017 123.694C158.986 123.61 158.941 123.534 158.884 123.47C158.828 123.406 158.76 123.355 158.686 123.32C158.612 123.286 158.533 123.268 158.453 123.268Z" fill="white"/>
<path d="M221.508 75.4505C225.722 75.4505 229.138 71.5829 229.138 66.8119C229.138 62.041 225.722 58.1733 221.508 58.1733C217.295 58.1733 213.879 62.041 213.879 66.8119C213.879 71.5829 217.295 75.4505 221.508 75.4505Z" fill="#1F8D61"/>
<path d="M224.675 66.0865H222.081V63.1494C222.081 63.0586 222.066 62.9688 222.035 62.8849C222.004 62.8011 221.959 62.7249 221.903 62.6607C221.846 62.5965 221.779 62.5456 221.705 62.5109C221.631 62.4761 221.551 62.4583 221.471 62.4583C221.391 62.4583 221.311 62.4761 221.237 62.5109C221.163 62.5456 221.096 62.5965 221.039 62.6607C220.983 62.7249 220.938 62.8011 220.907 62.8849C220.876 62.9688 220.861 63.0586 220.861 63.1494V66.0865H218.267C218.186 66.0865 218.107 66.1044 218.033 66.1391C217.959 66.1738 217.892 66.2247 217.835 66.2889C217.778 66.3531 217.733 66.4293 217.703 66.5131C217.672 66.597 217.656 66.6869 217.656 66.7776C217.656 66.8684 217.672 66.9583 217.703 67.0421C217.733 67.126 217.778 67.2022 217.835 67.2663C217.892 67.3305 217.959 67.3814 218.033 67.4162C218.107 67.4509 218.186 67.4688 218.267 67.4688H220.861V70.4059C220.861 70.4966 220.876 70.5865 220.907 70.6704C220.938 70.7542 220.983 70.8304 221.039 70.8946C221.096 70.9588 221.163 71.0097 221.237 71.0444C221.311 71.0791 221.391 71.097 221.471 71.097C221.633 71.097 221.788 71.0242 221.903 70.8946C222.017 70.765 222.081 70.5892 222.081 70.4059V67.4687H224.675C224.756 67.4687 224.835 67.4509 224.909 67.4161C224.983 67.3814 225.05 67.3305 225.107 67.2663C225.164 67.2021 225.209 67.1259 225.239 67.0421C225.27 66.9582 225.286 66.8684 225.286 66.7776C225.286 66.6868 225.27 66.597 225.239 66.5131C225.209 66.4293 225.164 66.3531 225.107 66.2889C225.05 66.2247 224.983 66.1738 224.909 66.1391C224.835 66.1044 224.756 66.0865 224.675 66.0865Z" fill="white"/>
<path d="M90.0709 74.6932C94.2845 74.6932 97.7003 70.8255 97.7003 66.0546C97.7003 61.2836 94.2845 57.416 90.0709 57.416C85.8572 57.416 82.4414 61.2836 82.4414 66.0546C82.4414 70.8255 85.8572 74.6932 90.0709 74.6932Z" fill="#1F8D61"/>
<path d="M93.238 65.3292H90.6439V62.3921C90.6439 62.3013 90.6282 62.2114 90.5975 62.1276C90.5668 62.0437 90.5218 61.9675 90.4652 61.9034C90.4085 61.8392 90.3412 61.7883 90.2671 61.7535C90.1931 61.7188 90.1137 61.7009 90.0336 61.7009C89.9534 61.7009 89.874 61.7188 89.8 61.7535C89.7259 61.7883 89.6586 61.8392 89.6019 61.9034C89.5453 61.9675 89.5003 62.0437 89.4696 62.1276C89.439 62.2114 89.4232 62.3013 89.4232 62.3921V65.3292H86.8291C86.749 65.3292 86.6696 65.3471 86.5956 65.3818C86.5215 65.4165 86.4542 65.4674 86.3975 65.5316C86.3409 65.5958 86.2959 65.672 86.2652 65.7558C86.2345 65.8397 86.2188 65.9295 86.2188 66.0203C86.2187 66.2036 86.2831 66.3794 86.3975 66.509C86.512 66.6386 86.6673 66.7114 86.8291 66.7114H89.4231V69.6485C89.4231 69.7393 89.4389 69.8292 89.4696 69.913C89.5003 69.9969 89.5453 70.0731 89.6019 70.1373C89.6586 70.2014 89.7259 70.2523 89.8 70.2871C89.874 70.3218 89.9534 70.3397 90.0335 70.3397C90.1137 70.3397 90.1931 70.3218 90.2671 70.2871C90.3412 70.2523 90.4085 70.2014 90.4652 70.1373C90.5218 70.0731 90.5668 69.9969 90.5975 69.913C90.6282 69.8292 90.6439 69.7393 90.6439 69.6486V66.7114H93.238C93.3181 66.7114 93.3975 66.6935 93.4715 66.6588C93.5456 66.6241 93.6129 66.5732 93.6696 66.509C93.7263 66.4448 93.7712 66.3686 93.8019 66.2848C93.8326 66.2009 93.8484 66.111 93.8484 66.0203C93.8484 65.837 93.784 65.6612 93.6696 65.5316C93.5551 65.402 93.3998 65.3292 93.238 65.3292Z" fill="white"/>
<path d="M147.177 54.0457C147.314 54.5199 147.358 55.0227 147.307 55.5188C147.256 56.0148 147.11 56.4919 146.88 56.9165C146.651 57.3412 146.342 57.703 145.977 57.9766C145.611 58.2501 145.198 58.4287 144.766 58.4998L141.292 85.621L135.594 82.4377L141.325 55.3656C141.269 54.5272 141.484 53.6943 141.928 53.0248C142.373 52.3552 143.017 51.8956 143.738 51.7329C144.46 51.5702 145.208 51.7158 145.842 52.142C146.476 52.5683 146.951 53.2457 147.177 54.0457Z" fill="#FFB8B8"/>
<path d="M105.229 141.242C105.494 140.834 105.675 140.368 105.758 139.877C105.841 139.385 105.825 138.879 105.71 138.395C105.596 137.911 105.385 137.46 105.095 137.074C104.804 136.689 104.44 136.378 104.027 136.163L106.477 107.272L101.346 110.154L99.744 137.995C99.461 138.777 99.45 139.647 99.7129 140.438C99.9758 141.23 100.494 141.888 101.171 142.288C101.847 142.688 102.633 142.803 103.381 142.61C104.129 142.417 104.787 141.93 105.229 141.242Z" fill="#FFB8B8"/>
<path d="M108.541 126.955L130.01 126.023L131.248 100.875H106.477L108.541 126.955Z" fill="#FFB8B8"/>
<path d="M104.301 215.529L108.13 215.528L109.95 199.782H104.301L104.301 215.529Z" fill="#FFB8B8"/>
<path d="M103.725 213.46L109.473 213.068V215.883L114.939 220.196C115.209 220.409 115.412 220.715 115.519 221.07C115.626 221.424 115.631 221.809 115.533 222.166C115.436 222.524 115.241 222.837 114.976 223.059C114.712 223.282 114.393 223.401 114.065 223.401H107.221L106.041 220.617L105.58 223.401H103L103.725 213.46Z" fill="#2F2E41"/>
<path d="M120.817 215.529L124.351 215.528L126.032 199.782H120.816L120.817 215.529Z" fill="#FFB8B8"/>
<path d="M108.195 121.079C108.195 121.079 101.848 126.914 105.289 147.754C104.765 147.825 105.358 149.001 105.358 149.001L105.855 165.981L106.238 167.927L104.963 171.068L105.488 174.48L103.867 205.446L109.856 206.328L115.588 174.171L116.68 170.556L117.774 167.387L117.184 164.007L117.668 158.762L120.972 141.076L121.781 171.75L120.653 174.679L121.281 177.893L119.881 179.6L119.328 208.299L125.715 208.64L130.999 179.708L130.589 176.016L131.292 173.287V166.91L132.496 163.901L135.121 147.492C135.121 147.492 135.913 134.666 130.135 119.574L108.195 121.079Z" fill="#2F2E41"/>
<path d="M110.782 79.7158C110.782 79.7158 102.746 81.5378 101.361 89.3947C99.9768 97.2517 99.0859 115.031 99.0859 115.031L99.3892 117.507L107.162 119.574L112.124 94.6614L110.782 79.7158Z" fill="#FED550"/>
<path d="M129.074 82.541C129.074 82.541 129.909 81.2412 134.586 81.0407C134.779 81.0325 134.54 80.6082 134.54 80.6082L136.789 68.3984L144.285 73.0076L143.02 85.808L130.703 101.367L129.074 82.541Z" fill="#FED550"/>
<path d="M124.727 118.59C121.251 118.59 116.018 118.158 108.14 116.842C107.633 116.755 107.163 116.489 106.8 116.081C106.436 115.673 106.198 115.145 106.121 114.574C105.863 114.268 105.696 113.881 105.641 113.464C105.587 113.048 105.647 112.622 105.815 112.246L105.822 112.23L105.643 111.993C105.367 111.628 105.205 111.171 105.182 110.692C105.158 110.214 105.275 109.74 105.514 109.343L103.074 89.6969C102.826 87.7461 103.205 85.7598 104.143 84.0953C105.08 82.4309 106.514 81.1976 108.187 80.6173L109.088 80.3016L112.494 75.2871L112.561 75.288L123.495 75.4518L127.043 80.5237L132.779 82.0461L132.794 82.1443L134.126 90.8054C134.818 95.3101 133.23 97.0822 131.202 101.044L131.797 112.169L132.067 112.721C132.217 113.027 132.267 113.382 132.209 113.725C132.151 114.068 131.988 114.377 131.749 114.599C131.93 115.181 131.942 115.813 131.784 116.403L131.644 116.925C131.644 116.94 131.607 117.152 131.304 117.411C130.758 117.878 129.19 118.59 124.727 118.59Z" fill="#FED550"/>
<path d="M119.803 213.46L125.552 213.068V215.883L131.017 220.196C131.287 220.409 131.49 220.715 131.597 221.07C131.704 221.424 131.709 221.809 131.612 222.166C131.514 222.524 131.319 222.837 131.055 223.059C130.79 223.282 130.471 223.401 130.143 223.401H123.299L122.119 220.617L121.659 223.401H119.078L119.803 213.46Z" fill="#2F2E41"/>
<path d="M125.909 64.5038C126.664 59.2341 123.504 54.269 118.85 53.4138C114.195 52.5587 109.81 56.1374 109.055 61.4071C108.3 66.6768 111.46 71.642 116.115 72.4971C120.769 73.3522 125.154 69.7735 125.909 64.5038Z" fill="#FFB8B8"/>
<path d="M122.424 53.5729C119.298 51.1378 116.544 50.7669 114.283 51.4575C113.989 50.944 113.578 50.5305 113.093 50.2616C111.329 45.2283 105.961 42.2055 101.355 43.6749C96.7179 45.1538 93.5188 50.9701 94.3912 56.3349C94.9319 59.6603 96.7799 62.5399 97.5232 65.8147C98.9621 72.1542 95.452 79.4161 89.9609 81.4596C95.16 82.6418 100.883 79.0455 102.748 73.4239C103.654 70.6934 103.709 67.7123 103.824 64.7984C103.854 62.787 104.072 60.7849 104.473 58.8253C104.672 57.9462 104.953 57.0936 105.312 56.2821C106.094 54.4982 107.392 53.0719 108.99 52.2411C108.847 52.7424 108.811 53.275 108.886 53.795C108.96 54.315 109.143 54.8074 109.419 55.2318C108.199 56.9615 107.536 58.832 107.536 59.9522C105.003 65.1947 108.625 69.6977 113.254 72.566C115.101 73.7161 117.233 74.137 119.314 73.7624L119.508 72.8261L119.77 73.6695L120.646 76.4969C121.656 77.0505 122.658 77.6574 123.651 78.3175C123.274 76.3112 122.969 74.3085 122.759 72.3505C122.468 69.6855 123.482 65.7181 124.213 63.3053C124.666 61.8183 124.899 60.2566 124.901 58.6835V58.6147L125.613 61.2043L128.205 59.9522C127.723 56.8202 128.205 53.2645 122.424 53.5729Z" fill="#2F2E41"/>
<path d="M229.069 223.893H39.5092C39.404 223.893 39.3033 223.841 39.2291 223.748C39.1549 223.656 39.1133 223.531 39.1133 223.401C39.1133 223.271 39.1549 223.146 39.2291 223.054C39.3033 222.962 39.404 222.91 39.5092 222.909H229.069C229.174 222.91 229.275 222.962 229.349 223.054C229.423 223.146 229.465 223.271 229.465 223.401C229.465 223.531 229.423 223.656 229.349 223.748C229.275 223.841 229.174 223.893 229.069 223.893Z" fill="#1F8D61"/>
</svg>
