<svg width="326" height="272" viewBox="0 0 326 272" fill="none" xmlns="http://www.w3.org/2000/svg">
<g clip-path="url(#clip0_2660_8890)">
<path d="M291.827 248.602L266.805 230.872C275.244 222.637 282.919 210.91 290.26 197.65L315.282 215.38C305.284 226.756 296.814 237.92 291.827 248.602Z" fill="#1F8D61"/>
<path d="M291.834 229.726C295.913 229.726 299.22 226.413 299.22 222.327C299.22 218.241 295.913 214.929 291.834 214.929C287.756 214.929 284.449 218.241 284.449 222.327C284.449 226.413 287.756 229.726 291.834 229.726Z" fill="white"/>
<path d="M171.123 167.696H168.376C168.279 167.696 168.187 167.735 168.118 167.803C168.05 167.872 168.012 167.964 168.012 168.061V169.269C168.012 169.317 168.021 169.364 168.039 169.409C168.058 169.453 168.085 169.493 168.118 169.527C168.152 169.561 168.192 169.588 168.237 169.606C168.281 169.624 168.328 169.634 168.376 169.634H168.831V171.443H170.667V169.634H171.123C171.219 169.634 171.312 169.595 171.38 169.527C171.448 169.458 171.487 169.366 171.487 169.269V168.061C171.487 167.964 171.448 167.872 171.38 167.803C171.312 167.735 171.219 167.696 171.123 167.696Z" fill="#E6E6E6"/>
<path d="M173.875 178.75C172.193 176.284 171.333 173.348 171.418 170.362C171.42 170.293 171.397 170.226 171.355 170.172C171.313 170.118 171.253 170.08 171.186 170.065V169.543H168.285V170.057H168.245C168.206 170.057 168.167 170.065 168.131 170.08C168.095 170.095 168.062 170.117 168.034 170.145C168.007 170.173 167.985 170.206 167.97 170.242C167.955 170.278 167.948 170.317 167.948 170.356C167.948 170.363 167.948 170.37 167.948 170.378C168.216 173.424 167.396 176.467 165.633 178.964C165.531 179.109 165.479 179.284 165.485 179.462L165.802 189.291C165.81 189.511 165.901 189.718 166.058 189.871C166.215 190.024 166.425 190.111 166.644 190.113H173.205C173.427 190.111 173.639 190.022 173.796 189.866C173.954 189.71 174.044 189.499 174.048 189.277L174.17 179.733C174.174 179.383 174.071 179.04 173.875 178.75Z" fill="#1F8D61"/>
<path opacity="0.2" d="M170.552 168.09C170.552 168.299 170.469 168.499 170.322 168.646C170.174 168.794 169.974 168.877 169.766 168.877C169.558 168.877 169.358 168.794 169.211 168.646C169.063 168.499 168.98 168.299 168.98 168.09" fill="black"/>
<path d="M172.597 180.644H167.059V184.343H172.597V180.644Z" fill="white"/>
<path d="M258.042 206.096H252.9C252.72 206.096 252.546 206.168 252.418 206.296C252.291 206.424 252.219 206.598 252.219 206.779V209.04C252.219 209.221 252.291 209.395 252.418 209.523C252.546 209.651 252.72 209.723 252.9 209.723H253.752V213.11H257.19V209.723H258.042C258.223 209.723 258.396 209.651 258.524 209.523C258.652 209.395 258.724 209.221 258.724 209.04V206.779C258.724 206.598 258.652 206.424 258.524 206.296C258.396 206.168 258.223 206.096 258.042 206.096Z" fill="#E6E6E6"/>
<path d="M263.194 226.787C260.045 222.171 258.436 216.676 258.596 211.087C258.599 210.958 258.557 210.832 258.477 210.73C258.398 210.629 258.286 210.558 258.161 210.53V209.553H252.73V210.516H252.656C252.582 210.516 252.51 210.531 252.442 210.559C252.375 210.587 252.313 210.628 252.262 210.68C252.21 210.732 252.169 210.794 252.141 210.861C252.113 210.929 252.099 211.002 252.099 211.075C252.099 211.089 252.1 211.102 252.101 211.116C252.528 217.09 251.084 222.447 247.767 227.188C247.576 227.46 247.479 227.788 247.489 228.12L248.083 246.52C248.097 246.931 248.269 247.32 248.563 247.606C248.856 247.893 249.249 248.054 249.659 248.058H261.941C262.356 248.054 262.753 247.889 263.047 247.596C263.342 247.304 263.511 246.908 263.519 246.493L263.747 228.628C263.754 227.973 263.561 227.33 263.194 226.787Z" fill="#1F8D61"/>
<path opacity="0.2" d="M256.973 206.833C256.973 207.224 256.818 207.598 256.542 207.875C256.266 208.151 255.892 208.306 255.502 208.306C255.112 208.306 254.738 208.151 254.462 207.875C254.186 207.598 254.031 207.224 254.031 206.833" fill="black"/>
<path d="M261.249 232.899H250.559C250.4 232.899 250.244 232.933 250.1 233C249.956 233.066 249.829 233.162 249.726 233.283C249.622 233.403 249.547 233.544 249.503 233.697C249.46 233.849 249.45 234.009 249.474 234.166L251.089 244.686H260.366L262.328 234.201C262.358 234.043 262.352 233.879 262.312 233.723C262.271 233.566 262.197 233.421 262.094 233.297C261.991 233.172 261.862 233.072 261.716 233.003C261.57 232.935 261.411 232.899 261.249 232.899Z" fill="white"/>
<path d="M243.375 248.574H212.727C214.869 236.968 214.376 222.953 212.727 207.882H243.375C241.769 222.953 241.289 236.968 243.375 248.574Z" fill="#1F8D61"/>
<path d="M228.233 234.516C232.312 234.516 235.618 231.204 235.618 227.118C235.618 223.032 232.312 219.719 228.233 219.719C224.154 219.719 220.848 223.032 220.848 227.118C220.848 231.204 224.154 234.516 228.233 234.516Z" fill="white"/>
<path d="M118.016 120.51L124.896 119.883L129.274 109.231L121.456 104.845L118.016 120.51Z" fill="#FFB8B8"/>
<path d="M181.157 149.754C181.386 149.182 181.476 148.564 181.419 147.951C181.363 147.338 181.162 146.747 180.833 146.227C180.504 145.707 180.056 145.272 179.526 144.96C178.997 144.647 178.401 144.465 177.787 144.428L167.104 143.79L165.531 149.03L176.529 152.055C177.448 152.308 178.427 152.213 179.281 151.789C180.134 151.364 180.802 150.64 181.157 149.754Z" fill="#FFB8B8"/>
<path d="M169.686 152.143L169.569 142.311L145.84 138.518L127.56 117.515C126.609 116.422 125.294 115.711 123.861 115.515C122.427 115.318 120.97 115.649 119.761 116.446C119.029 116.929 118.412 117.566 117.953 118.314C117.494 119.062 117.204 119.902 117.105 120.774C117.006 121.646 117.099 122.529 117.377 123.361C117.656 124.194 118.114 124.954 118.719 125.59L133.8 144.183L169.686 152.143Z" fill="#FED550"/>
<path d="M112.695 262.753H118.95L134.465 192.481L150.537 214.19L159.92 261.186H165.862L164.611 210.743L143.657 156.854H123.016C117.375 167.081 112.95 177.623 118.012 188.498L112.695 262.753Z" fill="#2F2E41"/>
<path d="M156.086 267.021C156.017 267.242 155.996 267.476 156.024 267.707C156.052 267.937 156.129 268.159 156.249 268.358C156.37 268.556 156.531 268.727 156.722 268.858C156.914 268.989 157.131 269.078 157.359 269.119L172.665 271.84C173.269 271.951 173.894 271.836 174.42 271.517C174.946 271.199 175.338 270.699 175.521 270.111C175.7 269.549 175.675 268.942 175.451 268.397C175.227 267.852 174.819 267.403 174.297 267.129C170.932 265.398 168.036 262.876 165.857 259.778C164.174 261.347 162.294 261.199 160.298 260.043L158.18 260.308L156.086 267.021Z" fill="#2F2E41"/>
<path d="M109.801 267.021C109.732 267.242 109.71 267.476 109.739 267.707C109.767 267.937 109.844 268.159 109.964 268.358C110.084 268.556 110.246 268.727 110.437 268.858C110.628 268.989 110.845 269.078 111.074 269.119L126.379 271.84C126.984 271.951 127.609 271.836 128.135 271.517C128.661 271.199 129.053 270.699 129.236 270.111C129.415 269.549 129.39 268.942 129.166 268.397C128.942 267.852 128.534 267.403 128.012 267.129C124.647 265.398 121.751 262.876 119.571 259.778C117.889 261.347 116.009 261.199 114.013 260.043L111.895 260.308L109.801 267.021Z" fill="#2F2E41"/>
<path d="M129.429 113.147C134.265 113.147 138.186 109.22 138.186 104.375C138.186 99.5297 134.265 95.6021 129.429 95.6021C124.592 95.6021 120.672 99.5297 120.672 104.375C120.672 109.22 124.592 113.147 129.429 113.147Z" fill="#FFB8B8"/>
<path d="M121.61 159.204L144.44 158.577L137.735 137.437C141.902 130.746 137.709 124.061 131.774 117.377L127.083 114.244L119.577 113.617C116.327 117.101 114.549 121.709 114.615 126.477C114.764 136.686 116.568 147.8 121.61 159.204Z" fill="#FED550"/>
<path d="M174.066 173.433C174.501 172.998 174.826 172.465 175.015 171.879C175.204 171.293 175.251 170.671 175.153 170.063C175.054 169.455 174.813 168.879 174.449 168.383C174.085 167.887 173.609 167.484 173.059 167.209L163.488 162.412L159.984 166.609L168.907 173.725C169.652 174.32 170.59 174.619 171.542 174.565C172.493 174.511 173.392 174.108 174.066 173.433Z" fill="#FFB8B8"/>
<path d="M162.578 171.11L166.331 162.024L146.005 149.185L137.446 122.671C137.001 121.291 136.072 120.12 134.83 119.374C133.589 118.629 132.12 118.359 130.696 118.615C129.833 118.77 129.016 119.113 128.3 119.62C127.584 120.126 126.988 120.784 126.555 121.547C126.121 122.309 125.859 123.158 125.789 124.033C125.718 124.908 125.841 125.788 126.147 126.611L132.711 149.648L162.578 171.11Z" fill="#FED550"/>
<path d="M115.043 100.928C115.043 104.342 117.256 109.628 120.047 111.894C121.925 113.419 124.407 113.355 125.364 111.267C126.345 109.126 129.729 104.094 135.684 100.928C143.623 96.7082 132.869 89.4882 125.364 90.5891C119.724 91.4164 115.043 95.2181 115.043 100.928Z" fill="#2F2E41"/>
<path d="M120.36 96.2287C123.815 96.2287 126.615 93.4232 126.615 89.9625C126.615 86.5018 123.815 83.6963 120.36 83.6963C116.906 83.6963 114.105 86.5018 114.105 89.9625C114.105 93.4232 116.906 96.2287 120.36 96.2287Z" fill="#2F2E41"/>
<path d="M127.551 87.7694C127.551 86.1896 126.954 84.6684 125.881 83.5108C124.808 82.3531 123.338 81.6445 121.766 81.5269C121.921 81.5153 122.076 81.5032 122.235 81.5032C123.894 81.5032 125.485 82.1634 126.658 83.3385C127.831 84.5136 128.49 86.1075 128.49 87.7694C128.49 89.4313 127.831 91.0251 126.658 92.2002C125.485 93.3753 123.894 94.0355 122.235 94.0355C122.076 94.0355 121.921 94.0234 121.766 94.0118C123.338 93.8942 124.808 93.1856 125.881 92.0279C126.954 90.8703 127.551 89.3491 127.551 87.7694Z" fill="#2F2E41"/>
<path d="M129.587 107.508C130.364 107.508 130.994 106.666 130.994 105.628C130.994 104.59 130.364 103.748 129.587 103.748C128.81 103.748 128.18 104.59 128.18 105.628C128.18 106.666 128.81 107.508 129.587 107.508Z" fill="#FFB8B8"/>
<path d="M306.807 251.261H209.438L188.819 153.614H171.223V149.232H192.365L212.983 246.879H306.807V251.261Z" fill="#3F3D56"/>
<path d="M223.704 269.1C228.88 269.1 233.076 264.897 233.076 259.711C233.076 254.526 228.88 250.322 223.704 250.322C218.528 250.322 214.332 254.526 214.332 259.711C214.332 264.897 218.528 269.1 223.704 269.1Z" fill="#3F3D56"/>
<path d="M293.685 269.1C298.861 269.1 303.057 264.897 303.057 259.711C303.057 254.526 298.861 250.322 293.685 250.322C288.509 250.322 284.312 254.526 284.312 259.711C284.312 264.897 288.509 269.1 293.685 269.1Z" fill="#3F3D56"/>
<path d="M305.032 249.198H210.297L193.582 166.446H320.718C321.367 166.446 322.008 166.586 322.597 166.858C323.186 167.13 323.709 167.527 324.131 168.021C324.553 168.515 324.863 169.094 325.039 169.72C325.216 170.345 325.256 171.001 325.155 171.643L309.468 245.397C309.306 246.458 308.769 247.425 307.955 248.123C307.141 248.821 306.103 249.202 305.032 249.198ZM211.326 247.946H305.032C305.805 247.949 306.554 247.674 307.142 247.17C307.729 246.667 308.117 245.968 308.233 245.202L323.92 171.449C323.993 170.985 323.964 170.512 323.837 170.06C323.709 169.609 323.486 169.191 323.181 168.834C322.877 168.478 322.499 168.191 322.074 167.995C321.649 167.799 321.186 167.697 320.718 167.697H195.099L211.326 247.946Z" fill="#3F3D56"/>
<path d="M228.712 248.933L217.766 167.173L218.998 166.969L229.945 248.729L228.712 248.933Z" fill="#3F3D56"/>
<path d="M289.578 248.305L288.344 248.105L298.971 166.971L300.204 167.172L289.578 248.305Z" fill="#3F3D56"/>
<path d="M260.578 167.071H259.328V248.831H260.578V167.071Z" fill="#3F3D56"/>
<path d="M199.964 188.979L199.961 190.231L320.923 190.525L320.926 189.273L199.964 188.979Z" fill="#3F3D56"/>
<path d="M312.389 227.651L206.121 228.379L206.13 229.631L312.398 228.903L312.389 227.651Z" fill="#3F3D56"/>
<path d="M173.096 154.553C176.891 154.553 179.969 152.871 179.969 150.797C179.969 148.723 176.891 147.041 173.096 147.041C169.3 147.041 166.223 148.723 166.223 150.797C166.223 152.871 169.3 154.553 173.096 154.553Z" fill="#3F3D56"/>
</g>
<defs>
<clipPath id="clip0_2660_8890">
<rect width="325.208" height="271.881" fill="white"/>
</clipPath>
</defs>
</svg>
